<svg width="100" height="100" viewBox="0 0 100 100" fill="none" xmlns="http://www.w3.org/2000/svg">
<path d="M36 36.3556C36 36.3556 49.6166 22.5194 49.8063 6.93207C49.9959 -8.65522 105.778 15.699 97.0789 38.3022C97.0789 38.3022 77.2202 52.334 77.979 65" fill="#45207F"/>
<path d="M36 36.3556C36 36.3556 49.6166 22.5194 49.8063 6.93207C49.9959 -8.65522 105.778 15.699 97.0789 38.3022C97.0789 38.3022 77.2202 52.334 77.979 65" stroke="black" stroke-width="2" stroke-miterlimit="10"/>
<path d="M80 56.4952C65.4068 31.1001 39.8491 31 39.8491 31L36 35.6497C36 35.6497 63.9457 45.4761 77.9623 63L80 56.4952Z" fill="#EAE1FF"/>
<path d="M70.9146 75.9605C70.9146 75.9605 93.3492 82.5292 77.0852 62.6427C60.8211 42.7563 32.7763 31.8065 24.1763 35.824C15.5763 39.8414 15.5733 46.0494 70.9146 75.9605Z" fill="#45207F" stroke="black" stroke-width="2" stroke-miterlimit="10"/>
<path d="M49.3103 97.5649C49.3103 97.5649 63.3825 97.0502 67.3818 87.4598C71.3811 77.8693 69.6086 69.4906 69.6086 69.4906C52.8702 38.7488 24.37 46.3718 24.37 46.3718C24.37 46.3718 9.87033 26.6998 4.12246 31.8641C-1.6254 37.0284 6.12211 66.5379 6.12211 66.5379C6.12211 66.5379 2.27824 84.4159 9.37116 90.6537C9.37116 90.6537 16.6464 96.8296 25.5118 97.2825C33.4167 98.1331 41.3868 98.2276 49.3103 97.5649Z" fill="white" stroke="black" stroke-width="2" stroke-miterlimit="10"/>
<path d="M24.5 85C28.6421 85 32 81.4183 32 77C32 72.5817 28.6421 69 24.5 69C20.3579 69 17 72.5817 17 77C17 81.4183 20.3579 85 24.5 85Z" fill="white" stroke="black" stroke-width="2" stroke-miterlimit="10"/>
<path d="M50.5 85C54.6421 85 58 81.6421 58 77.5C58 73.3579 54.6421 70 50.5 70C46.3579 70 43 73.3579 43 77.5C43 81.6421 46.3579 85 50.5 85Z" fill="white" stroke="black" stroke-width="2" stroke-miterlimit="10"/>
<path d="M24.2404 69.169C24.2404 69.169 16.9495 76.4161 24.2404 85C24.2404 85 34.2914 76.9324 25.1815 69" fill="#45207F"/>
<path d="M24.2404 69.169C24.2404 69.169 16.9495 76.4161 24.2404 85C24.2404 85 34.2914 76.9324 25.1815 69" stroke="black" stroke-width="2" stroke-miterlimit="10"/>
<path d="M50.2395 70.1606C50.2395 70.1606 42.9506 76.9525 50.2395 85C50.2395 85 60.2922 77.4372 51.1811 70" fill="#45207F"/>
<path d="M50.2395 70.1606C50.2395 70.1606 42.9506 76.9525 50.2395 85C50.2395 85 60.2922 77.4372 51.1811 70" stroke="black" stroke-width="2" stroke-miterlimit="10"/>
<path d="M29 65L32 66" stroke="black" stroke-width="2" stroke-miterlimit="10"/>
<path d="M43 67L46 65" stroke="black" stroke-width="2" stroke-miterlimit="10"/>
<path d="M24.5 88C30.8513 88 36 83.0751 36 77C36 70.9249 30.8513 66 24.5 66C18.1487 66 13 70.9249 13 77C13 83.0751 18.1487 88 24.5 88Z" stroke="#45207F" stroke-width="2" stroke-miterlimit="10"/>
<path d="M36.5542 79.0023C36.5542 79.0023 29.9178 78.6702 28 85.9196C28 85.9196 36.114 87.218 37 79.3784" fill="black"/>
<path d="M47 86.2673C47 86.2673 44.8032 78.9376 36 79.0004C36 79.0004 37.6921 88.2261 46.7541 86.8625" fill="black"/>
<path d="M9.89969 43L11.9937 44.6993L14.8464 44.2145L13.5674 46.4117L15 48.5405L12.116 48.2006L10.1473 50L9.64577 47.592L7 46.5751L9.5674 45.4291L9.89969 43Z" fill="#EAE1FF"/>
<path d="M13.0449 78C13.0449 78 12.7019 86.4195 13.9113 93.4861L14 94" stroke="#45207F" stroke-width="2" stroke-miterlimit="10"/>
<path d="M52.1293 79L50.9232 78.2679L49.6581 78.8833L49.9552 77.4695L49 76.4138L50.3905 76.2706L51.064 75L51.6274 76.3263L53 76.5995L51.9552 77.5623L52.1293 79Z" fill="white"/>
<path d="M26.1293 79L24.9232 78.2679L23.6581 78.8833L23.9552 77.4695L23 76.4138L24.3905 76.2706L25.064 75L25.6274 76.3263L27 76.5995L25.9552 77.5623L26.1293 79Z" fill="white"/>
</svg>
