<svg width="652" height="50" viewBox="0 0 652 50" fill="none" xmlns="http://www.w3.org/2000/svg">
<path d="M33.2431 28.324V33.732H15.4591V28.324H8.95906V49.54H39.7431V28.324H33.2431ZM39.7431 1.128H33.1911V26.14H39.7431V1.128ZM15.4591 44.132V39.14H33.2431V44.132H15.4591ZM2.45906 9.344H11.9231V11.58C11.9231 13.972 11.2471 15.376 9.01106 17.144C6.61906 19.016 3.75906 20.992 0.431063 23.072L4.01906 28.012C7.24306 25.932 9.58306 24.32 11.7151 22.76C14.0031 21.096 15.3031 19.952 15.5631 19.328H15.6151C15.9271 19.9 17.2271 20.94 19.3591 22.344C21.4911 23.748 23.7271 25.152 25.9631 26.504L29.2911 21.772C26.8991 20.368 24.1431 18.652 22.1671 17.3C19.0991 15.22 18.4751 13.972 18.4751 11.58V9.344H27.5231V3.78H2.45906V9.344ZM85.2512 1.128H78.6472V49.488H85.2512V23.904H91.9072V18.184H85.2512V1.128ZM68.2992 25.464C65.1792 22.084 64.6072 19.796 64.6072 15.688V4.56H57.8992V15.688C57.8992 19.952 56.9112 22.5 53.8952 25.828C51.6592 28.272 49.0072 30.872 46.0952 33.472L50.4112 37.944C53.3752 35.188 55.4032 33.212 57.3272 31.184C59.0432 29.416 60.9152 27.284 61.2272 26.348H61.3312C61.6952 27.232 63.2032 28.948 65.1792 30.976C67.1032 32.952 69.3912 35.24 71.7312 37.424L75.9432 33.004C73.2392 30.56 70.5352 27.908 68.2992 25.464ZM105.747 37.736C113.079 37.736 116.511 32.796 116.511 24.06H120.359V47.148H126.599V2.116H120.359V18.392H116.511C116.459 9.708 113.027 4.768 105.747 4.768C98.4153 4.768 94.9833 9.708 94.9833 18.444V24.06C94.9833 32.796 98.4153 37.736 105.747 37.736ZM136.375 1.128H130.135V49.488H136.375V1.128ZM105.747 10.488C109.335 10.488 110.479 13.504 110.479 19.172V23.332C110.479 29 109.335 32.016 105.747 32.016C102.159 32.016 101.015 29 101.015 23.332V19.172C101.015 13.504 102.159 10.488 105.747 10.488ZM161.447 5.808H142.727V11.476H155.051V15.948C155.051 23.748 153.491 26.348 141.427 34.408L145.171 39.4C154.947 32.692 159.003 28.896 160.563 24.008H167.219V47.148H173.511V2.116H167.219V18.34H161.395C161.447 17.924 161.447 17.456 161.447 16.988V5.808ZM183.599 1.128H177.307V49.488H183.599V1.128ZM349.668 30.612V35.552H375.616V37.892H349.928V49.956H383.364V45.016H356.272V42.624H381.96V30.612H349.668ZM343.844 23.332V28.324H388.148V23.332H343.844ZM382.532 21.044V16.104H356.376V13.868H381.7V2.012H349.876V6.952H375.356V9.136H350.032V21.044H382.532ZM412.492 49.488H442.548V30.144H412.492V49.488ZM418.992 35.604H436.048V44.028H418.992V35.604ZM442.548 1.128H435.996V27.96H442.548V16.936H448.892V11.216H442.548V1.128ZM406.252 24.996C420.032 24.996 426.844 24.684 432.72 23.8L432.096 18.288C426.012 19.068 419.98 19.38 412.856 19.38V3.676H406.252V24.996ZM456.648 39.504C472.352 29.936 475.784 26.036 476.252 17.508H485.768V25.048H475.992V30.664H485.768V49.488H492.32V1.128H485.768V11.892H476.304V5.496H454.048V11.164H469.752V14.648C469.752 22.292 468.816 24.996 453.164 34.304L456.648 39.504ZM504.288 9.344H517.6V9.76C517.6 12.204 516.456 13.868 513.492 15.324C510.112 16.988 505.744 18.808 501.844 20.316L504.392 25.568C508.188 24.06 511.932 22.396 515.26 20.888C518.276 19.536 520.564 18.184 521.084 17.196H521.136C521.656 18.184 523.684 19.432 526.7 20.784C530.028 22.292 533.772 23.956 537.568 25.464L540.116 20.316C536.216 18.808 531.848 16.988 528.468 15.324C525.504 13.868 524.36 12.204 524.36 9.76V9.344H537.672V3.78H504.288V9.344ZM498.828 28.22V33.784H517.704V49.488H524.308V33.784H543.132V28.22H498.828ZM572.26 47.148H578.5V2.116H572.26V16.104H565.76V21.824H572.26V47.148ZM554.736 16.624C554.736 20.784 554.008 22.812 551.564 25.932C549.588 28.428 546.988 31.236 544.752 33.42L549.172 37.684C551.512 35.396 554.164 32.432 555.568 30.82C556.868 29.312 558.012 27.7 558.272 26.972H558.324C558.636 27.7 559.468 28.792 561.028 30.612C562.588 32.432 564.564 34.564 566.8 36.852L571.116 32.848C568.724 30.456 566.28 27.804 564.356 25.412C562.172 22.708 561.236 20.576 561.236 16.624V4.976H554.736V16.624ZM588.328 1.128H582.088V49.488H588.328V1.128ZM593.485 37.892V43.404H637.789V37.892H627.389V26.972C630.405 24.84 632.225 21.772 632.225 18.028V15.636C632.225 8.304 625.101 3.416 615.637 3.416C606.173 3.416 599.049 8.304 599.049 15.636V18.028C599.049 21.72 600.869 24.84 603.885 26.972V37.892H593.485ZM615.637 8.928C621.045 8.928 625.777 11.736 625.777 16V17.664C625.777 21.928 621.045 24.736 615.637 24.736C610.229 24.736 605.497 21.928 605.497 17.664V16C605.497 11.736 610.229 8.928 615.637 8.928ZM615.637 30.248C617.509 30.248 619.277 30.04 620.941 29.676V37.892H610.333V29.676C611.997 30.04 613.765 30.248 615.637 30.248ZM644.193 45.744H651.057V38.984H644.193V45.744ZM650.329 33.94L651.317 3.364H643.933L644.921 33.94H650.329Z" fill="white"/>
<path d="M240.236 1.128H233.684V36.176H240.236V20.836H246.58V15.116H240.236V1.128ZM216.732 35.552H210.128V49.02H241.38V43.404H216.732V35.552ZM219.592 0.711998H213.04V5.964H202.38V11.528H230.044V5.964H219.592V0.711998ZM216.316 32.692C223.596 32.692 227.86 28.688 227.86 24.008V22.032C227.86 17.352 223.596 13.348 216.316 13.348C209.036 13.348 204.772 17.352 204.772 22.032V24.008C204.772 28.688 209.036 32.692 216.316 32.692ZM216.316 18.496C219.8 18.496 221.672 20.628 221.672 22.396V23.644C221.672 25.412 219.8 27.544 216.316 27.544C212.832 27.544 210.96 25.412 210.96 23.644V22.396C210.96 20.628 212.832 18.496 216.316 18.496ZM251.528 5.34V36.904H274.876V5.34H251.528ZM268.324 31.34H258.08V10.904H268.324V31.34ZM287.564 1.128H280.96V49.488H287.564V23.852H294.22V18.132H287.564V1.128ZM337.232 1.128H330.628V49.488H337.232V1.128ZM299.844 37.06H308.84C315.184 37.06 322.204 36.748 327.092 35.968L326.364 30.352C321.476 31.028 315.34 31.392 310.4 31.392H306.448V10.904H322.828V5.236H299.844V37.06Z" fill="#1F8CF0"/>
</svg>
