<svg width="964" height="242" viewBox="0 0 964 242" fill="none" xmlns="http://www.w3.org/2000/svg">
<path d="M13.4818 31.966C22.4278 31.966 26.7748 25.918 26.7748 19.555V17.161C26.7748 10.798 22.4278 4.75 13.4818 4.75C4.53579 4.75 0.188793 10.798 0.188793 17.161V19.555C0.188793 25.918 4.53579 31.966 13.4818 31.966ZM13.4818 11.239C17.4508 11.239 19.4038 14.137 19.4038 17.602V19.114C19.4038 22.579 17.4508 25.477 13.4818 25.477C9.51279 25.477 7.55979 22.579 7.55979 19.114V17.602C7.55979 14.137 9.51279 11.239 13.4818 11.239ZM42.4618 35.62V42.298H20.1598V35.62H12.2848V61.135H50.3368V35.62H42.4618ZM37.9888 3.238H30.4918V32.848H37.9888V21.067H42.7768V32.974H50.3368V2.482H42.7768V14.263H37.9888V3.238ZM20.1598 54.52V48.85H42.4618V54.52H20.1598ZM83.4216 3.175H77.3736L72.3336 17.728H80.9016L83.4216 3.175ZM126.841 35.431V41.983H105.295V35.431H97.4199V61.135H134.716V35.431H126.841ZM134.716 2.482H126.778V32.785H134.716V2.482ZM105.295 54.583V48.535H126.841V54.583H105.295ZM89.5449 12.436H101.011V15.145C101.011 18.043 100.192 19.744 97.4829 21.886C94.5849 24.154 91.1199 26.548 87.0879 29.068L91.4349 35.053C95.3409 32.533 98.1759 30.58 100.759 28.69C103.531 26.674 105.106 25.288 105.421 24.532H105.484C105.862 25.225 107.437 26.485 110.02 28.186C112.603 29.887 115.312 31.588 118.021 33.226L122.053 27.493C119.155 25.792 115.816 23.713 113.422 22.075C109.705 19.555 108.949 18.043 108.949 15.145V12.436H119.911V5.695H89.5449V12.436ZM189.851 2.482H181.85V61.072H189.851V30.076H197.915V23.146H189.851V2.482ZM169.313 31.966C165.533 27.871 164.84 25.099 164.84 20.122V6.64H156.713V20.122C156.713 25.288 155.516 28.375 151.862 32.407C149.153 35.368 145.94 38.518 142.412 41.668L147.641 47.086C151.232 43.747 153.689 41.353 156.02 38.896C158.099 36.754 160.367 34.171 160.745 33.037H160.871C161.312 34.108 163.139 36.187 165.533 38.644C167.864 41.038 170.636 43.81 173.471 46.456L178.574 41.101C175.298 38.14 172.022 34.927 169.313 31.966ZM209.013 21.256L209.832 5.506H201.642L202.461 21.256H209.013ZM221.472 38.203V44.188H252.909V47.023H221.787V61.639H262.296V55.654H229.473V52.756H260.595V38.203H221.472ZM214.416 29.383V35.431H268.092V29.383H214.416ZM261.288 26.611V20.626H229.599V17.917H260.28V3.553H221.724V9.538H252.594V12.184H221.913V26.611H261.288ZM293.995 15.208H310.312V15.586C310.312 18.295 309.115 19.681 305.587 21.193C301.366 23.02 296.137 24.91 291.223 26.485L293.995 32.974C298.72 31.399 303.067 29.761 307.351 28.06C311.131 26.548 313.714 25.099 314.344 23.902H314.407C315.037 25.099 317.557 26.422 321.337 27.934C325.621 29.635 329.968 31.273 334.693 32.848L337.465 26.485C332.551 24.91 327.322 23.02 323.101 21.193C319.573 19.681 318.376 18.295 318.376 15.586V15.208H334.693V8.467H318.376V1.537H310.312V8.467H293.995V15.208ZM287.506 36.061V42.802H310.375V61.072H318.376V42.802H341.182V36.061H287.506ZM344.846 39.778V46.456H367.715V61.135H375.716V46.456H398.522V39.778H344.846ZM375.716 0.717999H367.652V7.333H349.823V14.011H393.545V7.333H375.716V0.717999ZM371.684 37.258C382.394 37.258 389.702 33.73 389.702 27.682V25.792C389.702 19.744 382.394 16.216 371.684 16.216C360.974 16.216 353.666 19.744 353.666 25.792V27.682C353.666 33.73 360.974 37.258 371.684 37.258ZM371.684 22.579C378.362 22.579 381.953 24.406 381.953 26.296V27.178C381.953 29.068 378.362 30.895 371.684 30.895C365.006 30.895 361.415 29.068 361.415 27.178V26.296C361.415 24.406 365.006 22.579 371.684 22.579ZM416.172 46.834C425.055 46.834 429.213 40.849 429.213 30.265H433.875V58.237H441.435V3.679H433.875V23.398H429.213C429.15 12.877 424.992 6.892 416.172 6.892C407.289 6.892 403.131 12.877 403.131 23.461V30.265C403.131 40.849 407.289 46.834 416.172 46.834ZM453.279 2.482H445.719V61.072H453.279V2.482ZM416.172 13.822C420.519 13.822 421.905 17.476 421.905 24.343V29.383C421.905 36.25 420.519 39.904 416.172 39.904C411.825 39.904 410.439 36.25 410.439 29.383V24.343C410.439 17.476 411.825 13.822 416.172 13.822ZM506.335 35.557V28.816H474.331V13.885H505.579V7.144H466.393V35.557H482.395V46.96H459.526V53.701H513.202V46.96H490.333V35.557H506.335ZM579.11 2.482H571.109V61.072H579.11V30.076H587.174V23.146H579.11V2.482ZM558.572 31.966C554.792 27.871 554.099 25.099 554.099 20.122V6.64H545.972V20.122C545.972 25.288 544.775 28.375 541.121 32.407C538.412 35.368 535.199 38.518 531.671 41.668L536.9 47.086C540.491 43.747 542.948 41.353 545.279 38.896C547.358 36.754 549.626 34.171 550.004 33.037H550.13C550.571 34.108 552.398 36.187 554.792 38.644C557.123 41.038 559.895 43.81 562.73 46.456L567.833 41.101C564.557 38.14 561.281 34.927 558.572 31.966ZM589.955 30.58V37.069H643.631V30.58H630.59V23.524C633.992 21.697 636.008 18.925 636.008 15.397V13.885C636.008 6.829 628.07 2.986 616.793 2.986C605.516 2.986 597.578 6.829 597.578 13.885V15.397C597.578 18.925 599.594 21.697 602.996 23.524V30.58H589.955ZM616.793 62.836C626.999 62.836 635.693 59.371 635.693 52.126V50.236C635.693 42.991 626.999 39.526 616.793 39.526C606.587 39.526 597.893 42.991 597.893 50.236V52.126C597.893 59.371 606.587 62.836 616.793 62.836ZM616.793 9.349C623.219 9.349 628.133 11.365 628.133 14.137V15.145C628.133 17.917 623.219 19.933 616.793 19.933C610.367 19.933 605.453 17.917 605.453 15.145V14.137C605.453 11.365 610.367 9.349 616.793 9.349ZM616.793 45.952C622.4 45.952 627.818 47.842 627.818 50.74V51.622C627.818 54.52 622.4 56.41 616.793 56.41C611.186 56.41 605.768 54.52 605.768 51.622V50.74C605.768 47.842 611.186 45.952 616.793 45.952ZM616.793 26.296C618.872 26.296 620.888 26.17 622.715 25.918V30.58H610.871V25.918C612.698 26.17 614.651 26.296 616.793 26.296ZM693.789 2.482H685.788V61.072H693.789V32.092H701.853V25.162H693.789V2.482ZM664.683 48.283C674.007 48.283 679.173 42.172 679.173 35.935V32.218C679.173 25.981 674.007 19.87 664.683 19.87C655.359 19.87 650.193 25.981 650.193 32.218V35.935C650.193 42.172 655.359 48.283 664.683 48.283ZM664.683 41.605C660.21 41.605 657.564 38.518 657.564 35.305V32.848C657.564 29.635 660.21 26.548 664.683 26.548C669.156 26.548 671.802 29.635 671.802 32.848V35.305C671.802 38.518 669.156 41.605 664.683 41.605ZM660.651 2.923V10.483H647.484V17.224H681.315V10.483H668.715V2.923H660.651ZM704.635 46.96V53.701H758.311V46.96H731.032V26.548H723.094V46.96H704.635ZM748.798 40.786C750.247 33.541 750.877 25.666 750.877 15.901V7.459H711.061V14.326H742.939V17.98C742.939 25.351 742.435 32.218 740.923 39.841L748.798 40.786ZM826.487 37.069H787.994V43.369H793.916V54.772H787.679V61.072H826.802V54.772H820.502V43.369H826.487V37.069ZM796.31 22.894C796.625 23.902 798.641 25.414 800.783 27.115C803.114 28.942 805.949 31.021 808.847 33.037L813.257 27.493C810.107 25.351 806.579 22.768 804.122 20.752C800.72 17.98 799.964 15.775 799.964 11.617V4.561H791.9V11.869C791.9 15.964 790.199 19.051 787.616 21.382C784.592 24.154 781.631 26.485 777.977 29.194L782.702 35.053C786.23 32.407 789.443 29.761 792.341 27.241C794.924 24.973 795.869 23.902 796.247 22.894H796.31ZM826.424 2.482H818.486V34.423H826.424V2.482ZM801.602 43.369H812.816V54.772H801.602V43.369ZM841.302 48.976C855.54 40.282 861.462 35.557 863.793 29.383H876.519V61.072H884.52V2.482H876.519V22.516H865.116C865.179 21.508 865.242 20.437 865.242 19.24V7.774H838.152V14.641H857.241V18.862C857.241 28.186 856.044 31.399 837.081 42.676L841.302 48.976ZM938.899 2.482H930.898V61.072H938.899V29.572H946.963V22.642H938.899V2.482ZM903.934 7.207H895.87V45.574H905.446C913.132 45.574 921.637 45.196 927.559 44.251L926.677 37.384C920.755 38.203 913.321 38.644 907.336 38.644H903.934V7.207ZM952.264 63.025H958.69L963.856 48.409H954.91L952.264 63.025ZM114.567 125.431V131.983H93.021V125.431H85.146V151.135H122.442V125.431H114.567ZM122.442 92.482H114.504V122.785H122.442V92.482ZM93.021 144.583V138.535H114.567V144.583H93.021ZM77.271 102.436H88.737V105.145C88.737 108.043 87.918 109.744 85.209 111.886C82.311 114.154 78.846 116.548 74.814 119.068L79.161 125.053C83.067 122.533 85.902 120.58 88.485 118.69C91.257 116.674 92.832 115.288 93.147 114.532H93.21C93.588 115.225 95.163 116.485 97.746 118.186C100.329 119.887 103.038 121.588 105.747 123.226L109.779 117.493C106.881 115.792 103.542 113.713 101.148 112.075C97.431 109.555 96.675 108.043 96.675 105.145V102.436H107.637V95.695H77.271V102.436ZM177.577 92.482H169.576V151.072H177.577V120.076H185.641V113.146H177.577V92.482ZM157.039 121.966C153.259 117.871 152.566 115.099 152.566 110.122V96.64H144.439V110.122C144.439 115.288 143.242 118.375 139.588 122.407C136.879 125.368 133.666 128.518 130.138 131.668L135.367 137.086C138.958 133.747 141.415 131.353 143.746 128.896C145.825 126.754 148.093 124.171 148.471 123.037H148.597C149.038 124.108 150.865 126.187 153.259 128.644C155.59 131.038 158.362 133.81 161.197 136.456L166.3 131.101C163.024 128.14 159.748 124.927 157.039 121.966ZM237.941 92.482H230.066V151.072H237.941V92.482ZM207.701 125.053C217.151 125.053 223.577 118.879 223.577 111.823V109.303C223.577 102.247 217.151 96.073 207.701 96.073C198.251 96.073 191.825 102.247 191.825 109.303V111.823C191.825 118.879 198.251 125.053 207.701 125.053ZM207.701 102.877C212.804 102.877 216.017 106.279 216.017 109.744V111.382C216.017 114.847 212.804 118.249 207.701 118.249C202.598 118.249 199.385 114.847 199.385 111.382V109.744C199.385 106.279 202.598 102.877 207.701 102.877ZM189.62 139.165C208.961 139.165 220.364 138.913 227.609 138.031L227.042 131.227C219.545 131.983 208.898 132.298 189.62 132.298V139.165ZM288.603 114.784C289.233 116.17 291.186 117.682 294.336 119.824C297.738 122.092 302.211 124.801 308.259 128.203L312.102 122.029C307.503 119.446 302.463 116.485 298.809 113.965C293.832 110.563 292.383 107.476 292.383 101.995V96.073H284.319V101.995C284.319 107.476 282.87 110.563 277.893 113.965C274.239 116.485 269.199 119.446 264.6 122.029L268.506 128.329C274.554 124.927 279.027 122.218 282.429 119.95C285.579 117.808 287.91 116.233 288.54 114.784H288.603ZM261.513 136.96V143.701H315.189V136.96H292.32V125.305H284.382V136.96H261.513ZM328.743 136.078H359.613V151.765H367.551V129.337H328.743V136.078ZM367.551 92.482H359.613V126.691H367.551V92.482ZM337.374 113.839C337.752 114.91 339.39 116.233 341.595 117.997C344.556 120.391 347.391 122.596 349.848 124.36L354.447 118.816C351.423 116.674 348.21 114.217 345.186 111.634C341.91 108.799 341.091 106.72 341.091 102.121V94.687H333.027V102.436C333.027 106.72 331.83 109.366 328.806 112.264C325.908 115.036 322.38 118.123 319.104 120.643L324.018 126.439C327.924 123.289 330.633 120.958 333.468 118.312C335.358 116.548 337.059 114.91 337.311 113.839H337.374ZM383.248 126.88V132.865H414.685V136.33H383.563V151.576H424.072V145.591H391.249V142.063H422.371V126.88H383.248ZM376.192 117.367V123.478H429.868V117.367H376.192ZM403.03 114.595C414.559 114.595 422.182 110.563 422.182 104.326V102.814C422.182 96.577 414.559 92.545 403.03 92.545C391.501 92.545 383.878 96.577 383.878 102.814V104.326C383.878 110.563 391.501 114.595 403.03 114.595ZM403.03 98.845C411.346 98.845 414.307 101.239 414.307 103.129V104.011C414.307 105.901 411.346 108.295 403.03 108.295C394.714 108.295 391.753 105.901 391.753 104.011V103.129C391.753 101.239 394.714 98.845 403.03 98.845ZM449.282 119.635V126.061H502.958V119.635H449.282ZM494.831 94.561H456.905V115.288H495.272V108.862H464.78V100.987H494.831V94.561ZM456.716 130.597V151.072H496.406V144.646H464.591V137.023H495.461V130.597H456.716ZM506.622 136.96V143.701H560.298V136.96H533.019V116.548H525.081V136.96H506.622ZM550.785 130.786C552.234 123.541 552.864 115.666 552.864 105.901V97.459H513.048V104.326H544.926V107.98C544.926 115.351 544.422 122.218 542.91 129.841L550.785 130.786ZM628.474 127.069H589.981V133.369H595.903V144.772H589.666V151.072H628.789V144.772H622.489V133.369H628.474V127.069ZM598.297 112.894C598.612 113.902 600.628 115.414 602.77 117.115C605.101 118.942 607.936 121.021 610.834 123.037L615.244 117.493C612.094 115.351 608.566 112.768 606.109 110.752C602.707 107.98 601.951 105.775 601.951 101.617V94.561H593.887V101.869C593.887 105.964 592.186 109.051 589.603 111.382C586.579 114.154 583.618 116.485 579.964 119.194L584.689 125.053C588.217 122.407 591.43 119.761 594.328 117.241C596.911 114.973 597.856 113.902 598.234 112.894H598.297ZM628.411 92.482H620.473V124.423H628.411V92.482ZM603.589 133.369H614.803V144.772H603.589V133.369ZM652.55 132.928H644.612V150.442H684.302V143.701H652.55V132.928ZM637.052 122.722V129.4H690.728V122.722H637.052ZM663.89 119.131C675.167 119.131 683.105 114.847 683.105 107.476V105.082C683.105 97.711 675.167 93.427 663.89 93.427C652.613 93.427 644.675 97.711 644.675 105.082V107.476C644.675 114.847 652.613 119.131 663.89 119.131ZM663.89 99.853C670.946 99.853 675.23 102.499 675.23 105.46V107.098C675.23 110.059 670.946 112.705 663.89 112.705C656.834 112.705 652.55 110.059 652.55 107.098V105.46C652.55 102.499 656.834 99.853 663.89 99.853ZM710.141 122.092V128.77H733.892V138.409H741.83V128.77H763.817V122.092H710.141ZM725.639 133.873H717.701V150.442H757.454V143.701H725.639V133.873ZM756.32 117.556V93.742H748.445V99.664H725.513V93.742H717.638V117.556H756.32ZM725.513 106.216H748.445V111.004H725.513V106.216ZM774.537 126.88V132.865H805.974V136.33H774.852V151.576H815.361V145.591H782.538V142.063H813.66V126.88H774.537ZM767.481 116.926V123.037H821.157V116.926H767.481ZM813.03 93.868H775.104V113.146H813.471V107.035H782.979V99.979H813.03V93.868ZM840.319 132.928H832.381V150.442H872.071V143.701H840.319V132.928ZM824.821 122.722V129.4H878.497V122.722H824.821ZM851.659 119.131C862.936 119.131 870.874 114.847 870.874 107.476V105.082C870.874 97.711 862.936 93.427 851.659 93.427C840.382 93.427 832.444 97.711 832.444 105.082V107.476C832.444 114.847 840.382 119.131 851.659 119.131ZM851.659 99.853C858.715 99.853 862.999 102.499 862.999 105.46V107.098C862.999 110.059 858.715 112.705 851.659 112.705C844.603 112.705 840.319 110.059 840.319 107.098V105.46C840.319 102.499 844.603 99.853 851.659 99.853ZM464.213 218.203V224.188H495.65V227.023H464.528V241.639H505.037V235.654H472.214V232.756H503.336V218.203H464.213ZM457.157 209.383V215.431H510.833V209.383H457.157ZM504.029 206.611V200.626H472.34V197.917H503.021V183.553H464.465V189.538H495.335V192.184H464.654V206.611H504.029ZM540.327 241.072H576.741V217.636H540.327V241.072ZM548.202 224.251H568.866V234.457H548.202V224.251ZM576.741 182.482H568.803V214.99H576.741V201.634H584.427V194.704H576.741V182.482ZM532.767 211.399C549.462 211.399 557.715 211.021 564.834 209.95L564.078 203.272C556.707 204.217 549.399 204.595 540.768 204.595V185.569H532.767V211.399ZM593.824 228.976C612.85 217.384 617.008 212.659 617.575 202.327H629.104V211.462H617.26V218.266H629.104V241.072H637.042V182.482H629.104V195.523H617.638V187.774H590.674V194.641H609.7V198.862C609.7 208.123 608.566 211.399 589.603 222.676L593.824 228.976ZM651.542 192.436H667.67V192.94C667.67 195.901 666.284 197.917 662.693 199.681C658.598 201.697 653.306 203.902 648.581 205.729L651.668 212.092C656.267 210.265 660.803 208.249 664.835 206.422C668.489 204.784 671.261 203.146 671.891 201.949H671.954C672.584 203.146 675.041 204.658 678.695 206.296C682.727 208.123 687.263 210.139 691.862 211.966L694.949 205.729C690.224 203.902 684.932 201.697 680.837 199.681C677.246 197.917 675.86 195.901 675.86 192.94V192.436H691.988V185.695H651.542V192.436ZM644.927 215.305V222.046H667.796V241.072H675.797V222.046H698.603V215.305H644.927ZM733.892 238.237H741.452V183.679H733.892V200.626H726.017V207.556H733.892V238.237ZM712.661 201.256C712.661 206.296 711.779 208.753 708.818 212.533C706.424 215.557 703.274 218.959 700.565 221.605L705.92 226.771C708.755 223.999 711.968 220.408 713.669 218.455C715.244 216.628 716.63 214.675 716.945 213.793H717.008C717.386 214.675 718.394 215.998 720.284 218.203C722.174 220.408 724.568 222.991 727.277 225.763L732.506 220.912C729.608 218.014 726.647 214.801 724.316 211.903C721.67 208.627 720.536 206.044 720.536 201.256V187.144H712.661V201.256ZM753.359 182.482H745.799V241.072H753.359V182.482ZM759.606 227.023V233.701H813.282V227.023H800.682V213.793C804.336 211.21 806.541 207.493 806.541 202.957V200.059C806.541 191.176 797.91 185.254 786.444 185.254C774.978 185.254 766.347 191.176 766.347 200.059V202.957C766.347 207.43 768.552 211.21 772.206 213.793V227.023H759.606ZM786.444 191.932C792.996 191.932 798.729 195.334 798.729 200.5V202.516C798.729 207.682 792.996 211.084 786.444 211.084C779.892 211.084 774.159 207.682 774.159 202.516V200.5C774.159 195.334 779.892 191.932 786.444 191.932ZM786.444 217.762C788.712 217.762 790.854 217.51 792.87 217.069V227.023H780.018V217.069C782.034 217.51 784.176 217.762 786.444 217.762Z" fill="white"/>
<path d="M172.789 227.275C183.499 227.275 187.909 220.156 187.909 210.328V203.335C187.909 193.507 183.499 186.388 172.789 186.388C162.079 186.388 157.669 193.507 157.669 203.335V210.328C157.669 220.156 162.079 227.275 172.789 227.275ZM172.789 193.381C178.144 193.381 180.286 197.161 180.286 204.28V209.383C180.286 216.502 178.144 220.282 172.789 220.282C167.434 220.282 165.292 216.502 165.292 209.383V204.28C165.292 197.161 167.434 193.381 172.789 193.381ZM204.037 182.482H196.036V241.072H204.037V182.482ZM213.812 188.026V225.511H237.815V209.572H243.737V238.237H251.297V183.679H243.737V202.705H237.815V188.026H213.812ZM263.141 182.482H255.581V241.072H263.141V182.482ZM230.255 218.833H221.372V194.704H230.255V218.833ZM318.087 182.482H310.149V211.588H318.087V182.482ZM281.043 214.234V220.534H310.401V224.944H281.358V241.639H319.851V235.339H289.044V230.929H318.087V214.234H281.043ZM286.272 210.643C295.659 210.643 301.266 204.406 301.266 198.043V196.027C301.266 189.664 295.659 183.427 286.272 183.427C276.885 183.427 271.278 189.664 271.278 196.027V198.043C271.278 204.406 276.885 210.643 286.272 210.643ZM286.272 190.105C290.997 190.105 293.769 193.192 293.769 196.153V197.917C293.769 200.878 290.997 203.965 286.272 203.965C281.547 203.965 278.775 200.878 278.775 197.917V196.153C278.775 193.192 281.547 190.105 286.272 190.105ZM349.092 192.436H365.22V192.94C365.22 195.901 363.834 197.917 360.243 199.681C356.148 201.697 350.856 203.902 346.131 205.729L349.218 212.092C353.817 210.265 358.353 208.249 362.385 206.422C366.039 204.784 368.811 203.146 369.441 201.949H369.504C370.134 203.146 372.591 204.658 376.245 206.296C380.277 208.123 384.813 210.139 389.412 211.966L392.499 205.729C387.774 203.902 382.482 201.697 378.387 199.681C374.796 197.917 373.41 195.901 373.41 192.94V192.436H389.538V185.695H349.092V192.436ZM342.477 215.305V222.046H365.346V241.072H373.347V222.046H396.153V215.305H342.477ZM426.907 204.784C427.537 206.17 429.49 207.682 432.64 209.824C436.042 212.092 440.515 214.801 446.563 218.203L450.406 212.029C445.807 209.446 440.767 206.485 437.113 203.965C432.136 200.563 430.687 197.476 430.687 191.995V186.073H422.623V191.995C422.623 197.476 421.174 200.563 416.197 203.965C412.543 206.485 407.503 209.446 402.904 212.029L406.81 218.329C412.858 214.927 417.331 212.218 420.733 209.95C423.883 207.808 426.214 206.233 426.844 204.784H426.907ZM399.817 226.96V233.701H453.493V226.96H430.624V215.305H422.686V226.96H399.817Z" fill="#1F8CF0"/>
</svg>
