<svg width="820" height="120" viewBox="0 0 820 120" fill="none" xmlns="http://www.w3.org/2000/svg">
<rect width="820" height="120" rx="16" fill="#1F8CF0"/>
<path d="M245.124 52.696C245.124 50.52 246.34 49.304 248.036 49.304C249.796 49.304 251.012 50.52 251.012 52.696C251.012 54.904 249.796 56.152 248.036 56.152C246.34 56.152 245.124 54.904 245.124 52.696ZM254.788 52.696C254.788 48.696 252.004 45.88 248.036 45.88C244.132 45.88 241.316 48.696 241.316 52.696C241.316 56.728 244.132 59.544 248.036 59.544C252.004 59.544 254.788 56.728 254.788 52.696ZM262.18 70.04H250.5V67.448H262.18V70.04ZM262.18 64.184H250.5V61.528H246.308V73.4H266.34V61.528H262.18V64.184ZM262.34 44.312V50.424H260.036V44.856H256.1V60.12H260.036V53.848H262.34V60.312H266.34V44.312H262.34ZM299.323 66.04H303.547V44.28H299.323V50.552H293.915V53.976H299.323V66.04ZM296.507 58.488C291.899 56.856 289.915 53.112 289.915 49.272V46.072H285.627V49.24C285.627 53.432 283.579 57.528 278.715 59.16L280.923 62.456C284.347 61.208 286.619 58.808 287.867 55.768C289.083 58.488 291.195 60.632 294.267 61.752L296.507 58.488ZM288.315 69.88V63.864H284.091V73.24H304.187V69.88H288.315ZM321.593 57.112C318.905 57.528 316.569 57.688 313.401 57.72V55.224H320.633V52.024H313.401V49.592H320.921V46.264H309.337V61.112H311.385C315.769 61.112 318.617 61.016 321.977 60.472L321.593 57.112ZM313.177 66.904H329.241V73.784H333.465V63.544H313.177V66.904ZM329.465 44.28V51.512H327.097V44.792H323.161V62.072H327.097V54.872H329.465V62.264H333.465V44.28H329.465ZM355.35 47.512H348.822V44.408H344.598V47.512H338.006V50.84H355.35V47.512ZM343.51 57.528C343.51 56.024 344.79 55.192 346.71 55.192C348.63 55.192 349.91 56.024 349.91 57.528C349.91 59.096 348.63 59.928 346.71 59.928C344.79 59.928 343.51 59.096 343.51 57.528ZM348.822 62.872C351.894 62.232 353.91 60.248 353.91 57.528C353.91 54.232 350.934 51.992 346.71 51.992C342.486 51.992 339.51 54.232 339.51 57.528C339.51 60.248 341.526 62.232 344.598 62.872V65.368C342.006 65.432 339.574 65.432 337.462 65.432L337.974 68.856C342.966 68.856 349.59 68.856 355.798 67.64L355.478 64.6C353.366 64.92 351.094 65.08 348.822 65.208V62.872ZM364.886 56.28H361.206V44.28H356.982V73.752H361.206V59.768H364.886V56.28ZM378.196 57.72H372.596V49.944H378.196V57.72ZM387.636 52.28V55.256H382.324V52.28H387.636ZM382.324 58.616H387.636V65.752H391.86V44.28H387.636V48.92H382.324V46.648H368.436V61.048H382.324V58.616ZM376.628 69.88V63.736H372.404V73.24H392.5V69.88H376.628ZM409.969 45.752C403.793 45.752 398.993 49.144 398.993 54.296C398.993 59.416 403.793 62.808 409.969 62.808C416.177 62.808 420.977 59.416 420.977 54.296C420.977 49.144 416.177 45.752 409.969 45.752ZM409.969 49.208C414.001 49.208 416.849 51.096 416.849 54.296C416.849 57.432 414.001 59.352 409.969 59.352C405.969 59.352 403.121 57.432 403.121 54.296C403.121 51.096 405.969 49.208 409.969 49.208ZM396.657 66.776V70.232H423.345V66.776H396.657ZM441.519 67.064V62.68H450.447V59.288H433.359V55.992H449.775V46.168H429.135V49.528H445.615V52.696H429.167V62.68H437.295V67.064H426.095V70.52H452.783V67.064H441.519ZM471.046 68.664H487.174V61.08H466.822V64.184H483.014V65.752H466.854V73.528H487.942V70.36H471.046V68.664ZM479.206 56.216V54.36H487.302V51.064H471.302V48.568H487.078V45.272H467.11V54.36H474.982V56.216H463.782V59.544H490.406V56.216H479.206ZM501.124 63.544C498.916 63.544 497.444 61.208 497.444 56.824C497.444 52.472 498.916 50.136 501.124 50.136C503.3 50.136 504.804 52.472 504.804 56.824C504.804 61.208 503.3 63.544 501.124 63.544ZM501.124 46.328C496.644 46.328 493.38 50.36 493.38 56.824C493.38 63.32 496.644 67.384 501.124 67.384C505.572 67.384 508.868 63.32 508.868 56.824C508.868 50.36 505.572 46.328 501.124 46.328ZM520.58 55.384H516.292V44.28H512.068V73.752H516.292V58.872H520.58V55.384ZM524.001 47.288V50.712H533.633C532.865 57.24 529.217 61.912 522.369 65.432L524.737 68.664C534.529 63.704 537.889 56.12 537.889 47.288H524.001ZM549.857 55.512H545.729V44.248H541.505V73.688H545.729V59H549.857V55.512ZM562.175 61.272C563.199 61.464 564.255 61.56 565.407 61.56C566.559 61.56 567.647 61.464 568.671 61.272V66.904H562.175V61.272ZM565.407 49.048C569.503 49.048 572.255 50.712 572.255 53.656C572.255 56.568 569.503 58.264 565.407 58.264C561.311 58.264 558.591 56.568 558.591 53.656C558.591 50.712 561.311 49.048 565.407 49.048ZM572.863 66.904V59.704C575.071 58.328 576.415 56.216 576.415 53.656C576.415 48.824 571.775 45.72 565.407 45.72C559.071 45.72 554.431 48.824 554.431 53.656C554.399 56.216 555.743 58.328 557.983 59.704V66.904H552.095V70.328H578.783V66.904H572.863Z" fill="white"/>
</svg>
