<svg width="67" height="19" viewBox="0 0 67 19" fill="none" xmlns="http://www.w3.org/2000/svg">
<path d="M14.26 18.34V11.66H2.66V18.34H14.26ZM12.22 16.72H4.72V13.28H12.22V16.72ZM12.22 3.94H7.62V5.64H12.22V10.66H14.26V0.759999H12.22V3.94ZM9.68 7.52C7.48 8.02 5.08 8.24 2.56 8.24V1.78H0.52V9.96H2.36C4.68 9.92 7.78 9.7 10 9.2L9.68 7.52ZM17.0647 8.34C17.0647 12.1 18.7247 14.66 21.5847 14.66C24.2847 14.66 25.9047 12.44 26.1247 9.1H29.5247V18.58H31.5847V0.759999H29.5247V7.42H26.1047C25.8447 4.18 24.2247 2 21.5847 2C18.7247 2 17.0647 4.6 17.0647 8.34ZM24.1647 8.36C24.1647 11.18 23.1047 13.04 21.5847 13.04C20.1247 13.04 19.0647 11.18 19.0647 8.36C19.0647 5.5 20.1247 3.66 21.5847 3.66C23.1047 3.66 24.1647 5.5 24.1647 8.36ZM50.6894 9.42V7.72H48.0494V0.759999H45.9894V18.58H48.0494V9.42H50.6894ZM43.3694 2.64H35.1494V4.32H41.1694C40.8294 8.06 38.2094 11.8 34.1094 13.68L35.3894 15.24C40.5294 12.42 43.2294 8.16 43.3694 2.64ZM66.1941 18.58V0.759999H64.1541V18.58H66.1941ZM60.7341 2.64H52.4741V4.32H58.5341C58.1941 8.06 55.5341 11.8 51.4341 13.68L52.7141 15.24C57.8541 12.42 60.6141 8.16 60.7341 2.64Z" fill="#888888"/>
</svg>
