<svg width="607" height="49" viewBox="0 0 607 49" fill="none" xmlns="http://www.w3.org/2000/svg">
<path d="M11.7315 24.464C19.1155 24.464 22.7035 19.472 22.7035 14.22V12.244C22.7035 6.992 19.1155 2 11.7315 2C4.34747 2 0.759469 6.992 0.759469 12.244V14.22C0.759469 19.472 4.34747 24.464 11.7315 24.464ZM11.7315 7.356C15.0075 7.356 16.6195 9.748 16.6195 12.608V13.856C16.6195 16.716 15.0075 19.108 11.7315 19.108C8.45547 19.108 6.84347 16.716 6.84347 13.856V12.608C6.84347 9.748 8.45547 7.356 11.7315 7.356ZM35.6515 27.48V32.992H17.2435V27.48H10.7435V48.54H42.1515V27.48H35.6515ZM31.9595 0.751997H25.7715V25.192H31.9595V15.468H35.9115V25.296H42.1515V0.127999H35.9115V9.852H31.9595V0.751997ZM17.2435 43.08V38.4H35.6515V43.08H17.2435ZM215.958 0.127999H209.354V48.488H215.958V23.476H222.614V17.756H215.958V0.127999ZM182.158 38.504C199.422 27.948 201.814 24.464 201.814 13.96V4.496H179.558V10.164H195.21V13.648C195.21 21.344 194.326 23.996 178.674 33.304L182.158 38.504ZM240.25 4.34V35.904H263.598V4.34H240.25ZM257.046 30.34H246.802V9.904H257.046V30.34ZM276.286 0.127999H269.682V48.488H276.286V22.852H282.942V17.132H276.286V0.127999ZM291.426 48.488H323.354V31.536H291.426V48.488ZM297.926 36.788H316.854V43.236H297.926V36.788ZM285.238 22.748V28.052H329.542V22.748H285.238ZM307.39 19.992C316.698 19.992 323.25 16.82 323.25 10.944V9.696C323.25 3.82 316.698 0.647999 307.39 0.647999C298.082 0.647999 291.53 3.82 291.53 9.696V10.944C291.53 16.82 298.082 19.992 307.39 19.992ZM307.39 5.9C312.694 5.9 316.75 7.564 316.75 9.904V10.736C316.75 13.076 312.694 14.74 307.39 14.74C302.086 14.74 298.03 13.076 298.03 10.736V9.904C298.03 7.564 302.086 5.9 307.39 5.9ZM344.111 36.736C351.443 36.736 354.875 31.796 354.875 23.06H358.723V46.148H364.963V1.116H358.723V17.392H354.875C354.823 8.708 351.391 3.768 344.111 3.768C336.779 3.768 333.347 8.708 333.347 17.444V23.06C333.347 31.796 336.779 36.736 344.111 36.736ZM374.739 0.127999H368.499V48.488H374.739V0.127999ZM344.111 9.488C347.699 9.488 348.843 12.504 348.843 18.172V22.332C348.843 28 347.699 31.016 344.111 31.016C340.523 31.016 339.379 28 339.379 22.332V18.172C339.379 12.504 340.523 9.488 344.111 9.488ZM392.895 36.84V42.404H437.199V36.84H392.895ZM431.531 27.896V22.332H405.115V9.696H430.907V4.132H398.563V27.896H431.531ZM464.351 48.852C466.327 47.396 468.615 45.472 470.123 44.068C471.787 42.56 472.619 41.676 472.879 41C473.191 41.676 474.179 42.82 475.583 44.068C477.247 45.524 479.691 47.552 481.147 48.696L484.787 44.38C483.019 43.08 480.887 41.312 479.119 39.752C476.519 37.464 475.999 36.268 475.999 33.2V29.248H469.551V33.096C469.551 36.06 469.343 37.204 467.575 39.024C466.691 39.908 465.755 40.792 464.351 41.884C462.947 40.792 462.063 39.96 461.179 39.024C459.359 37.152 459.099 36.06 459.099 33.096V29.248H452.651V33.2C452.651 36.216 452.079 37.516 449.583 39.752C447.815 41.312 445.683 43.028 443.915 44.38L447.607 48.8C449.063 47.656 451.455 45.68 453.119 44.172C454.523 42.924 455.667 41.624 455.927 41C456.187 41.572 456.915 42.508 458.527 44.068C460.035 45.472 462.375 47.396 464.351 48.852ZM454.939 18.692C455.199 19.524 456.915 20.72 458.683 22.124C460.607 23.632 462.895 25.296 465.287 26.96L468.875 22.436C466.275 20.668 463.415 18.588 461.387 16.924C458.579 14.636 457.955 12.816 457.955 9.384V1.896H451.299V9.592C451.299 12.972 449.895 15.52 447.763 17.444C445.267 19.732 442.875 21.604 439.859 23.84L443.759 28.676C446.671 26.492 449.271 24.36 451.663 22.28C453.795 20.408 454.575 19.524 454.887 18.692H454.939ZM473.867 26.804H480.367V0.127999H473.867V5.172H465.599V10.632H473.867V13.388H465.599V18.848H473.867V26.804ZM525.927 0.127999H519.323V48.488H525.927V22.488H532.583V16.768H525.927V0.127999ZM497.067 4.028H490.411V35.696H498.315C504.659 35.696 511.679 35.384 516.567 34.604L515.839 28.936C510.951 29.612 504.815 29.976 499.875 29.976H497.067V4.028ZM534.879 36.892V42.404H579.183V36.892H568.783V25.972C571.799 23.84 573.619 20.772 573.619 17.028V14.636C573.619 7.304 566.495 2.416 557.031 2.416C547.567 2.416 540.443 7.304 540.443 14.636V17.028C540.443 20.72 542.263 23.84 545.279 25.972V36.892H534.879ZM557.031 7.928C562.439 7.928 567.171 10.736 567.171 15V16.664C567.171 20.928 562.439 23.736 557.031 23.736C551.623 23.736 546.891 20.928 546.891 16.664V15C546.891 10.736 551.623 7.928 557.031 7.928ZM557.031 29.248C558.903 29.248 560.671 29.04 562.335 28.676V36.892H551.727V28.676C553.391 29.04 555.159 29.248 557.031 29.248ZM597.287 33.668V31.536C597.287 28.52 598.119 27.74 600.771 25.192C603.995 22.124 606.959 19.524 606.959 14.428V13.7C606.959 8.032 602.539 3.976 594.895 3.976C590.423 3.976 586.263 5.432 582.935 8.76L586.575 13.336C588.811 11.204 591.463 9.852 594.687 9.852C598.795 9.852 600.303 11.776 600.303 13.908V14.428C600.303 17.132 599.731 18.172 595.103 22.436C591.151 26.076 591.099 27.896 591.099 31.38V33.668H597.287ZM590.787 44.744H597.651V37.984H590.787V44.744Z" fill="white"/>
<path d="M69.4596 0.699998H64.4676L60.3076 12.712H67.3796L69.4596 0.699998ZM105.298 27.324V32.732H87.5138V27.324H81.0138V48.54H111.798V27.324H105.298ZM111.798 0.127999H105.246V25.14H111.798V0.127999ZM87.5138 43.132V38.14H105.298V43.132H87.5138ZM74.5138 8.344H83.9778V10.58C83.9778 12.972 83.3018 14.376 81.0658 16.144C78.6738 18.016 75.8138 19.992 72.4858 22.072L76.0738 27.012C79.2978 24.932 81.6378 23.32 83.7698 21.76C86.0578 20.096 87.3578 18.952 87.6178 18.328H87.6698C87.9818 18.9 89.2818 19.94 91.4138 21.344C93.5458 22.748 95.7818 24.152 98.0178 25.504L101.346 20.772C98.9538 19.368 96.1978 17.652 94.2218 16.3C91.1538 14.22 90.5298 12.972 90.5298 10.58V8.344H99.5778V2.78H74.5138V8.344ZM157.306 0.127999H150.702V48.488H157.306V22.904H163.962V17.184H157.306V0.127999ZM140.354 24.464C137.234 21.084 136.662 18.796 136.662 14.688V3.56H129.954V14.688C129.954 18.952 128.966 21.5 125.95 24.828C123.714 27.272 121.062 29.872 118.15 32.472L122.466 36.944C125.43 34.188 127.458 32.212 129.382 30.184C131.098 28.416 132.97 26.284 133.282 25.348H133.386C133.75 26.232 135.258 27.948 137.234 29.976C139.158 31.952 141.446 34.24 143.786 36.424L147.998 32.004C145.294 29.56 142.59 26.908 140.354 24.464ZM173.122 15.624L173.798 2.624H167.038L167.714 15.624H173.122Z" fill="#1F8CF0"/>
</svg>
