<svg width="905" height="152" viewBox="0 0 905 152" fill="none" xmlns="http://www.w3.org/2000/svg">
<path d="M88.7176 30.966C97.6636 30.966 102.011 24.918 102.011 18.555V16.161C102.011 9.798 97.6636 3.75 88.7176 3.75C79.7716 3.75 75.4246 9.798 75.4246 16.161V18.555C75.4246 24.918 79.7716 30.966 88.7176 30.966ZM88.7176 10.239C92.6866 10.239 94.6396 13.137 94.6396 16.602V18.114C94.6396 21.579 92.6866 24.477 88.7176 24.477C84.7486 24.477 82.7956 21.579 82.7956 18.114V16.602C82.7956 13.137 84.7486 10.239 88.7176 10.239ZM117.698 34.62V41.298H95.3956V34.62H87.5206V60.135H125.573V34.62H117.698ZM113.225 2.238H105.728V31.848H113.225V20.067H118.013V31.974H125.573V1.482H118.013V13.263H113.225V2.238ZM95.3956 53.52V47.85H117.698V53.52H95.3956ZM158.657 2.175H152.609L147.569 16.728H156.137L158.657 2.175ZM274.861 17.736H280.909L285.949 3.183H277.381L274.861 17.736ZM338.063 1.482H330.188V60.072H338.063V1.482ZM307.823 34.053C317.273 34.053 323.699 27.879 323.699 20.823V18.303C323.699 11.247 317.273 5.073 307.823 5.073C298.373 5.073 291.947 11.247 291.947 18.303V20.823C291.947 27.879 298.373 34.053 307.823 34.053ZM307.823 11.877C312.926 11.877 316.139 15.279 316.139 18.744V20.382C316.139 23.847 312.926 27.249 307.823 27.249C302.72 27.249 299.507 23.847 299.507 20.382V18.744C299.507 15.279 302.72 11.877 307.823 11.877ZM289.742 48.165C309.083 48.165 320.486 47.913 327.731 47.031L327.164 40.227C319.667 40.983 309.02 41.298 289.742 41.298V48.165ZM362.517 16.791H372.408V21.957C372.408 26.619 371.4 28.887 368.691 32.289C366.297 35.313 363.021 38.841 360.438 41.361L365.667 46.59C368.25 44.007 371.148 40.794 373.227 38.274C374.802 36.384 376.188 34.683 376.566 33.675H376.629C377.07 34.683 378.393 36.258 379.905 38.022C381.795 40.29 384.378 42.999 386.772 45.519L392.001 40.605C389.292 37.959 386.079 34.557 383.748 31.596C381.165 28.383 380.157 26.178 380.157 21.894V16.791H389.481V10.05H380.157V2.805H372.408V10.05H362.517V16.791ZM393.45 57.237H401.01V2.679H393.45V22.146H386.331V29.076H393.45V57.237ZM412.728 1.482H405.168V60.072H412.728V1.482ZM430.377 60.135H467.61V39.471H430.377V60.135ZM436.236 36.384C445.056 36.384 450.159 32.289 450.159 26.871V24.981C450.159 19.563 445.056 15.468 436.236 15.468C427.416 15.468 422.313 19.563 422.313 24.981V26.871C422.313 32.289 427.416 36.384 436.236 36.384ZM459.672 36.825H467.61V1.482H459.672V19.563H452.616V26.367H459.672V36.825ZM440.142 0.725998H432.204V7.026H419.352V13.641H453.12V7.026H440.142V0.725998ZM438.252 45.96H459.735V53.646H438.252V45.96ZM436.236 21.642C440.457 21.642 442.662 23.532 442.662 25.359V26.493C442.662 28.32 440.457 30.21 436.236 30.21C432.015 30.21 429.81 28.32 429.81 26.493V25.359C429.81 23.532 432.015 21.642 436.236 21.642ZM494.395 46.275C505.105 46.275 509.515 39.156 509.515 29.328V22.335C509.515 12.507 505.105 5.388 494.395 5.388C483.685 5.388 479.275 12.507 479.275 22.335V29.328C479.275 39.156 483.685 46.275 494.395 46.275ZM494.395 12.381C499.75 12.381 501.892 16.161 501.892 23.28V28.383C501.892 35.502 499.75 39.282 494.395 39.282C489.04 39.282 486.898 35.502 486.898 28.383V23.28C486.898 16.161 489.04 12.381 494.395 12.381ZM525.643 1.482H517.642V60.072H525.643V1.482ZM576.872 3.12V9.735H588.149V10.617C588.149 13.578 587.708 17.736 586.637 22.02H572.021C573.281 17.358 573.722 12.255 573.722 7.593V3.12H553.94V9.735H565.973V10.302C565.973 14.082 565.217 18.303 564.083 22.02H549.404V28.635H603.08V22.02H594.449C595.457 17.421 595.898 12.57 595.898 7.908V3.12H576.872ZM556.712 33.675V60.639H596.654V54.276H564.461V50.181H595.142V44.133H564.461V40.038H595.709V33.675H556.712ZM653.238 1.482H645.3V33.36H653.238V20.949H660.924V14.019H653.238V1.482ZM635.472 60.513C637.866 58.749 640.638 56.418 642.465 54.717C644.481 52.89 645.489 51.819 645.804 51C646.182 51.819 647.253 53.016 649.08 54.654C651.222 56.544 654.057 58.938 655.821 60.324L660.231 55.095C658.089 53.52 655.506 51.378 653.364 49.488C650.214 46.716 649.584 45.267 649.584 41.55V36.321H641.772V41.424C641.772 45.015 641.52 46.401 639.378 48.606C638.307 49.677 637.173 50.748 635.472 52.071C633.771 50.748 632.7 49.74 631.629 48.606C629.424 46.338 629.109 45.015 629.109 41.424V36.321H621.297V41.55C621.297 45.204 620.604 46.779 617.58 49.488C615.438 51.378 612.855 53.457 610.713 55.095L615.186 60.45C616.95 59.064 619.722 56.733 621.864 54.78C623.691 53.142 624.951 51.756 625.266 51C625.581 51.693 626.463 52.827 628.416 54.717C630.243 56.418 633.078 58.749 635.472 60.513ZM609.264 30.399C625.959 30.399 634.212 30.021 641.331 28.95L640.575 22.272C633.204 23.217 625.896 23.595 617.265 23.595V4.569H609.264V30.399ZM702.388 37.14V42.054H679.456V37.14H671.581V60.135H710.263V37.14H702.388ZM679.456 53.709V48.228H702.388V53.709H679.456ZM664.084 27.69V34.179H717.76V27.69H664.084ZM691.048 15.405C691.552 16.413 693.568 17.799 698.23 19.941C701.884 21.642 706.042 23.469 710.83 25.359L713.791 19.122C709.507 17.484 704.719 15.405 700.687 13.452C696.844 11.562 694.954 9.609 694.954 5.766V1.797H686.89V5.766C686.89 9.672 684.937 11.562 681.094 13.452C677.062 15.405 672.274 17.484 667.99 19.122L671.014 25.485C675.802 23.595 679.834 21.831 683.614 20.067C688.402 17.862 690.418 16.413 690.985 15.405H691.048ZM770.753 1.482H762.752V60.072H770.753V1.482ZM734.024 6.144H725.96V44.7H736.292C743.978 44.7 752.483 44.322 758.405 43.377L757.523 36.51C751.601 37.329 744.167 37.77 738.182 37.77H734.024V6.144ZM825.258 1.482H817.257V60.072H825.258V28.95H833.322V22.02H825.258V1.482ZM781.725 44.889H791.805C799.491 44.889 807.996 44.511 813.918 43.566L813.036 36.762C807.114 37.581 799.68 38.022 793.695 38.022H789.726V13.389H808.815V6.522H781.725V44.889ZM2.77333 103.326H14.6173V110.004C14.6173 115.233 13.4833 117.879 9.76633 122.037C7.05733 124.998 3.84433 128.148 0.442328 131.172L5.67133 136.527C9.13633 133.314 11.5303 130.92 13.8613 128.463C15.9403 126.321 18.0823 123.864 18.6493 122.667H18.7753C19.2163 123.675 21.0433 125.754 23.4373 128.211C25.7683 130.605 28.5403 133.377 31.2493 135.897L36.3523 130.605C33.2023 127.77 29.9263 124.557 27.2173 121.596C23.4373 117.501 22.6813 114.918 22.6813 110.004V103.326H34.0213V96.522H2.77333V103.326ZM49.2673 91.482H41.2663V150.072H49.2673V91.482ZM64.7752 150.072H103.457V127.329H64.7752V150.072ZM57.2782 114.603V121.344H110.954V114.603H101.819C102.575 110.76 103.079 105.657 103.079 102.759V93.75H64.2712V100.491H95.1412V103.2C95.1412 106.224 94.7632 110.634 93.8812 114.603H57.2782ZM72.6502 133.818H95.5822V143.583H72.6502V133.818ZM161.553 91.482H153.804V150.072H161.553V119.58H169.491V112.65H161.553V91.482ZM134.904 139.74C146.748 126.636 147.504 123.171 147.504 112.02V96.774H133.959V103.704H139.818V111.705C139.818 121.155 138.936 123.549 129.171 135.015L134.904 139.74ZM118.965 134.448C130.809 122.604 131.565 119.706 131.565 109.815V96.774H116.067V103.704H123.879V109.374C123.879 116.934 123.438 119.454 113.421 129.534L118.965 134.448ZM174.793 103.326H186.637V110.004C186.637 115.233 185.503 117.879 181.786 122.037C179.077 124.998 175.864 128.148 172.462 131.172L177.691 136.527C181.156 133.314 183.55 130.92 185.881 128.463C187.96 126.321 190.102 123.864 190.669 122.667H190.795C191.236 123.675 193.063 125.754 195.457 128.211C197.788 130.605 200.56 133.377 203.269 135.897L208.372 130.605C205.222 127.77 201.946 124.557 199.237 121.596C195.457 117.501 194.701 114.918 194.701 110.004V103.326H206.041V96.522H174.793V103.326ZM221.287 91.482H213.286V150.072H221.287V91.482ZM263.129 136.275C273.839 136.275 278.249 129.156 278.249 119.328V112.335C278.249 102.507 273.839 95.388 263.129 95.388C252.419 95.388 248.009 102.507 248.009 112.335V119.328C248.009 129.156 252.419 136.275 263.129 136.275ZM263.129 102.381C268.484 102.381 270.626 106.161 270.626 113.28V118.383C270.626 125.502 268.484 129.282 263.129 129.282C257.774 129.282 255.632 125.502 255.632 118.383V113.28C255.632 106.161 257.774 102.381 263.129 102.381ZM294.377 91.482H286.376V150.072H294.377V91.482ZM302.388 119.58V126.069H356.064V119.58H343.023V112.524C346.425 110.697 348.441 107.925 348.441 104.397V102.885C348.441 95.829 340.503 91.986 329.226 91.986C317.949 91.986 310.011 95.829 310.011 102.885V104.397C310.011 107.925 312.027 110.697 315.429 112.524V119.58H302.388ZM329.226 151.836C339.432 151.836 348.126 148.371 348.126 141.126V139.236C348.126 131.991 339.432 128.526 329.226 128.526C319.02 128.526 310.326 131.991 310.326 139.236V141.126C310.326 148.371 319.02 151.836 329.226 151.836ZM329.226 98.349C335.652 98.349 340.566 100.365 340.566 103.137V104.145C340.566 106.917 335.652 108.933 329.226 108.933C322.8 108.933 317.886 106.917 317.886 104.145V103.137C317.886 100.365 322.8 98.349 329.226 98.349ZM329.226 134.952C334.833 134.952 340.251 136.842 340.251 139.74V140.622C340.251 143.52 334.833 145.41 329.226 145.41C323.619 145.41 318.201 143.52 318.201 140.622V139.74C318.201 136.842 323.619 134.952 329.226 134.952ZM329.226 115.296C331.305 115.296 333.321 115.17 335.148 114.918V119.58H323.304V114.918C325.131 115.17 327.084 115.296 329.226 115.296ZM398.661 92.679H391.101V147.237H398.661V119.517H403.638V150.072H411.198V91.482H403.638V112.65H398.661V92.679ZM374.469 135.582C382.911 135.582 387.51 129.849 387.51 124.179V121.155C387.51 115.485 382.911 109.752 374.469 109.752C366.027 109.752 361.428 115.485 361.428 121.155V124.179C361.428 129.849 366.027 135.582 374.469 135.582ZM359.412 100.932V107.484H388.203V100.932H378.249V93.12H370.5V100.932H359.412ZM374.469 116.115C378.564 116.115 380.58 119.265 380.58 121.596V123.738C380.58 126.069 378.564 129.219 374.469 129.219C370.374 129.219 368.358 126.069 368.358 123.738V121.596C368.358 119.265 370.374 116.115 374.469 116.115ZM423.682 101.436H439.81V101.94C439.81 104.901 438.424 106.917 434.833 108.681C430.738 110.697 425.446 112.902 420.721 114.729L423.808 121.092C428.407 119.265 432.943 117.249 436.975 115.422C440.629 113.784 443.401 112.146 444.031 110.949H444.094C444.724 112.146 447.181 113.658 450.835 115.296C454.867 117.123 459.403 119.139 464.002 120.966L467.089 114.729C462.364 112.902 457.072 110.697 452.977 108.681C449.386 106.917 448 104.901 448 101.94V101.436H464.128V94.695H423.682V101.436ZM417.067 124.305V131.046H439.936V150.072H447.937V131.046H470.743V124.305H417.067ZM504.584 109.752H515.924V116.115H504.584V122.856H515.924V150.072H523.862V91.482H515.924V103.011H504.584V109.752ZM500.552 121.281C496.772 117.186 496.079 114.414 496.079 109.437V95.64H487.952V109.437C487.952 114.603 486.755 117.69 483.101 121.722C480.392 124.683 477.179 127.833 473.651 130.983L478.88 136.401C482.471 133.062 484.928 130.668 487.259 128.211C489.338 126.069 491.606 123.486 491.984 122.352H492.11C492.551 123.423 494.378 125.502 496.772 127.959C499.103 130.353 501.875 133.125 504.71 135.771L509.813 130.416C506.537 127.455 503.261 124.242 500.552 121.281ZM561.672 116.052H573.201V150.072H581.202V91.482H573.201V109.122H561.672V116.052ZM558.018 120.966C554.238 116.871 553.545 114.099 553.545 109.122V95.64H545.418V109.122C545.418 114.288 544.221 117.375 540.567 121.407C537.858 124.368 534.645 127.518 531.117 130.668L536.346 136.086C539.937 132.747 542.394 130.353 544.725 127.896C546.804 125.754 549.072 123.171 549.45 122.037H549.576C550.017 123.108 551.844 125.187 554.238 127.644C556.569 130.038 559.341 132.81 562.176 135.456L567.279 130.101C564.003 127.14 560.727 123.927 558.018 120.966ZM614.98 150.072H651.331V126.951H614.98V150.072ZM622.855 133.566H643.456V143.457H622.855V133.566ZM651.331 91.482H643.393V124.305H651.331V111.075H659.017V104.145H651.331V91.482ZM608.239 126.006C628.651 118.32 633.565 114.477 633.565 104.397V94.758H607.861V101.499H625.627V103.641C625.627 110.319 623.422 112.713 605.341 119.643L608.239 126.006ZM708.671 91.482H700.67V150.072H708.671V119.076H716.735V112.146H708.671V91.482ZM688.133 120.966C684.353 116.871 683.66 114.099 683.66 109.122V95.64H675.533V109.122C675.533 114.288 674.336 117.375 670.682 121.407C667.973 124.368 664.76 127.518 661.232 130.668L666.461 136.086C670.052 132.747 672.509 130.353 674.84 127.896C676.919 125.754 679.187 123.171 679.565 122.037H679.691C680.132 123.108 681.959 125.187 684.353 127.644C686.684 130.038 689.456 132.81 692.291 135.456L697.394 130.101C694.118 127.14 690.842 123.927 688.133 120.966ZM758.198 127.644V132.621H737.408V127.644H729.596V150.198H766.01V127.644H758.198ZM737.408 143.772V139.047H758.198V143.772H737.408ZM766.01 91.482H758.072V124.998H766.01V111.768H773.696V104.838H766.01V91.482ZM740.999 90.663H733.061V96.963H720.146V103.515H753.662V96.963H740.999V90.663ZM737.03 125.439C745.976 125.439 750.953 121.47 750.953 116.304V114.414C750.953 109.248 745.976 105.279 737.03 105.279C728.084 105.279 723.107 109.248 723.107 114.414V116.304C723.107 121.47 728.084 125.439 737.03 125.439ZM737.03 111.39C741.251 111.39 743.456 113.028 743.456 114.792V115.926C743.456 117.69 741.251 119.328 737.03 119.328C732.809 119.328 730.604 117.69 730.604 115.926V114.792C730.604 113.028 732.809 111.39 737.03 111.39ZM826.185 91.482H818.184V150.072H826.185V91.482ZM789.456 96.144H781.392V134.7H791.724C799.41 134.7 807.915 134.322 813.837 133.377L812.955 126.51C807.033 127.329 799.599 127.77 793.614 127.77H789.456V96.144ZM880.69 91.482H872.689V150.072H880.69V118.95H888.754V112.02H880.69V91.482ZM837.157 134.889H847.237C854.923 134.889 863.428 134.511 869.35 133.566L868.468 126.762C862.546 127.581 855.112 128.022 849.127 128.022H845.158V103.389H864.247V96.522H837.157V134.889ZM895.631 145.536H903.947V137.346H895.631V145.536ZM903.065 131.235L904.262 94.191H895.316L896.513 131.235H903.065Z" fill="black"/>
<path d="M202.077 34.431V40.983H180.531V34.431H172.656V60.135H209.952V34.431H202.077ZM209.952 1.482H202.014V31.785H209.952V1.482ZM180.531 53.583V47.535H202.077V53.583H180.531ZM164.781 11.436H176.247V14.145C176.247 17.043 175.428 18.744 172.719 20.886C169.821 23.154 166.356 25.548 162.324 28.068L166.671 34.053C170.577 31.533 173.412 29.58 175.995 27.69C178.767 25.674 180.342 24.288 180.657 23.532H180.72C181.098 24.225 182.673 25.485 185.256 27.186C187.839 28.887 190.548 30.588 193.257 32.226L197.289 26.493C194.391 24.792 191.052 22.713 188.658 21.075C184.941 18.555 184.185 17.043 184.185 14.145V11.436H195.147V4.695H164.781V11.436ZM265.087 1.482H257.086V60.072H265.087V29.076H273.151V22.146H265.087V1.482ZM244.549 30.966C240.769 26.871 240.076 24.099 240.076 19.122V5.64H231.949V19.122C231.949 24.288 230.752 27.375 227.098 31.407C224.389 34.368 221.176 37.518 217.648 40.668L222.877 46.086C226.468 42.747 228.925 40.353 231.256 37.896C233.335 35.754 235.603 33.171 235.981 32.037H236.107C236.548 33.108 238.375 35.187 240.769 37.644C243.1 40.038 245.872 42.81 248.707 45.456L253.81 40.101C250.534 37.14 247.258 33.927 244.549 30.966Z" fill="#1F8CF0"/>
</svg>
