<svg width="399" height="836" viewBox="0 0 399 836" fill="none" xmlns="http://www.w3.org/2000/svg">
<rect x="12" y="12" width="375" height="300" fill="#373946"/>
<path d="M99.4225 149.36V142.26H97.0625V144.02H90.0225V142.3H87.6625V149.36H99.4225ZM85.4625 134.66H89.0225C88.8225 137.12 87.1625 138.94 84.7625 139.8L86.1625 141.64C87.9025 141.02 89.7425 139.4 90.2625 137.64C91.0625 139.32 92.7625 140.6 94.1025 141.14L95.3825 139.3C93.4825 138.7 91.7425 137.08 91.4625 134.66H94.8625V132.78H85.4625V134.66ZM99.4025 141.36V131.76H97.0625V141.36H99.4025ZM97.0625 147.5H90.0225V145.84H97.0625V147.5ZM116.007 132.72H103.947V134.6H113.687C113.687 136.78 113.527 138.78 113.207 140.32H101.967V142.18H108.807V149.58H111.147V142.18H118.067V140.32H115.427C115.827 138.28 116.007 135.6 116.007 132.72ZM129.532 137.86V136H119.192V137.86H129.532ZM121.692 134.76H127.192V132.92H121.692V134.76ZM133.212 131.76H130.852V149.58H133.212V140.92H135.692V138.98H133.212V131.76ZM120.072 142.32C120.072 144.58 121.812 146.16 124.372 146.16C126.932 146.16 128.672 144.5 128.672 142.32C128.672 140.08 126.932 138.48 124.372 138.48C121.812 138.48 120.072 140.14 120.072 142.32ZM122.352 142.32C122.352 141.14 123.212 140.36 124.372 140.36C125.532 140.36 126.392 141.14 126.392 142.32C126.392 143.48 125.672 144.26 124.372 144.26C123.192 144.26 122.352 143.48 122.352 142.32ZM151.317 149.58V131.76H148.977V149.58H151.317ZM145.837 133.62H137.517V135.56H143.317C142.997 139.1 140.337 142.82 136.437 144.6L137.877 146.36C143.317 143.4 145.697 139 145.837 133.62ZM168.895 143H171.535V149.58H173.875V131.76H171.535V135.28H168.895L168.975 137.26H171.535V141H168.975L168.895 143ZM159.235 139.36C159.235 143.1 160.915 145.7 163.815 145.7C166.735 145.7 168.415 143.08 168.415 139.36C168.415 135.6 166.735 132.98 163.815 132.98C160.915 132.98 159.235 135.6 159.235 139.36ZM166.175 139.36C166.175 142.16 165.195 143.82 163.815 143.82C162.475 143.82 161.515 142.16 161.515 139.36C161.515 136.54 162.475 134.86 163.815 134.86C165.195 134.86 166.175 136.54 166.175 139.36ZM191.3 146.02C191.3 143.8 189 142.44 185.06 142.44C181.12 142.44 178.82 143.8 178.82 146.02C178.82 148.18 181.12 149.54 185.06 149.54C189 149.54 191.3 148.18 191.3 146.02ZM177.06 134.94H180.6C180.46 137.48 178.82 139.36 176.32 140.26C176.8 140.86 177.24 141.46 177.72 142.08C179.44 141.48 181.32 139.8 181.86 138.08C182.62 139.7 184.36 141.04 185.72 141.56C186.14 140.94 186.58 140.34 186.98 139.72C185.04 139.08 183.24 137.42 183.06 134.94H186.44V133.02H177.06V134.94ZM186.16 137.9H188.84V142.36H191.18V131.76H188.84V136.02H186.16V137.9ZM185.06 144.32C187.52 144.32 188.92 144.94 188.92 146.02C188.92 147.06 187.52 147.68 185.06 147.68C182.64 147.68 181.22 147.06 181.22 146.02C181.22 144.94 182.64 144.32 185.06 144.32ZM193.725 149.88H195.605L197.045 145.84H194.525L193.725 149.88ZM218.758 149.58V131.76H216.418V149.58H218.758ZM215.078 143.78C212.378 142.04 210.958 139.38 210.958 135.86V133.26H208.538V135.98C208.538 139.52 206.998 142.34 204.118 144.2L205.538 145.92C207.378 144.92 209.218 142.66 209.798 140.62C210.398 142.48 212.258 144.64 213.718 145.54L215.078 143.78ZM221.543 134.8H225.123C225.003 137.38 223.323 139.3 220.843 140.2L222.223 142.02C223.943 141.44 225.823 139.74 226.343 138.02C227.123 139.66 228.843 141 230.223 141.54L231.503 139.68C229.523 139.04 227.723 137.34 227.523 134.8H230.923V132.9H221.543V134.8ZM223.563 143.04V144.9H232.923V149.6H235.283V143.04H223.563ZM237.803 137.9V135.98H235.263V131.76H232.903V142.14H235.263V137.9H237.803ZM253.787 149.58V131.76H251.567V138.96H250.087V132.08H247.907V148.76H250.087V140.84H251.567V149.58H253.787ZM246.787 142.24C246.787 140 245.207 138.54 242.887 138.54C240.607 138.54 238.987 139.98 238.987 142.24C238.987 144.36 240.587 145.94 242.887 145.94C245.207 145.94 246.787 144.48 246.787 142.24ZM238.607 137.88H247.107V136.02H238.607V137.88ZM244.687 142.24C244.687 143.32 243.927 144.1 242.887 144.1C241.867 144.1 241.107 143.36 241.107 142.24C241.107 141.14 241.867 140.38 242.887 140.38C243.927 140.38 244.687 141.14 244.687 142.24ZM240.547 135H245.347V133.14H240.547V135ZM269.972 138.12V131.86H267.652V133.4H260.332V131.9H257.992V138.12H262.772V139.36H255.932V141.24H272.032V139.36H265.112V138.12H269.972ZM270.632 149.5V147.6H260.212V146.68H269.992V142.18H257.832V144.04H267.672V145.04H257.892V149.5H270.632ZM267.652 136.34H260.332V135.18H267.652V136.34ZM287.257 131.76H284.997V149.58H287.257V140.78H289.797V138.84H287.257V131.76ZM278.617 133.62H273.837V135.56H276.417C276.437 138.74 275.217 142.04 272.737 144.36L274.457 145.68C277.277 142.68 278.637 139.3 278.617 133.62ZM283.557 133.62H279.417V135.56H281.357C281.357 139.52 280.257 142.8 277.717 145.46L279.537 146.76C282.657 143.04 283.577 139.76 283.557 133.62ZM305.101 137.54C305.101 134.8 302.521 132.8 298.601 132.8C294.701 132.8 292.121 134.8 292.121 137.54C292.121 140.26 294.701 142.22 298.601 142.22C302.521 142.22 305.101 140.26 305.101 137.54ZM306.641 147.36V145.48H303.001V142.52L300.661 142.62V145.48H296.481V142.62L294.141 142.52V145.48H290.541V147.36H306.641ZM302.701 137.54C302.701 139.14 301.061 140.3 298.601 140.3C296.121 140.3 294.521 139.14 294.521 137.54C294.521 135.92 296.121 134.76 298.601 134.76C301.081 134.76 302.701 135.92 302.701 137.54ZM309.646 143.22H311.726V141.9C311.726 140.98 312.246 140.64 313.266 139.84C314.706 138.72 315.286 138.1 315.286 136.38C315.286 133.92 313.466 132.96 311.186 132.96C309.846 132.96 308.826 133.16 307.906 133.56V135.28C308.726 135.04 309.366 134.86 310.526 134.86C312.026 134.86 312.826 135.28 312.826 136.56C312.826 137.6 312.486 138.08 311.626 138.74C310.326 139.78 309.646 140.34 309.646 141.72V143.22ZM309.526 147.48H311.966V145.14H309.526V147.48Z" fill="white"/>
<path d="M30.976 426.68H33.84V426.728C33.84 428.888 32.464 430.616 30.4 431.368L31.504 432.84C32.88 432.36 34.384 430.936 34.816 429.544C35.424 430.856 36.816 432.04 37.904 432.44L38.928 430.968C37.296 430.44 35.792 428.856 35.76 426.68H38.496V425.144H30.976V426.68ZM42.272 434.344V424.008H40.4V427.8H38.256V429.304H40.4V434.344H42.272ZM42.576 437.88V436.408H34.624V433.384H32.736V437.88H42.576ZM51.3318 433.96C49.7798 433.064 48.8358 431.576 48.7238 429.064H50.9638V427.576H44.5478V429.064H46.8838C46.7718 431.624 45.8278 433.16 43.9718 434.344L45.1078 435.608C46.2758 434.936 47.4598 433.464 47.7958 432.136C48.1638 433.4 49.3478 434.744 50.2758 435.288L51.3318 433.96ZM53.6998 437.608V424.28H51.9398V429.96H50.1798V431.464H51.9398V437.608H53.6998ZM56.4518 438.264V424.008H54.6758V438.264H56.4518ZM49.6838 426.632V425.16H45.9557V426.632H49.6838Z" fill="#6F52E6"/>
<path d="M66 428L70 432L66 436" stroke="#6F52E6"/>
<path d="M354.265 464.7C355.635 464.7 356.715 463.78 356.715 461.48V460.9C356.715 458.56 355.605 457.74 354.275 457.74C352.935 457.74 351.765 458.56 351.765 460.94V461.47C351.765 463.76 352.855 464.7 354.265 464.7ZM354.265 463.98C353.235 463.98 352.705 463.19 352.705 461.54V460.83C352.705 459.18 353.255 458.46 354.275 458.46C355.275 458.46 355.805 459.22 355.805 460.9V461.59C355.805 463.3 355.265 463.98 354.265 463.98ZM357.375 465.6H358.145L360.465 457.28H359.695L357.375 465.6ZM363.747 464.7C365.117 464.7 366.197 463.78 366.197 461.48V460.9C366.197 458.56 365.087 457.74 363.757 457.74C362.417 457.74 361.247 458.56 361.247 460.94V461.47C361.247 463.76 362.337 464.7 363.747 464.7ZM363.747 463.98C362.717 463.98 362.187 463.19 362.187 461.54V460.83C362.187 459.18 362.737 458.46 363.757 458.46C364.757 458.46 365.287 459.22 365.287 460.9V461.59C365.287 463.3 364.747 463.98 363.747 463.98Z" fill="#101010"/>
<rect x="30" y="452" width="307" height="20" rx="10" fill="#EFEFEF"/>
<path d="M54.363 466.205C56.3083 466.205 57.4861 464.5 57.4861 461.775V461.764C57.4861 459.039 56.3083 457.34 54.363 457.34C52.4119 457.34 51.24 459.039 51.24 461.764V461.775C51.24 464.5 52.4119 466.205 54.363 466.205ZM54.363 465.115C53.2263 465.115 52.5642 463.844 52.5642 461.775V461.764C52.5642 459.695 53.2263 458.436 54.363 458.436C55.4939 458.436 56.1619 459.695 56.1619 461.764V461.775C56.1619 463.844 55.4939 465.115 54.363 465.115ZM60.8611 462.062C61.9978 462.062 62.6892 461.166 62.6892 459.742V459.736C62.6892 458.312 61.9978 457.428 60.8611 457.428C59.7244 457.428 59.033 458.312 59.033 459.736V459.742C59.033 461.166 59.7244 462.062 60.8611 462.062ZM61.7341 466L67.4646 457.545H66.3689L60.6384 466H61.7341ZM60.8611 461.277C60.3044 461.277 59.988 460.709 59.988 459.742V459.736C59.988 458.775 60.3044 458.213 60.8611 458.213C61.4177 458.213 61.74 458.775 61.74 459.736V459.742C61.74 460.709 61.4177 461.277 60.8611 461.277ZM67.2361 466.117C68.3728 466.117 69.0642 465.227 69.0642 463.803V463.797C69.0642 462.373 68.3728 461.482 67.2361 461.482C66.0994 461.482 65.408 462.373 65.408 463.797V463.803C65.408 465.227 66.0994 466.117 67.2361 466.117ZM67.2361 465.332C66.6794 465.332 66.363 464.764 66.363 463.803V463.797C66.363 462.83 66.6794 462.268 67.2361 462.268C67.7927 462.268 68.1091 462.83 68.1091 463.797V463.803C68.1091 464.764 67.7927 465.332 67.2361 465.332Z" fill="white"/>
<path d="M42.288 534.088V528.408H40.4V529.816H34.768V528.44H32.88V534.088H42.288ZM31.12 522.328H33.968C33.808 524.296 32.48 525.752 30.56 526.44L31.68 527.912C33.072 527.416 34.544 526.12 34.96 524.712C35.6 526.056 36.96 527.08 38.032 527.512L39.056 526.04C37.536 525.56 36.144 524.264 35.92 522.328H38.64V520.824H31.12V522.328ZM42.272 527.688V520.008H40.4V527.688H42.272ZM40.4 532.6H34.768V531.272H40.4V532.6ZM55.5558 520.776H45.9078V522.28H53.6998C53.6998 524.024 53.5718 525.624 53.3158 526.856H44.3238V528.344H49.7958V534.264H51.6678V528.344H57.2038V526.856H55.0918C55.4118 525.224 55.5558 523.08 55.5558 520.776ZM66.3755 524.888V523.4H58.1035V524.888H66.3755ZM60.1035 522.408H64.5035V520.936H60.1035V522.408ZM69.3195 520.008H67.4315V534.264H69.3195V527.336H71.3035V525.784H69.3195V520.008ZM58.8075 528.456C58.8075 530.264 60.1995 531.528 62.2475 531.528C64.2955 531.528 65.6875 530.2 65.6875 528.456C65.6875 526.664 64.2955 525.384 62.2475 525.384C60.1995 525.384 58.8075 526.712 58.8075 528.456ZM60.6315 528.456C60.6315 527.512 61.3195 526.888 62.2475 526.888C63.1755 526.888 63.8635 527.512 63.8635 528.456C63.8635 529.384 63.2875 530.008 62.2475 530.008C61.3035 530.008 60.6315 529.384 60.6315 528.456ZM83.8033 534.264V520.008H81.9313V534.264H83.8033ZM79.4193 521.496H72.7633V523.048H77.4033C77.1473 525.88 75.0193 528.856 71.8993 530.28L73.0513 531.688C77.4033 529.32 79.3073 525.8 79.4193 521.496ZM90.5541 522.68H93.4181V522.728C93.4181 524.888 92.0421 526.616 89.9781 527.368L91.0821 528.84C92.4581 528.36 93.9621 526.936 94.3941 525.544C95.0021 526.856 96.3941 528.04 97.4821 528.44L98.5061 526.968C96.8741 526.44 95.3701 524.856 95.3381 522.68H98.0741V521.144H90.5541V522.68ZM101.85 530.344V520.008H99.9781V523.8H97.8341V525.304H99.9781V530.344H101.85ZM102.154 533.88V532.408H94.2021V529.384H92.3141V533.88H102.154Z" fill="#101010"/>
<path d="M112 524L116 528L112 532" stroke="#101010"/>
<path d="M354.265 560.7C355.635 560.7 356.715 559.78 356.715 557.48V556.9C356.715 554.56 355.605 553.74 354.275 553.74C352.935 553.74 351.765 554.56 351.765 556.94V557.47C351.765 559.76 352.855 560.7 354.265 560.7ZM354.265 559.98C353.235 559.98 352.705 559.19 352.705 557.54V556.83C352.705 555.18 353.255 554.46 354.275 554.46C355.275 554.46 355.805 555.22 355.805 556.9V557.59C355.805 559.3 355.265 559.98 354.265 559.98ZM357.375 561.6H358.145L360.465 553.28H359.695L357.375 561.6ZM363.747 560.7C365.117 560.7 366.197 559.78 366.197 557.48V556.9C366.197 554.56 365.087 553.74 363.757 553.74C362.417 553.74 361.247 554.56 361.247 556.94V557.47C361.247 559.76 362.337 560.7 363.747 560.7ZM363.747 559.98C362.717 559.98 362.187 559.19 362.187 557.54V556.83C362.187 555.18 362.737 554.46 363.757 554.46C364.757 554.46 365.287 555.22 365.287 556.9V557.59C365.287 559.3 364.747 559.98 363.747 559.98Z" fill="#101010"/>
<rect x="30" y="548" width="307" height="20" rx="10" fill="#EFEFEF"/>
<path d="M54.363 562.205C56.3083 562.205 57.4861 560.5 57.4861 557.775V557.764C57.4861 555.039 56.3083 553.34 54.363 553.34C52.4119 553.34 51.24 555.039 51.24 557.764V557.775C51.24 560.5 52.4119 562.205 54.363 562.205ZM54.363 561.115C53.2263 561.115 52.5642 559.844 52.5642 557.775V557.764C52.5642 555.695 53.2263 554.436 54.363 554.436C55.4939 554.436 56.1619 555.695 56.1619 557.764V557.775C56.1619 559.844 55.4939 561.115 54.363 561.115ZM60.8611 558.062C61.9978 558.062 62.6892 557.166 62.6892 555.742V555.736C62.6892 554.312 61.9978 553.428 60.8611 553.428C59.7244 553.428 59.033 554.312 59.033 555.736V555.742C59.033 557.166 59.7244 558.062 60.8611 558.062ZM61.7341 562L67.4646 553.545H66.3689L60.6384 562H61.7341ZM60.8611 557.277C60.3044 557.277 59.988 556.709 59.988 555.742V555.736C59.988 554.775 60.3044 554.213 60.8611 554.213C61.4177 554.213 61.74 554.775 61.74 555.736V555.742C61.74 556.709 61.4177 557.277 60.8611 557.277ZM67.2361 562.117C68.3728 562.117 69.0642 561.227 69.0642 559.803V559.797C69.0642 558.373 68.3728 557.482 67.2361 557.482C66.0994 557.482 65.408 558.373 65.408 559.797V559.803C65.408 561.227 66.0994 562.117 67.2361 562.117ZM67.2361 561.332C66.6794 561.332 66.363 560.764 66.363 559.803V559.797C66.363 558.83 66.6794 558.268 67.2361 558.268C67.7927 558.268 68.1091 558.83 68.1091 559.797V559.803C68.1091 560.764 67.7927 561.332 67.2361 561.332Z" fill="white"/>
<path d="M42.288 610.088V604.408H40.4V605.816H34.768V604.44H32.88V610.088H42.288ZM31.12 598.328H33.968C33.808 600.296 32.48 601.752 30.56 602.44L31.68 603.912C33.072 603.416 34.544 602.12 34.96 600.712C35.6 602.056 36.96 603.08 38.032 603.512L39.056 602.04C37.536 601.56 36.144 600.264 35.92 598.328H38.64V596.824H31.12V598.328ZM42.272 603.688V596.008H40.4V603.688H42.272ZM40.4 608.6H34.768V607.272H40.4V608.6ZM55.5558 596.776H45.9078V598.28H53.6998C53.6998 600.024 53.5718 601.624 53.3158 602.856H44.3238V604.344H49.7958V610.264H51.6678V604.344H57.2038V602.856H55.0918C55.4118 601.224 55.5558 599.08 55.5558 596.776ZM66.3755 600.888V599.4H58.1035V600.888H66.3755ZM60.1035 598.408H64.5035V596.936H60.1035V598.408ZM69.3195 596.008H67.4315V610.264H69.3195V603.336H71.3035V601.784H69.3195V596.008ZM58.8075 604.456C58.8075 606.264 60.1995 607.528 62.2475 607.528C64.2955 607.528 65.6875 606.2 65.6875 604.456C65.6875 602.664 64.2955 601.384 62.2475 601.384C60.1995 601.384 58.8075 602.712 58.8075 604.456ZM60.6315 604.456C60.6315 603.512 61.3195 602.888 62.2475 602.888C63.1755 602.888 63.8635 603.512 63.8635 604.456C63.8635 605.384 63.2875 606.008 62.2475 606.008C61.3035 606.008 60.6315 605.384 60.6315 604.456ZM83.8033 610.264V596.008H81.9313V610.264H83.8033ZM79.4193 597.496H72.7633V599.048H77.4033C77.1473 601.88 75.0193 604.856 71.8993 606.28L73.0513 607.688C77.4033 605.32 79.3073 601.8 79.4193 597.496ZM102.938 604.088V602.584H90.0581V604.088H95.5301V605C92.9221 605.176 91.4181 606.136 91.4181 607.56C91.4181 609.144 93.2741 610.12 96.4901 610.12C99.7221 610.12 101.578 609.144 101.578 607.56C101.578 606.136 100.058 605.176 97.4021 605V604.088H102.938ZM102.282 600.584C100.378 600.504 98.2181 599.608 97.6421 598.168H101.658V596.68H91.3861V598.168H95.3861C94.8901 599.608 92.9541 600.52 90.7301 600.616C90.9861 601.096 91.2581 601.576 91.5141 602.072C93.7701 601.88 95.7701 600.824 96.4901 599.416C97.3221 600.792 99.4021 601.896 101.482 602.072L102.282 600.584ZM99.6741 607.576C99.6741 608.264 98.4101 608.664 96.4741 608.664C94.5541 608.664 93.3221 608.264 93.3221 607.576C93.3221 606.856 94.5541 606.456 96.4741 606.456C98.4101 606.456 99.6741 606.856 99.6741 607.576Z" fill="#101010"/>
<path d="M112 600L116 604L112 608" stroke="#101010"/>
<path d="M355.238 636.73C356.471 636.73 357.443 635.902 357.443 633.832V633.31C357.443 631.204 356.444 630.466 355.247 630.466C354.041 630.466 352.988 631.204 352.988 633.346V633.823C352.988 635.884 353.969 636.73 355.238 636.73ZM355.238 636.082C354.311 636.082 353.834 635.371 353.834 633.886V633.247C353.834 631.762 354.329 631.114 355.247 631.114C356.147 631.114 356.624 631.798 356.624 633.31V633.931C356.624 635.47 356.138 636.082 355.238 636.082ZM358.038 637.54H358.731L360.819 630.052H360.126L358.038 637.54ZM363.772 636.73C365.005 636.73 365.977 635.902 365.977 633.832V633.31C365.977 631.204 364.978 630.466 363.781 630.466C362.575 630.466 361.522 631.204 361.522 633.346V633.823C361.522 635.884 362.503 636.73 363.772 636.73ZM363.772 636.082C362.845 636.082 362.368 635.371 362.368 633.886V633.247C362.368 631.762 362.863 631.114 363.781 631.114C364.681 631.114 365.158 631.798 365.158 633.31V633.931C365.158 635.47 364.672 636.082 363.772 636.082Z" fill="#101010"/>
<rect x="30" y="624" width="307" height="20" rx="10" fill="#EFEFEF"/>
<path d="M54.363 638.205C56.3083 638.205 57.4861 636.5 57.4861 633.775V633.764C57.4861 631.039 56.3083 629.34 54.363 629.34C52.4119 629.34 51.24 631.039 51.24 633.764V633.775C51.24 636.5 52.4119 638.205 54.363 638.205ZM54.363 637.115C53.2263 637.115 52.5642 635.844 52.5642 633.775V633.764C52.5642 631.695 53.2263 630.436 54.363 630.436C55.4939 630.436 56.1619 631.695 56.1619 633.764V633.775C56.1619 635.844 55.4939 637.115 54.363 637.115ZM60.8611 634.062C61.9978 634.062 62.6892 633.166 62.6892 631.742V631.736C62.6892 630.312 61.9978 629.428 60.8611 629.428C59.7244 629.428 59.033 630.312 59.033 631.736V631.742C59.033 633.166 59.7244 634.062 60.8611 634.062ZM61.7341 638L67.4646 629.545H66.3689L60.6384 638H61.7341ZM60.8611 633.277C60.3044 633.277 59.988 632.709 59.988 631.742V631.736C59.988 630.775 60.3044 630.213 60.8611 630.213C61.4177 630.213 61.74 630.775 61.74 631.736V631.742C61.74 632.709 61.4177 633.277 60.8611 633.277ZM67.2361 638.117C68.3728 638.117 69.0642 637.227 69.0642 635.803V635.797C69.0642 634.373 68.3728 633.482 67.2361 633.482C66.0994 633.482 65.408 634.373 65.408 635.797V635.803C65.408 637.227 66.0994 638.117 67.2361 638.117ZM67.2361 637.332C66.6794 637.332 66.363 636.764 66.363 635.803V635.797C66.363 634.83 66.6794 634.268 67.2361 634.268C67.7927 634.268 68.1091 634.83 68.1091 635.797V635.803C68.1091 636.764 67.7927 637.332 67.2361 637.332Z" fill="white"/>
<path d="M42.288 686.088V680.408H40.4V681.816H34.768V680.44H32.88V686.088H42.288ZM31.12 674.328H33.968C33.808 676.296 32.48 677.752 30.56 678.44L31.68 679.912C33.072 679.416 34.544 678.12 34.96 676.712C35.6 678.056 36.96 679.08 38.032 679.512L39.056 678.04C37.536 677.56 36.144 676.264 35.92 674.328H38.64V672.824H31.12V674.328ZM42.272 679.688V672.008H40.4V679.688H42.272ZM40.4 684.6H34.768V683.272H40.4V684.6ZM55.5558 672.776H45.9078V674.28H53.6998C53.6998 676.024 53.5718 677.624 53.3158 678.856H44.3238V680.344H49.7958V686.264H51.6678V680.344H57.2038V678.856H55.0918C55.4118 677.224 55.5558 675.08 55.5558 672.776ZM66.3755 676.888V675.4H58.1035V676.888H66.3755ZM60.1035 674.408H64.5035V672.936H60.1035V674.408ZM69.3195 672.008H67.4315V686.264H69.3195V679.336H71.3035V677.784H69.3195V672.008ZM58.8075 680.456C58.8075 682.264 60.1995 683.528 62.2475 683.528C64.2955 683.528 65.6875 682.2 65.6875 680.456C65.6875 678.664 64.2955 677.384 62.2475 677.384C60.1995 677.384 58.8075 678.712 58.8075 680.456ZM60.6315 680.456C60.6315 679.512 61.3195 678.888 62.2475 678.888C63.1755 678.888 63.8635 679.512 63.8635 680.456C63.8635 681.384 63.2875 682.008 62.2475 682.008C61.3035 682.008 60.6315 681.384 60.6315 680.456ZM83.8033 686.264V672.008H81.9313V686.264H83.8033ZM79.4193 673.496H72.7633V675.048H77.4033C77.1473 677.88 75.0193 680.856 71.8993 682.28L73.0513 683.688C77.4033 681.32 79.3073 677.8 79.4193 673.496ZM101.114 678.584C101.114 677.144 99.3861 676.296 96.5221 676.296C93.6741 676.296 91.9461 677.144 91.9461 678.584C91.9461 679.992 93.6741 680.84 96.5221 680.84C99.3861 680.84 101.114 679.992 101.114 678.584ZM97.4021 686.248V682.888H102.938V681.4H90.0581V682.888H95.5301V686.248H97.4021ZM102.218 675.8V674.328H90.8101V675.8H102.218ZM93.9621 673.656H99.0501V672.2H93.9621V673.656ZM99.1941 678.584C99.1941 679.112 98.0101 679.432 96.5221 679.432C95.0341 679.432 93.8821 679.112 93.8821 678.584C93.8821 678.024 95.0341 677.704 96.5221 677.704C98.0101 677.704 99.1941 678.024 99.1941 678.584Z" fill="#101010"/>
<path d="M112 676L116 680L112 684" stroke="#101010"/>
<path d="M354.265 712.7C355.635 712.7 356.715 711.78 356.715 709.48V708.9C356.715 706.56 355.605 705.74 354.275 705.74C352.935 705.74 351.765 706.56 351.765 708.94V709.47C351.765 711.76 352.855 712.7 354.265 712.7ZM354.265 711.98C353.235 711.98 352.705 711.19 352.705 709.54V708.83C352.705 707.18 353.255 706.46 354.275 706.46C355.275 706.46 355.805 707.22 355.805 708.9V709.59C355.805 711.3 355.265 711.98 354.265 711.98ZM357.375 713.6H358.145L360.465 705.28H359.695L357.375 713.6ZM363.747 712.7C365.117 712.7 366.197 711.78 366.197 709.48V708.9C366.197 706.56 365.087 705.74 363.757 705.74C362.417 705.74 361.247 706.56 361.247 708.94V709.47C361.247 711.76 362.337 712.7 363.747 712.7ZM363.747 711.98C362.717 711.98 362.187 711.19 362.187 709.54V708.83C362.187 707.18 362.737 706.46 363.757 706.46C364.757 706.46 365.287 707.22 365.287 708.9V709.59C365.287 711.3 364.747 711.98 363.747 711.98Z" fill="#101010"/>
<rect x="30" y="700" width="307" height="20" rx="10" fill="#EFEFEF"/>
<path d="M54.363 714.205C56.3083 714.205 57.4861 712.5 57.4861 709.775V709.764C57.4861 707.039 56.3083 705.34 54.363 705.34C52.4119 705.34 51.24 707.039 51.24 709.764V709.775C51.24 712.5 52.4119 714.205 54.363 714.205ZM54.363 713.115C53.2263 713.115 52.5642 711.844 52.5642 709.775V709.764C52.5642 707.695 53.2263 706.436 54.363 706.436C55.4939 706.436 56.1619 707.695 56.1619 709.764V709.775C56.1619 711.844 55.4939 713.115 54.363 713.115ZM60.8611 710.062C61.9978 710.062 62.6892 709.166 62.6892 707.742V707.736C62.6892 706.312 61.9978 705.428 60.8611 705.428C59.7244 705.428 59.033 706.312 59.033 707.736V707.742C59.033 709.166 59.7244 710.062 60.8611 710.062ZM61.7341 714L67.4646 705.545H66.3689L60.6384 714H61.7341ZM60.8611 709.277C60.3044 709.277 59.988 708.709 59.988 707.742V707.736C59.988 706.775 60.3044 706.213 60.8611 706.213C61.4177 706.213 61.74 706.775 61.74 707.736V707.742C61.74 708.709 61.4177 709.277 60.8611 709.277ZM67.2361 714.117C68.3728 714.117 69.0642 713.227 69.0642 711.803V711.797C69.0642 710.373 68.3728 709.482 67.2361 709.482C66.0994 709.482 65.408 710.373 65.408 711.797V711.803C65.408 713.227 66.0994 714.117 67.2361 714.117ZM67.2361 713.332C66.6794 713.332 66.363 712.764 66.363 711.803V711.797C66.363 710.83 66.6794 710.268 67.2361 710.268C67.7927 710.268 68.1091 710.83 68.1091 711.797V711.803C68.1091 712.764 67.7927 713.332 67.2361 713.332Z" fill="white"/>
<rect x="101.5" y="180" width="197" height="60" rx="8" fill="#6F52E6"/>
<path d="M150.031 210.864C148.155 209.898 146.965 208.162 146.965 205.53V205.208H149.373V203.906H142.751V205.208H145.243V205.544C145.243 208.162 144.221 210.094 142.121 211.214L143.101 212.432C144.557 211.718 145.817 210.052 146.111 208.792C146.489 209.996 148.015 211.578 149.121 212.138L150.031 210.864ZM152.551 215.106V202.632H150.913V215.106H152.551ZM164.174 214.952V210.346H155.788V214.952H164.174ZM164.174 203.122H155.788V204.424H162.536C162.55 205.25 162.396 206.776 162.2 207.588H154.346V208.89H165.616V207.588H163.754C164.02 206.398 164.174 204.788 164.174 203.122ZM162.55 213.678H157.412V211.592H162.55V213.678ZM179.895 202.632H178.243V215.106H179.895V208.694H181.673V207.336H179.895V202.632ZM176.493 212.026V203.612H174.855V206.636H172.209V203.64H170.585V212.026H176.493ZM174.855 210.738H172.209V207.924H174.855V210.738ZM192.456 210.304V208.988H185.316V207.476H192.092V203.43H183.622V204.732H190.468V206.174H183.692V210.304H187.038V212.25H182.25V213.552H193.52V212.25H188.676V210.304H192.456ZM208.359 215.106V202.632H206.721V215.106H208.359ZM205.783 211.046C203.893 209.828 202.899 207.966 202.899 205.502V203.682H201.205V205.586C201.205 208.064 200.127 210.038 198.111 211.34L199.105 212.544C200.393 211.844 201.681 210.262 202.087 208.834C202.507 210.136 203.809 211.648 204.831 212.278L205.783 211.046ZM210.308 204.76H212.814C212.73 206.566 211.554 207.91 209.818 208.54L210.784 209.814C211.988 209.408 213.304 208.218 213.668 207.014C214.214 208.162 215.418 209.1 216.384 209.478L217.28 208.176C215.894 207.728 214.634 206.538 214.494 204.76H216.874V203.43H210.308V204.76ZM211.722 210.528V211.83H218.274V215.12H219.926V210.528H211.722ZM221.69 206.93V205.586H219.912V202.632H218.26V209.898H219.912V206.93H221.69ZM229.408 205.698V204.438H222.17V205.698H229.408ZM224.06 203.92H227.756V202.688H224.06V203.92ZM233.776 207.238V205.894H232.026V202.632H230.388V209.716H232.026V207.238H233.776ZM232.334 215.078V213.846H225.446V213.23H232.026V210.318H223.794V211.536H230.374V212.124H223.808V215.078H232.334ZM228.862 207.952C228.862 206.804 227.602 206.006 225.908 206.006C224.172 206.006 222.912 206.804 222.912 207.952C222.912 209.114 224.186 209.898 225.908 209.898C227.602 209.898 228.862 209.114 228.862 207.952ZM224.536 207.952C224.536 207.504 225.152 207.196 225.908 207.196C226.622 207.196 227.252 207.504 227.252 207.952C227.252 208.428 226.622 208.722 225.908 208.722C225.166 208.722 224.536 208.428 224.536 207.952ZM244.993 215.106V202.632H243.425V207.532H242.375V202.856H240.835V214.532H242.375V208.848H243.425V215.106H244.993ZM240.247 211.788C240.205 211.368 240.135 210.948 240.065 210.528C239.001 210.766 237.895 210.836 236.453 210.836V208.498H239.519V203.99H234.787V205.292H237.881V207.21H234.801V212.138H235.795C237.223 212.138 239.183 212.054 240.247 211.788ZM256.686 206.678C256.686 204.76 254.88 203.36 252.136 203.36C249.406 203.36 247.6 204.76 247.6 206.678C247.6 208.582 249.406 209.954 252.136 209.954C254.88 209.954 256.686 208.582 256.686 206.678ZM257.764 213.552V212.236H255.216V210.164L253.578 210.234V212.236H250.652V210.234L249.014 210.164V212.236H246.494V213.552H257.764ZM255.006 206.678C255.006 207.798 253.858 208.61 252.136 208.61C250.4 208.61 249.28 207.798 249.28 206.678C249.28 205.544 250.4 204.732 252.136 204.732C253.872 204.732 255.006 205.544 255.006 206.678Z" fill="white"/>
<path d="M90.664 358.256H89.428V368.948H90.664V363.452H92.32V362.432H90.664V358.256ZM82.48 362.828C82.48 365.084 83.5 366.572 85.216 366.572C86.932 366.572 87.928 365.084 87.928 362.84C87.928 360.572 86.932 359.084 85.216 359.084C83.5 359.084 82.48 360.572 82.48 362.828ZM86.764 362.828C86.764 364.544 86.128 365.576 85.216 365.576C84.316 365.576 83.692 364.544 83.692 362.828C83.692 361.112 84.316 360.092 85.216 360.092C86.128 360.092 86.764 361.112 86.764 362.828ZM93.2228 359.984H95.4548V360.08C95.4548 361.664 94.3148 362.912 92.8148 363.476L93.5588 364.424C94.6268 364.028 95.7788 362.996 96.0908 361.928C96.5588 362.936 97.6028 363.776 98.4788 364.124L99.1628 363.152C97.9148 362.768 96.7148 361.616 96.7148 360.02V359.984H98.8628V359H93.2228V359.984ZM94.3508 365.072V366.044H100.327V368.96H101.563V365.072H94.3508ZM101.551 364.52V358.268H100.315V364.52H101.551ZM115.098 368.816V364.556H113.862V365.72H109.35V364.58H108.102V368.816H115.098ZM106.758 359.816H109.002C108.99 361.4 107.838 362.672 106.35 363.224L107.094 364.184C108.162 363.764 109.314 362.756 109.626 361.688C110.094 362.684 111.138 363.548 112.026 363.896L112.698 362.912C111.462 362.516 110.298 361.376 110.262 359.816H112.398V358.844H106.758V359.816ZM115.086 364.004V358.256H113.85V364.004H115.086ZM113.862 367.82H109.35V366.68H113.862V367.82ZM125.037 358.868H117.885V359.876H123.801C123.789 361.112 123.705 362.48 123.501 363.428H116.661V364.424H120.861V368.948H122.085V364.424H126.321V363.428H124.677C124.941 362.156 125.037 360.656 125.037 358.868ZM132.636 364.544C132.636 363.236 131.616 362.264 130.092 362.264C128.556 362.264 127.524 363.272 127.524 364.544C127.524 365.864 128.556 366.824 130.092 366.824C131.616 366.824 132.636 365.828 132.636 364.544ZM131.424 364.544C131.424 365.288 130.92 365.816 130.092 365.816C129.312 365.816 128.76 365.288 128.76 364.544C128.76 363.788 129.312 363.272 130.092 363.272C130.86 363.272 131.424 363.788 131.424 364.544ZM133.176 361.748V360.752H126.96V361.748H133.176ZM128.472 359.888H131.712V358.88H128.472V359.888ZM135.348 358.256H134.112V368.948H135.348V363.68H137.004V362.648H135.348V358.256ZM146.234 368.948V358.256H145.01V368.948H146.234ZM142.958 359.384H138.002V360.392H141.638C141.434 362.636 139.838 364.88 137.378 366.008L138.146 366.944C141.23 365.252 142.886 362.696 142.958 359.384ZM157.469 364.088V363.164H147.809V364.088H157.469ZM156.521 368.864V367.988H150.269V367.256H156.233V364.784H149.009V365.672H155.009V366.392H149.045V368.864H156.521ZM156.401 362.516V361.616H150.317V360.944H156.173V358.532H149.057V359.432H154.937V360.116H149.081V362.516H156.401ZM170.152 368.948V358.256H168.928V368.948H170.152ZM167.86 365.552C166.3 364.568 165.304 362.912 165.304 360.86V359.18H164.032V360.932C164.032 362.972 162.976 364.736 161.32 365.816L162.076 366.716C163.252 366.008 164.32 364.664 164.68 363.392C165.076 364.568 166.216 365.888 167.128 366.476L167.86 365.552ZM171.859 359.96H174.091V360.02C174.091 361.616 172.963 362.888 171.463 363.452L172.183 364.4C173.263 363.992 174.403 362.96 174.715 361.904C175.183 362.912 176.203 363.752 177.103 364.112L177.775 363.128C176.539 362.72 175.351 361.556 175.351 359.984V359.96H177.487V358.94H171.859V359.96ZM173.059 365.084V366.056H178.807V368.96H180.043V365.084H173.059ZM181.603 361.868V360.848H180.031V358.256H178.795V364.52H180.031V361.868H181.603ZM187.702 364.544C187.702 363.236 186.682 362.264 185.158 362.264C183.622 362.264 182.59 363.272 182.59 364.544C182.59 365.864 183.622 366.824 185.158 366.824C186.682 366.824 187.702 365.828 187.702 364.544ZM186.49 364.544C186.49 365.288 185.986 365.816 185.158 365.816C184.378 365.816 183.826 365.288 183.826 364.544C183.826 363.788 184.378 363.272 185.158 363.272C185.926 363.272 186.49 363.788 186.49 364.544ZM188.242 361.748V360.752H182.026V361.748H188.242ZM183.538 359.888H186.778V358.88H183.538V359.888ZM190.414 358.256H189.178V368.948H190.414V363.68H192.07V362.648H190.414V358.256ZM199.177 365.468C197.605 364.616 196.453 363.02 196.453 360.86V360.344H198.625V359.372H192.949V360.344H195.181V360.872C195.181 363.032 194.113 364.724 192.409 365.684L193.189 366.584C194.461 365.912 195.541 364.496 195.817 363.344C196.165 364.448 197.461 365.816 198.457 366.368L199.177 365.468ZM201.301 368.948V358.256H200.077V368.948H201.301ZM211.608 361.28C211.608 359.804 210.432 358.736 208.872 358.736C207.312 358.736 206.136 359.84 206.136 361.28C206.136 362.756 207.312 363.728 208.872 363.728C210.432 363.728 211.608 362.708 211.608 361.28ZM210.384 361.28C210.384 362.072 209.808 362.684 208.872 362.684C207.96 362.684 207.372 362.072 207.372 361.268C207.372 360.44 207.948 359.78 208.872 359.78C209.808 359.78 210.384 360.452 210.384 361.28ZM210.336 368.396L210.168 367.46C209.604 367.616 208.872 367.76 208.248 367.772V364.736H207.072V368.756C208.392 368.768 209.544 368.6 210.336 368.396ZM213.84 364.784V363.872H211.392V364.784H213.84ZM215.292 366.032V365.144H209.964V366.032H215.292ZM214.56 367.688C214.56 366.788 213.66 366.296 212.58 366.296C211.512 366.296 210.612 366.788 210.612 367.688C210.612 368.564 211.512 369.056 212.58 369.056C213.66 369.056 214.56 368.564 214.56 367.688ZM213.444 367.688C213.444 368.048 213.06 368.204 212.58 368.204C212.136 368.204 211.74 368.036 211.74 367.688C211.74 367.34 212.136 367.16 212.58 367.16C213.06 367.16 213.444 367.328 213.444 367.688ZM215.892 361.544V360.536H214.332V358.256H213.096V363.476H214.332V361.544H215.892ZM226.287 361.832V360.8H224.715V358.256H223.479V364.196H224.715V361.832H226.287ZM221.967 361.388C221.967 359.876 220.731 358.844 219.219 358.844C217.707 358.844 216.483 359.9 216.483 361.388C216.483 362.9 217.719 363.848 219.219 363.848C220.743 363.848 221.967 362.9 221.967 361.388ZM220.755 361.376C220.755 362.252 220.131 362.9 219.219 362.9C218.307 362.9 217.683 362.276 217.683 361.376C217.683 360.536 218.295 359.864 219.219 359.864C220.179 359.864 220.755 360.524 220.755 361.376ZM225.999 368.024C224.811 367.604 223.995 366.572 223.995 365.228V364.724H222.783V365.24C222.783 366.608 221.979 367.7 220.731 368.264L221.427 369.092C222.255 368.684 223.191 367.784 223.407 366.98C223.683 367.772 224.619 368.6 225.339 368.912L225.999 368.024ZM220.623 368.036L221.403 367.172C220.791 366.98 220.035 366.332 220.035 365.252V364.784H218.835V365.312C218.835 366.668 217.863 367.712 216.735 368.192L217.407 369.02C218.391 368.6 219.207 367.784 219.495 366.932C219.711 367.4 220.239 367.832 220.623 368.036ZM232.218 366.476V363.788H236.454V362.804H234.846C235.122 361.76 235.17 360.488 235.182 358.796H228.042V359.792H233.958C233.946 360.932 233.838 362.024 233.646 362.804H226.794V363.788H230.994V366.476H232.218ZM235.35 368.636V367.652H229.266V365.276H228.03V368.636H235.35ZM237.944 365.12H239.012L239.168 359H237.788L237.944 365.12ZM237.824 367.628H239.144V366.332H237.824V367.628ZM88.216 382.904H89.932V386.948H91.168V376.256H89.932V378.476H88.216L88.24 379.472H89.932V381.92H88.24L88.216 382.904ZM82.468 380.816C82.468 383.072 83.5 384.584 85.156 384.584C86.812 384.584 87.856 383.072 87.856 380.828C87.856 378.56 86.812 377.048 85.156 377.048C83.5 377.048 82.468 378.56 82.468 380.816ZM86.668 380.816C86.668 382.532 86.056 383.6 85.156 383.6C84.268 383.6 83.668 382.532 83.668 380.816C83.668 379.112 84.268 378.044 85.156 378.044C86.056 378.044 86.668 379.112 86.668 380.816ZM101.635 384.848C101.635 383.564 100.303 382.724 97.9868 382.724C95.6828 382.724 94.3628 383.564 94.3628 384.848C94.3628 386.108 95.6828 386.948 97.9868 386.948C100.303 386.948 101.635 386.108 101.635 384.848ZM93.1148 377.96H95.3348V378.056C95.3348 379.64 94.1948 380.924 92.6948 381.476L93.4388 382.436C94.5068 382.028 95.6588 380.984 95.9708 379.94C96.4268 380.936 97.4828 381.776 98.3588 382.124L99.0428 381.152C97.7948 380.768 96.6068 379.592 96.6068 377.996V377.96H98.7428V376.94H93.1148V377.96ZM98.5748 379.868H100.315V382.688H101.551V376.256H100.315V378.848H98.5748V379.868ZM97.9868 383.732C99.4988 383.732 100.375 384.14 100.375 384.848C100.375 385.544 99.4988 385.952 97.9868 385.952C96.5108 385.952 95.6348 385.544 95.6348 384.848C95.6348 384.14 96.5108 383.732 97.9868 383.732ZM112.786 381.752V380.768H103.126V381.752H112.786ZM111.898 386.876V385.904H105.586V385.136H111.502V382.52H104.302V383.492H110.266V384.236H104.362V386.876H111.898ZM107.974 376.316C105.622 376.316 104.278 377.084 104.278 378.224C104.278 379.352 105.622 380.12 107.974 380.12C110.338 380.12 111.694 379.352 111.694 378.224C111.694 377.084 110.338 376.316 107.974 376.316ZM107.974 377.264C109.522 377.264 110.434 377.636 110.434 378.224C110.434 378.788 109.522 379.16 107.974 379.16C106.426 379.16 105.526 378.788 105.526 378.224C105.526 377.636 106.426 377.264 107.974 377.264ZM125.469 386.948V376.256H124.245V386.948H125.469ZM123.177 383.552C121.617 382.568 120.621 380.912 120.621 378.86V377.18H119.349V378.932C119.349 380.972 118.293 382.736 116.637 383.816L117.393 384.716C118.569 384.008 119.637 382.664 119.997 381.392C120.393 382.568 121.533 383.888 122.445 384.476L123.177 383.552ZM127.176 377.96H129.408V378.02C129.408 379.616 128.28 380.888 126.78 381.452L127.5 382.4C128.58 381.992 129.72 380.96 130.032 379.904C130.5 380.912 131.52 381.752 132.42 382.112L133.092 381.128C131.856 380.72 130.668 379.556 130.668 377.984V377.96H132.804V376.94H127.176V377.96ZM128.376 383.084V384.056H134.124V386.96H135.36V383.084H128.376ZM136.92 379.868V378.848H135.348V376.256H134.112V382.52H135.348V379.868H136.92ZM143.018 382.544C143.018 381.236 141.998 380.264 140.474 380.264C138.938 380.264 137.906 381.272 137.906 382.544C137.906 383.864 138.938 384.824 140.474 384.824C141.998 384.824 143.018 383.828 143.018 382.544ZM141.806 382.544C141.806 383.288 141.302 383.816 140.474 383.816C139.694 383.816 139.142 383.288 139.142 382.544C139.142 381.788 139.694 381.272 140.474 381.272C141.242 381.272 141.806 381.788 141.806 382.544ZM143.558 379.748V378.752H137.342V379.748H143.558ZM138.854 377.888H142.094V376.88H138.854V377.888ZM145.73 376.256H144.494V386.948H145.73V381.68H147.386V380.648H145.73V376.256ZM153.713 378.956H155.381V380.312H153.713V381.32H155.381V384.008H156.605V376.256H155.381V377.96H153.713V378.956ZM156.833 386.636V385.652H150.869V383.336H149.633V386.636H156.833ZM153.161 382.124V377.18H148.277V382.124H153.161ZM151.925 381.176H149.501V378.14H151.925V381.176ZM169.648 376.256H168.412V386.948H169.648V381.452H171.304V380.432H169.648V376.256ZM161.464 380.828C161.464 383.084 162.484 384.572 164.2 384.572C165.916 384.572 166.912 383.084 166.912 380.84C166.912 378.572 165.916 377.084 164.2 377.084C162.484 377.084 161.464 378.572 161.464 380.828ZM165.748 380.828C165.748 382.544 165.112 383.576 164.2 383.576C163.3 383.576 162.676 382.544 162.676 380.828C162.676 379.112 163.3 378.092 164.2 378.092C165.112 378.092 165.748 379.112 165.748 380.828ZM180.739 386.948V376.256H179.551V380.504H178.471V376.472H177.307V386.432H178.471V381.536H179.551V386.948H180.739ZM176.671 383.072C175.663 383.288 174.559 383.36 173.347 383.36V381.224H176.119V377.456H172.087V378.452H174.883V380.252H172.123V384.356H173.023C174.307 384.344 175.783 384.248 176.827 384.02L176.671 383.072ZM192.822 376.256V382.232H194.058V376.256H192.822ZM191.022 379.388C191.022 377.888 189.786 376.844 188.274 376.844C186.75 376.844 185.526 377.912 185.526 379.388C185.526 380.9 186.762 381.848 188.274 381.848C189.798 381.848 191.022 380.9 191.022 379.388ZM189.822 379.376C189.822 380.252 189.198 380.912 188.274 380.912C187.362 380.912 186.726 380.264 186.726 379.376C186.726 378.548 187.35 377.852 188.274 377.852C189.234 377.852 189.822 378.536 189.822 379.376ZM195.09 386.024C193.902 385.604 193.074 384.572 193.074 383.228V382.748H191.886V383.24C191.886 384.608 191.058 385.7 189.822 386.264L190.518 387.092C191.346 386.684 192.282 385.784 192.498 384.98C192.774 385.772 193.71 386.6 194.418 386.912L195.09 386.024ZM189.702 386.036L190.494 385.172C189.882 384.98 189.126 384.332 189.126 383.252V382.808H187.926V383.312C187.926 384.668 186.954 385.712 185.826 386.192L186.498 387.02C187.47 386.6 188.31 385.784 188.574 384.932C188.79 385.4 189.318 385.832 189.702 386.036ZM205.305 382.58V381.584H195.645V382.58H205.305ZM204.117 380.276V379.292H198.189V376.604H196.953V380.276H204.117ZM204.189 386.66V385.676H198.129V383.516H196.893V386.66H204.189ZM217.472 376.256H216.248V386.948H217.472V381.38H219.128V380.36H217.472V376.256ZM214.58 384.308V377.12H213.356V379.76H210.8V377.132H209.576V384.308H214.58ZM213.356 383.312H210.8V380.72H213.356V383.312ZM229.451 381.452V380.432H227.867V376.256H226.631V386.948H227.867V381.452H229.451ZM225.059 377.384H220.127V378.392H223.739C223.535 380.636 221.963 382.88 219.503 384.008L220.271 384.944C223.355 383.252 224.975 380.696 225.059 377.384ZM241.918 386.816V382.868H234.958V386.816H241.918ZM233.47 377.912H235.69V378.032C235.69 379.628 234.55 380.9 233.05 381.464L233.794 382.424C234.862 382.016 236.014 380.972 236.326 379.916C236.782 380.924 237.838 381.764 238.714 382.124L239.398 381.14C238.15 380.744 236.962 379.58 236.962 377.996V377.912H239.098V376.892H233.47V377.912ZM241.906 382.316V376.256H240.682V378.884H238.942V379.904H240.682V382.316H241.906ZM240.694 385.832H236.194V383.816H240.694V385.832ZM252.301 386.816V382.868H245.341V386.816H252.301ZM243.853 377.912H246.073V378.032C246.073 379.628 244.933 380.9 243.433 381.464L244.177 382.424C245.245 382.016 246.397 380.972 246.709 379.916C247.165 380.924 248.221 381.764 249.097 382.124L249.781 381.14C248.533 380.744 247.345 379.58 247.345 377.996V377.912H249.481V376.892H243.853V377.912ZM252.289 382.316V376.256H251.065V378.884H249.325V379.904H251.065V382.316H252.289ZM251.077 385.832H246.577V383.816H251.077V385.832ZM266.028 386.948V376.256H264.852V380.504H263.796V376.472H262.632V386.444H263.796V381.536H264.852V386.948H266.028ZM262.308 383.792C261.156 383.144 260.292 381.908 260.244 379.952H262.032V378.956H257.184V379.952H259.044C259.008 381.968 258.168 383.228 256.8 384.092L257.568 384.92C258.468 384.38 259.38 383.24 259.632 382.184C259.908 383.18 260.844 384.2 261.6 384.668L262.308 383.792ZM261.048 378.128V377.132H258.252V378.128H261.048ZM273.531 378.932C273.531 377.648 272.439 376.676 270.795 376.676C269.163 376.676 268.083 377.648 268.083 378.932C268.083 380.156 269.163 381.116 270.795 381.116C272.403 381.116 273.531 380.156 273.531 378.932ZM272.823 384.464H275.115V386.948H276.339V376.256H275.115V383.504H272.823V384.464ZM271.431 386.636V382.88C272.463 382.82 273.495 382.736 274.503 382.616L274.419 381.668C273.435 381.776 272.271 381.86 270.795 381.932C269.595 381.968 268.407 381.98 267.171 381.98L267.339 382.988C268.311 382.988 269.259 382.976 270.195 382.94V386.636H271.431ZM272.307 378.92C272.307 379.64 271.683 380.096 270.795 380.096C269.943 380.096 269.307 379.64 269.307 378.92C269.307 378.176 269.943 377.696 270.795 377.696C271.671 377.696 272.307 378.176 272.307 378.92ZM286.938 386.864V385.892H280.854V384.968H286.578V382.256H279.582V383.24H285.354V384.044H279.618V386.864H286.938ZM278.262 377.756H280.494C280.422 379.28 279.306 380.372 277.854 380.9L278.586 381.836C279.63 381.44 280.806 380.444 281.13 379.4C281.598 380.336 282.642 381.212 283.53 381.548L284.202 380.588C283.002 380.216 281.838 379.244 281.754 377.756H283.902V376.772H278.262V377.756ZM286.578 381.692V376.256H285.354V381.692H286.578ZM296.973 386.948V376.256H295.749V380.48H293.565V381.512H295.749V386.948H296.973ZM293.565 377.384H288.633V378.392H292.245C292.041 380.636 290.469 382.916 288.033 384.044L288.801 384.98C291.873 383.3 293.493 380.696 293.565 377.384ZM307.26 379.724C307.26 378.116 305.724 376.976 303.372 376.976C301.056 376.976 299.508 378.116 299.508 379.724C299.508 381.344 301.056 382.472 303.372 382.472C305.724 382.472 307.26 381.344 307.26 379.724ZM306 379.724C306 380.756 304.956 381.452 303.372 381.452C301.8 381.452 300.756 380.756 300.756 379.724C300.756 378.692 301.8 377.996 303.372 377.996C304.967 377.996 306 378.692 306 379.724ZM308.208 385.592V384.608H305.928V382.748L304.692 382.736V384.608H302.028V382.736L300.78 382.748V384.608H298.548V385.592H308.208Z" fill="#101010"/>
<g clip-path="url(#clip0_164:4046)">
<path d="M90 10H309C306.894 10.6027 305.418 12.4952 305.345 14.6845L305.317 15.5618C305.317 29.0587 294.375 40 280.878 40H118.122C104.625 40 93.6835 29.0587 93.6835 15.5618L93.6545 14.6845C93.5823 12.4952 92.1059 10.6027 90 10Z" fill="black"/>
<path opacity="0.35" d="M348.5 32.0006C348.5 30.804 349.47 29.834 350.667 29.834H367.333C368.53 29.834 369.5 30.804 369.5 32.0007V38.0007C369.5 39.1973 368.53 40.1673 367.333 40.1673H350.667C349.47 40.1673 348.5 39.1973 348.5 38.0007V32.0006Z" stroke="white"/>
<path opacity="0.4" d="M371 33.001V37.001C371.805 36.6622 372.328 35.8741 372.328 35.001C372.328 34.1278 371.805 33.3398 371 33.001Z" fill="white"/>
<path d="M350 32.434C350 31.8265 350.492 31.334 351.1 31.334H366.9C367.508 31.334 368 31.8265 368 32.434V37.5673C368 38.1748 367.508 38.6673 366.9 38.6673H351.1C350.492 38.6673 350 38.1748 350 37.5673V32.434Z" fill="white"/>
<path fill-rule="evenodd" clip-rule="evenodd" d="M335.33 31.6084C337.546 31.6085 339.678 32.4599 341.283 33.9867C341.404 34.1046 341.598 34.1031 341.717 33.9834L342.873 32.8167C342.933 32.756 342.967 32.6737 342.966 32.5882C342.966 32.5026 342.931 32.4207 342.87 32.3607C338.655 28.3212 332.005 28.3212 327.79 32.3607C327.729 32.4207 327.694 32.5025 327.694 32.5881C327.693 32.6737 327.727 32.7559 327.787 32.8167L328.943 33.9834C329.062 34.1033 329.256 34.1048 329.377 33.9867C330.983 32.4598 333.114 31.6084 335.33 31.6084ZM335.33 35.404C336.548 35.404 337.722 35.8565 338.624 36.6737C338.747 36.7897 338.939 36.7872 339.058 36.668L340.212 35.5014C340.273 35.4402 340.307 35.3572 340.306 35.2709C340.305 35.1846 340.27 35.1023 340.208 35.0424C337.46 32.486 333.204 32.486 330.455 35.0424C330.393 35.1023 330.358 35.1847 330.357 35.271C330.356 35.3573 330.39 35.4403 330.451 35.5014L331.605 36.668C331.724 36.7872 331.917 36.7897 332.039 36.6737C332.941 35.857 334.114 35.4046 335.33 35.404ZM337.643 37.9579C337.645 38.0444 337.611 38.1278 337.549 38.1884L335.552 40.204C335.494 40.2633 335.414 40.2966 335.33 40.2966C335.247 40.2966 335.167 40.2633 335.109 40.204L333.111 38.1884C333.049 38.1277 333.015 38.0443 333.017 37.9578C333.019 37.8713 333.057 37.7894 333.121 37.7314C334.396 36.6525 336.265 36.6525 337.54 37.7314C337.604 37.7894 337.642 37.8714 337.643 37.9579Z" fill="white"/>
<path fill-rule="evenodd" clip-rule="evenodd" d="M321.667 29.667H320.667C320.114 29.667 319.667 30.1147 319.667 30.667V39.3337C319.667 39.8859 320.114 40.3337 320.667 40.3337H321.667C322.219 40.3337 322.667 39.8859 322.667 39.3337V30.667C322.667 30.1147 322.219 29.667 321.667 29.667ZM316 32.0003H317C317.552 32.0003 318 32.448 318 33.0003V39.3337C318 39.8859 317.552 40.3337 317 40.3337H316C315.448 40.3337 315 39.8859 315 39.3337V33.0003C315 32.448 315.448 32.0003 316 32.0003ZM312.333 34.3337H311.333C310.781 34.3337 310.333 34.7814 310.333 35.3337V39.3337C310.333 39.8859 310.781 40.3337 311.333 40.3337H312.333C312.886 40.3337 313.333 39.8859 313.333 39.3337V35.3337C313.333 34.7814 312.886 34.3337 312.333 34.3337ZM307.667 36.3337H306.667C306.114 36.3337 305.667 36.7814 305.667 37.3337V39.3337C305.667 39.8859 306.114 40.3337 306.667 40.3337H307.667C308.219 40.3337 308.667 39.8859 308.667 39.3337V37.3337C308.667 36.7814 308.219 36.3337 307.667 36.3337Z" fill="white"/>
<path d="M49.5146 29.1675C47.2222 29.1675 45.5889 30.7349 45.5889 32.8809V32.8955C45.5889 34.9023 47.0098 36.3818 49.0386 36.3818C50.4888 36.3818 51.4116 35.6421 51.7998 34.8071H51.9463C51.9463 34.8877 51.939 34.9683 51.939 35.0488C51.8584 37.0703 51.1479 38.7109 49.4707 38.7109C48.5405 38.7109 47.8887 38.2275 47.6104 37.4878L47.5884 37.4146H45.728L45.7427 37.4951C46.0796 39.1138 47.5298 40.2637 49.4707 40.2637C52.1294 40.2637 53.7334 38.1543 53.7334 34.5947V34.5801C53.7334 30.7715 51.7705 29.1675 49.5146 29.1675ZM49.5073 34.9316C48.3062 34.9316 47.4346 34.0527 47.4346 32.8296V32.8149C47.4346 31.6357 48.3647 30.7056 49.5293 30.7056C50.7012 30.7056 51.6167 31.6504 51.6167 32.8589V32.8735C51.6167 34.0674 50.7012 34.9316 49.5073 34.9316ZM56.5586 33.1519C57.2324 33.1519 57.7231 32.6392 57.7231 31.9946C57.7231 31.3428 57.2324 30.8374 56.5586 30.8374C55.8921 30.8374 55.394 31.3428 55.394 31.9946C55.394 32.6392 55.8921 33.1519 56.5586 33.1519ZM56.5586 38.5864C57.2324 38.5864 57.7231 38.0811 57.7231 37.4292C57.7231 36.7773 57.2324 36.272 56.5586 36.272C55.8921 36.272 55.394 36.7773 55.394 37.4292C55.394 38.0811 55.8921 38.5864 56.5586 38.5864ZM64.5107 40H66.3198V37.9712H67.7407V36.4111H66.3198V29.4312H63.6465C62.2109 31.6138 60.7095 34.0454 59.3398 36.4258V37.9712H64.5107V40ZM61.0977 36.4551V36.3452C62.123 34.5508 63.3462 32.5952 64.4302 30.9399H64.54V36.4551H61.0977ZM71.6206 40H73.5103V29.4312H71.6279L68.8667 31.3721V33.1519L71.4961 31.2915H71.6206V40Z" fill="white"/>
</g>
<path d="M44.0327 364.234C44.0327 364.234 49.7428 358.514 49.8211 352.07C49.8994 345.626 73.2929 355.695 69.6461 365.039C69.6461 365.039 61.3183 370.84 61.6365 376.076" fill="#45207F"/>
<path d="M44.0327 364.234C44.0327 364.234 49.7428 358.514 49.8211 352.07C49.8994 345.626 73.2929 355.695 69.6461 365.039C69.6461 365.039 61.3183 370.84 61.6365 376.076" stroke="black" stroke-width="0.5" stroke-miterlimit="10"/>
<path d="M62.3438 372.719C56.3367 362.156 45.8127 362.114 45.8127 362.114L44.2354 364.048C44.2354 364.048 55.7413 368.136 61.5123 375.425L62.3438 372.719Z" fill="#EAE1FF"/>
<path d="M58.8947 381.013C58.8947 381.013 68.2491 383.779 61.4676 375.405C54.6861 367.032 42.9925 362.422 39.4066 364.114C35.8207 365.805 35.8207 368.415 58.8947 381.013Z" fill="#45207F" stroke="black" stroke-width="0.5" stroke-miterlimit="10"/>
<path d="M49.7043 389.85C49.7043 389.85 55.5573 389.636 57.2204 385.642C58.8835 381.647 58.1464 378.158 58.1464 378.158C51.1859 365.354 39.3332 368.529 39.3332 368.529C39.3332 368.529 33.3049 360.336 30.9147 362.487C28.5245 364.638 31.7462 376.928 31.7462 376.928C31.7462 376.928 30.1478 384.374 33.0973 386.972C33.0973 386.972 36.1226 389.544 39.8092 389.733C43.096 390.087 46.4098 390.126 49.7043 389.85Z" fill="white" stroke="black" stroke-width="0.5" stroke-miterlimit="10"/>
<path d="M39.4625 384.697C41.1484 384.697 42.5151 383.218 42.5151 381.393C42.5151 379.569 41.1484 378.09 39.4625 378.09C37.7765 378.09 36.4098 379.569 36.4098 381.393C36.4098 383.218 37.7765 384.697 39.4625 384.697Z" fill="white" stroke="black" stroke-width="0.5" stroke-miterlimit="10"/>
<path d="M50.3358 384.767C52.0217 384.767 53.3884 383.288 53.3884 381.464C53.3884 379.639 52.0217 378.16 50.3358 378.16C48.6498 378.16 47.2831 379.639 47.2831 381.464C47.2831 383.288 48.6498 384.767 50.3358 384.767Z" fill="white" stroke="black" stroke-width="0.5" stroke-miterlimit="10"/>
<path d="M39.1902 378.157C39.1902 378.157 36.1761 381.045 39.1902 384.466C39.1902 384.466 43.3466 381.251 39.5792 378.09" fill="#45207F"/>
<path d="M39.1902 378.157C39.1902 378.157 36.1761 381.045 39.1902 384.466C39.1902 384.466 43.3466 381.251 39.5792 378.09" stroke="black" stroke-width="0.5" stroke-miterlimit="10"/>
<path d="M50.1481 378.242C50.1481 378.242 47.3279 381.091 50.1481 384.467C50.1481 384.467 54.0348 381.295 50.5123 378.175" fill="#45207F"/>
<path d="M50.1481 378.242C50.1481 378.242 47.3279 381.091 50.1481 384.467C50.1481 384.467 54.0348 381.295 50.5123 378.175" stroke="black" stroke-width="0.5" stroke-miterlimit="10"/>
<path d="M41.1478 376.801H42.5151" stroke="black" stroke-width="0.5" stroke-miterlimit="10"/>
<path d="M47.0929 376.954H48.6205" stroke="black" stroke-width="0.5" stroke-miterlimit="10"/>
<path d="M39.5047 386.04C42.1729 386.04 44.336 383.908 44.336 381.279C44.336 378.649 42.1729 376.518 39.5047 376.518C36.8364 376.518 34.6733 378.649 34.6733 381.279C34.6733 383.908 36.8364 386.04 39.5047 386.04Z" stroke="#45207F" stroke-width="0.5" stroke-miterlimit="10"/>
<path d="M44.5448 382.067C44.5448 382.067 41.6015 381.919 40.7526 385.154C40.7526 385.154 44.3497 385.733 44.7412 382.235" fill="black"/>
<path d="M48.6192 385.042C48.6192 385.042 47.7752 382.04 44.3932 382.066C44.3932 382.066 45.0432 385.844 48.5247 385.286" fill="black"/>
<path d="M33.3621 366.909L34.1924 367.699L35.3235 367.474L34.8164 368.495L35.3844 369.485L34.2409 369.327L33.4603 370.164L33.2614 369.044L32.2124 368.571L33.2304 368.038L33.3621 366.909Z" fill="#EAE1FF"/>
<path d="M34.692 381.723C34.692 381.723 34.5493 385.275 35.0556 388.256C35.068 388.328 35.0817 388.401 35.0941 388.473" stroke="#45207F" stroke-width="0.5" stroke-miterlimit="10"/>
<rect x="6" y="6" width="387" height="824" rx="46" stroke="#3C3C3C" stroke-width="12"/>
<defs>
<clipPath id="clip0_164:4046">
<rect width="375" height="44" fill="white" transform="translate(12 12)"/>
</clipPath>
</defs>
</svg>
