<svg width="365" height="88" viewBox="0 0 365 88" fill="none" xmlns="http://www.w3.org/2000/svg">
<path d="M0 12C0 5.37258 5.37258 0 12 0H365V76C365 82.6274 359.627 88 353 88H12C5.37259 88 0 82.6274 0 76V12Z" fill="#F4F1FF"/>
<path d="M33.168 30.656C31.28 31.056 29.632 31.152 26.784 31.152V26.992H31.824V25.936H25.488V32.224H26.608C29.632 32.224 31.344 32.128 33.312 31.728L33.168 30.656ZM31.424 38.112C29.296 38.112 27.984 37.472 27.984 36.416C27.984 35.36 29.296 34.72 31.424 34.72C33.536 34.72 34.848 35.36 34.848 36.416C34.848 37.472 33.536 38.112 31.424 38.112ZM31.424 33.664C28.512 33.664 26.688 34.688 26.688 36.416C26.688 38.144 28.512 39.168 31.424 39.168C34.32 39.168 36.144 38.144 36.144 36.416C36.144 34.688 34.32 33.664 31.424 33.664ZM36 28.56V24.832H34.672V33.376H36V29.648H38.112V28.56H36ZM51.3428 24.832H50.0308V35.36H51.3428V24.832ZM48.2068 31.984C46.0788 31.2 44.6228 29.248 44.6228 27.088V25.632H43.3108V27.088C43.3108 29.328 41.8708 31.408 39.7108 32.24L40.3988 33.312C42.0788 32.608 43.3748 31.216 43.9828 29.472C44.6228 31.104 45.8868 32.4 47.5188 33.024L48.2068 31.984ZM43.4227 37.792V34.384H42.1108V38.864H51.7748V37.792H43.4227ZM64.7175 24.832V39.216H66.0295V24.832H64.7175ZM58.4615 25.936C56.3335 25.936 54.8135 27.888 54.8135 30.944C54.8135 34 56.3335 35.952 58.4615 35.952C60.5895 35.952 62.1095 34 62.1095 30.944C62.1095 27.888 60.5895 25.936 58.4615 25.936ZM58.4615 27.12C59.8535 27.12 60.8455 28.624 60.8455 30.944C60.8455 33.28 59.8535 34.784 58.4615 34.784C57.0535 34.784 56.0615 33.28 56.0615 30.944C56.0615 28.624 57.0535 27.12 58.4615 27.12ZM81.6833 30.592C79.8113 30.96 78.1793 31.072 75.3473 31.072V26.848H80.3553V25.792H74.0353V32.16H75.1553C78.1633 32.16 79.8593 32.048 81.8273 31.648L81.6833 30.592ZM76.7873 34.768H83.2193V37.92H76.7873V34.768ZM75.5073 38.976H84.5153V33.728H75.5073V38.976ZM86.6433 28.336H84.5153V24.816H83.2033V32.96H84.5153V29.424H86.6433V28.336ZM94.578 26.384C96.834 26.384 98.274 27.056 98.274 28.192C98.274 29.328 96.834 29.984 94.578 29.984C92.322 29.984 90.882 29.328 90.882 28.192C90.882 27.056 92.322 26.384 94.578 26.384ZM94.578 31.04C97.65 31.04 99.618 29.984 99.618 28.192C99.618 26.4 97.65 25.328 94.578 25.328C91.506 25.328 89.538 26.4 89.538 28.192C89.538 29.984 91.506 31.04 94.578 31.04ZM91.074 34.704H89.762V38.864H99.634V37.792H91.074V34.704ZM88.082 32.384V33.44H101.058V32.384H88.082ZM117.688 34.544H119.016V24.848H117.688V28.88H114.6V29.952H117.688V34.544ZM108.12 25.968V27.04H113.144C112.888 29.568 110.824 31.52 107.432 32.592L108.008 33.632C112.104 32.304 114.552 29.664 114.552 25.968H108.12ZM115.032 33.296H113.72V33.952C113.72 36.048 111.48 37.648 108.92 38.096L109.448 39.136C111.592 38.72 113.528 37.584 114.376 35.904C115.224 37.552 117.144 38.688 119.256 39.104L119.784 38.08C117.256 37.6 115.032 36.016 115.032 33.952V33.296ZM125.159 34.816C124.007 34.816 123.287 33.36 123.287 31.008C123.287 28.704 124.007 27.248 125.159 27.248C126.279 27.248 127.015 28.704 127.015 31.008C127.015 33.36 126.279 34.816 125.159 34.816ZM130.007 30.416H128.199C128.039 27.712 126.887 26.032 125.159 26.032C123.287 26.032 122.087 27.952 122.087 31.008C122.087 34.112 123.287 36.032 125.159 36.032C126.919 36.032 128.087 34.304 128.199 31.488H130.007V38.48H131.255V25.152H130.007V30.416ZM132.855 24.832V39.184H134.103V24.832H132.855ZM148.133 29.152H139.685V25.36H138.373V30.224H148.133V29.152ZM139.589 34.64H138.277V38.832H148.213V37.76H139.589V34.64ZM136.613 32.144V33.2H149.621V32.144H136.613ZM166.219 27.904V29.488H162.907V27.904H166.219ZM161.611 30.704H157.739V28.576H161.611V30.704ZM162.907 30.512H166.219V32.336H167.531V24.848H166.219V26.88H162.907V25.52H161.611V27.552H157.739V25.504H156.443V31.76H162.907V30.512ZM159.611 37.952V36.432H167.531V33.024H158.283V34.064H166.235V35.44H158.315V38.992H168.075V37.952H159.611ZM180.874 24.832V39.216H182.186V24.832H180.874ZM174.618 25.936C172.49 25.936 170.97 27.888 170.97 30.944C170.97 34 172.49 35.952 174.618 35.952C176.746 35.952 178.266 34 178.266 30.944C178.266 27.888 176.746 25.936 174.618 25.936ZM174.618 27.12C176.01 27.12 177.002 28.624 177.002 30.944C177.002 33.28 176.01 34.784 174.618 34.784C173.21 34.784 172.218 33.28 172.218 30.944C172.218 28.624 173.21 27.12 174.618 27.12ZM195.488 31.92H191.424V29.296H195.488V31.92ZM196.767 25.872H195.488V28.272H191.424V25.872H190.128V32.976H196.767V25.872ZM193.056 34.368H191.744V38.864H201.312V37.792H193.056V34.368ZM200.672 29.184V24.848H199.36V35.376H200.672V30.288H202.784V29.184H200.672ZM213.774 31.84C212.158 30.992 211.518 29.12 211.518 27.712V26.976H213.246V25.904H209.262V26.976H210.254V27.712C210.254 28.8 209.998 30.384 208.958 31.456C207.918 30.352 207.646 28.752 207.646 27.712V26.976H208.638V25.904H204.622V26.976H206.398V27.712C206.398 29.088 205.742 30.96 204.126 31.84L204.814 32.784C205.918 32.192 206.606 31.136 207.006 30.016C207.294 31.136 207.87 32.272 208.942 32.928C210.03 32.288 210.606 31.168 210.894 30.032C211.294 31.152 211.982 32.208 213.086 32.784L213.774 31.84ZM206.078 35.184H214.382V39.2H215.694V34.128H206.078V35.184ZM217.502 28.576H215.694V24.848H214.382V33.472H215.694V29.68H217.502V28.576ZM224.925 31.92H220.861V29.296H224.925V31.92ZM226.205 25.872H224.925V28.272H220.861V25.872H219.565V32.976H226.205V25.872ZM222.493 34.368H221.181V38.864H230.749V37.792H222.493V34.368ZM230.109 29.184V24.848H228.797V35.376H230.109V30.288H232.221V29.184H230.109ZM243.212 31.84C241.596 30.992 240.956 29.12 240.956 27.712V26.976H242.684V25.904H238.7V26.976H239.692V27.712C239.692 28.8 239.436 30.384 238.396 31.456C237.356 30.352 237.084 28.752 237.084 27.712V26.976H238.076V25.904H234.06V26.976H235.836V27.712C235.836 29.088 235.18 30.96 233.564 31.84L234.252 32.784C235.356 32.192 236.044 31.136 236.444 30.016C236.732 31.136 237.308 32.272 238.38 32.928C239.468 32.288 240.044 31.168 240.332 30.032C240.732 31.152 241.42 32.208 242.524 32.784L243.212 31.84ZM235.516 35.184H243.82V39.2H245.132V34.128H235.516V35.184ZM246.94 28.576H245.132V24.848H243.82V33.472H245.132V29.68H246.94V28.576ZM252.619 34.896C251.323 34.896 250.379 33.968 250.379 32.688C250.379 31.392 251.323 30.464 252.619 30.464C253.931 30.464 254.875 31.392 254.875 32.688C254.875 33.968 253.931 34.896 252.619 34.896ZM252.619 29.376C250.603 29.376 249.147 30.752 249.147 32.688C249.147 34.64 250.603 35.984 252.619 35.984C254.667 35.984 256.123 34.64 256.123 32.688C256.123 30.752 254.667 29.376 252.619 29.376ZM253.259 25.008H251.947V27.136H248.331V28.192H256.795V27.136H253.259V25.008ZM261.819 30.736H259.467V24.848H258.155V39.184H259.467V31.84H261.819V30.736ZM271.081 30.704H268.601C269.081 29.424 269.289 28.064 269.289 26.656H263.753V27.728H267.993C267.753 30.736 266.217 33.312 263.145 35.152L263.913 36.096C265.897 34.912 267.273 33.424 268.137 31.76H271.081V38.464H272.329V25.216H271.081V30.704ZM274.073 24.832V39.184H275.321V24.832H274.073ZM293.983 24.848H292.671V33.152H293.983V24.848ZM288.399 30.8H284.271V28.656H288.399V30.8ZM289.695 25.44H288.399V27.632H284.271V25.44H282.975V31.856H289.695V25.44ZM294.319 35.2V34.176H290.095V32.784H288.783V34.176H284.575V35.2H288.767C288.703 36.592 286.447 37.92 284.015 38.192L284.463 39.184C286.623 38.896 288.591 37.92 289.455 36.56C290.303 37.888 292.207 38.88 294.367 39.168L294.831 38.192C292.399 37.888 290.207 36.544 290.127 35.2H294.319ZM298.814 26.224H297.518V35.552H298.654C300.846 35.552 303.038 35.392 305.486 34.896L305.326 33.808C303.006 34.272 300.878 34.448 298.814 34.448V26.224ZM310.286 30.56H307.982V24.832H306.67V39.184H307.982V31.648H310.286V30.56ZM323.165 29.152H314.717V25.36H313.405V30.224H323.165V29.152ZM314.621 34.64H313.309V38.832H323.245V37.76H314.621V34.64ZM311.645 32.144V33.2H324.653V32.144H311.645ZM35.344 58.544H36.672V48.848H35.344V52.88H32.256V53.952H35.344V58.544ZM25.776 49.968V51.04H30.8C30.544 53.568 28.48 55.52 25.088 56.592L25.664 57.632C29.76 56.304 32.208 53.664 32.208 49.968H25.776ZM32.688 57.296H31.376V57.952C31.376 60.048 29.136 61.648 26.576 62.096L27.104 63.136C29.248 62.72 31.184 61.584 32.032 59.904C32.88 61.552 34.8 62.688 36.912 63.104L37.44 62.08C34.912 61.6 32.688 60.016 32.688 57.952V57.296ZM46.0468 50.064C48.3988 50.064 49.7428 50.608 49.7428 51.568C49.7428 52.528 48.3988 53.072 46.0468 53.072C43.6948 53.072 42.3508 52.528 42.3508 51.568C42.3508 50.608 43.6948 50.064 46.0468 50.064ZM46.0468 54.048C49.1988 54.048 51.0868 53.184 51.0868 51.568C51.0868 49.952 49.1988 49.072 46.0468 49.072C42.8948 49.072 41.0068 49.952 41.0068 51.568C41.0068 53.184 42.8948 54.048 46.0468 54.048ZM42.4468 60.544H50.8788V57.312H41.1188V58.304H49.5828V59.584H41.1668V63.024H51.3108V62H42.4468V60.544ZM39.5508 55.024V56.08H52.5428V55.024H39.5508ZM61.5405 60.624H69.9725V57.424H60.2125V58.416H68.6765V59.664H60.2605V63.024H70.4045V62.016H61.5405V60.624ZM61.6685 51.408H68.6445V52.784H61.6685V51.408ZM65.7965 55.168V53.792H69.9405V49.056H68.6445V50.416H61.6685V49.056H60.3725V53.792H64.4845V55.168H58.6445V56.224H71.6365V55.168H65.7965ZM90.1063 54.304C87.4983 53.92 84.9383 52.144 84.9383 50.144V49.344H83.5623V50.144C83.5623 52.192 81.0343 53.92 78.4263 54.304L78.9543 55.36C81.1943 54.976 83.3543 53.744 84.2503 52C85.1783 53.728 87.3383 54.976 89.5623 55.36L90.1063 54.304ZM90.7303 56.912H77.7703V58H83.5623V63.2H84.8743V58H90.7463L90.7303 56.912ZM108.624 48.848H107.312V57.04H108.624V48.848ZM100.912 50.768C102.336 50.768 103.392 51.712 103.392 53.024C103.392 54.352 102.336 55.28 100.912 55.28C99.488 55.28 98.464 54.352 98.464 53.024C98.464 51.712 99.488 50.768 100.912 50.768ZM100.912 56.368C103.088 56.368 104.672 55.008 104.672 53.024C104.672 51.04 103.088 49.68 100.912 49.68C98.752 49.68 97.184 51.04 97.184 53.024C97.184 55.008 98.752 56.368 100.912 56.368ZM107.024 57.664H105.744V58.432C105.744 59.552 105.056 60.992 103.68 61.84C102.352 61.056 101.696 59.696 101.696 58.432V57.664H100.432V58.432C100.432 59.808 99.36 61.36 97.552 62L98.208 62.992C99.552 62.48 100.528 61.488 101.04 60.336C101.472 61.536 102.336 62.576 103.712 63.12C105.04 62.544 105.92 61.456 106.368 60.288C106.848 61.488 107.84 62.48 109.248 62.992L109.904 62C108.08 61.392 107.024 59.92 107.024 58.432V57.664ZM118.047 50.064C120.399 50.064 121.743 50.608 121.743 51.568C121.743 52.528 120.399 53.072 118.047 53.072C115.695 53.072 114.351 52.528 114.351 51.568C114.351 50.608 115.695 50.064 118.047 50.064ZM118.047 54.048C121.199 54.048 123.087 53.184 123.087 51.568C123.087 49.952 121.199 49.072 118.047 49.072C114.895 49.072 113.007 49.952 113.007 51.568C113.007 53.184 114.895 54.048 118.047 54.048ZM114.447 60.544H122.879V57.312H113.119V58.304H121.583V59.584H113.167V63.024H123.311V62H114.447V60.544ZM111.551 55.024V56.08H124.543V55.024H111.551ZM126.91 50.384V51.44H132.142C131.902 54.8 130.126 57.536 126.27 59.424L126.99 60.448C131.758 58.096 133.454 54.464 133.454 50.384H126.91ZM136.782 48.848V54.592H133.422V55.664H136.782V63.184H138.094V48.848H136.782ZM145.5 56.88C146.092 57.024 146.78 57.104 147.484 57.104C148.204 57.104 148.892 57.024 149.5 56.88V60.256H145.5V56.88ZM147.484 50.768C149.788 50.768 151.452 51.824 151.452 53.424C151.452 55.024 149.788 56.08 147.484 56.08C145.18 56.08 143.532 55.024 143.532 53.424C143.532 51.824 145.18 50.768 147.484 50.768ZM150.812 60.256V56.368C151.996 55.744 152.7 54.72 152.7 53.424C152.7 51.184 150.54 49.744 147.484 49.744C144.444 49.744 142.268 51.184 142.268 53.424C142.268 54.72 142.988 55.76 144.188 56.384V60.256H140.988V61.344H154.028V60.256H150.812ZM157.398 62.1172C158.047 62.1172 158.539 61.6172 158.539 60.9844C158.539 60.3438 158.047 59.8438 157.398 59.8438C156.75 59.8438 156.25 60.3438 156.25 60.9844C156.25 61.6172 156.75 62.1172 157.398 62.1172Z" fill="black"/>
</svg>
