<svg width="365" height="112" viewBox="0 0 365 112" fill="none" xmlns="http://www.w3.org/2000/svg">
<path d="M0 0H353C359.627 0 365 5.37258 365 12V100C365 106.627 359.627 112 353 112H12C5.37259 112 0 106.627 0 100V0Z" fill="#F4F1FF"/>
<path d="M34.8 27.792C34.8 29.568 34.8 31.712 34.224 34.64L35.536 34.784C36.096 31.68 36.096 29.616 36.096 27.792V26.352H26.256V27.424H34.8V27.792ZM24.864 36V37.088H37.84V36H24.864ZM41.3748 27.648H45.4228V26.576H40.0788V35.648H41.0228C43.1668 35.648 44.6228 35.584 46.3348 35.216L46.2228 34.128C44.6548 34.464 43.2948 34.544 41.3748 34.56V27.648ZM50.4948 24.832V30.592H48.4628V25.152H47.2308V38.464H48.4628V31.664H50.4948V39.184H51.7588V24.832H50.4948ZM55.0535 26.368V27.456H60.3175C60.0135 30.848 58.0455 33.6 54.3815 35.44L55.1015 36.464C59.7415 34.144 61.6135 30.448 61.6135 26.368H55.0535ZM67.6295 30.656H65.3255V24.832H64.0135V39.184H65.3255V31.744H67.6295V30.656ZM82.1633 31.376C80.0513 30.72 78.5473 29.04 78.5473 27.152V26.832H81.7953V25.76H73.9233V26.832H77.2033V27.152C77.2033 29.12 75.7313 30.912 73.5553 31.6L74.2273 32.64C75.9393 32.048 77.2673 30.8 77.8913 29.216C78.5473 30.704 79.8753 31.856 81.5233 32.384L82.1633 31.376ZM83.8593 37.92H77.2033V36.064H83.8593V37.92ZM83.8593 35.04H77.2033V33.296H75.9073V38.992H85.1553V33.296H83.8593V35.04ZM83.8433 24.832V32.608H85.1553V24.832H83.8433ZM101.09 31.936H98.962C99.362 29.872 99.362 28.352 99.362 27.008V25.76H89.73V26.816H98.082V27.008C98.082 28.352 98.082 29.872 97.634 31.936H88.114V33.008H93.906V39.2H95.234V33.008H101.09V31.936ZM107.025 34.896C105.729 34.896 104.785 33.968 104.785 32.688C104.785 31.392 105.729 30.464 107.025 30.464C108.337 30.464 109.281 31.392 109.281 32.688C109.281 33.968 108.337 34.896 107.025 34.896ZM107.025 29.376C105.009 29.376 103.553 30.752 103.553 32.688C103.553 34.64 105.009 35.984 107.025 35.984C109.073 35.984 110.529 34.64 110.529 32.688C110.529 30.752 109.073 29.376 107.025 29.376ZM107.665 25.008H106.353V27.136H102.737V28.192H111.201V27.136H107.665V25.008ZM116.225 30.736H113.873V24.848H112.561V39.184H113.873V31.84H116.225V30.736ZM118.384 26.384V27.44H123.776C123.504 30.848 121.584 33.6 117.728 35.44L118.432 36.512C123.2 34.176 125.104 30.528 125.104 26.384H118.384ZM128 24.832V39.184H129.312V24.832H128ZM143.877 32.576C143.973 32.08 144.037 31.536 144.037 30.944C144.037 30.288 143.957 29.68 143.829 29.12H147.141V32.576H143.877ZM140.469 34.784C139.093 34.784 138.133 33.28 138.133 30.944C138.133 28.624 139.093 27.12 140.469 27.12C141.829 27.12 142.805 28.624 142.805 30.944C142.805 33.28 141.829 34.784 140.469 34.784ZM147.141 24.832V28.048H143.461C142.853 26.704 141.797 25.936 140.469 25.936C138.373 25.936 136.885 27.888 136.885 30.944C136.885 34 138.373 35.952 140.469 35.952C141.845 35.952 142.965 35.104 143.557 33.648H147.141V39.216H148.453V24.832H147.141ZM159.012 28.56V29.632H161.844V33.392H163.172V24.848H161.844V28.56H159.012ZM159.812 31.824C157.732 31.088 156.324 29.28 156.324 27.44V26.944H159.476V25.888H151.812V26.944H155.012V27.44C155.012 29.504 153.54 31.44 151.396 32.224L152.084 33.264C153.764 32.624 155.092 31.28 155.7 29.616C156.324 31.088 157.556 32.272 159.156 32.848L159.812 31.824ZM158.436 38.16C156.276 38.16 154.964 37.552 154.964 36.512C154.964 35.472 156.276 34.848 158.436 34.848C160.596 34.848 161.908 35.472 161.908 36.512C161.908 37.552 160.596 38.16 158.436 38.16ZM158.436 33.84C155.492 33.84 153.652 34.816 153.652 36.512C153.652 38.208 155.492 39.184 158.436 39.184C161.38 39.184 163.22 38.208 163.22 36.512C163.22 34.816 161.38 33.84 158.436 33.84ZM172.547 26.064C174.899 26.064 176.243 26.608 176.243 27.568C176.243 28.528 174.899 29.072 172.547 29.072C170.195 29.072 168.851 28.528 168.851 27.568C168.851 26.608 170.195 26.064 172.547 26.064ZM172.547 30.048C175.699 30.048 177.587 29.184 177.587 27.568C177.587 25.952 175.699 25.072 172.547 25.072C169.395 25.072 167.507 25.952 167.507 27.568C167.507 29.184 169.395 30.048 172.547 30.048ZM168.947 36.544H177.379V33.312H167.619V34.304H176.083V35.584H167.667V39.024H177.811V38H168.947V36.544ZM166.051 31.024V32.08H179.043V31.024H166.051ZM198.121 31.808H196.137C196.665 29.264 196.665 27.488 196.665 26.464V25.824H191.897V26.896H195.369C195.353 27.968 195.289 29.6 194.825 31.808H190.201C190.841 29.104 190.841 27.2 190.841 26.304V25.824H186.201V26.896H189.561C189.545 27.952 189.433 29.6 188.841 31.808H185.145V32.88H190.985V39.184H192.297V32.88H198.121V31.808ZM201.159 31.184C203.479 30.832 205.591 29.68 206.375 28.016C207.143 29.68 209.255 30.832 211.591 31.184L212.071 30.128C209.543 29.792 207.223 28.368 207.223 26.624V26.608H211.687V25.552H201.063V26.608H205.527V26.624C205.527 28.368 203.207 29.792 200.663 30.128L201.159 31.184ZM202.823 34.8H201.511V38.864H211.431V37.792H202.823V34.8ZM199.847 32.224V33.28H205.815V36.192H207.127V33.28H212.871V32.224H199.847ZM219.238 34.896C217.91 34.896 216.95 33.968 216.95 32.672C216.95 31.392 217.91 30.464 219.238 30.464C220.566 30.464 221.542 31.392 221.542 32.672C221.542 33.968 220.566 34.896 219.238 34.896ZM219.238 29.376C217.19 29.376 215.702 30.736 215.702 32.672C215.702 34.64 217.19 35.984 219.238 35.984C221.318 35.984 222.79 34.64 222.79 32.672C222.79 30.736 221.318 29.376 219.238 29.376ZM219.878 24.976H218.566V27.152H214.918V28.224H223.526V27.152H219.878V24.976ZM225.03 24.832V39.184H226.342V24.832H225.03ZM237.244 34.768C236.124 34.768 235.34 33.856 235.34 32.576C235.34 31.328 236.124 30.416 237.244 30.416C238.348 30.416 239.148 31.328 239.148 32.576C239.148 33.856 238.348 34.768 237.244 34.768ZM237.244 29.312C235.468 29.312 234.172 30.656 234.172 32.576C234.172 34.528 235.468 35.856 237.244 35.856C239.02 35.856 240.316 34.528 240.316 32.576C240.316 30.656 239.02 29.312 237.244 29.312ZM237.884 25.248H236.588V27.28H233.676V28.352H240.796V27.28H237.884V25.248ZM244.588 24.816V30.88H242.748V25.152H241.516V38.48H242.748V31.952H244.588V39.168H245.852V24.816H244.588ZM250.283 26.224H248.987V35.552H250.123C252.315 35.552 254.507 35.392 256.955 34.896L256.795 33.808C254.475 34.272 252.347 34.448 250.283 34.448V26.224ZM261.755 30.56H259.451V24.832H258.139V39.184H259.451V31.648H261.755V30.56ZM263.737 25.952V27.024H269.017C268.745 29.552 266.537 31.584 263.161 32.64L263.689 33.68C267.817 32.384 270.425 29.664 270.425 25.952H263.737ZM266.633 34.256H265.321V38.864H274.889V37.792H266.633V34.256ZM274.265 29.2V24.848H272.953V35.328H274.265V30.288H276.377V29.2H274.265ZM279.768 27.296H285.128V26.208H278.456V35.632H279.592C282.296 35.632 284.184 35.536 286.376 35.12L286.232 34.032C284.152 34.4 282.312 34.512 279.768 34.512V27.296ZM291.256 30.496H288.888V24.832H287.576V39.216H288.888V31.584H291.256V30.496ZM298.487 31.744H294.519V27.136H298.487V31.744ZM303.063 28.432V30.432H299.767V28.432H303.063ZM299.767 31.504H303.063V35.312H304.391V24.848H303.063V27.36H299.767V26.096H293.223V32.784H299.767V31.504ZM296.471 37.792V34.384H295.159V38.864H304.727V37.792H296.471ZM315.485 34.784C314.093 34.784 313.117 33.28 313.117 30.944C313.117 28.624 314.093 27.12 315.485 27.12C316.861 27.12 317.837 28.624 317.837 30.944C317.837 33.28 316.861 34.784 315.485 34.784ZM315.485 25.936C313.373 25.936 311.868 27.888 311.868 30.944C311.868 34 313.373 35.952 315.485 35.952C317.597 35.952 319.085 34 319.085 30.944C319.085 27.888 317.597 25.936 315.485 25.936ZM325.069 30.56H322.701V24.848H321.389V39.184H322.701V31.664H325.069V30.56ZM328.123 31.44H332.203V26.4H326.811V27.472H330.923V30.368H326.859V35.744H327.803C329.579 35.744 331.195 35.68 333.179 35.344L333.083 34.256C331.259 34.576 329.755 34.64 328.123 34.656V31.44ZM337.307 24.832V30.496H335.275V25.152H334.043V38.448H335.275V31.568H337.307V39.168H338.571V24.832H337.307ZM36.624 48.848H35.312V57.04H36.624V48.848ZM28.912 50.768C30.336 50.768 31.392 51.712 31.392 53.024C31.392 54.352 30.336 55.28 28.912 55.28C27.488 55.28 26.464 54.352 26.464 53.024C26.464 51.712 27.488 50.768 28.912 50.768ZM28.912 56.368C31.088 56.368 32.672 55.008 32.672 53.024C32.672 51.04 31.088 49.68 28.912 49.68C26.752 49.68 25.184 51.04 25.184 53.024C25.184 55.008 26.752 56.368 28.912 56.368ZM35.024 57.664H33.744V58.432C33.744 59.552 33.056 60.992 31.68 61.84C30.352 61.056 29.696 59.696 29.696 58.432V57.664H28.432V58.432C28.432 59.808 27.36 61.36 25.552 62L26.208 62.992C27.552 62.48 28.528 61.488 29.04 60.336C29.472 61.536 30.336 62.576 31.712 63.12C33.04 62.544 33.92 61.456 34.368 60.288C34.848 61.488 35.84 62.48 37.248 62.992L37.904 62C36.08 61.392 35.024 59.92 35.024 58.432V57.664ZM51.0708 53.152H42.6228V49.36H41.3108V54.224H51.0708V53.152ZM42.5268 58.64H41.2148V62.832H51.1508V61.76H42.5268V58.64ZM39.5508 56.144V57.2H52.5588V56.144H39.5508ZM64.6285 58.656H60.5325V54.88H64.6285V58.656ZM64.6285 53.84H60.5325V50.048H59.2365V59.728H65.9085V50.048H64.6285V53.84ZM72.0685 54.48H69.7005V48.848H68.3885V63.168H69.7005V55.584H72.0685V54.48ZM74.1473 50.368V51.456H79.4113C79.1073 54.848 77.1393 57.6 73.4753 59.44L74.1953 60.464C78.8353 58.144 80.7073 54.448 80.7073 50.368H74.1473ZM86.7233 54.656H84.4193V48.832H83.1073V63.184H84.4193V55.744H86.7233V54.656ZM98.649 56.672C98.729 56.16 98.777 55.632 98.777 55.024C98.777 54.416 98.729 53.888 98.649 53.376H100.601V56.672H98.649ZM95.705 58.816C94.569 58.816 93.833 57.36 93.833 55.024C93.833 52.704 94.569 51.248 95.705 51.248C96.857 51.248 97.577 52.704 97.577 55.024C97.577 57.36 96.857 58.816 95.705 58.816ZM100.601 52.304H98.377C97.881 50.864 96.953 50.032 95.705 50.032C93.849 50.032 92.649 51.952 92.649 55.024C92.649 58.112 93.849 60.032 95.705 60.032C96.953 60.032 97.865 59.2 98.377 57.76H100.601V62.48H101.849V49.152H100.601V52.304ZM103.417 48.832V63.184H104.665V48.832H103.417ZM117.736 54.064H115.48V52.192H117.736V54.064ZM118.984 49.36H117.736V51.168H115.48V49.36H114.232V55.136H118.984V49.36ZM111.896 54.064H109.64V52.192H111.896V54.064ZM113.144 49.36H111.896V51.168H109.64V49.36H108.392V55.136H113.144V49.36ZM110.136 58.752H108.824V62.864H118.776V61.792H110.136V58.752ZM107.16 56.448V57.504H120.184V56.448H107.16ZM129.118 53.488H136.446V56.128H129.118V53.488ZM133.438 60.272V57.184H137.726V49.856H136.446V52.416H129.118V49.856H127.822V57.184H132.11V60.272H126.286V61.344H139.294V60.272H133.438ZM142.876 55.312H148.044V50.16H141.548V51.232H146.748V54.24H141.596V59.728H142.732C145.468 59.728 147.388 59.616 149.628 59.216L149.484 58.128C147.34 58.544 145.484 58.64 142.876 58.64V55.312ZM154.412 54.528H152.06V48.816H150.748V63.2H152.06V55.632H154.412V54.528ZM162.907 55.632C161.051 54.896 159.995 53.232 159.995 51.616V49.68H158.731V51.616C158.731 53.248 157.611 55.136 155.739 55.984L156.443 56.992C157.835 56.368 158.859 55.152 159.371 53.792C159.883 55.024 160.875 56.08 162.203 56.624L162.907 55.632ZM158.187 59.36H166.523V63.184H167.835V58.304H158.187V59.36ZM166.571 48.848V52.576H164.747V49.088H163.499V57.424H164.747V53.648H166.571V57.52H167.835V48.848H166.571ZM176.922 49.728C173.946 49.728 171.706 51.312 171.706 53.696C171.706 56.096 173.946 57.664 176.922 57.664C179.898 57.664 182.138 56.096 182.138 53.696C182.138 51.312 179.898 49.728 176.922 49.728ZM176.922 50.8C179.194 50.8 180.89 51.968 180.89 53.696C180.89 55.44 179.194 56.592 176.922 56.592C174.666 56.592 172.954 55.44 172.954 53.696C172.954 51.968 174.666 50.8 176.922 50.8ZM170.426 60.192V61.28H183.466V60.192H170.426ZM192.312 60.336V57.632H196.905V56.576H188.073V54.256H196.569V49.888H186.745V50.96H195.289V53.2H186.777V57.632H190.985V60.336H185.145V61.408H198.185V60.336H192.312ZM208.43 52.576H211.134V51.504H208.446V49.36H207.182V51.504H204.478V52.576H207.182V53.232C207.182 55.584 206.062 58.08 204.126 59.216L204.91 60.208C206.318 59.376 207.326 57.776 207.822 55.952C208.35 57.664 209.358 59.104 210.766 59.888L211.518 58.912C209.598 57.856 208.43 55.52 208.43 53.232V52.576ZM215.23 48.832V54.624H213.342V49.152H212.11V62.48H213.342V55.712H215.23V63.184H216.494V48.832H215.23ZM223.597 50.56C224.989 50.56 225.965 51.296 225.965 52.368C225.965 53.472 224.989 54.192 223.597 54.192C222.205 54.192 221.229 53.472 221.229 52.368C221.229 51.296 222.205 50.56 223.597 50.56ZM223.597 55.2C225.725 55.2 227.197 54.064 227.197 52.368C227.197 50.688 225.725 49.552 223.597 49.552C221.469 49.552 219.997 50.688 219.997 52.368C219.997 54.064 221.469 55.2 223.597 55.2ZM228.365 55.92C225.245 56.368 221.629 56.384 218.925 56.384L219.085 57.488C220.221 57.488 221.517 57.472 222.877 57.424V62.752H224.189V57.36C225.597 57.28 227.037 57.136 228.445 56.896L228.365 55.92ZM229.453 48.848V58.64H226.205V59.664H229.453V63.2H230.765V48.848H229.453ZM238.812 51.392H242.188V50.304H234.172V51.392H237.5V53.216C237.5 55.696 235.756 58.4 233.692 59.376L234.46 60.432C236.092 59.6 237.5 57.792 238.156 55.696C238.844 57.664 240.252 59.312 241.916 60.08L242.652 59.024C240.54 58.128 238.812 55.648 238.812 53.216V51.392ZM244.124 48.848V63.184H245.436V48.848H244.124ZM259.915 53.152H251.467V49.36H250.155V54.224H259.915V53.152ZM251.371 58.64H250.059V62.832H259.995V61.76H251.371V58.64ZM248.395 56.144V57.2H261.403V56.144H248.395ZM270.304 51.072H277.648V55.728H270.304V51.072ZM274.656 60.256V56.768H278.928V50.032H269.04V56.768H273.328V60.256H267.504V61.344H280.512V60.256H274.656ZM294.463 53.312C291.919 52.992 289.391 51.408 289.391 49.632V48.992H288.047V49.632C288.047 51.456 285.535 52.992 282.959 53.312L283.439 54.368C285.679 54.016 287.823 52.896 288.719 51.296C289.631 52.896 291.759 54.016 293.983 54.368L294.463 53.312ZM292.207 61.936H285.151V60.112H292.207V61.936ZM292.207 59.104H285.151V57.424H283.855V62.992H293.503V57.424H292.207V59.104ZM282.207 55.376V56.432H295.199V55.376H282.207ZM303.422 50.064C305.774 50.064 307.118 50.608 307.118 51.568C307.118 52.528 305.774 53.072 303.422 53.072C301.07 53.072 299.726 52.528 299.726 51.568C299.726 50.608 301.07 50.064 303.422 50.064ZM303.422 54.048C306.574 54.048 308.462 53.184 308.462 51.568C308.462 49.952 306.574 49.072 303.422 49.072C300.27 49.072 298.382 49.952 298.382 51.568C298.382 53.184 300.27 54.048 303.422 54.048ZM299.822 60.544H308.254V57.312H298.494V58.304H306.958V59.584H298.542V63.024H308.686V62H299.822V60.544ZM296.926 55.024V56.08H309.918V55.024H296.926ZM318.916 60.624H327.348V57.424H317.588V58.416H326.052V59.664H317.636V63.024H327.78V62.016H318.916V60.624ZM319.044 51.408H326.02V52.784H319.044V51.408ZM323.172 55.168V53.792H327.316V49.056H326.02V50.416H319.044V49.056H317.748V53.792H321.86V55.168H316.02V56.224H329.012V55.168H323.172ZM37.2 78.304C34.592 77.92 32.032 76.144 32.032 74.144V73.344H30.656V74.144C30.656 76.192 28.128 77.92 25.52 78.304L26.048 79.36C28.288 78.976 30.448 77.744 31.344 76C32.272 77.728 34.432 78.976 36.656 79.36L37.2 78.304ZM37.824 80.912H24.864V82H30.656V87.2H31.968V82H37.84L37.824 80.912ZM55.7178 72.848H54.4058V81.04H55.7178V72.848ZM48.0058 74.768C49.4298 74.768 50.4858 75.712 50.4858 77.024C50.4858 78.352 49.4298 79.28 48.0058 79.28C46.5818 79.28 45.5578 78.352 45.5578 77.024C45.5578 75.712 46.5818 74.768 48.0058 74.768ZM48.0058 80.368C50.1818 80.368 51.7658 79.008 51.7658 77.024C51.7658 75.04 50.1818 73.68 48.0058 73.68C45.8458 73.68 44.2778 75.04 44.2778 77.024C44.2778 79.008 45.8458 80.368 48.0058 80.368ZM54.1178 81.664H52.8378V82.432C52.8378 83.552 52.1498 84.992 50.7738 85.84C49.4458 85.056 48.7898 83.696 48.7898 82.432V81.664H47.5258V82.432C47.5258 83.808 46.4538 85.36 44.6458 86L45.3018 86.992C46.6458 86.48 47.6218 85.488 48.1338 84.336C48.5658 85.536 49.4298 86.576 50.8058 87.12C52.1337 86.544 53.0138 85.456 53.4618 84.288C53.9418 85.488 54.9338 86.48 56.3418 86.992L56.9978 86C55.1738 85.392 54.1178 83.92 54.1178 82.432V81.664ZM65.1405 74.064C67.4925 74.064 68.8365 74.608 68.8365 75.568C68.8365 76.528 67.4925 77.072 65.1405 77.072C62.7885 77.072 61.4445 76.528 61.4445 75.568C61.4445 74.608 62.7885 74.064 65.1405 74.064ZM65.1405 78.048C68.2925 78.048 70.1805 77.184 70.1805 75.568C70.1805 73.952 68.2925 73.072 65.1405 73.072C61.9885 73.072 60.1005 73.952 60.1005 75.568C60.1005 77.184 61.9885 78.048 65.1405 78.048ZM61.5405 84.544H69.9725V81.312H60.2125V82.304H68.6765V83.584H60.2605V87.024H70.4045V86H61.5405V84.544ZM58.6445 79.024V80.08H71.6365V79.024H58.6445ZM88.2503 82.544H89.5783V72.848H88.2503V76.88H85.1623V77.952H88.2503V82.544ZM78.6823 73.968V75.04H83.7063C83.4503 77.568 81.3863 79.52 77.9943 80.592L78.5703 81.632C82.6663 80.304 85.1143 77.664 85.1143 73.968H78.6823ZM85.5943 81.296H84.2823V81.952C84.2823 84.048 82.0423 85.648 79.4823 86.096L80.0103 87.136C82.1543 86.72 84.0903 85.584 84.9383 83.904C85.7863 85.552 87.7063 86.688 89.8183 87.104L90.3463 86.08C87.8183 85.6 85.5943 84.016 85.5943 81.952V81.296ZM102.905 72.832V87.216H104.217V72.832H102.905ZM96.649 73.936C94.521 73.936 93.001 75.888 93.001 78.944C93.001 82 94.521 83.952 96.649 83.952C98.777 83.952 100.297 82 100.297 78.944C100.297 75.888 98.777 73.936 96.649 73.936ZM96.649 75.12C98.041 75.12 99.033 76.624 99.033 78.944C99.033 81.28 98.041 82.784 96.649 82.784C95.241 82.784 94.249 81.28 94.249 78.944C94.249 76.624 95.241 75.12 96.649 75.12ZM113.672 86.16C111.416 86.16 110.088 85.6 110.088 84.608C110.088 83.632 111.416 83.056 113.672 83.056C115.928 83.056 117.256 83.632 117.256 84.608C117.256 85.6 115.928 86.16 113.672 86.16ZM113.672 82.048C110.616 82.048 108.76 82.96 108.76 84.608C108.76 86.256 110.616 87.168 113.672 87.168C116.744 87.168 118.584 86.256 118.584 84.608C118.584 82.96 116.744 82.048 113.672 82.048ZM109.976 75.84C109.976 74.784 111.4 74.16 113.672 74.16C115.944 74.16 117.368 74.784 117.368 75.84C117.368 76.896 115.944 77.52 113.672 77.52C111.4 77.52 109.976 76.896 109.976 75.84ZM114.328 79.888V78.528C117.032 78.384 118.712 77.408 118.712 75.84C118.712 74.128 116.776 73.12 113.672 73.12C110.568 73.12 108.632 74.128 108.632 75.84C108.632 77.408 110.296 78.384 113.016 78.528V79.888H107.192V80.944H120.152V79.888H114.328ZM123.586 86.1172C124.234 86.1172 124.727 85.6172 124.727 84.9844C124.727 84.3438 124.234 83.8438 123.586 83.8438C122.938 83.8438 122.438 84.3438 122.438 84.9844C122.438 85.6172 122.938 86.1172 123.586 86.1172Z" fill="black"/>
</svg>
