<svg width="365" height="88" viewBox="0 0 365 88" fill="none" xmlns="http://www.w3.org/2000/svg">
<path d="M0 12C0 5.37258 5.37258 0 12 0H365V76C365 82.6274 359.627 88 353 88H12C5.37259 88 0 82.6274 0 76V12Z" fill="#F4F1FF"/>
<path d="M32.096 32.576C32.192 32.08 32.256 31.536 32.256 30.944C32.256 30.288 32.176 29.68 32.048 29.12H35.36V32.576H32.096ZM28.688 34.784C27.312 34.784 26.352 33.28 26.352 30.944C26.352 28.624 27.312 27.12 28.688 27.12C30.048 27.12 31.024 28.624 31.024 30.944C31.024 33.28 30.048 34.784 28.688 34.784ZM35.36 24.832V28.048H31.68C31.072 26.704 30.016 25.936 28.688 25.936C26.592 25.936 25.104 27.888 25.104 30.944C25.104 34 26.592 35.952 28.688 35.952C30.064 35.952 31.184 35.104 31.776 33.648H35.36V39.216H36.672V24.832H35.36ZM40.4148 26.384V27.44H45.8068C45.5348 30.848 43.6148 33.6 39.7588 35.44L40.4628 36.512C45.2308 34.176 47.1348 30.528 47.1348 26.384H40.4148ZM50.0308 24.832V39.184H51.3428V24.832H50.0308ZM65.7895 29.152H57.3415V25.36H56.0295V30.224H65.7895V29.152ZM57.2455 34.64H55.9335V38.832H65.8695V37.76H57.2455V34.64ZM54.2695 32.144V33.2H67.2775V32.144H54.2695ZM80.9953 28.8V29.872H83.8753V35.36H85.2033V24.848H83.8753V28.8H80.9953ZM81.8433 32.176C79.7633 31.44 78.3553 29.648 78.3553 27.776V27.072H81.5073V26H73.8433V27.072H77.0433V27.792C77.0433 29.824 75.5553 31.728 73.4273 32.496L74.1153 33.52C75.7953 32.912 77.1073 31.584 77.7313 29.952C78.3553 31.424 79.5873 32.624 81.1873 33.2L81.8433 32.176ZM77.3473 37.792V34.432H76.0193V38.864H85.6033V37.792H77.3473ZM92.274 28.56H94.93V27.472H92.29V25.344H91.026V27.472H88.37V28.56H91.026V29.248C91.026 31.6 89.922 34.112 87.986 35.264L88.754 36.24C90.162 35.392 91.17 33.792 91.666 31.968C92.194 33.696 93.218 35.152 94.61 35.936L95.362 34.944C93.426 33.904 92.274 31.536 92.274 29.248V28.56ZM96.146 30.496H93.954V31.584H96.146V38.432H97.394V25.168H96.146V30.496ZM99.026 24.832V39.168H100.29V24.832H99.026ZM111.368 28.56H114.024V27.472H111.384V25.344H110.12V27.472H107.464V28.56H110.12V29.248C110.12 31.6 109.016 34.112 107.08 35.264L107.848 36.24C109.256 35.392 110.264 33.792 110.76 31.968C111.288 33.696 112.312 35.152 113.704 35.936L114.456 34.944C112.52 33.904 111.368 31.536 111.368 29.248V28.56ZM115.24 30.496H113.048V31.584H115.24V38.432H116.488V25.168H115.24V30.496ZM118.12 24.832V39.168H119.384V24.832H118.12ZM123.095 30.656L123.287 31.744L131.943 31.264C131.863 32.368 131.703 33.552 131.383 34.928L132.679 35.056C133.303 32.112 133.303 30.176 133.303 28.048V26.288H123.463V27.36H132.023V28.048C132.023 28.784 132.023 29.52 131.991 30.272L123.095 30.656ZM121.927 36.112V37.184H134.903V36.112H121.927ZM138.773 31.28H144.069V26.16H137.413V27.232H142.741V30.224H137.461V35.728H138.645C141.109 35.728 143.285 35.632 145.877 35.2L145.749 34.128C143.237 34.528 141.125 34.64 138.773 34.64V31.28ZM147.093 24.816V39.2H148.405V24.816H147.093ZM163.716 32.048C161.204 31.568 158.484 29.392 158.484 26.944V25.84H157.108V26.944C157.108 29.392 154.404 31.552 151.892 32.048L152.484 33.136C154.644 32.624 156.884 31.088 157.796 28.992C158.708 31.104 160.948 32.64 163.124 33.136L163.716 32.048ZM151.348 36.176V37.264H164.356V36.176H151.348ZM177.587 32.576H169.059V30.304H177.123V29.264H169.059V27.136H177.443V26.08H167.731V33.632H177.587V32.576ZM166.051 36.256V37.328H179.075V36.256H166.051ZM186.361 30.688C188.713 30.4 190.873 29.344 191.657 27.76C192.457 29.344 194.601 30.4 196.953 30.688L197.417 29.648C194.905 29.36 192.617 28.128 192.505 26.544H196.969V25.488H186.361V26.544H190.809C190.697 28.128 188.409 29.36 185.897 29.648L186.361 30.688ZM195.225 36.64C195.225 37.6 193.881 38.16 191.641 38.16C189.385 38.16 188.057 37.6 188.057 36.64C188.057 35.68 189.385 35.136 191.641 35.136C193.881 35.136 195.225 35.68 195.225 36.64ZM198.137 32.608V31.552H185.161V32.608H190.985V34.144C188.312 34.272 186.729 35.152 186.729 36.64C186.729 38.272 188.585 39.168 191.657 39.168C194.713 39.168 196.553 38.272 196.553 36.64C196.553 35.152 194.985 34.272 192.312 34.144V32.608H198.137ZM203.127 34.816C201.975 34.816 201.255 33.36 201.255 31.008C201.255 28.704 201.975 27.248 203.127 27.248C204.247 27.248 204.983 28.704 204.983 31.008C204.983 33.36 204.247 34.816 203.127 34.816ZM207.975 30.416H206.167C206.007 27.712 204.855 26.032 203.127 26.032C201.255 26.032 200.055 27.952 200.055 31.008C200.055 34.112 201.255 36.032 203.127 36.032C204.887 36.032 206.055 34.304 206.167 31.488H207.975V38.48H209.223V25.152H207.975V30.416ZM210.823 24.832V39.184H212.071V24.832H210.823ZM219.622 26.064H218.31V28.64C218.31 31.296 216.678 34.064 214.598 35.104L215.398 36.144C217.014 35.28 218.342 33.472 218.966 31.344C219.622 33.36 220.934 35.072 222.566 35.888L223.334 34.848C221.254 33.856 219.622 31.248 219.622 28.64V26.064ZM225.11 24.832V29.696H221.782V30.768H225.11V39.2H226.422V24.832H225.11ZM243.644 27.792C243.644 29.568 243.644 31.712 243.068 34.64L244.38 34.784C244.94 31.68 244.94 29.616 244.94 27.792V26.352H235.1V27.424H243.644V27.792ZM233.708 36V37.088H246.684V36H233.708ZM250.219 27.648H254.267V26.576H248.923V35.648H249.867C252.011 35.648 253.467 35.584 255.179 35.216L255.067 34.128C253.499 34.464 252.139 34.544 250.219 34.56V27.648ZM259.339 24.832V30.592H257.307V25.152H256.075V38.464H257.307V31.664H259.339V39.184H260.603V24.832H259.339ZM263.897 26.368V27.456H269.161C268.857 30.848 266.889 33.6 263.225 35.44L263.945 36.464C268.585 34.144 270.457 30.448 270.457 26.368H263.897ZM276.473 30.656H274.169V24.832H272.857V39.184H274.169V31.744H276.473V30.656ZM290.527 30.592C288.655 30.96 287.023 31.072 284.191 31.072V26.848H289.199V25.792H282.879V32.16H283.999C287.007 32.16 288.703 32.048 290.671 31.648L290.527 30.592ZM285.631 34.768H292.063V37.92H285.631V34.768ZM284.351 38.976H293.359V33.728H284.351V38.976ZM295.487 28.336H293.359V24.816H292.047V32.96H293.359V29.424H295.487V28.336ZM303.422 26.384C305.678 26.384 307.118 27.056 307.118 28.192C307.118 29.328 305.678 29.984 303.422 29.984C301.166 29.984 299.726 29.328 299.726 28.192C299.726 27.056 301.166 26.384 303.422 26.384ZM303.422 31.04C306.494 31.04 308.462 29.984 308.462 28.192C308.462 26.4 306.494 25.328 303.422 25.328C300.35 25.328 298.382 26.4 298.382 28.192C298.382 29.984 300.35 31.04 303.422 31.04ZM299.918 34.704H298.606V38.864H308.478V37.792H299.918V34.704ZM296.926 32.384V33.44H309.902V32.384H296.926ZM320.212 28.56H322.868V27.472H320.228V25.344H318.964V27.472H316.308V28.56H318.964V29.248C318.964 31.6 317.86 34.112 315.924 35.264L316.692 36.24C318.1 35.392 319.108 33.792 319.604 31.968C320.132 33.696 321.156 35.152 322.548 35.936L323.3 34.944C321.364 33.904 320.212 31.536 320.212 29.248V28.56ZM324.084 30.496H321.892V31.584H324.084V38.432H325.332V25.168H324.084V30.496ZM326.964 24.832V39.168H328.228V24.832H326.964ZM26.032 54.656L26.224 55.744L34.88 55.264C34.8 56.368 34.64 57.552 34.32 58.928L35.616 59.056C36.24 56.112 36.24 54.176 36.24 52.048V50.288H26.4V51.36H34.96V52.048C34.96 52.784 34.96 53.52 34.928 54.272L26.032 54.656ZM24.864 60.112V61.184H37.84V60.112H24.864ZM41.7108 55.28H47.0068V50.16H40.3508V51.232H45.6788V54.224H40.3988V59.728H41.5828C44.0468 59.728 46.2228 59.632 48.8148 59.2L48.6868 58.128C46.1748 58.528 44.0628 58.64 41.7108 58.64V55.28ZM50.0308 48.816V63.2H51.3428V48.816H50.0308ZM66.6535 56.048C64.1415 55.568 61.4215 53.392 61.4215 50.944V49.84H60.0455V50.944C60.0455 53.392 57.3415 55.552 54.8295 56.048L55.4215 57.136C57.5815 56.624 59.8215 55.088 60.7335 52.992C61.6455 55.104 63.8855 56.64 66.0615 57.136L66.6535 56.048ZM54.2855 60.176V61.264H67.2935V60.176H54.2855ZM80.5243 56.576H71.9963V54.304H80.0603V53.264H71.9963V51.136H80.3803V50.08H70.6683V57.632H80.5243V56.576ZM68.9883 60.256V61.328H82.0123V60.256H68.9883ZM93.771 51.344H85.387V54.416H95.323V53.472H86.683V52.24H95.067V49.248H85.355V50.176H93.771V51.344ZM86.603 60.72H95.115V57.664H85.275V58.608H93.819V59.808H85.307V62.992H95.563V62.048H86.603V60.72ZM83.723 55.504V56.496H96.731V55.504H83.723ZM111.345 50.144H107.889V48.736H106.577V50.144H103.105V51.136H111.345V50.144ZM105.121 53.792C105.121 53.04 105.937 52.576 107.233 52.576C108.497 52.576 109.329 53.04 109.329 53.792C109.329 54.544 108.497 55.024 107.233 55.024C105.937 55.024 105.121 54.544 105.121 53.792ZM111.777 56.544C110.529 56.736 109.201 56.832 107.889 56.896V55.904C109.537 55.728 110.577 54.96 110.577 53.792C110.577 52.48 109.233 51.664 107.233 51.664C105.201 51.664 103.873 52.48 103.873 53.792C103.873 54.976 104.913 55.744 106.577 55.904V56.944C105.201 56.992 103.889 56.992 102.753 56.992L102.897 58.048C105.409 58.032 108.801 58.016 111.873 57.488L111.777 56.544ZM104.497 60.224H112.625V63.184H113.937V59.184H104.497V60.224ZM116.033 53.184H113.937V48.848H112.625V58.464H113.937V54.272H116.033V53.184ZM129.312 48.848H128V59.328H129.312V48.848ZM119.152 53.36C119.152 51.968 120.208 50.976 121.6 50.976C123.024 50.976 124.08 51.968 124.08 53.36C124.08 54.784 123.024 55.776 121.6 55.776C120.208 55.776 119.152 54.784 119.152 53.36ZM125.36 53.36C125.36 51.296 123.744 49.84 121.6 49.84C119.472 49.84 117.872 51.296 117.872 53.36C117.872 55.44 119.472 56.912 121.6 56.912C123.744 56.912 125.36 55.44 125.36 53.36ZM121.391 61.792V58.256H120.08V62.864H129.744V61.792H121.391ZM140.766 50.144H137.182V48.688H135.87V50.144H132.302V51.152H140.766V50.144ZM134.35 54.144C134.35 53.28 135.198 52.768 136.526 52.768C137.854 52.768 138.718 53.28 138.718 54.144C138.718 54.992 137.854 55.52 136.526 55.52C135.198 55.52 134.35 54.992 134.35 54.144ZM139.966 54.144C139.966 52.688 138.606 51.792 136.526 51.792C134.462 51.792 133.102 52.688 133.102 54.144C133.102 55.6 134.462 56.496 136.526 56.496C138.606 56.496 139.966 55.6 139.966 54.144ZM135.598 60.64H143.39V57.456H134.27V58.432H142.094V59.68H134.318V63.024H143.918V62.016H135.598V60.64ZM143.39 52.24V48.784H142.078V56.72H143.39V53.328H145.518V52.24H143.39ZM163.7 54.304C161.092 53.92 158.532 52.144 158.532 50.144V49.344H157.156V50.144C157.156 52.192 154.628 53.92 152.02 54.304L152.548 55.36C154.788 54.976 156.948 53.744 157.844 52C158.772 53.728 160.932 54.976 163.156 55.36L163.7 54.304ZM164.324 56.912H151.364V58H157.156V63.2H158.468V58H164.34L164.324 56.912ZM182.218 48.848H180.906V57.04H182.218V48.848ZM174.506 50.768C175.93 50.768 176.986 51.712 176.986 53.024C176.986 54.352 175.93 55.28 174.506 55.28C173.082 55.28 172.058 54.352 172.058 53.024C172.058 51.712 173.082 50.768 174.506 50.768ZM174.506 56.368C176.682 56.368 178.266 55.008 178.266 53.024C178.266 51.04 176.682 49.68 174.506 49.68C172.346 49.68 170.778 51.04 170.778 53.024C170.778 55.008 172.346 56.368 174.506 56.368ZM180.618 57.664H179.338V58.432C179.338 59.552 178.65 60.992 177.274 61.84C175.946 61.056 175.29 59.696 175.29 58.432V57.664H174.026V58.432C174.026 59.808 172.954 61.36 171.146 62L171.802 62.992C173.146 62.48 174.122 61.488 174.634 60.336C175.066 61.536 175.93 62.576 177.306 63.12C178.634 62.544 179.514 61.456 179.962 60.288C180.442 61.488 181.434 62.48 182.842 62.992L183.498 62C181.674 61.392 180.618 59.92 180.618 58.432V57.664ZM196.665 53.152H188.217V49.36H186.905V54.224H196.665V53.152ZM188.121 58.64H186.809V62.832H196.745V61.76H188.121V58.64ZM185.145 56.144V57.2H198.153V56.144H185.145ZM215.214 54.56C215.582 52.896 215.582 51.6 215.582 50.528V49.52H205.806V50.576H214.286C214.286 51.616 214.286 52.8 213.934 54.416L215.214 54.56ZM211.358 57.744H210.03V58.384C210.03 60.272 207.822 61.728 205.182 62.096L205.678 63.12C207.87 62.752 209.822 61.744 210.702 60.192C211.55 61.744 213.502 62.752 215.694 63.12L216.19 62.096C213.566 61.728 211.358 60.272 211.358 58.384V57.744ZM210.894 55.552V52.672H209.582V55.552H204.286V56.608H217.214V55.552H210.894ZM229.405 48.832V63.216H230.717V48.832H229.405ZM223.149 49.936C221.021 49.936 219.501 51.888 219.501 54.944C219.501 58 221.021 59.952 223.149 59.952C225.277 59.952 226.797 58 226.797 54.944C226.797 51.888 225.277 49.936 223.149 49.936ZM223.149 51.12C224.541 51.12 225.533 52.624 225.533 54.944C225.533 57.28 224.541 58.784 223.149 58.784C221.741 58.784 220.749 57.28 220.749 54.944C220.749 52.624 221.741 51.12 223.149 51.12ZM235.564 55.312H240.732V50.16H234.236V51.232H239.436V54.24H234.284V59.728H235.42C238.156 59.728 240.076 59.616 242.316 59.216L242.172 58.128C240.028 58.544 238.172 58.64 235.564 58.64V55.312ZM247.1 54.528H244.748V48.816H243.436V63.2H244.748V55.632H247.1V54.528ZM250.939 53.536C250.939 51.888 252.619 50.816 254.907 50.816C257.195 50.816 258.859 51.888 258.859 53.536C258.859 55.184 257.195 56.256 254.907 56.256C252.619 56.256 250.939 55.184 250.939 53.536ZM255.562 60.256V57.264C258.235 57.072 260.107 55.648 260.107 53.536C260.107 51.248 257.931 49.776 254.907 49.776C251.867 49.776 249.674 51.248 249.674 53.536C249.674 55.648 251.562 57.072 254.235 57.264V60.256H248.395V61.344H261.435V60.256H255.562ZM264.805 62.1172C265.453 62.1172 265.945 61.6172 265.945 60.9844C265.945 60.3438 265.453 59.8438 264.805 59.8438C264.156 59.8438 263.656 60.3438 263.656 60.9844C263.656 61.6172 264.156 62.1172 264.805 62.1172Z" fill="black"/>
</svg>
