<svg width="365" height="112" viewBox="0 0 365 112" fill="none" xmlns="http://www.w3.org/2000/svg">
<path d="M0 0H353C359.627 0 365 5.37258 365 12V100C365 106.627 359.627 112 353 112H12C5.37259 112 0 106.627 0 100V0Z" fill="#F4F1FF"/>
<path d="M28.672 34.784C27.28 34.784 26.304 33.28 26.304 30.944C26.304 28.624 27.28 27.12 28.672 27.12C30.048 27.12 31.024 28.624 31.024 30.944C31.024 33.28 30.048 34.784 28.672 34.784ZM28.672 25.936C26.56 25.936 25.056 27.888 25.056 30.944C25.056 34 26.56 35.952 28.672 35.952C30.784 35.952 32.272 34 32.272 30.944C32.272 27.888 30.784 25.936 28.672 25.936ZM38.256 30.56H35.888V24.848H34.576V39.184H35.888V31.664H38.256V30.56ZM48.3348 31.84C46.2228 31.136 44.7348 29.392 44.7348 27.472V26.896H47.9828V25.84H40.1108V26.896H43.3908V27.472C43.3908 29.488 41.9348 31.36 39.7588 32.128L40.4468 33.152C42.1428 32.528 43.4708 31.248 44.0788 29.616C44.7348 31.12 46.0468 32.304 47.6948 32.88L48.3348 31.84ZM41.7428 35.328H50.0308V39.184H51.3428V34.272H41.7428V35.328ZM50.0308 24.832V33.52H51.3428V24.832H50.0308ZM67.4445 31.376C65.3325 30.72 63.8285 29.04 63.8285 27.152V26.832H67.0765V25.76H59.2045V26.832H62.4845V27.152C62.4845 29.12 61.0125 30.912 58.8365 31.6L59.5085 32.64C61.2205 32.048 62.5485 30.8 63.1725 29.216C63.8285 30.704 65.1565 31.856 66.8045 32.384L67.4445 31.376ZM69.1405 37.92H62.4845V36.064H69.1405V37.92ZM69.1405 35.04H62.4845V33.296H61.1885V38.992H70.4365V33.296H69.1405V35.04ZM69.1245 24.832V32.608H70.4365V24.832H69.1245ZM86.3713 31.936H84.2433C84.6433 29.872 84.6433 28.352 84.6433 27.008V25.76H75.0113V26.816H83.3633V27.008C83.3633 28.352 83.3633 29.872 82.9153 31.936H73.3953V33.008H79.1873V39.2H80.5153V33.008H86.3713V31.936ZM92.306 34.896C91.01 34.896 90.066 33.968 90.066 32.688C90.066 31.392 91.01 30.464 92.306 30.464C93.618 30.464 94.562 31.392 94.562 32.688C94.562 33.968 93.618 34.896 92.306 34.896ZM92.306 29.376C90.29 29.376 88.834 30.752 88.834 32.688C88.834 34.64 90.29 35.984 92.306 35.984C94.354 35.984 95.81 34.64 95.81 32.688C95.81 30.752 94.354 29.376 92.306 29.376ZM92.946 25.008H91.634V27.136H88.018V28.192H96.482V27.136H92.946V25.008ZM101.506 30.736H99.154V24.848H97.842V39.184H99.154V31.84H101.506V30.736ZM103.665 26.384V27.44H109.057C108.785 30.848 106.865 33.6 103.009 35.44L103.713 36.512C108.481 34.176 110.385 30.528 110.385 26.384H103.665ZM113.281 24.832V39.184H114.593V24.832H113.281ZM127.584 27.344H119.2V30.416H129.136V29.472H120.496V28.24H128.88V25.248H119.168V26.176H127.584V27.344ZM120.416 36.72H128.928V33.664H119.088V34.608H127.632V35.808H119.12V38.992H129.376V38.048H120.416V36.72ZM117.536 31.504V32.496H130.544V31.504H117.536ZM141.717 26.08H140.421V28.656C140.421 31.376 138.677 34.128 136.565 35.136L137.365 36.208C139.045 35.344 140.421 33.552 141.077 31.392C141.765 33.44 143.141 35.136 144.773 35.936L145.557 34.88C143.429 33.92 141.717 31.28 141.717 28.656V26.08ZM147.061 24.832V39.216H148.373V24.832H147.061ZM159.684 31.856C157.572 31.136 156.196 29.36 156.196 27.456V26.896H159.364V25.84H151.668V26.896H154.884V27.472C154.884 29.52 153.444 31.376 151.284 32.128L151.972 33.168C153.652 32.544 154.948 31.28 155.556 29.68C156.18 31.152 157.412 32.32 159.012 32.88L159.684 31.856ZM153.14 35.312H161.172V39.2H162.484V34.256H153.14V35.312ZM164.612 28.608H162.484V24.848H161.172V33.488H162.484V29.696H164.612V28.608ZM170.275 34.896C168.979 34.896 168.035 33.968 168.035 32.688C168.035 31.392 168.979 30.464 170.275 30.464C171.587 30.464 172.531 31.392 172.531 32.688C172.531 33.968 171.587 34.896 170.275 34.896ZM170.275 29.376C168.259 29.376 166.803 30.752 166.803 32.688C166.803 34.64 168.259 35.984 170.275 35.984C172.323 35.984 173.779 34.64 173.779 32.688C173.779 30.752 172.323 29.376 170.275 29.376ZM170.915 25.008H169.603V27.136H165.987V28.192H174.451V27.136H170.915V25.008ZM179.475 30.736H177.123V24.848H175.811V39.184H177.123V31.84H179.475V30.736ZM185.906 27.392H189.282V26.304H181.266V27.392H184.594V29.216C184.594 31.696 182.85 34.4 180.786 35.376L181.554 36.432C183.186 35.6 184.594 33.792 185.25 31.696C185.938 33.664 187.346 35.312 189.01 36.08L189.746 35.024C187.634 34.128 185.906 31.648 185.906 29.216V27.392ZM191.218 24.848V39.184H192.53V24.848H191.218ZM201.431 28.96C201.431 27.648 202.471 26.72 203.863 26.72C205.239 26.72 206.279 27.648 206.279 28.96C206.279 30.272 205.239 31.2 203.863 31.2C202.471 31.2 201.431 30.272 201.431 28.96ZM207.559 28.96C207.559 27.008 205.991 25.648 203.863 25.648C201.719 25.648 200.151 27.008 200.151 28.96C200.151 30.912 201.719 32.272 203.863 32.272C205.991 32.272 207.559 30.912 207.559 28.96ZM202.663 33.536H201.383V38.816H202.071C203.047 38.816 204.391 38.736 205.751 38.288L205.543 37.248C204.551 37.568 203.495 37.696 202.663 37.728V33.536ZM208.839 38.24C207.959 38.24 207.351 37.792 207.351 37.136C207.351 36.48 207.959 36.048 208.839 36.048C209.703 36.048 210.327 36.48 210.327 37.136C210.327 37.792 209.703 38.24 208.839 38.24ZM208.839 35.12C207.287 35.12 206.183 35.904 206.183 37.136C206.183 38.384 207.287 39.168 208.839 39.168C210.391 39.168 211.495 38.384 211.495 37.136C211.495 35.904 210.391 35.12 208.839 35.12ZM209.479 32.336H208.199V33.632H205.223V34.608H212.439V33.632H209.479V32.336ZM211.015 28.048V24.832H209.703V31.984H211.015V29.136H213.143V28.048H211.015ZM218.422 34.784C217.03 34.784 216.054 33.28 216.054 30.944C216.054 28.624 217.03 27.12 218.422 27.12C219.798 27.12 220.774 28.624 220.774 30.944C220.774 33.28 219.798 34.784 218.422 34.784ZM218.422 25.936C216.31 25.936 214.806 27.888 214.806 30.944C214.806 34 216.31 35.952 218.422 35.952C220.534 35.952 222.022 34 222.022 30.944C222.022 27.888 220.534 25.936 218.422 25.936ZM228.006 30.56H225.638V24.848H224.326V39.184H225.638V31.664H228.006V30.56ZM237.516 34.784C236.124 34.784 235.148 33.28 235.148 30.944C235.148 28.624 236.124 27.12 237.516 27.12C238.892 27.12 239.868 28.624 239.868 30.944C239.868 33.28 238.892 34.784 237.516 34.784ZM237.516 25.936C235.404 25.936 233.9 27.888 233.9 30.944C233.9 34 235.404 35.952 237.516 35.952C239.628 35.952 241.116 34 241.116 30.944C241.116 27.888 239.628 25.936 237.516 25.936ZM247.1 30.56H244.732V24.848H243.42V39.184H244.732V31.664H247.1V30.56ZM258.459 30.176H251.339V26.688H258.459V30.176ZM259.755 25.632H250.059V31.216H259.755V25.632ZM261.419 33.168H248.395V34.224H254.219V39.168H255.531V34.224H261.419V33.168ZM273.625 34.544H274.953V24.848H273.625V28.88H270.537V29.952H273.625V34.544ZM264.057 25.968V27.04H269.081C268.825 29.568 266.761 31.52 263.369 32.592L263.945 33.632C268.041 32.304 270.489 29.664 270.489 25.968H264.057ZM270.969 33.296H269.657V33.952C269.657 36.048 267.417 37.648 264.857 38.096L265.385 39.136C267.529 38.72 269.465 37.584 270.313 35.904C271.161 37.552 273.081 38.688 275.193 39.104L275.721 38.08C273.193 37.6 270.969 36.016 270.969 33.952V33.296ZM285 36.288V32.608H289.368V31.552H280.808V27.056H289.224V25.984H279.496V32.608H283.672V36.288H277.832V37.376H290.872V36.288H285ZM301.118 28.576H303.822V27.504H301.134V25.36H299.87V27.504H297.166V28.576H299.87V29.232C299.87 31.584 298.75 34.08 296.814 35.216L297.598 36.208C299.006 35.376 300.014 33.776 300.51 31.952C301.038 33.664 302.046 35.104 303.454 35.888L304.206 34.912C302.286 33.856 301.118 31.52 301.118 29.232V28.576ZM307.918 24.832V30.624H306.03V25.152H304.798V38.48H306.03V31.712H307.918V39.184H309.182V24.832H307.918ZM316.285 26.56C317.677 26.56 318.653 27.296 318.653 28.368C318.653 29.472 317.677 30.192 316.285 30.192C314.893 30.192 313.917 29.472 313.917 28.368C313.917 27.296 314.893 26.56 316.285 26.56ZM316.285 31.2C318.413 31.2 319.885 30.064 319.885 28.368C319.885 26.688 318.413 25.552 316.285 25.552C314.157 25.552 312.685 26.688 312.685 28.368C312.685 30.064 314.157 31.2 316.285 31.2ZM321.053 31.92C317.933 32.368 314.317 32.384 311.613 32.384L311.773 33.488C312.909 33.488 314.205 33.472 315.565 33.424V38.752H316.877V33.36C318.285 33.28 319.725 33.136 321.133 32.896L321.053 31.92ZM322.141 24.848V34.64H318.892V35.664H322.141V39.2H323.453V24.848H322.141ZM331.499 27.392H334.875V26.304H326.859V27.392H330.187V29.216C330.187 31.696 328.443 34.4 326.379 35.376L327.147 36.432C328.779 35.6 330.187 33.792 330.843 31.696C331.531 33.664 332.939 35.312 334.603 36.08L335.339 35.024C333.227 34.128 331.499 31.648 331.499 29.216V27.392ZM336.811 24.848V39.184H338.123V24.848H336.811ZM29.968 51.392H33.344V50.304H25.328V51.392H28.656V53.216C28.656 55.696 26.912 58.4 24.848 59.376L25.616 60.432C27.248 59.6 28.656 57.792 29.312 55.696C30 57.664 31.408 59.312 33.072 60.08L33.808 59.024C31.696 58.128 29.968 55.648 29.968 53.216V51.392ZM35.28 48.848V63.184H36.592V48.848H35.28ZM45.4938 52.96C45.4938 51.648 46.5338 50.72 47.9258 50.72C49.3018 50.72 50.3418 51.648 50.3418 52.96C50.3418 54.272 49.3018 55.2 47.9258 55.2C46.5338 55.2 45.4938 54.272 45.4938 52.96ZM51.6218 52.96C51.6218 51.008 50.0538 49.648 47.9258 49.648C45.7818 49.648 44.2138 51.008 44.2138 52.96C44.2138 54.912 45.7818 56.272 47.9258 56.272C50.0538 56.272 51.6218 54.912 51.6218 52.96ZM46.7258 57.536H45.4457V62.816H46.1338C47.1098 62.816 48.4538 62.736 49.8138 62.288L49.6058 61.248C48.6138 61.568 47.5578 61.696 46.7258 61.728V57.536ZM52.9018 62.24C52.0218 62.24 51.4138 61.792 51.4138 61.136C51.4138 60.48 52.0218 60.048 52.9018 60.048C53.7658 60.048 54.3898 60.48 54.3898 61.136C54.3898 61.792 53.7658 62.24 52.9018 62.24ZM52.9018 59.12C51.3498 59.12 50.2458 59.904 50.2458 61.136C50.2458 62.384 51.3498 63.168 52.9018 63.168C54.4538 63.168 55.5578 62.384 55.5578 61.136C55.5578 59.904 54.4538 59.12 52.9018 59.12ZM53.5418 56.336H52.2618V57.632H49.2858V58.608H56.5018V57.632H53.5418V56.336ZM55.0778 52.048V48.832H53.7658V55.984H55.0778V53.136H57.2058V52.048H55.0778ZM62.6765 50.784C64.1005 50.784 65.1405 51.712 65.1405 53.056C65.1405 54.4 64.1005 55.328 62.6765 55.328C61.2365 55.328 60.2125 54.4 60.2125 53.056C60.2125 51.712 61.2365 50.784 62.6765 50.784ZM62.6765 56.432C64.8365 56.432 66.4205 55.056 66.4205 53.056C66.4205 51.056 64.8365 49.68 62.6765 49.68C60.5005 49.68 58.9325 51.056 58.9325 53.056C58.9325 55.056 60.5005 56.432 62.6765 56.432ZM68.6765 57.664H67.3965V58.416C67.3965 59.536 66.7245 60.992 65.3485 61.856C64.0205 61.072 63.3645 59.712 63.3645 58.416V57.664H62.1005V58.416C62.1005 59.808 61.0445 61.36 59.2205 62.048L59.8925 63.008C61.2365 62.496 62.2125 61.488 62.7245 60.32C63.1565 61.536 64.0045 62.592 65.3805 63.136C66.7245 62.56 67.5885 61.456 68.0205 60.272C68.5005 61.488 69.4925 62.48 70.9005 63.008L71.5565 62.048C69.7325 61.408 68.6765 59.92 68.6765 58.416V57.664ZM69.7965 52.272V48.832H68.4845V57.008H69.7965V53.36H71.9245V52.272H69.7965ZM78.4993 51.392H81.8753V50.304H73.8593V51.392H77.1873V53.216C77.1873 55.696 75.4433 58.4 73.3793 59.376L74.1473 60.432C75.7793 59.6 77.1873 57.792 77.8433 55.696C78.5313 57.664 79.9393 59.312 81.6033 60.08L82.3393 59.024C80.2273 58.128 78.4993 55.648 78.4993 53.216V51.392ZM83.8113 48.848V63.184H85.1233V48.848H83.8113ZM94.002 55.712H89.97V51.168H94.002V55.712ZM95.282 50.112H88.69V56.752H95.282V50.112ZM91.618 58.352H90.306V62.864H99.874V61.792H91.618V58.352ZM99.234 53.2V48.816H97.922V59.328H99.234V54.304H101.346V53.2H99.234ZM102.891 64.9297H104.086L105.383 60.3438H103.578L102.891 64.9297ZM122.671 48.832V63.216H123.983V48.832H122.671ZM116.415 49.936C114.287 49.936 112.767 51.888 112.767 54.944C112.767 58 114.287 59.952 116.415 59.952C118.543 59.952 120.063 58 120.063 54.944C120.063 51.888 118.543 49.936 116.415 49.936ZM116.415 51.12C117.807 51.12 118.799 52.624 118.799 54.944C118.799 57.28 117.807 58.784 116.415 58.784C115.007 58.784 114.015 57.28 114.015 54.944C114.015 52.624 115.007 51.12 116.415 51.12ZM128.685 51.408H131.005V50.336H127.389V59.424H128.029C128.893 59.424 129.949 59.408 131.293 59.12L131.149 58.032C130.221 58.224 129.389 58.304 128.685 58.32V51.408ZM133.101 51.408H135.613V50.336H131.805V59.424H132.509C133.981 59.424 134.973 59.392 136.189 59.088L136.061 58C135.085 58.24 134.205 58.32 133.101 58.336V51.408ZM140.285 54.464H138.221V48.816H136.909V63.184H138.221V55.568H140.285V54.464ZM142.444 50.368V51.456H147.708C147.404 54.848 145.436 57.6 141.772 59.44L142.492 60.464C147.132 58.144 149.004 54.448 149.004 50.368H142.444ZM155.02 54.656H152.716V48.832H151.404V63.184H152.716V55.744H155.02V54.656ZM166.738 58.656H162.642V54.88H166.738V58.656ZM166.738 53.84H162.642V50.048H161.346V59.728H168.018V50.048H166.738V53.84ZM174.178 54.48H171.81V48.848H170.498V63.168H171.81V55.584H174.178V54.48ZM187.297 48.848H185.985V59.6H187.297V48.848ZM179.729 58.944H181.025V55.952C182.369 55.856 183.777 55.728 185.089 55.488L184.993 54.544C184.545 54.608 184.081 54.656 183.617 54.704C184.033 52.912 184.033 51.584 184.033 50.688V49.984H180.545V51.04H182.769C182.769 51.936 182.705 53.136 182.289 54.832C181.361 54.896 180.385 54.944 179.457 54.976C179.937 52.976 179.937 51.456 179.937 50.592V49.984H176.449V51.04H178.689C178.673 51.952 178.609 53.248 178.145 55.024C177.201 55.04 176.289 55.04 175.457 55.04L175.649 56.112C176.865 56.112 178.273 56.096 179.729 56.032V58.944ZM178.689 61.792V58.416H177.393V62.864H187.729V61.792H178.689ZM203.238 50.576H199.622V48.848H198.31V50.576H194.662V51.616H203.238V50.576ZM196.822 55.12C196.822 54.128 197.686 53.472 198.966 53.472C200.246 53.472 201.11 54.128 201.11 55.12C201.11 56.112 200.246 56.752 198.966 56.752C197.686 56.752 196.822 56.112 196.822 55.12ZM199.622 57.744C201.27 57.536 202.358 56.544 202.358 55.12C202.358 53.504 200.966 52.464 198.966 52.464C196.966 52.464 195.574 53.504 195.574 55.12C195.574 56.544 196.662 57.536 198.31 57.744V59.312C196.918 59.36 195.574 59.36 194.422 59.36L194.598 60.464C197.11 60.464 200.486 60.432 203.558 59.888L203.478 58.912C202.246 59.104 200.918 59.2 199.622 59.264V57.744ZM207.878 54.928H205.638V48.832H204.326V63.184H205.638V56.032H207.878V54.928ZM215.221 55.744H211.253V51.136H215.221V55.744ZM219.797 52.432V54.432H216.501V52.432H219.797ZM216.501 55.504H219.797V59.312H221.125V48.848H219.797V51.36H216.501V50.096H209.957V56.784H216.501V55.504ZM213.205 61.792V58.384H211.893V62.864H221.461V61.792H213.205ZM230.5 50.064C232.852 50.064 234.196 50.608 234.196 51.568C234.196 52.528 232.852 53.072 230.5 53.072C228.148 53.072 226.804 52.528 226.804 51.568C226.804 50.608 228.148 50.064 230.5 50.064ZM230.5 54.048C233.652 54.048 235.54 53.184 235.54 51.568C235.54 49.952 233.652 49.072 230.5 49.072C227.348 49.072 225.46 49.952 225.46 51.568C225.46 53.184 227.348 54.048 230.5 54.048ZM226.9 60.544H235.332V57.312H225.572V58.304H234.036V59.584H225.62V63.024H235.764V62H226.9V60.544ZM224.004 55.024V56.08H236.996V55.024H224.004ZM245.994 60.624H254.426V57.424H244.666V58.416H253.13V59.664H244.714V63.024H254.858V62.016H245.994V60.624ZM246.122 51.408H253.098V52.784H246.122V51.408ZM250.25 55.168V53.792H254.394V49.056H253.098V50.416H246.122V49.056H244.826V53.792H248.938V55.168H243.098V56.224H256.09V55.168H250.25ZM274.559 54.304C271.951 53.92 269.391 52.144 269.391 50.144V49.344H268.015V50.144C268.015 52.192 265.487 53.92 262.879 54.304L263.407 55.36C265.647 54.976 267.807 53.744 268.703 52C269.631 53.728 271.791 54.976 274.015 55.36L274.559 54.304ZM275.183 56.912H262.223V58H268.015V63.2H269.327V58H275.199L275.183 56.912ZM293.077 48.848H291.765V57.04H293.077V48.848ZM285.365 50.768C286.789 50.768 287.845 51.712 287.845 53.024C287.845 54.352 286.789 55.28 285.365 55.28C283.941 55.28 282.917 54.352 282.917 53.024C282.917 51.712 283.941 50.768 285.365 50.768ZM285.365 56.368C287.541 56.368 289.125 55.008 289.125 53.024C289.125 51.04 287.541 49.68 285.365 49.68C283.205 49.68 281.637 51.04 281.637 53.024C281.637 55.008 283.205 56.368 285.365 56.368ZM291.477 57.664H290.197V58.432C290.197 59.552 289.509 60.992 288.133 61.84C286.805 61.056 286.149 59.696 286.149 58.432V57.664H284.885V58.432C284.885 59.808 283.813 61.36 282.005 62L282.661 62.992C284.005 62.48 284.981 61.488 285.493 60.336C285.925 61.536 286.789 62.576 288.165 63.12C289.493 62.544 290.373 61.456 290.821 60.288C291.301 61.488 292.293 62.48 293.701 62.992L294.357 62C292.533 61.392 291.477 59.92 291.477 58.432V57.664ZM302.5 50.064C304.852 50.064 306.196 50.608 306.196 51.568C306.196 52.528 304.852 53.072 302.5 53.072C300.148 53.072 298.804 52.528 298.804 51.568C298.804 50.608 300.148 50.064 302.5 50.064ZM302.5 54.048C305.652 54.048 307.54 53.184 307.54 51.568C307.54 49.952 305.652 49.072 302.5 49.072C299.348 49.072 297.46 49.952 297.46 51.568C297.46 53.184 299.348 54.048 302.5 54.048ZM298.9 60.544H307.332V57.312H297.572V58.304H306.036V59.584H297.62V63.024H307.764V62H298.9V60.544ZM296.004 55.024V56.08H308.996V55.024H296.004ZM325.61 58.544H326.938V48.848H325.61V52.88H322.522V53.952H325.61V58.544ZM316.042 49.968V51.04H321.066C320.81 53.568 318.746 55.52 315.354 56.592L315.93 57.632C320.026 56.304 322.474 53.664 322.474 49.968H316.042ZM322.954 57.296H321.642V57.952C321.642 60.048 319.402 61.648 316.842 62.096L317.37 63.136C319.514 62.72 321.45 61.584 322.298 59.904C323.146 61.552 325.066 62.688 327.178 63.104L327.706 62.08C325.178 61.6 322.954 60.016 322.954 57.952V57.296ZM35.28 72.832V87.216H36.592V72.832H35.28ZM29.024 73.936C26.896 73.936 25.376 75.888 25.376 78.944C25.376 82 26.896 83.952 29.024 83.952C31.152 83.952 32.672 82 32.672 78.944C32.672 75.888 31.152 73.936 29.024 73.936ZM29.024 75.12C30.416 75.12 31.408 76.624 31.408 78.944C31.408 81.28 30.416 82.784 29.024 82.784C27.616 82.784 26.624 81.28 26.624 78.944C26.624 76.624 27.616 75.12 29.024 75.12ZM42.0948 77.536C42.0948 75.888 43.7748 74.816 46.0628 74.816C48.3508 74.816 50.0148 75.888 50.0148 77.536C50.0148 79.184 48.3508 80.256 46.0628 80.256C43.7748 80.256 42.0948 79.184 42.0948 77.536ZM46.7188 84.256V81.264C49.3908 81.072 51.2628 79.648 51.2628 77.536C51.2628 75.248 49.0868 73.776 46.0628 73.776C43.0228 73.776 40.8307 75.248 40.8307 77.536C40.8307 79.648 42.7188 81.072 45.3908 81.264V84.256H39.5508V85.344H52.5908V84.256H46.7188ZM55.9609 86.1172C56.6094 86.1172 57.1016 85.6172 57.1016 84.9844C57.1016 84.3438 56.6094 83.8438 55.9609 83.8438C55.3125 83.8438 54.8125 84.3438 54.8125 84.9844C54.8125 85.6172 55.3125 86.1172 55.9609 86.1172Z" fill="black"/>
</svg>
