<svg width="365" height="88" viewBox="0 0 365 88" fill="none" xmlns="http://www.w3.org/2000/svg">
<path d="M0 12C0 5.37258 5.37258 0 12 0H365V76C365 82.6274 359.627 88 353 88H12C5.37259 88 0 82.6274 0 76V12Z" fill="#F4F1FF"/>
<path d="M26.144 32.416C28.368 32.08 30.432 30.976 31.344 29.424C32.256 30.976 34.304 32.08 36.528 32.416L36.992 31.36C34.432 31.008 32 29.424 32 27.664H36.576V26.608H32V24.832H30.688V26.608H26.112V27.664H30.672C30.672 29.44 28.256 31.008 25.664 31.36L26.144 32.416ZM37.84 33.504H24.864V34.576H30.688V39.2H32V34.576H37.84V33.504ZM47.1667 29.248V30.336H50.0628V35.552H51.3908V24.848H50.0628V29.248H47.1667ZM48.0468 32.496C45.9188 31.824 44.4628 30.16 44.4628 28.256V27.808H47.6308V26.752H44.4628V24.912H43.1508V26.752H39.9668V27.808H43.1508V28.256C43.1508 30.256 41.7268 32.048 39.5988 32.768L40.2548 33.792C41.9348 33.2 43.2148 31.984 43.8228 30.4C44.4788 31.856 45.7588 32.992 47.4068 33.536L48.0468 32.496ZM43.5348 37.792V34.592H42.2068V38.864H51.7908V37.792H43.5348ZM62.8365 28.56H65.4925V27.472H62.8525V25.344H61.5885V27.472H58.9325V28.56H61.5885V29.248C61.5885 31.6 60.4845 34.112 58.5485 35.264L59.3165 36.24C60.7245 35.392 61.7325 33.792 62.2285 31.968C62.7565 33.696 63.7805 35.152 65.1725 35.936L65.9245 34.944C63.9885 33.904 62.8365 31.536 62.8365 29.248V28.56ZM66.7085 30.496H64.5165V31.584H66.7085V38.432H67.9565V25.168H66.7085V30.496ZM69.5885 24.832V39.168H70.8525V24.832H69.5885ZM74.5633 30.656L74.7553 31.744L83.4113 31.264C83.3313 32.368 83.1713 33.552 82.8513 34.928L84.1473 35.056C84.7713 32.112 84.7713 30.176 84.7713 28.048V26.288H74.9313V27.36H83.4913V28.048C83.4913 28.784 83.4913 29.52 83.4593 30.272L74.5633 30.656ZM73.3953 36.112V37.184H86.3713V36.112H73.3953ZM90.242 31.28H95.538V26.16H88.882V27.232H94.21V30.224H88.93V35.728H90.114C92.578 35.728 94.754 35.632 97.346 35.2L97.218 34.128C94.706 34.528 92.594 34.64 90.242 34.64V31.28ZM98.562 24.816V39.2H99.874V24.816H98.562ZM115.185 32.048C112.673 31.568 109.953 29.392 109.953 26.944V25.84H108.577V26.944C108.577 29.392 105.873 31.552 103.361 32.048L103.953 33.136C106.113 32.624 108.353 31.088 109.265 28.992C110.177 31.104 112.417 32.64 114.593 33.136L115.185 32.048ZM102.817 36.176V37.264H115.825V36.176H102.817ZM129.056 32.576H120.528V30.304H128.592V29.264H120.528V27.136H128.912V26.08H119.2V33.632H129.056V32.576ZM117.52 36.256V37.328H130.544V36.256H117.52ZM137.829 30.688C140.181 30.4 142.341 29.344 143.125 27.76C143.925 29.344 146.069 30.4 148.421 30.688L148.885 29.648C146.373 29.36 144.085 28.128 143.973 26.544H148.437V25.488H137.829V26.544H142.277C142.165 28.128 139.877 29.36 137.365 29.648L137.829 30.688ZM146.693 36.64C146.693 37.6 145.349 38.16 143.109 38.16C140.853 38.16 139.525 37.6 139.525 36.64C139.525 35.68 140.853 35.136 143.109 35.136C145.349 35.136 146.693 35.68 146.693 36.64ZM149.605 32.608V31.552H136.629V32.608H142.453V34.144C139.781 34.272 138.197 35.152 138.197 36.64C138.197 38.272 140.053 39.168 143.125 39.168C146.181 39.168 148.021 38.272 148.021 36.64C148.021 35.152 146.453 34.272 143.781 34.144V32.608H149.605ZM154.596 34.816C153.444 34.816 152.724 33.36 152.724 31.008C152.724 28.704 153.444 27.248 154.596 27.248C155.716 27.248 156.452 28.704 156.452 31.008C156.452 33.36 155.716 34.816 154.596 34.816ZM159.444 30.416H157.636C157.476 27.712 156.324 26.032 154.596 26.032C152.724 26.032 151.524 27.952 151.524 31.008C151.524 34.112 152.724 36.032 154.596 36.032C156.356 36.032 157.524 34.304 157.636 31.488H159.444V38.48H160.692V25.152H159.444V30.416ZM162.292 24.832V39.184H163.54V24.832H162.292ZM171.091 26.064H169.779V28.64C169.779 31.296 168.147 34.064 166.067 35.104L166.867 36.144C168.483 35.28 169.811 33.472 170.435 31.344C171.091 33.36 172.403 35.072 174.035 35.888L174.803 34.848C172.723 33.856 171.091 31.248 171.091 28.64V26.064ZM176.579 24.832V29.696H173.251V30.768H176.579V39.2H177.891V24.832H176.579ZM187.938 36.288V32.608H192.306V31.552H183.746V27.056H192.162V25.984H182.434V32.608H186.61V36.288H180.77V37.376H193.81V36.288H187.938ZM200.951 26.32V27.392H206.215C206.151 28.272 206.023 29.104 205.751 29.904L200.215 30.272L200.439 31.424L205.335 30.96C204.455 32.88 202.807 34.528 200.167 35.808L200.871 36.848C206.023 34.304 207.511 30.48 207.511 26.32H200.951ZM210.343 24.832V39.184H211.655V24.832H210.343ZM219.222 26.56C220.614 26.56 221.59 27.296 221.59 28.368C221.59 29.472 220.614 30.192 219.222 30.192C217.83 30.192 216.854 29.472 216.854 28.368C216.854 27.296 217.83 26.56 219.222 26.56ZM219.222 31.2C221.35 31.2 222.822 30.064 222.822 28.368C222.822 26.688 221.35 25.552 219.222 25.552C217.094 25.552 215.622 26.688 215.622 28.368C215.622 30.064 217.094 31.2 219.222 31.2ZM223.99 31.92C220.87 32.368 217.254 32.384 214.55 32.384L214.71 33.488C215.846 33.488 217.142 33.472 218.502 33.424V38.752H219.814V33.36C221.222 33.28 222.662 33.136 224.07 32.896L223.99 31.92ZM225.078 24.848V34.64H221.83V35.664H225.078V39.2H226.39V24.848H225.078ZM240.821 31.712H232.261V27.232H240.677V26.144H230.965V32.784H240.821V31.712ZM229.301 36.16V37.248H242.325V36.16H229.301ZM247.284 34.816C246.132 34.816 245.412 33.36 245.412 31.008C245.412 28.704 246.132 27.248 247.284 27.248C248.404 27.248 249.14 28.704 249.14 31.008C249.14 33.36 248.404 34.816 247.284 34.816ZM252.132 30.416H250.324C250.164 27.712 249.012 26.032 247.284 26.032C245.412 26.032 244.212 27.952 244.212 31.008C244.212 34.112 245.412 36.032 247.284 36.032C249.044 36.032 250.212 34.304 250.324 31.488H252.132V38.48H253.38V25.152H252.132V30.416ZM254.98 24.832V39.184H256.228V24.832H254.98ZM269.033 30.896H265.001V26.848H269.033V30.896ZM270.313 25.808H263.721V31.952H270.313V25.808ZM274.505 34.928V33.872H265.129V34.928H269.129C268.969 36.464 266.937 37.776 264.569 38.128L265.049 39.136C267.177 38.8 269.017 37.776 269.833 36.32C270.649 37.76 272.489 38.8 274.569 39.152L275.065 38.144C272.729 37.776 270.665 36.432 270.505 34.928H274.505ZM274.265 28.272V24.832H272.953V33.024H274.265V29.36H276.393V28.272H274.265ZM289.352 29.152H280.904V25.36H279.592V30.224H289.352V29.152ZM280.808 34.64H279.496V38.832H289.432V37.76H280.808V34.64ZM277.832 32.144V33.2H290.84V32.144H277.832ZM307.438 34.544H308.766V24.848H307.438V28.88H304.35V29.952H307.438V34.544ZM297.87 25.968V27.04H302.894C302.638 29.568 300.574 31.52 297.182 32.592L297.758 33.632C301.854 32.304 304.302 29.664 304.302 25.968H297.87ZM304.782 33.296H303.47V33.952C303.47 36.048 301.23 37.648 298.67 38.096L299.198 39.136C301.342 38.72 303.278 37.584 304.126 35.904C304.974 37.552 306.894 38.688 309.006 39.104L309.534 38.08C307.006 37.6 304.782 36.016 304.782 33.952V33.296ZM323.101 28.608H314.701V26.368H322.957V25.312H313.389V29.664H323.101V28.608ZM314.541 36.512H322.973V33.136H313.213V34.16H321.677V35.536H313.261V39.008H323.405V37.984H314.541V36.512ZM311.661 30.816V31.888H324.653V30.816H311.661ZM332.283 31.712H328.251V27.168H332.283V31.712ZM333.563 26.112H326.971V32.752H333.563V26.112ZM329.899 34.352H328.587V38.864H338.155V37.792H329.899V34.352ZM337.515 29.2V24.816H336.203V35.328H337.515V30.304H339.627V29.2H337.515ZM35.904 53.744C36.176 52.336 36.176 51.248 36.176 50.336V49.408H26.4V50.464H34.88C34.88 51.328 34.864 52.304 34.608 53.616L35.904 53.744ZM27.728 60.368H36.24V56.928H26.384V57.968H34.928V59.408H26.432V63.008H36.592V61.968H27.728V60.368ZM31.488 54.56V52.064H30.176V54.56H24.88V55.6H37.808V54.56H31.488ZM41.4388 55.312H46.6068V50.16H40.1108V51.232H45.3108V54.24H40.1588V59.728H41.2948C44.0308 59.728 45.9508 59.616 48.1908 59.216L48.0468 58.128C45.9028 58.544 44.0468 58.64 41.4388 58.64V55.312ZM52.9748 54.528H50.6228V48.816H49.3108V63.2H50.6228V55.632H52.9748V54.528ZM59.3095 50.064H57.9975V52.64C57.9975 55.296 56.3655 58.064 54.2855 59.104L55.0855 60.144C56.7015 59.28 58.0295 57.472 58.6535 55.344C59.3095 57.36 60.6215 59.072 62.2535 59.888L63.0215 58.848C60.9415 57.856 59.3095 55.248 59.3095 52.64V50.064ZM64.7975 48.832V53.696H61.4695V54.768H64.7975V63.2H66.1095V48.832H64.7975ZM76.2593 60.624H84.6913V57.424H74.9313V58.416H83.3953V59.664H74.9793V63.024H85.1233V62.016H76.2593V60.624ZM76.3873 51.408H83.3633V52.784H76.3873V51.408ZM80.5153 55.168V53.792H84.6593V49.056H83.3633V50.416H76.3873V49.056H75.0913V53.792H79.2033V55.168H73.3633V56.224H86.3553V55.168H80.5153ZM104.825 54.304C102.217 53.92 99.657 52.144 99.657 50.144V49.344H98.281V50.144C98.281 52.192 95.753 53.92 93.145 54.304L93.673 55.36C95.913 54.976 98.073 53.744 98.969 52C99.897 53.728 102.057 54.976 104.281 55.36L104.825 54.304ZM105.449 56.912H92.489V58H98.281V63.2H99.593V58H105.465L105.449 56.912ZM123.343 48.848H122.031V57.04H123.343V48.848ZM115.631 50.768C117.055 50.768 118.111 51.712 118.111 53.024C118.111 54.352 117.055 55.28 115.631 55.28C114.207 55.28 113.183 54.352 113.183 53.024C113.183 51.712 114.207 50.768 115.631 50.768ZM115.631 56.368C117.807 56.368 119.391 55.008 119.391 53.024C119.391 51.04 117.807 49.68 115.631 49.68C113.471 49.68 111.903 51.04 111.903 53.024C111.903 55.008 113.471 56.368 115.631 56.368ZM121.743 57.664H120.463V58.432C120.463 59.552 119.775 60.992 118.399 61.84C117.071 61.056 116.415 59.696 116.415 58.432V57.664H115.151V58.432C115.151 59.808 114.079 61.36 112.271 62L112.927 62.992C114.271 62.48 115.247 61.488 115.759 60.336C116.191 61.536 117.055 62.576 118.431 63.12C119.759 62.544 120.639 61.456 121.087 60.288C121.567 61.488 122.559 62.48 123.967 62.992L124.623 62C122.799 61.392 121.743 59.92 121.743 58.432V57.664ZM131.406 51.392H134.782V50.304H126.766V51.392H130.094V53.216C130.094 55.696 128.35 58.4 126.286 59.376L127.054 60.432C128.686 59.6 130.094 57.792 130.75 55.696C131.438 57.664 132.846 59.312 134.51 60.08L135.246 59.024C133.134 58.128 131.406 55.648 131.406 53.216V51.392ZM136.718 48.848V63.184H138.03V48.848H136.718ZM142.68 62.1172C143.328 62.1172 143.82 61.6172 143.82 60.9844C143.82 60.3438 143.328 59.8438 142.68 59.8438C142.031 59.8438 141.531 60.3438 141.531 60.9844C141.531 61.6172 142.031 62.1172 142.68 62.1172Z" fill="black"/>
</svg>
