<svg width="365" height="88" viewBox="0 0 365 88" fill="none" xmlns="http://www.w3.org/2000/svg">
<path d="M0 12C0 5.37258 5.37258 0 12 0H365V76C365 82.6274 359.627 88 353 88H12C5.37259 88 0 82.6274 0 76V12Z" fill="#F4F1FF"/>
<path d="M35.344 35.568H36.672V24.848H35.344V28.208H32.208V29.296H35.344V35.568ZM33.232 32.176C31.168 31.408 29.76 29.52 29.76 27.52V25.696H28.448V27.472C28.448 29.664 27.008 31.696 24.864 32.48L25.552 33.52C27.232 32.848 28.512 31.488 29.12 29.776C29.728 31.328 30.96 32.56 32.544 33.184L33.232 32.176ZM28.752 37.792V34.384H27.44V38.864H37.008V37.792H28.752ZM46.2868 31.328C44.7828 31.632 43.5028 31.712 41.4548 31.712V29.76H45.5668V28.752H41.4548V26.944H45.7268V25.888H40.1908V32.784H41.1028C43.4068 32.784 44.7668 32.72 46.4148 32.384L46.2868 31.328ZM42.0308 35.344H50.3668V39.184H51.6788V34.288H42.0308V35.344ZM50.4148 24.848V28.576H48.4948V25.104H47.2468V33.44H48.4948V29.648H50.4148V33.536H51.6788V24.848H50.4148ZM62.7975 26.592H59.2135V24.832H57.9015V26.592H54.3335V27.648H62.7975V26.592ZM56.3815 31.104C56.3815 30.112 57.2615 29.472 58.5575 29.472C59.8535 29.472 60.7495 30.112 60.7495 31.104C60.7495 32.112 59.8535 32.752 58.5575 32.752C57.2615 32.752 56.3815 32.112 56.3815 31.104ZM61.9975 31.104C61.9975 29.504 60.5895 28.448 58.5575 28.448C56.5255 28.448 55.1335 29.504 55.1335 31.104C55.1335 32.72 56.5255 33.776 58.5575 33.776C60.5895 33.776 61.9975 32.72 61.9975 31.104ZM57.8055 34.752H56.4935V38.864H66.0615V37.792H57.8055V34.752ZM65.4215 29.568V24.832H64.1095V35.6H65.4215V30.672H67.5335V29.568H65.4215ZM81.6833 31.12C79.8113 31.488 78.1793 31.6 75.3473 31.6V27.136H80.3873V26.08H74.0353V32.672H75.1553C78.1633 32.672 79.8593 32.576 81.8273 32.176L81.6833 31.12ZM76.8993 34.176H75.5873V38.864H85.1553V37.792H76.8993V34.176ZM84.5153 29.088V24.832H83.2033V35.216H84.5153V30.176H86.6433V29.088H84.5153ZM96.162 28.832H94.034C94.162 28.112 94.226 27.392 94.226 26.656H88.722V27.728H92.93C92.706 30.736 91.17 33.312 88.082 35.152L88.85 36.08C91.57 34.464 93.122 32.304 93.794 29.888H96.162V32.416H93.57V33.488H96.162V38.448H97.41V25.216H96.162V28.832ZM99.042 24.832V39.168H100.29V24.832H99.042ZM106.065 34.816C104.913 34.816 104.193 33.36 104.193 31.008C104.193 28.704 104.913 27.248 106.065 27.248C107.185 27.248 107.921 28.704 107.921 31.008C107.921 33.36 107.185 34.816 106.065 34.816ZM110.913 30.416H109.105C108.945 27.712 107.793 26.032 106.065 26.032C104.193 26.032 102.993 27.952 102.993 31.008C102.993 34.112 104.193 36.032 106.065 36.032C107.825 36.032 108.993 34.304 109.105 31.488H110.913V38.48H112.161V25.152H110.913V30.416ZM113.761 24.832V39.184H115.009V24.832H113.761ZM122.56 26.064H121.248V28.64C121.248 31.296 119.616 34.064 117.536 35.104L118.336 36.144C119.952 35.28 121.28 33.472 121.904 31.344C122.56 33.36 123.872 35.072 125.503 35.888L126.272 34.848C124.192 33.856 122.56 31.248 122.56 28.64V26.064ZM128.048 24.832V29.696H124.72V30.768H128.048V39.2H129.36V24.832H128.048ZM145.157 26.144H141.701V24.736H140.389V26.144H136.917V27.136H145.157V26.144ZM138.933 29.792C138.933 29.04 139.749 28.576 141.045 28.576C142.309 28.576 143.141 29.04 143.141 29.792C143.141 30.544 142.309 31.024 141.045 31.024C139.749 31.024 138.933 30.544 138.933 29.792ZM145.589 32.544C144.341 32.736 143.013 32.832 141.701 32.896V31.904C143.349 31.728 144.389 30.96 144.389 29.792C144.389 28.48 143.045 27.664 141.045 27.664C139.013 27.664 137.685 28.48 137.685 29.792C137.685 30.976 138.725 31.744 140.389 31.904V32.944C139.013 32.992 137.701 32.992 136.565 32.992L136.709 34.048C139.221 34.032 142.613 34.016 145.685 33.488L145.589 32.544ZM138.309 36.224H146.437V39.184H147.749V35.184H138.309V36.224ZM149.845 29.184H147.749V24.848H146.437V34.464H147.749V30.272H149.845V29.184ZM163.124 24.848H161.812V35.328H163.124V24.848ZM152.964 29.36C152.964 27.968 154.02 26.976 155.412 26.976C156.836 26.976 157.892 27.968 157.892 29.36C157.892 30.784 156.836 31.776 155.412 31.776C154.02 31.776 152.964 30.784 152.964 29.36ZM159.172 29.36C159.172 27.296 157.556 25.84 155.412 25.84C153.284 25.84 151.684 27.296 151.684 29.36C151.684 31.44 153.284 32.912 155.412 32.912C157.556 32.912 159.172 31.44 159.172 29.36ZM155.204 37.792V34.256H153.892V38.864H163.556V37.792H155.204ZM169.619 34.768C168.499 34.768 167.715 33.856 167.715 32.576C167.715 31.328 168.499 30.416 169.619 30.416C170.723 30.416 171.523 31.328 171.523 32.576C171.523 33.856 170.723 34.768 169.619 34.768ZM169.619 29.312C167.843 29.312 166.547 30.656 166.547 32.576C166.547 34.528 167.843 35.856 169.619 35.856C171.395 35.856 172.691 34.528 172.691 32.576C172.691 30.656 171.395 29.312 169.619 29.312ZM170.259 25.248H168.963V27.28H166.051V28.352H173.171V27.28H170.259V25.248ZM176.963 24.816V30.88H175.123V25.152H173.891V38.48H175.123V31.952H176.963V39.168H178.227V24.816H176.963ZM184.61 34.784C183.218 34.784 182.242 33.264 182.242 30.928C182.242 28.624 183.218 27.12 184.61 27.12C185.986 27.12 186.962 28.624 186.962 30.928C186.962 33.264 185.986 34.784 184.61 34.784ZM184.61 25.936C182.498 25.936 180.993 27.888 180.993 30.928C180.993 34 182.498 35.952 184.61 35.952C186.722 35.952 188.21 34 188.21 30.928C188.21 27.888 186.722 25.936 184.61 25.936ZM194.114 29.536V28.448H191.826V24.848H190.514V39.184H191.826V33.808H194.114V32.72H191.826V29.536H194.114ZM204.087 34.896C202.791 34.896 201.847 33.968 201.847 32.688C201.847 31.392 202.791 30.464 204.087 30.464C205.399 30.464 206.343 31.392 206.343 32.688C206.343 33.968 205.399 34.896 204.087 34.896ZM204.087 29.376C202.071 29.376 200.615 30.752 200.615 32.688C200.615 34.64 202.071 35.984 204.087 35.984C206.135 35.984 207.591 34.64 207.591 32.688C207.591 30.752 206.135 29.376 204.087 29.376ZM204.727 25.008H203.415V27.136H199.799V28.192H208.263V27.136H204.727V25.008ZM213.287 30.736H210.935V24.848H209.623V39.184H210.935V31.84H213.287V30.736ZM226.102 29.152H217.654V25.36H216.342V30.224H226.102V29.152ZM217.558 34.64H216.246V38.832H226.182V37.76H217.558V34.64ZM214.582 32.144V33.2H227.59V32.144H214.582ZM236.492 27.072H243.836V31.728H236.492V27.072ZM240.844 36.256V32.768H245.116V26.032H235.228V32.768H239.516V36.256H233.692V37.344H246.7V36.256H240.844ZM259.899 29.44H251.355V26.512H259.771V25.44H250.043V30.496H259.899V29.44ZM251.387 34.656H250.075V38.848H260.027V37.776H251.387V34.656ZM248.411 32.08V33.136H261.387V32.08H248.411ZM278 34.544H279.328V24.848H278V28.88H274.912V29.952H278V34.544ZM268.432 25.968V27.04H273.456C273.2 29.568 271.136 31.52 267.744 32.592L268.32 33.632C272.416 32.304 274.864 29.664 274.864 25.968H268.432ZM275.344 33.296H274.032V33.952C274.032 36.048 271.792 37.648 269.232 38.096L269.76 39.136C271.904 38.72 273.84 37.584 274.688 35.904C275.536 37.552 277.456 38.688 279.568 39.104L280.096 38.08C277.568 37.6 275.344 36.016 275.344 33.952V33.296ZM288.703 26.064C291.055 26.064 292.399 26.608 292.399 27.568C292.399 28.528 291.055 29.072 288.703 29.072C286.351 29.072 285.007 28.528 285.007 27.568C285.007 26.608 286.351 26.064 288.703 26.064ZM288.703 30.048C291.855 30.048 293.743 29.184 293.743 27.568C293.743 25.952 291.855 25.072 288.703 25.072C285.551 25.072 283.663 25.952 283.663 27.568C283.663 29.184 285.551 30.048 288.703 30.048ZM285.103 36.544H293.535V33.312H283.775V34.304H292.239V35.584H283.823V39.024H293.967V38H285.103V36.544ZM282.207 31.024V32.08H295.199V31.024H282.207ZM303.333 26.576H302.021V35.456H302.933C304.485 35.456 306.133 35.376 308.069 35.008L307.941 33.872C306.229 34.208 304.709 34.304 303.333 34.32V26.576ZM312.229 24.832V30.672H310.197V25.152H308.965V38.448H310.197V31.76H312.229V39.168H313.493V24.832H312.229ZM316.804 26.368V27.456H322.068C321.764 30.848 319.796 33.6 316.132 35.44L316.852 36.464C321.492 34.144 323.364 30.448 323.364 26.368H316.804ZM329.38 30.656H327.076V24.832H325.764V39.184H327.076V31.744H329.38V30.656ZM34.848 52.64H27.808V50.352H34.848V52.64ZM36.144 49.312H26.528V53.68H36.144V49.312ZM37.824 55.936V54.88H24.832V55.936H30.672V57.344H26.4V58.336H34.864V59.616H26.448V63.024H36.592V62H27.728V60.576H36.16V57.344H31.984V55.936H37.824ZM43.4068 58.784C42.0308 58.784 41.0707 57.28 41.0707 54.944C41.0707 52.624 42.0308 51.12 43.4068 51.12C44.7668 51.12 45.7268 52.624 45.7268 54.944C45.7268 57.28 44.7668 58.784 43.4068 58.784ZM50.0788 48.832V54.304H46.9588C46.7508 51.616 45.3428 49.936 43.4068 49.936C41.3108 49.936 39.8228 51.888 39.8228 54.944C39.8228 58 41.3108 59.952 43.4068 59.952C45.4068 59.952 46.8308 58.192 46.9588 55.376H50.0788V63.216H51.3908V48.832H50.0788ZM56.0455 53.136C56.0455 51.792 57.1015 50.864 58.5735 50.864C60.0295 50.864 61.0855 51.792 61.0855 53.136C61.0855 54.496 60.0295 55.392 58.5735 55.392C57.1015 55.392 56.0455 54.496 56.0455 53.136ZM59.2295 56.464C61.0695 56.224 62.3655 54.928 62.3655 53.136C62.3655 51.12 60.7655 49.76 58.5735 49.76C56.3495 49.76 54.7655 51.12 54.7655 53.136C54.7655 54.928 56.0455 56.24 57.9175 56.464V58.944C56.5735 58.976 55.2615 58.992 54.1255 58.992L54.3015 60.096C56.8295 60.096 60.1735 60.048 63.2135 59.536L63.1015 58.576C61.8695 58.752 60.5415 58.832 59.2295 58.896V56.464ZM67.5975 54.752H65.3255V48.816H64.0135V63.184H65.3255V55.856H67.5975V54.752ZM83.8113 48.832V63.216H85.1233V48.832H83.8113ZM77.5553 49.936C75.4273 49.936 73.9073 51.888 73.9073 54.944C73.9073 58 75.4273 59.952 77.5553 59.952C79.6833 59.952 81.2033 58 81.2033 54.944C81.2033 51.888 79.6833 49.936 77.5553 49.936ZM77.5553 51.12C78.9473 51.12 79.9393 52.624 79.9393 54.944C79.9393 57.28 78.9473 58.784 77.5553 58.784C76.1473 58.784 75.1553 57.28 75.1553 54.944C75.1553 52.624 76.1473 51.12 77.5553 51.12ZM98.594 56.72H99.922V48.848H98.594V51.648H95.922V52.72H98.594V56.72ZM96.194 54.32C94.114 54.672 92.386 54.768 89.986 54.768V53.072H95.026V49.488H88.658V50.512H93.714V52.096H88.69V55.792H89.778C92.338 55.792 94.13 55.712 96.306 55.344L96.194 54.32ZM95.218 62.224C93.474 62.224 92.498 61.84 92.498 61.152C92.498 60.464 93.474 60.08 95.218 60.08C96.994 60.08 97.97 60.464 97.97 61.152C97.97 61.84 96.994 62.224 95.218 62.224ZM95.218 59.136C92.706 59.136 91.234 59.84 91.234 61.152C91.234 62.464 92.706 63.168 95.218 63.168C97.762 63.168 99.234 62.464 99.234 61.152C99.234 59.84 97.762 59.136 95.218 59.136ZM95.89 57.52V56.176H94.578V57.52H90.226V58.528H100.226V57.52H95.89ZM110.769 54.704H108.289C108.769 53.424 108.977 52.064 108.977 50.656H103.441V51.728H107.681C107.441 54.736 105.905 57.312 102.833 59.152L103.601 60.096C105.585 58.912 106.961 57.424 107.825 55.76H110.769V62.464H112.017V49.216H110.769V54.704ZM113.761 48.832V63.184H115.009V48.832H113.761ZM126.087 52.56H128.743V51.472H126.103V49.344H124.839V51.472H122.183V52.56H124.839V53.248C124.839 55.6 123.735 58.112 121.799 59.264L122.567 60.24C123.975 59.392 124.983 57.792 125.479 55.968C126.007 57.696 127.031 59.152 128.423 59.936L129.175 58.944C127.239 57.904 126.087 55.536 126.087 53.248V52.56ZM129.959 54.496H127.767V55.584H129.959V62.432H131.207V49.168H129.959V54.496ZM132.839 48.832V63.168H134.103V48.832H132.839ZM137.813 54.656L138.005 55.744L146.661 55.264C146.581 56.368 146.421 57.552 146.101 58.928L147.397 59.056C148.021 56.112 148.021 54.176 148.021 52.048V50.288H138.181V51.36H146.741V52.048C146.741 52.784 146.741 53.52 146.709 54.272L137.813 54.656ZM136.645 60.112V61.184H149.621V60.112H136.645ZM153.492 55.28H158.788V50.16H152.132V51.232H157.46V54.224H152.18V59.728H153.364C155.828 59.728 158.004 59.632 160.596 59.2L160.468 58.128C157.956 58.528 155.844 58.64 153.492 58.64V55.28ZM161.812 48.816V63.2H163.124V48.816H161.812ZM178.435 56.048C175.923 55.568 173.203 53.392 173.203 50.944V49.84H171.827V50.944C171.827 53.392 169.123 55.552 166.611 56.048L167.203 57.136C169.363 56.624 171.603 55.088 172.515 52.992C173.427 55.104 175.667 56.64 177.843 57.136L178.435 56.048ZM166.067 60.176V61.264H179.075V60.176H166.067ZM192.306 56.576H183.778V54.304H191.842V53.264H183.778V51.136H192.162V50.08H182.45V57.632H192.306V56.576ZM180.77 60.256V61.328H193.794V60.256H180.77ZM202.656 60.336V57.632H207.248V56.576H198.416V54.256H206.912V49.888H197.088V50.96H205.632V53.2H197.12V57.632H201.328V60.336H195.488V61.408H208.528V60.336H202.656ZM218.806 51.584H221.366V50.512H214.822V51.584H217.542V52.88C217.542 55.52 216.422 58.128 214.422 59.328L215.222 60.304C216.646 59.408 217.686 57.728 218.182 55.76C218.678 57.584 219.67 59.12 221.062 59.952L221.862 58.992C219.878 57.872 218.806 55.376 218.806 52.88V51.584ZM222.646 53.984H220.278V55.056H222.646V62.432H223.894V49.152H222.646V53.984ZM225.526 48.816V63.168H226.79V48.816H225.526ZM239.349 50.784C239.349 51.904 239.349 52.96 238.965 54.432L240.245 54.576C240.645 53.104 240.645 51.936 240.645 50.784V49.568H230.869V50.624H239.349V50.784ZM235.749 62.144C233.509 62.144 232.069 61.536 232.069 60.544C232.069 59.52 233.509 58.912 235.749 58.912C238.005 58.912 239.445 59.52 239.445 60.544C239.445 61.536 238.005 62.144 235.749 62.144ZM235.749 57.904C232.693 57.904 230.757 58.88 230.757 60.544C230.757 62.176 232.693 63.168 235.749 63.168C238.805 63.168 240.757 62.176 240.757 60.544C240.757 58.88 238.805 57.904 235.749 57.904ZM235.957 55.52V52.768H234.645V55.52H229.349V56.576H242.261V55.52H235.957ZM247.588 58.768C246.468 58.768 245.684 57.856 245.684 56.576C245.684 55.328 246.468 54.416 247.588 54.416C248.692 54.416 249.492 55.328 249.492 56.576C249.492 57.856 248.692 58.768 247.588 58.768ZM247.588 53.312C245.812 53.312 244.516 54.656 244.516 56.576C244.516 58.528 245.812 59.856 247.588 59.856C249.364 59.856 250.66 58.528 250.66 56.576C250.66 54.656 249.364 53.312 247.588 53.312ZM248.228 49.248H246.932V51.28H244.02V52.352H251.14V51.28H248.228V49.248ZM254.932 48.816V54.88H253.092V49.152H251.86V62.48H253.092V55.952H254.932V63.168H256.196V48.816H254.932ZM260.034 55.184C262.354 54.832 264.466 53.68 265.25 52.016C266.018 53.68 268.13 54.832 270.466 55.184L270.946 54.128C268.418 53.792 266.098 52.368 266.098 50.624V50.608H270.562V49.552H259.938V50.608H264.402V50.624C264.402 52.368 262.082 53.792 259.538 54.128L260.034 55.184ZM261.698 58.8H260.386V62.864H270.306V61.792H261.698V58.8ZM258.722 56.224V57.28H264.69V60.192H266.002V57.28H271.746V56.224H258.722ZM275.393 51.296H280.753V50.208H274.081V59.632H275.217C277.921 59.632 279.809 59.536 282.001 59.12L281.857 58.032C279.777 58.4 277.937 58.512 275.393 58.512V51.296ZM286.881 54.496H284.513V48.832H283.201V63.216H284.513V55.584H286.881V54.496ZM294.672 62.16C292.416 62.16 291.088 61.6 291.088 60.608C291.088 59.632 292.416 59.056 294.672 59.056C296.928 59.056 298.256 59.632 298.256 60.608C298.256 61.6 296.928 62.16 294.672 62.16ZM294.672 58.048C291.616 58.048 289.76 58.96 289.76 60.608C289.76 62.256 291.616 63.168 294.672 63.168C297.744 63.168 299.584 62.256 299.584 60.608C299.584 58.96 297.744 58.048 294.672 58.048ZM290.976 51.84C290.976 50.784 292.4 50.16 294.672 50.16C296.944 50.16 298.368 50.784 298.368 51.84C298.368 52.896 296.944 53.52 294.672 53.52C292.4 53.52 290.976 52.896 290.976 51.84ZM295.328 55.888V54.528C298.032 54.384 299.712 53.408 299.712 51.84C299.712 50.128 297.776 49.12 294.672 49.12C291.568 49.12 289.632 50.128 289.632 51.84C289.632 53.408 291.296 54.384 294.016 54.528V55.888H288.192V56.944H301.152V55.888H295.328ZM304.586 62.1172C305.234 62.1172 305.727 61.6172 305.727 60.9844C305.727 60.3438 305.234 59.8438 304.586 59.8438C303.938 59.8438 303.438 60.3438 303.438 60.9844C303.438 61.6172 303.938 62.1172 304.586 62.1172Z" fill="black"/>
</svg>
