<svg width="365" height="112" viewBox="0 0 365 112" fill="none" xmlns="http://www.w3.org/2000/svg">
<path d="M0 0H353C359.627 0 365 5.37258 365 12V100C365 106.627 359.627 112 353 112H12C5.37259 112 0 106.627 0 100V0Z" fill="#F4F1FF"/>
<path d="M26.864 26.576H25.552V35.456H26.464C28.016 35.456 29.664 35.376 31.6 35.008L31.472 33.872C29.76 34.208 28.24 34.304 26.864 34.32V26.576ZM35.76 24.832V30.672H33.728V25.152H32.496V38.448H33.728V31.76H35.76V39.168H37.024V24.832H35.76ZM40.3348 26.368V27.456H45.5988C45.2948 30.848 43.3268 33.6 39.6628 35.44L40.3828 36.464C45.0228 34.144 46.8948 30.448 46.8948 26.368H40.3348ZM52.9108 30.656H50.6068V24.832H49.2948V39.184H50.6068V31.744H52.9108V30.656ZM69.1565 35.568H70.4845V24.848H69.1565V28.208H66.0205V29.296H69.1565V35.568ZM67.0445 32.176C64.9805 31.408 63.5725 29.52 63.5725 27.52V25.696H62.2605V27.472C62.2605 29.664 60.8205 31.696 58.6765 32.48L59.3645 33.52C61.0445 32.848 62.3245 31.488 62.9325 29.776C63.5405 31.328 64.7725 32.56 66.3565 33.184L67.0445 32.176ZM62.5645 37.792V34.384H61.2525V38.864H70.8205V37.792H62.5645ZM76.2113 29.488H83.5393V32.128H76.2113V29.488ZM80.5312 36.272V33.184H84.8193V25.856H83.5393V28.416H76.2113V25.856H74.9153V33.184H79.2033V36.272H73.3793V37.344H86.3873V36.272H80.5312ZM99.874 24.832H98.562V32.192H99.874V24.832ZM89.698 28.544C89.698 27.296 90.738 26.416 92.13 26.416C93.538 26.416 94.562 27.296 94.562 28.544C94.562 29.776 93.538 30.656 92.13 30.656C90.738 30.656 89.698 29.776 89.698 28.544ZM95.842 28.544C95.842 26.64 94.274 25.344 92.13 25.344C89.986 25.344 88.434 26.64 88.434 28.544C88.434 30.432 89.986 31.712 92.13 31.712C94.274 31.712 95.842 30.432 95.842 28.544ZM91.906 37.952V36.368H99.874V32.896H90.578V33.936H98.578V35.392H90.61V38.992H100.354V37.952H91.906ZM111.448 26.192H110.184V28.928C110.184 31.392 109 33.968 107.032 35.12L107.848 36.096C109.272 35.216 110.312 33.6 110.824 31.696C111.336 33.44 112.296 34.96 113.656 35.792L114.408 34.768C112.52 33.616 111.448 31.184 111.448 28.88V26.192ZM115.224 29.984H112.856V31.072H115.224V38.48H116.456V25.152H115.224V29.984ZM118.136 24.832V39.184H119.384V24.832H118.136ZM127.799 31.952H123.927V29.36H127.799V31.952ZM129.095 29.952H132.407V35.456H133.735V24.832H132.407V28.88H129.095V25.792H127.799V28.32H123.927V25.792H122.631V33.008H129.095V29.952ZM125.815 37.792V34.416H124.503V38.864H134.071V37.792H125.815ZM142.789 27.632H144.165V26.56H140.773V27.632H141.637V29.136C141.637 30.528 141.573 32.672 140.565 34.176C139.541 32.576 139.477 30.336 139.477 29.136V27.632H140.341V26.56H136.821V27.632H138.325V29.136C138.325 30.896 137.989 33.504 136.341 34.848L137.093 35.744C138.021 35.008 138.549 33.824 138.869 32.56C139.125 33.856 139.637 35.104 140.565 35.888C141.493 35.104 141.989 33.888 142.245 32.608C142.565 33.872 143.093 35.008 144.021 35.744L144.773 34.848C143.125 33.536 142.789 30.976 142.789 29.136V27.632ZM147.765 24.832V30.688H146.213V25.152H144.997V38.48H146.213V31.76H147.765V39.184H149.013V24.832H147.765ZM166.219 35.568H167.547V24.848H166.219V28.208H163.083V29.296H166.219V35.568ZM164.107 32.176C162.043 31.408 160.635 29.52 160.635 27.52V25.696H159.323V27.472C159.323 29.664 157.883 31.696 155.739 32.48L156.427 33.52C158.107 32.848 159.387 31.488 159.995 29.776C160.603 31.328 161.835 32.56 163.419 33.184L164.107 32.176ZM159.627 37.792V34.384H158.315V38.864H167.883V37.792H159.627ZM180.442 28.64H173.402V26.352H180.442V28.64ZM181.738 25.312H172.122V29.68H181.738V25.312ZM183.418 31.936V30.88H170.426V31.936H176.266V33.344H171.994V34.336H180.458V35.616H172.042V39.024H182.186V38H173.322V36.576H181.754V33.344H177.578V31.936H183.418ZM191.641 26.384C193.897 26.384 195.337 27.056 195.337 28.192C195.337 29.328 193.897 29.984 191.641 29.984C189.385 29.984 187.945 29.328 187.945 28.192C187.945 27.056 189.385 26.384 191.641 26.384ZM191.641 31.04C194.713 31.04 196.681 29.984 196.681 28.192C196.681 26.4 194.713 25.328 191.641 25.328C188.569 25.328 186.601 26.4 186.601 28.192C186.601 29.984 188.569 31.04 191.641 31.04ZM188.137 34.704H186.825V38.864H196.697V37.792H188.137V34.704ZM185.145 32.384V33.44H198.121V32.384H185.145ZM210.222 34.656H206.126V30.88H210.222V34.656ZM210.222 29.84H206.126V26.048H204.83V35.728H211.502V26.048H210.222V29.84ZM217.662 30.48H215.294V24.848H213.982V39.168H215.294V31.584H217.662V30.48ZM226.125 36.336V33.632H230.717V32.576H221.885V30.256H230.381V25.888H220.557V26.96H229.101V29.2H220.589V33.632H224.797V36.336H218.957V37.408H231.997V36.336H226.125ZM241.043 34.736H239.731V38.864H249.683V37.792H241.043V34.736ZM245.219 32.384V30.512H249.571V29.44H241.011V26.624H249.443V25.568H239.699V30.512H243.907V32.384H238.067V33.44H251.059V32.384H245.219ZM259.266 26.064C261.618 26.064 262.962 26.608 262.962 27.568C262.962 28.528 261.618 29.072 259.266 29.072C256.914 29.072 255.57 28.528 255.57 27.568C255.57 26.608 256.914 26.064 259.266 26.064ZM259.266 30.048C262.418 30.048 264.306 29.184 264.306 27.568C264.306 25.952 262.418 25.072 259.266 25.072C256.114 25.072 254.226 25.952 254.226 27.568C254.226 29.184 256.114 30.048 259.266 30.048ZM255.666 36.544H264.098V33.312H254.338V34.304H262.802V35.584H254.386V39.024H264.53V38H255.666V36.544ZM252.77 31.024V32.08H265.762V31.024H252.77ZM273.735 27.328H277.751V34.48H273.735V27.328ZM272.455 35.536H279.031V26.272H272.455V35.536ZM285.287 30.56H282.919V24.848H281.607V39.184H282.919V31.664H285.287V30.56ZM297.094 35.392H298.422V24.848H297.094V27.264H294.31V28.32H297.094V30.464H294.31V31.536H297.094V35.392ZM294.198 32.032C292.486 32.336 291.046 32.4 288.486 32.4V30.048H293.35V25.856H287.158V26.912H292.038V29.024H287.19V33.472H288.23C290.998 33.472 292.502 33.424 294.326 33.104L294.198 32.032ZM290.438 37.744V34.624H289.126V38.8H298.854V37.744H290.438ZM309.829 26.592H306.245V24.832H304.933V26.592H301.365V27.648H309.829V26.592ZM303.413 31.104C303.413 30.112 304.293 29.472 305.589 29.472C306.885 29.472 307.781 30.112 307.781 31.104C307.781 32.112 306.885 32.752 305.589 32.752C304.293 32.752 303.413 32.112 303.413 31.104ZM309.029 31.104C309.029 29.504 307.621 28.448 305.589 28.448C303.557 28.448 302.165 29.504 302.165 31.104C302.165 32.72 303.557 33.776 305.589 33.776C307.621 33.776 309.029 32.72 309.029 31.104ZM304.837 34.752H303.525V38.864H313.093V37.792H304.837V34.752ZM312.453 29.568V24.832H311.141V35.6H312.453V30.672H314.565V29.568H312.453ZM330.363 27.792C330.363 29.568 330.363 31.712 329.787 34.64L331.099 34.784C331.659 31.68 331.659 29.616 331.659 27.792V26.352H321.819V27.424H330.363V27.792ZM320.427 36V37.088H333.403V36H320.427ZM26.656 51.648H30.704V50.576H25.36V59.648H26.304C28.448 59.648 29.904 59.584 31.616 59.216L31.504 58.128C29.936 58.464 28.576 58.544 26.656 58.56V51.648ZM35.776 48.832V54.592H33.744V49.152H32.512V62.464H33.744V55.664H35.776V63.184H37.04V48.832H35.776ZM40.3348 50.368V51.456H45.5988C45.2948 54.848 43.3268 57.6 39.6628 59.44L40.3828 60.464C45.0228 58.144 46.8948 54.448 46.8948 50.368H40.3348ZM52.9108 54.656H50.6068V48.832H49.2948V63.184H50.6068V55.744H52.9108V54.656ZM70.4365 48.848H69.1245V59.344H70.4365V48.848ZM67.4285 56.256C65.3165 55.552 63.8285 53.808 63.8285 51.872V51.088H67.0765V50.032H59.2045V51.088H62.4845V51.872C62.4845 53.92 61.0285 55.792 58.8525 56.544L59.5405 57.568C61.2365 56.96 62.5645 55.664 63.1725 54.032C63.8285 55.536 65.1405 56.72 66.7885 57.296L67.4285 56.256ZM62.5165 61.792V58.352H61.2045V62.864H70.8685V61.792H62.5165ZM80.6433 51.36H82.2913V50.288H78.3233V51.36H79.3953V53.104C79.3953 54.752 79.1713 57.024 78.0193 58.544C76.8513 56.992 76.6432 54.688 76.6432 53.104V51.36H77.6993V50.288H73.6353V51.36H75.3953V53.104C75.3953 55.136 74.9153 57.888 73.1873 59.232L74.0193 60.176C75.0433 59.344 75.6513 58 76.0193 56.544C76.3393 58.032 76.9313 59.44 78.0193 60.304C79.1073 59.456 79.6993 58.048 80.0193 56.56C80.3713 58.032 80.9792 59.36 82.0353 60.176L82.8673 59.232C81.1233 57.92 80.6433 55.232 80.6433 53.104V51.36ZM86.7393 54.528H84.7553V48.848H83.4433V63.184H84.7553V55.632H86.7393V54.528ZM101.257 55.376C99.145 54.72 97.641 53.04 97.641 51.152V50.832H100.889V49.76H93.017V50.832H96.297V51.152C96.297 53.12 94.825 54.912 92.649 55.6L93.321 56.64C95.033 56.048 96.361 54.8 96.985 53.216C97.641 54.704 98.969 55.856 100.617 56.384L101.257 55.376ZM102.953 61.92H96.297V60.064H102.953V61.92ZM102.953 59.04H96.297V57.296H95.001V62.992H104.249V57.296H102.953V59.04ZM102.937 48.832V56.608H104.249V48.832H102.937ZM113.672 50.064C116.024 50.064 117.368 50.608 117.368 51.568C117.368 52.528 116.024 53.072 113.672 53.072C111.32 53.072 109.976 52.528 109.976 51.568C109.976 50.608 111.32 50.064 113.672 50.064ZM113.672 54.048C116.824 54.048 118.712 53.184 118.712 51.568C118.712 49.952 116.824 49.072 113.672 49.072C110.52 49.072 108.632 49.952 108.632 51.568C108.632 53.184 110.52 54.048 113.672 54.048ZM110.072 60.544H118.504V57.312H108.744V58.304H117.208V59.584H108.792V63.024H118.936V62H110.072V60.544ZM107.176 55.024V56.08H120.168V55.024H107.176ZM131.102 50.08H129.806V52.656C129.806 55.264 128.174 58.016 126.11 59.072L126.894 60.128C128.51 59.264 129.838 57.472 130.462 55.376C131.118 57.344 132.414 59.024 133.934 59.84L134.75 58.8C132.734 57.792 131.102 55.184 131.102 52.656V50.08ZM139.694 54.656H137.326V48.848H136.014V63.184H137.326V55.744H139.694V54.656ZM149.372 54.368C147.084 54.832 145.036 54.976 143.004 54.992V49.712H141.708V56.096H142.828C144.972 56.096 147.116 55.936 149.548 55.44L149.372 54.368ZM147.564 62.128C145.468 62.128 144.124 61.456 144.124 60.368C144.124 59.28 145.468 58.608 147.564 58.608C149.66 58.608 150.988 59.28 150.988 60.368C150.988 61.456 149.66 62.128 147.564 62.128ZM147.564 57.568C144.7 57.568 142.828 58.64 142.828 60.368C142.828 62.112 144.7 63.184 147.564 63.184C150.428 63.184 152.3 62.112 152.3 60.368C152.3 58.64 150.428 57.568 147.564 57.568ZM154.252 52.08V50.992H152.156V48.832H150.844V57.36H152.156V55.136H154.252V54.048H152.156V52.08H154.252ZM159.931 58.896C158.635 58.896 157.691 57.968 157.691 56.688C157.691 55.392 158.635 54.464 159.931 54.464C161.243 54.464 162.187 55.392 162.187 56.688C162.187 57.968 161.243 58.896 159.931 58.896ZM159.931 53.376C157.915 53.376 156.459 54.752 156.459 56.688C156.459 58.64 157.915 59.984 159.931 59.984C161.979 59.984 163.435 58.64 163.435 56.688C163.435 54.752 161.979 53.376 159.931 53.376ZM160.571 49.008H159.259V51.136H155.643V52.192H164.107V51.136H160.571V49.008ZM169.131 54.736H166.779V48.848H165.467V63.184H166.779V55.84H169.131V54.736ZM172.266 55.184H177.354V50.16H170.938V51.232H176.074V54.128H170.97V59.744H172.074C174.666 59.744 176.49 59.664 178.65 59.28L178.522 58.192C176.458 58.56 174.714 58.656 172.266 58.656V55.184ZM180.938 48.816V54.352H178.202V55.424H180.938V63.2H182.25V48.816H180.938ZM190.176 49.536V50.608H195.376C195.168 52.832 193.088 54.608 189.552 55.392L190.048 56.48C194.224 55.504 196.816 53.12 196.816 49.536H190.176ZM192.88 60.336H200.672V56.784H191.552V57.824H199.376V59.344H191.6V63.04H201.2V62H192.88V60.336ZM200.672 52.048V48.832H199.36V56.144H200.672V53.136H202.8V52.048H200.672ZM210.261 51.712H212.133V50.64H209.061V59.44H209.637C210.229 59.44 211.157 59.44 212.341 59.168L212.213 58.08C211.477 58.256 210.789 58.32 210.261 58.336V51.712ZM213.941 51.712H215.909V50.64H212.741V59.44H213.333C214.165 59.44 215.141 59.424 216.325 59.12L216.213 58.032C215.381 58.256 214.597 58.32 213.941 58.352V51.712ZM219.749 48.832V54.688H218.069V49.152H216.853V62.464H218.069V55.76H219.749V63.168H220.997V48.832H219.749ZM239.515 48.832H238.203V56.288H239.515V48.832ZM231.051 50.832H233.387V54.56C232.603 54.608 231.819 54.64 231.051 54.656V50.832ZM236.763 54.288C236.075 54.352 235.371 54.432 234.651 54.48V50.832H236.059V49.792H228.363V50.832H229.771V54.688C229.147 54.704 228.539 54.704 227.979 54.704L228.107 55.792C230.635 55.776 233.979 55.68 236.827 55.248L236.763 54.288ZM231.483 61.984V60.416H239.515V56.976H230.139V58H238.219V59.44H230.187V63.024H240.059V61.984H231.483ZM246.938 56.88C247.53 57.024 248.218 57.104 248.922 57.104C249.642 57.104 250.33 57.024 250.938 56.88V60.256H246.938V56.88ZM248.922 50.768C251.226 50.768 252.89 51.824 252.89 53.424C252.89 55.024 251.226 56.08 248.922 56.08C246.618 56.08 244.97 55.024 244.97 53.424C244.97 51.824 246.618 50.768 248.922 50.768ZM252.25 60.256V56.368C253.434 55.744 254.138 54.72 254.138 53.424C254.138 51.184 251.978 49.744 248.922 49.744C245.882 49.744 243.706 51.184 243.706 53.424C243.706 54.72 244.426 55.76 245.626 56.384V60.256H242.426V61.344H255.466V60.256H252.25ZM265.673 50.592H262.089V48.832H260.777V50.592H257.209V51.648H265.673V50.592ZM259.257 55.104C259.257 54.112 260.137 53.472 261.433 53.472C262.729 53.472 263.625 54.112 263.625 55.104C263.625 56.112 262.729 56.752 261.433 56.752C260.137 56.752 259.257 56.112 259.257 55.104ZM264.873 55.104C264.873 53.504 263.465 52.448 261.433 52.448C259.401 52.448 258.009 53.504 258.009 55.104C258.009 56.72 259.401 57.776 261.433 57.776C263.465 57.776 264.873 56.72 264.873 55.104ZM260.681 58.752H259.369V62.864H268.937V61.792H260.681V58.752ZM268.297 53.568V48.832H266.985V59.6H268.297V54.672H270.409V53.568H268.297ZM286.75 58.544H288.078V48.848H286.75V52.88H283.662V53.952H286.75V58.544ZM277.182 49.968V51.04H282.206C281.95 53.568 279.886 55.52 276.494 56.592L277.07 57.632C281.166 56.304 283.614 53.664 283.614 49.968H277.182ZM284.094 57.296H282.782V57.952C282.782 60.048 280.542 61.648 277.982 62.096L278.51 63.136C280.654 62.72 282.59 61.584 283.438 59.904C284.286 61.552 286.206 62.688 288.318 63.104L288.846 62.08C286.318 61.6 284.094 60.016 284.094 57.952V57.296ZM291.047 64.9297H292.242L293.539 60.3438H291.734L291.047 64.9297ZM306.363 58.656H302.267V54.88H306.363V58.656ZM306.363 53.84H302.267V50.048H300.971V59.728H307.643V50.048H306.363V53.84ZM313.803 54.48H311.435V48.848H310.123V63.168H311.435V55.584H313.803V54.48ZM322.266 60.336V57.632H326.858V56.576H318.026V54.256H326.522V49.888H316.698V50.96H325.242V53.2H316.73V57.632H320.938V60.336H315.098V61.408H328.138V60.336H322.266ZM30.816 82.656H26.72V78.88H30.816V82.656ZM30.816 77.84H26.72V74.048H25.424V83.728H32.096V74.048H30.816V77.84ZM38.256 78.48H35.888V72.848H34.576V87.168H35.888V79.584H38.256V78.48ZM46.7188 84.336V81.632H51.3108V80.576H42.4788V78.256H50.9748V73.888H41.1508V74.96H49.6948V77.2H41.1828V81.632H45.3908V84.336H39.5508V85.408H52.5908V84.336H46.7188ZM68.6125 75.792C68.6125 77.568 68.6125 79.712 68.0365 82.64L69.3485 82.784C69.9085 79.68 69.9085 77.616 69.9085 75.792V74.352H60.0685V75.424H68.6125V75.792ZM58.6765 84V85.088H71.6525V84H58.6765ZM75.1873 75.648H79.2353V74.576H73.8913V83.648H74.8353C76.9793 83.648 78.4353 83.584 80.1473 83.216L80.0353 82.128C78.4673 82.464 77.1073 82.544 75.1873 82.56V75.648ZM84.3073 72.832V78.592H82.2753V73.152H81.0433V86.464H82.2753V79.664H84.3073V87.184H85.5713V72.832H84.3073ZM92.754 73.888C90.53 73.888 88.914 75.248 88.914 77.264C88.914 79.264 90.53 80.64 92.754 80.64C94.994 80.64 96.594 79.264 96.594 77.264C96.594 75.248 94.994 73.888 92.754 73.888ZM92.754 75.008C94.242 75.008 95.314 75.92 95.314 77.264C95.314 78.592 94.242 79.52 92.754 79.52C91.282 79.52 90.194 78.592 90.194 77.264C90.194 75.92 91.282 75.008 92.754 75.008ZM98.482 72.832V87.216H99.794V72.832H98.482ZM88.354 84.064C90.946 84.064 94.418 84.032 97.65 83.44L97.538 82.464C94.402 82.944 90.802 82.96 88.194 82.96L88.354 84.064ZM108.472 79.808C110.696 79.424 112.808 78.224 113.688 76.528C114.552 78.224 116.68 79.424 118.904 79.808L119.416 78.768C116.888 78.4 114.408 76.752 114.408 74.864V74.784H118.904V73.728H108.424V74.784H112.952V74.864C112.952 76.752 110.472 78.4 107.976 78.768L108.472 79.808ZM120.168 81.008H107.208V82.08H113V87.184H114.312V82.08H120.184L120.168 81.008ZM128.631 79.328C127.127 79.632 125.847 79.712 123.799 79.712V77.76H127.911V76.752H123.799V74.944H128.071V73.888H122.535V80.784H123.447C125.751 80.784 127.111 80.72 128.759 80.384L128.631 79.328ZM124.375 83.344H132.711V87.184H134.023V82.288H124.375V83.344ZM132.759 72.848V76.576H130.839V73.104H129.591V81.44H130.839V77.648H132.759V81.536H134.023V72.848H132.759ZM147.125 81.328H148.453V72.848H147.125V75.888H144.005V76.96H147.125V81.328ZM145.045 79.632C142.949 78.896 141.557 77.12 141.557 75.072V73.648H140.245V75.12C140.245 77.312 138.821 79.232 136.613 80.016L137.301 81.088C139.029 80.432 140.325 79.136 140.933 77.44C141.557 78.928 142.773 80.064 144.341 80.656L145.045 79.632ZM143.717 86.128C141.557 86.128 140.245 85.504 140.245 84.464C140.245 83.408 141.557 82.784 143.717 82.784C145.877 82.784 147.189 83.408 147.189 84.464C147.189 85.504 145.877 86.128 143.717 86.128ZM143.717 81.76C140.773 81.76 138.933 82.736 138.933 84.464C138.933 86.176 140.773 87.168 143.717 87.168C146.661 87.168 148.501 86.176 148.501 84.464C148.501 82.736 146.661 81.76 143.717 81.76ZM159.86 74.448H156.276V72.704H154.964V74.448H151.396V75.504H159.86V74.448ZM153.444 78.752C153.444 77.824 154.308 77.216 155.62 77.216C156.932 77.216 157.812 77.824 157.812 78.752C157.812 79.696 156.932 80.304 155.62 80.304C154.308 80.304 153.444 79.696 153.444 78.752ZM159.06 78.752C159.06 77.216 157.668 76.224 155.62 76.224C153.572 76.224 152.196 77.216 152.196 78.752C152.196 80.304 153.572 81.296 155.62 81.296C157.668 81.296 159.06 80.304 159.06 78.752ZM157.988 86.16C155.892 86.16 154.612 85.616 154.612 84.688C154.612 83.76 155.892 83.216 157.988 83.216C160.084 83.216 161.364 83.76 161.364 84.688C161.364 85.616 160.084 86.16 157.988 86.16ZM157.988 82.208C155.092 82.208 153.316 83.104 153.316 84.688C153.316 86.256 155.092 87.168 157.988 87.168C160.868 87.168 162.66 86.256 162.66 84.688C162.66 83.104 160.868 82.208 157.988 82.208ZM164.564 76.384V75.312H162.484V72.832H161.172V82.064H162.484V79.456H164.564V78.368H162.484V76.384H164.564ZM169.315 82.816C168.163 82.816 167.443 81.36 167.443 79.008C167.443 76.704 168.163 75.248 169.315 75.248C170.435 75.248 171.171 76.704 171.171 79.008C171.171 81.36 170.435 82.816 169.315 82.816ZM174.163 78.416H172.355C172.195 75.712 171.043 74.032 169.315 74.032C167.443 74.032 166.243 75.952 166.243 79.008C166.243 82.112 167.443 84.032 169.315 84.032C171.075 84.032 172.243 82.304 172.355 79.488H174.163V86.48H175.411V73.152H174.163V78.416ZM177.011 72.832V87.184H178.259V72.832H177.011ZM191.065 78.896H187.033V74.848H191.065V78.896ZM192.345 73.808H185.753V79.952H192.345V73.808ZM196.537 82.928V81.872H187.161V82.928H191.161C191.001 84.464 188.969 85.776 186.601 86.128L187.081 87.136C189.209 86.8 191.049 85.776 191.865 84.32C192.681 85.76 194.521 86.8 196.601 87.152L197.097 86.144C194.761 85.776 192.697 84.432 192.536 82.928H196.537ZM196.297 76.272V72.832H194.985V81.024H196.297V77.36H198.425V76.272H196.297ZM211.383 77.152H202.935V73.36H201.623V78.224H211.383V77.152ZM202.839 82.64H201.527V86.832H211.463V85.76H202.839V82.64ZM199.863 80.144V81.2H212.871V80.144H199.863ZM223.149 76.56H225.805V75.472H223.165V73.344H221.901V75.472H219.245V76.56H221.901V77.248C221.901 79.6 220.797 82.112 218.861 83.264L219.629 84.24C221.037 83.392 222.045 81.792 222.541 79.968C223.069 81.696 224.093 83.152 225.485 83.936L226.237 82.944C224.301 81.904 223.149 79.536 223.149 77.248V76.56ZM227.021 78.496H224.829V79.584H227.021V86.432H228.269V73.168H227.021V78.496ZM229.901 72.832V87.168H231.165V72.832H229.901ZM234.876 78.656L235.068 79.744L243.724 79.264C243.644 80.368 243.484 81.552 243.164 82.928L244.46 83.056C245.084 80.112 245.084 78.176 245.084 76.048V74.288H235.244V75.36H243.804V76.048C243.804 76.784 243.804 77.52 243.772 78.272L234.876 78.656ZM233.708 84.112V85.184H246.684V84.112H233.708ZM250.555 79.28H255.851V74.16H249.195V75.232H254.523V78.224H249.243V83.728H250.427C252.891 83.728 255.067 83.632 257.659 83.2L257.531 82.128C255.019 82.528 252.907 82.64 250.555 82.64V79.28ZM258.875 72.816V87.2H260.187V72.816H258.875ZM275.497 80.048C272.985 79.568 270.265 77.392 270.265 74.944V73.84H268.889V74.944C268.889 77.392 266.185 79.552 263.673 80.048L264.265 81.136C266.425 80.624 268.665 79.088 269.577 76.992C270.489 79.104 272.729 80.64 274.905 81.136L275.497 80.048ZM263.129 84.176V85.264H276.137V84.176H263.129ZM289.368 80.576H280.84V78.304H288.904V77.264H280.84V75.136H289.224V74.08H279.512V81.632H289.368V80.576ZM277.832 84.256V85.328H290.856V84.256H277.832ZM294.439 79.312H299.607V74.16H293.111V75.232H298.311V78.24H293.159V83.728H294.295C297.031 83.728 298.951 83.616 301.191 83.216L301.047 82.128C298.903 82.544 297.047 82.64 294.439 82.64V79.312ZM305.975 78.528H303.623V72.816H302.311V87.2H303.623V79.632H305.975V78.528ZM313.766 86.16C311.51 86.16 310.182 85.6 310.182 84.608C310.182 83.632 311.51 83.056 313.766 83.056C316.022 83.056 317.35 83.632 317.35 84.608C317.35 85.6 316.022 86.16 313.766 86.16ZM313.766 82.048C310.71 82.048 308.854 82.96 308.854 84.608C308.854 86.256 310.71 87.168 313.766 87.168C316.838 87.168 318.678 86.256 318.678 84.608C318.678 82.96 316.838 82.048 313.766 82.048ZM310.07 75.84C310.07 74.784 311.494 74.16 313.766 74.16C316.038 74.16 317.462 74.784 317.462 75.84C317.462 76.896 316.038 77.52 313.766 77.52C311.494 77.52 310.07 76.896 310.07 75.84ZM314.422 79.888V78.528C317.126 78.384 318.806 77.408 318.806 75.84C318.806 74.128 316.87 73.12 313.766 73.12C310.661 73.12 308.726 74.128 308.726 75.84C308.726 77.408 310.39 78.384 313.11 78.528V79.888H307.286V80.944H320.246V79.888H314.422ZM323.68 86.1172C324.328 86.1172 324.82 85.6172 324.82 84.9844C324.82 84.3438 324.328 83.8438 323.68 83.8438C323.031 83.8438 322.531 84.3438 322.531 84.9844C322.531 85.6172 323.031 86.1172 323.68 86.1172Z" fill="black"/>
</svg>
