<svg width="365" height="64" viewBox="0 0 365 64" fill="none" xmlns="http://www.w3.org/2000/svg">
<path d="M0 0H353C359.627 0 365 5.37258 365 12V52C365 58.6274 359.627 64 353 64H12C5.37259 64 0 58.6274 0 52V0Z" fill="#F4F1FF"/>
<path d="M25.472 25.744V26.816H30.672C30.432 29.248 28.304 31.12 24.816 32.064L25.36 33.104C29.552 31.952 32.08 29.376 32.08 25.744H25.472ZM26.656 34.96H34.672V39.184H35.984V33.904H26.656V34.96ZM38.112 28.464H35.984V24.816H34.672V33.248H35.984V29.552H38.112V28.464ZM52.2458 31.12C50.3738 31.488 48.7418 31.6 45.9098 31.6V27.136H50.9498V26.08H44.5978V32.672H45.7178C48.7258 32.672 50.4218 32.576 52.3898 32.176L52.2458 31.12ZM47.4618 34.176H46.1498V38.864H55.7178V37.792H47.4618V34.176ZM55.0778 29.088V24.832H53.7658V35.216H55.0778V30.176H57.2058V29.088H55.0778ZM66.7245 28.832H64.5965C64.7245 28.112 64.7885 27.392 64.7885 26.656H59.2845V27.728H63.4925C63.2685 30.736 61.7325 33.312 58.6445 35.152L59.4125 36.08C62.1325 34.464 63.6845 32.304 64.3565 29.888H66.7245V32.416H64.1325V33.488H66.7245V38.448H67.9725V25.216H66.7245V28.832ZM69.6045 24.832V39.168H70.8525V24.832H69.6045ZM78.0353 25.888C75.8113 25.888 74.1953 27.248 74.1953 29.264C74.1953 31.264 75.8113 32.64 78.0353 32.64C80.2753 32.64 81.8753 31.264 81.8753 29.264C81.8753 27.248 80.2753 25.888 78.0353 25.888ZM78.0353 27.008C79.5233 27.008 80.5953 27.92 80.5953 29.264C80.5953 30.592 79.5233 31.52 78.0353 31.52C76.5633 31.52 75.4753 30.592 75.4753 29.264C75.4753 27.92 76.5633 27.008 78.0353 27.008ZM83.7633 24.832V39.216H85.0753V24.832H83.7633ZM73.6353 36.064C76.2273 36.064 79.6993 36.032 82.9313 35.44L82.8193 34.464C79.6833 34.944 76.0833 34.96 73.4753 34.96L73.6353 36.064ZM94.505 28.32C94.505 27.232 95.449 26.496 96.825 26.496C98.169 26.496 99.129 27.232 99.129 28.32C99.129 29.424 98.169 30.144 96.825 30.144C95.449 30.144 94.505 29.424 94.505 28.32ZM101.401 32.144C100.153 32.336 98.825 32.432 97.497 32.512V31.104C99.209 30.896 100.361 29.84 100.361 28.32C100.361 26.64 98.905 25.504 96.825 25.504C94.729 25.504 93.289 26.64 93.289 28.32C93.289 29.856 94.441 30.912 96.185 31.12V32.56C94.841 32.608 93.561 32.624 92.457 32.624L92.633 33.696C95.081 33.696 98.489 33.648 101.481 33.104L101.401 32.144ZM95.833 34.896H94.521V38.848H104.105V37.776H95.833V34.896ZM103.593 29.696V24.848H102.281V35.824H103.593V30.784H105.689V29.696H103.593ZM112.12 33.616H115.4V36.336H112.12V33.616ZM116.696 36.336V33.616H118.936V32.544H110.104V30.24H118.6V25.888H108.776V26.96H117.32V29.184H108.808V33.616H110.824V36.336H107.176V37.408H120.216V36.336H116.696ZM133.95 28.56V29.632H136.782V33.392H138.11V24.848H136.782V28.56H133.95ZM134.75 31.824C132.67 31.088 131.262 29.28 131.262 27.44V26.944H134.414V25.888H126.75V26.944H129.95V27.44C129.95 29.504 128.478 31.44 126.334 32.224L127.022 33.264C128.702 32.624 130.03 31.28 130.638 29.616C131.262 31.088 132.494 32.272 134.094 32.848L134.75 31.824ZM133.374 38.16C131.214 38.16 129.902 37.552 129.902 36.512C129.902 35.472 131.214 34.848 133.374 34.848C135.534 34.848 136.846 35.472 136.846 36.512C136.846 37.552 135.534 38.16 133.374 38.16ZM133.374 33.84C130.43 33.84 128.59 34.816 128.59 36.512C128.59 38.208 130.43 39.184 133.374 39.184C136.318 39.184 138.158 38.208 138.158 36.512C138.158 34.816 136.318 33.84 133.374 33.84ZM148.156 36.288V32.608H152.524V31.552H143.964V27.056H152.38V25.984H142.652V32.608H146.828V36.288H140.988V37.376H154.028V36.288H148.156ZM162.875 36.288V32.608H167.243V31.552H158.683V27.056H167.099V25.984H157.371V32.608H161.547V36.288H155.707V37.376H168.747V36.288H162.875ZM183.345 26.144H179.889V24.736H178.577V26.144H175.105V27.136H183.345V26.144ZM177.121 29.792C177.121 29.04 177.937 28.576 179.233 28.576C180.497 28.576 181.329 29.04 181.329 29.792C181.329 30.544 180.497 31.024 179.233 31.024C177.937 31.024 177.121 30.544 177.121 29.792ZM183.777 32.544C182.529 32.736 181.201 32.832 179.889 32.896V31.904C181.537 31.728 182.577 30.96 182.577 29.792C182.577 28.48 181.233 27.664 179.233 27.664C177.201 27.664 175.873 28.48 175.873 29.792C175.873 30.976 176.913 31.744 178.577 31.904V32.944C177.201 32.992 175.889 32.992 174.753 32.992L174.897 34.048C177.409 34.032 180.801 34.016 183.873 33.488L183.777 32.544ZM176.497 36.224H184.625V39.184H185.937V35.184H176.497V36.224ZM188.033 29.184H185.937V24.848H184.625V34.464H185.937V30.272H188.033V29.184ZM201.312 24.848H200V35.328H201.312V24.848ZM191.152 29.36C191.152 27.968 192.208 26.976 193.6 26.976C195.024 26.976 196.08 27.968 196.08 29.36C196.08 30.784 195.024 31.776 193.6 31.776C192.208 31.776 191.152 30.784 191.152 29.36ZM197.36 29.36C197.36 27.296 195.744 25.84 193.6 25.84C191.472 25.84 189.872 27.296 189.872 29.36C189.872 31.44 191.472 32.912 193.6 32.912C195.744 32.912 197.36 31.44 197.36 29.36ZM193.391 37.792V34.256H192.08V38.864H201.744V37.792H193.391ZM212.766 26.144H209.182V24.688H207.87V26.144H204.302V27.152H212.766V26.144ZM206.35 30.144C206.35 29.28 207.198 28.768 208.526 28.768C209.854 28.768 210.718 29.28 210.718 30.144C210.718 30.992 209.854 31.52 208.526 31.52C207.198 31.52 206.35 30.992 206.35 30.144ZM211.966 30.144C211.966 28.688 210.606 27.792 208.526 27.792C206.462 27.792 205.102 28.688 205.102 30.144C205.102 31.6 206.462 32.496 208.526 32.496C210.606 32.496 211.966 31.6 211.966 30.144ZM207.598 36.64H215.39V33.456H206.27V34.432H214.094V35.68H206.318V39.024H215.918V38.016H207.598V36.64ZM215.39 28.24V24.784H214.078V32.72H215.39V29.328H217.518V28.24H215.39ZM235.7 30.304C233.092 29.92 230.532 28.144 230.532 26.144V25.344H229.156V26.144C229.156 28.192 226.628 29.92 224.02 30.304L224.548 31.36C226.788 30.976 228.948 29.744 229.844 28C230.772 29.728 232.932 30.976 235.156 31.36L235.7 30.304ZM236.324 32.912H223.364V34H229.156V39.2H230.468V34H236.34L236.324 32.912ZM254.218 24.848H252.906V33.04H254.218V24.848ZM246.506 26.768C247.93 26.768 248.986 27.712 248.986 29.024C248.986 30.352 247.93 31.28 246.506 31.28C245.082 31.28 244.058 30.352 244.058 29.024C244.058 27.712 245.082 26.768 246.506 26.768ZM246.506 32.368C248.682 32.368 250.266 31.008 250.266 29.024C250.266 27.04 248.682 25.68 246.506 25.68C244.346 25.68 242.778 27.04 242.778 29.024C242.778 31.008 244.346 32.368 246.506 32.368ZM252.618 33.664H251.338V34.432C251.338 35.552 250.65 36.992 249.274 37.84C247.946 37.056 247.29 35.696 247.29 34.432V33.664H246.026V34.432C246.026 35.808 244.954 37.36 243.146 38L243.802 38.992C245.146 38.48 246.122 37.488 246.634 36.336C247.066 37.536 247.93 38.576 249.306 39.12C250.634 38.544 251.514 37.456 251.962 36.288C252.442 37.488 253.434 38.48 254.842 38.992L255.498 38C253.674 37.392 252.618 35.92 252.618 34.432V33.664ZM262.281 27.392H265.657V26.304H257.641V27.392H260.969V29.216C260.969 31.696 259.225 34.4 257.161 35.376L257.929 36.432C259.561 35.6 260.969 33.792 261.625 31.696C262.313 33.664 263.721 35.312 265.385 36.08L266.121 35.024C264.009 34.128 262.281 31.648 262.281 29.216V27.392ZM267.593 24.848V39.184H268.905V24.848H267.593ZM273.555 38.1172C274.203 38.1172 274.695 37.6172 274.695 36.9844C274.695 36.3438 274.203 35.8438 273.555 35.8438C272.906 35.8438 272.406 36.3438 272.406 36.9844C272.406 37.6172 272.906 38.1172 273.555 38.1172Z" fill="black"/>
</svg>
