<svg width="365" height="88" viewBox="0 0 365 88" fill="none" xmlns="http://www.w3.org/2000/svg">
<path d="M0 0H353C359.627 0 365 5.37258 365 12V76C365 82.6274 359.627 88 353 88H12C5.37259 88 0 82.6274 0 76V0Z" fill="#F4F1FF"/>
<path d="M35.936 30.432C36.352 28.448 36.352 26.992 36.352 26.08V25.456H31.52V26.528H35.072C35.056 27.392 35.008 28.624 34.672 30.288L35.936 30.432ZM29.68 30.448C30.336 28.336 30.336 26.768 30.336 25.968V25.456H25.984V26.528H29.056C29.024 27.36 28.912 28.576 28.4 30.272L29.68 30.448ZM26.272 35.328H34.88V39.12H36.192V34.256H26.272V35.328ZM32.256 31.664V28.768H30.96V31.664H24.88V32.72H37.808V31.664H32.256ZM46.7418 27.072H54.0858V31.728H46.7418V27.072ZM51.0938 36.256V32.768H55.3658V26.032H45.4778V32.768H49.7658V36.256H43.9418V37.344H56.9498V36.256H51.0938ZM70.1485 29.44H61.6045V26.512H70.0205V25.44H60.2925V30.496H70.1485V29.44ZM61.6365 34.656H60.3245V38.848H70.2765V37.776H61.6365V34.656ZM58.6605 32.08V33.136H71.6365V32.08H58.6605ZM83.7223 34.656H79.6263V30.88H83.7223V34.656ZM83.7223 29.84H79.6263V26.048H78.3303V35.728H85.0023V26.048H83.7223V29.84ZM91.1623 30.48H88.7943V24.848H87.4823V39.168H88.7943V31.584H91.1623V30.48ZM102.521 27.344H94.137V30.416H104.073V29.472H95.433V28.24H103.817V25.248H94.105V26.176H102.521V27.344ZM95.353 36.72H103.865V33.664H94.025V34.608H102.569V35.808H94.057V38.992H104.313V38.048H95.353V36.72ZM92.473 31.504V32.496H105.481V31.504H92.473ZM114.399 29.488H121.727V32.128H114.399V29.488ZM118.719 36.272V33.184H123.007V25.856H121.727V28.416H114.399V25.856H113.103V33.184H117.391V36.272H111.567V37.344H124.575V36.272H118.719ZM128.158 31.312H133.326V26.16H126.83V27.232H132.03V30.24H126.878V35.728H128.014C130.75 35.728 132.67 35.616 134.91 35.216L134.766 34.128C132.622 34.544 130.766 34.64 128.158 34.64V31.312ZM139.694 30.528H137.342V24.816H136.03V39.2H137.342V31.632H139.694V30.528ZM148.188 31.632C146.332 30.896 145.276 29.232 145.276 27.616V25.68H144.012V27.616C144.012 29.248 142.892 31.136 141.02 31.984L141.724 32.992C143.116 32.368 144.14 31.152 144.652 29.792C145.164 31.024 146.156 32.08 147.484 32.624L148.188 31.632ZM143.468 35.36H151.804V39.184H153.116V34.304H143.468V35.36ZM151.852 24.848V28.576H150.028V25.088H148.78V33.424H150.028V29.648H151.852V33.52H153.116V24.848H151.852ZM162.203 25.728C159.227 25.728 156.987 27.312 156.987 29.696C156.987 32.096 159.227 33.664 162.203 33.664C165.179 33.664 167.419 32.096 167.419 29.696C167.419 27.312 165.179 25.728 162.203 25.728ZM162.203 26.8C164.475 26.8 166.171 27.968 166.171 29.696C166.171 31.44 164.475 32.592 162.203 32.592C159.947 32.592 158.235 31.44 158.235 29.696C158.235 27.968 159.947 26.8 162.203 26.8ZM155.707 36.192V37.28H168.747V36.192H155.707ZM177.594 36.336V33.632H182.186V32.576H173.354V30.256H181.85V25.888H172.026V26.96H180.57V29.2H172.058V33.632H176.266V36.336H170.426V37.408H183.466V36.336H177.594ZM199.536 28.64H192.496V26.352H199.536V28.64ZM200.832 25.312H191.216V29.68H200.832V25.312ZM202.512 31.936V30.88H189.52V31.936H195.36V33.344H191.088V34.336H199.552V35.616H191.136V39.024H201.28V38H192.416V36.576H200.848V33.344H196.672V31.936H202.512ZM215.694 28.608H207.294V26.368H215.55V25.312H205.982V29.664H215.694V28.608ZM207.134 36.512H215.566V33.136H205.806V34.16H214.27V35.536H205.854V39.008H215.998V37.984H207.134V36.512ZM204.254 30.816V31.888H217.246V30.816H204.254ZM226.221 32.576C226.317 32.08 226.381 31.536 226.381 30.944C226.381 30.288 226.301 29.68 226.173 29.12H229.485V32.576H226.221ZM222.813 34.784C221.437 34.784 220.477 33.28 220.477 30.944C220.477 28.624 221.437 27.12 222.813 27.12C224.173 27.12 225.149 28.624 225.149 30.944C225.149 33.28 224.173 34.784 222.813 34.784ZM229.485 24.832V28.048H225.805C225.197 26.704 224.141 25.936 222.813 25.936C220.717 25.936 219.229 27.888 219.229 30.944C219.229 34 220.717 35.952 222.813 35.952C224.189 35.952 225.309 35.104 225.901 33.648H229.485V39.216H230.797V24.832H229.485ZM233.766 40.9297H234.961L236.258 36.3438H234.453L233.766 40.9297ZM245.13 26.576H243.818V35.456H244.73C246.282 35.456 247.93 35.376 249.866 35.008L249.738 33.872C248.026 34.208 246.506 34.304 245.13 34.32V26.576ZM254.026 24.832V30.672H251.994V25.152H250.762V38.448H251.994V31.76H254.026V39.168H255.29V24.832H254.026ZM266.616 31.376C264.504 30.72 263 29.04 263 27.152V26.832H266.248V25.76H258.376V26.832H261.656V27.152C261.656 29.12 260.184 30.912 258.008 31.6L258.68 32.64C260.392 32.048 261.72 30.8 262.344 29.216C263 30.704 264.328 31.856 265.976 32.384L266.616 31.376ZM268.312 37.92H261.656V36.064H268.312V37.92ZM268.312 35.04H261.656V33.296H260.36V38.992H269.608V33.296H268.312V35.04ZM268.296 24.832V32.608H269.608V24.832H268.296ZM274.407 27.328H278.423V34.48H274.407V27.328ZM273.127 35.536H279.703V26.272H273.127V35.536ZM285.959 30.56H283.591V24.848H282.279V39.184H283.591V31.664H285.959V30.56ZM297.766 35.392H299.094V24.848H297.766V27.264H294.982V28.32H297.766V30.464H294.982V31.536H297.766V35.392ZM294.87 32.032C293.158 32.336 291.718 32.4 289.158 32.4V30.048H294.022V25.856H287.83V26.912H292.71V29.024H287.862V33.472H288.902C291.67 33.472 293.174 33.424 294.998 33.104L294.87 32.032ZM291.11 37.744V34.624H289.798V38.8H299.526V37.744H291.11ZM305.237 34.816C304.085 34.816 303.365 33.36 303.365 31.008C303.365 28.704 304.085 27.248 305.237 27.248C306.357 27.248 307.093 28.704 307.093 31.008C307.093 33.36 306.357 34.816 305.237 34.816ZM310.085 30.416H308.277C308.117 27.712 306.965 26.032 305.237 26.032C303.365 26.032 302.165 27.952 302.165 31.008C302.165 34.112 303.365 36.032 305.237 36.032C306.997 36.032 308.165 34.304 308.277 31.488H310.085V38.48H311.333V25.152H310.085V30.416ZM312.933 24.832V39.184H314.181V24.832H312.933ZM331.578 33.328H332.906V24.848H331.578V27.888H328.458V28.96H331.578V33.328ZM329.498 31.632C327.402 30.896 326.01 29.12 326.01 27.072V25.648H324.698V27.12C324.698 29.312 323.274 31.232 321.066 32.016L321.754 33.088C323.482 32.432 324.778 31.136 325.386 29.44C326.01 30.928 327.226 32.064 328.794 32.656L329.498 31.632ZM328.17 38.128C326.01 38.128 324.698 37.504 324.698 36.464C324.698 35.408 326.01 34.784 328.17 34.784C330.33 34.784 331.642 35.408 331.642 36.464C331.642 37.504 330.33 38.128 328.17 38.128ZM328.17 33.76C325.226 33.76 323.386 34.736 323.386 36.464C323.386 38.176 325.226 39.168 328.17 39.168C331.114 39.168 332.954 38.176 332.954 36.464C332.954 34.736 331.114 33.76 328.17 33.76ZM34.88 50.784C34.88 51.904 34.88 52.96 34.496 54.432L35.776 54.576C36.176 53.104 36.176 51.936 36.176 50.784V49.568H26.4V50.624H34.88V50.784ZM31.28 62.144C29.04 62.144 27.6 61.536 27.6 60.544C27.6 59.52 29.04 58.912 31.28 58.912C33.536 58.912 34.976 59.52 34.976 60.544C34.976 61.536 33.536 62.144 31.28 62.144ZM31.28 57.904C28.224 57.904 26.288 58.88 26.288 60.544C26.288 62.176 28.224 63.168 31.28 63.168C34.336 63.168 36.288 62.176 36.288 60.544C36.288 58.88 34.336 57.904 31.28 57.904ZM31.488 55.52V52.768H30.176V55.52H24.88V56.576H37.792V55.52H31.488ZM48.0788 50.144H44.4948V48.688H43.1828V50.144H39.6148V51.152H48.0788V50.144ZM41.6628 54.144C41.6628 53.28 42.5108 52.768 43.8388 52.768C45.1668 52.768 46.0308 53.28 46.0308 54.144C46.0308 54.992 45.1668 55.52 43.8388 55.52C42.5108 55.52 41.6628 54.992 41.6628 54.144ZM47.2788 54.144C47.2788 52.688 45.9188 51.792 43.8388 51.792C41.7748 51.792 40.4148 52.688 40.4148 54.144C40.4148 55.6 41.7748 56.496 43.8388 56.496C45.9188 56.496 47.2788 55.6 47.2788 54.144ZM42.9108 60.64H50.7028V57.456H41.5828V58.432H49.4068V59.68H41.6308V63.024H51.2308V62.016H42.9108V60.64ZM50.7028 52.24V48.784H49.3908V56.72H50.7028V53.328H52.8308V52.24H50.7028ZM71.0125 54.304C68.4045 53.92 65.8445 52.144 65.8445 50.144V49.344H64.4685V50.144C64.4685 52.192 61.9405 53.92 59.3325 54.304L59.8605 55.36C62.1005 54.976 64.2605 53.744 65.1565 52C66.0845 53.728 68.2445 54.976 70.4685 55.36L71.0125 54.304ZM71.6365 56.912H58.6765V58H64.4685V63.2H65.7805V58H71.6525L71.6365 56.912ZM89.5303 48.848H88.2183V57.04H89.5303V48.848ZM81.8183 50.768C83.2423 50.768 84.2983 51.712 84.2983 53.024C84.2983 54.352 83.2423 55.28 81.8183 55.28C80.3943 55.28 79.3703 54.352 79.3703 53.024C79.3703 51.712 80.3943 50.768 81.8183 50.768ZM81.8183 56.368C83.9943 56.368 85.5783 55.008 85.5783 53.024C85.5783 51.04 83.9943 49.68 81.8183 49.68C79.6583 49.68 78.0903 51.04 78.0903 53.024C78.0903 55.008 79.6583 56.368 81.8183 56.368ZM87.9303 57.664H86.6503V58.432C86.6503 59.552 85.9623 60.992 84.5863 61.84C83.2583 61.056 82.6023 59.696 82.6023 58.432V57.664H81.3383V58.432C81.3383 59.808 80.2663 61.36 78.4583 62L79.1143 62.992C80.4583 62.48 81.4343 61.488 81.9463 60.336C82.3783 61.536 83.2423 62.576 84.6183 63.12C85.9462 62.544 86.8263 61.456 87.2743 60.288C87.7543 61.488 88.7463 62.48 90.1543 62.992L90.8103 62C88.9863 61.392 87.9303 59.92 87.9303 58.432V57.664ZM93.321 50.384V51.44H98.713C98.441 54.848 96.521 57.6 92.665 59.44L93.369 60.512C98.137 58.176 100.041 54.528 100.041 50.384H93.321ZM102.937 48.832V63.184H104.249V48.832H102.937ZM117.24 51.344H108.856V54.416H118.792V53.472H110.152V52.24H118.536V49.248H108.824V50.176H117.24V51.344ZM110.072 60.72H118.584V57.664H108.744V58.608H117.288V59.808H108.776V62.992H119.032V62.048H110.072V60.72ZM107.192 55.504V56.496H120.2V55.504H107.192ZM132.254 58.656H128.158V54.88H132.254V58.656ZM132.254 53.84H128.158V50.048H126.862V59.728H133.534V50.048H132.254V53.84ZM139.694 54.48H137.326V48.848H136.014V63.168H137.326V55.584H139.694V54.48ZM142.876 55.312H148.044V50.16H141.548V51.232H146.748V54.24H141.596V59.728H142.732C145.468 59.728 147.388 59.616 149.628 59.216L149.484 58.128C147.34 58.544 145.484 58.64 142.876 58.64V55.312ZM154.412 54.528H152.06V48.816H150.748V63.2H152.06V55.632H154.412V54.528ZM158.251 53.536C158.251 51.888 159.931 50.816 162.219 50.816C164.507 50.816 166.171 51.888 166.171 53.536C166.171 55.184 164.507 56.256 162.219 56.256C159.931 56.256 158.251 55.184 158.251 53.536ZM162.875 60.256V57.264C165.547 57.072 167.419 55.648 167.419 53.536C167.419 51.248 165.243 49.776 162.219 49.776C159.179 49.776 156.987 51.248 156.987 53.536C156.987 55.648 158.875 57.072 161.547 57.264V60.256H155.707V61.344H168.747V60.256H162.875ZM172.117 62.1172C172.766 62.1172 173.258 61.6172 173.258 60.9844C173.258 60.3438 172.766 59.8438 172.117 59.8438C171.469 59.8438 170.969 60.3438 170.969 60.9844C170.969 61.6172 171.469 62.1172 172.117 62.1172Z" fill="black"/>
</svg>
