<svg width="365" height="64" viewBox="0 0 365 64" fill="none" xmlns="http://www.w3.org/2000/svg">
<path d="M0 0H353C359.627 0 365 5.37258 365 12V52C365 58.6274 359.627 64 353 64H12C5.37259 64 0 58.6274 0 52V0Z" fill="#F4F1FF"/>
<path d="M29.808 28.368H32.992V27.312H29.808V25.088H28.496V27.312H25.264V28.368H28.512V29.472C28.512 31.952 26.976 34.4 24.864 35.408L25.6 36.416C27.232 35.616 28.56 33.952 29.168 31.952C29.808 33.84 31.136 35.392 32.768 36.144L33.488 35.136C31.376 34.192 29.808 31.856 29.808 29.472V28.368ZM35.36 24.816V30.592H32.256V31.664H35.36V39.216H36.672V24.816H35.36ZM46.0468 25.152C42.9427 25.152 41.0068 26.16 41.0068 27.872C41.0068 29.568 42.9427 30.576 46.0468 30.576C49.1508 30.576 51.0868 29.568 51.0868 27.872C51.0868 26.16 49.1508 25.152 46.0468 25.152ZM46.0468 26.192C48.3188 26.192 49.7428 26.816 49.7428 27.872C49.7428 28.928 48.3188 29.552 46.0468 29.552C43.7748 29.552 42.3508 28.928 42.3508 27.872C42.3508 26.816 43.7748 26.192 46.0468 26.192ZM41.1668 34.272V38.992H50.9588V34.272H41.1668ZM49.6788 35.312V37.936H42.4468V35.312H49.6788ZM39.5668 31.808V32.864H52.5428V31.808H39.5668ZM57.5335 34.816C56.3815 34.816 55.6615 33.36 55.6615 31.008C55.6615 28.704 56.3815 27.248 57.5335 27.248C58.6535 27.248 59.3895 28.704 59.3895 31.008C59.3895 33.36 58.6535 34.816 57.5335 34.816ZM62.3815 30.416H60.5735C60.4135 27.712 59.2615 26.032 57.5335 26.032C55.6615 26.032 54.4615 27.952 54.4615 31.008C54.4615 34.112 55.6615 36.032 57.5335 36.032C59.2935 36.032 60.4615 34.304 60.5735 31.488H62.3815V38.48H63.6295V25.152H62.3815V30.416ZM65.2295 24.832V39.184H66.4775V24.832H65.2295ZM80.5083 29.152H72.0603V25.36H70.7483V30.224H80.5083V29.152ZM71.9643 34.64H70.6523V38.832H80.5883V37.76H71.9643V34.64ZM68.9883 32.144V33.2H81.9963V32.144H68.9883ZM94.066 34.656H89.97V30.88H94.066V34.656ZM94.066 29.84H89.97V26.048H88.674V35.728H95.346V26.048H94.066V29.84ZM101.506 30.48H99.138V24.848H97.826V39.168H99.138V31.584H101.506V30.48ZM106.065 34.816C104.913 34.816 104.193 33.36 104.193 31.008C104.193 28.704 104.913 27.248 106.065 27.248C107.185 27.248 107.921 28.704 107.921 31.008C107.921 33.36 107.185 34.816 106.065 34.816ZM110.913 30.416H109.105C108.945 27.712 107.793 26.032 106.065 26.032C104.193 26.032 102.993 27.952 102.993 31.008C102.993 34.112 104.193 36.032 106.065 36.032C107.825 36.032 108.993 34.304 109.105 31.488H110.913V38.48H112.161V25.152H110.913V30.416ZM113.761 24.832V39.184H115.009V24.832H113.761ZM129.095 31.632C127.239 30.896 126.183 29.232 126.183 27.616V25.68H124.919V27.616C124.919 29.248 123.799 31.136 121.927 31.984L122.631 32.992C124.023 32.368 125.047 31.152 125.559 29.792C126.071 31.024 127.063 32.08 128.391 32.624L129.095 31.632ZM124.375 35.36H132.711V39.184H134.023V34.304H124.375V35.36ZM132.759 24.848V28.576H130.935V25.088H129.687V33.424H130.935V29.648H132.759V33.52H134.023V24.848H132.759ZM141.685 32.256C143.989 30.528 144.869 28.464 144.869 25.632H141.397V26.704H143.621C143.429 28.752 142.597 30.208 140.773 31.488L141.685 32.256ZM137.013 25.632V26.704H139.557C139.317 28.608 138.325 29.728 136.693 30.784L137.557 31.616C139.733 30.128 140.821 28.432 140.821 25.632H137.013ZM139.941 36.352H147.781V32.832H138.613V33.872H146.485V35.36H138.645V38.992H148.341V37.952H139.941V36.352ZM147.781 27.968V24.832H146.469V32.16H147.781V29.056H149.893V27.968H147.781ZM161.78 24.832V39.216H163.092V24.832H161.78ZM155.524 25.936C153.396 25.936 151.876 27.888 151.876 30.944C151.876 34 153.396 35.952 155.524 35.952C157.652 35.952 159.172 34 159.172 30.944C159.172 27.888 157.652 25.936 155.524 25.936ZM155.524 27.12C156.916 27.12 157.908 28.624 157.908 30.944C157.908 33.28 156.916 34.784 155.524 34.784C154.116 34.784 153.124 33.28 153.124 30.944C153.124 28.624 154.116 27.12 155.524 27.12ZM175.834 37.968H173.306V36.032H175.834V37.968ZM175.834 35.056H173.306V33.248H172.074V38.992H177.05V33.248H175.834V35.056ZM174.362 30.992C172.938 30.992 171.914 30.064 171.914 28.768C171.914 27.472 172.938 26.56 174.362 26.56C175.786 26.56 176.81 27.472 176.81 28.768C176.81 30.064 175.786 30.992 174.362 30.992ZM180.938 29.28V32.432H182.266V24.848H180.938V28.208H178.01C177.738 26.56 176.298 25.472 174.362 25.472C172.218 25.472 170.666 26.8 170.666 28.768C170.666 30.736 172.218 32.08 174.362 32.08C176.33 32.08 177.77 30.96 178.026 29.28H180.938ZM181.114 33.152H179.834V34.368C179.834 35.84 178.938 37.392 177.226 38.128L177.898 39.12C179.146 38.576 180.01 37.584 180.474 36.416C180.906 37.6 181.77 38.576 183.066 39.12L183.722 38.128C182.01 37.456 181.114 35.888 181.114 34.368V33.152ZM196.937 24.848H195.625V33.04H196.937V24.848ZM189.225 26.768C190.649 26.768 191.705 27.712 191.705 29.024C191.705 30.352 190.649 31.28 189.225 31.28C187.801 31.28 186.777 30.352 186.777 29.024C186.777 27.712 187.801 26.768 189.225 26.768ZM189.225 32.368C191.401 32.368 192.985 31.008 192.985 29.024C192.985 27.04 191.401 25.68 189.225 25.68C187.065 25.68 185.497 27.04 185.497 29.024C185.497 31.008 187.065 32.368 189.225 32.368ZM195.337 33.664H194.057V34.432C194.057 35.552 193.369 36.992 191.993 37.84C190.665 37.056 190.009 35.696 190.009 34.432V33.664H188.745V34.432C188.745 35.808 187.673 37.36 185.865 38L186.521 38.992C187.865 38.48 188.841 37.488 189.353 36.336C189.785 37.536 190.649 38.576 192.025 39.12C193.352 38.544 194.233 37.456 194.681 36.288C195.161 37.488 196.153 38.48 197.561 38.992L198.217 38C196.393 37.392 195.337 35.92 195.337 34.432V33.664ZM206.343 28.816V29.872H210.375V35.312H211.703V24.848H210.375V28.816H206.343ZM208.071 31.664C206.167 32.032 204.519 32.128 202.007 32.128V27.088H207.271V26.016H200.695V33.2H201.783C204.471 33.2 206.167 33.104 208.215 32.736L208.071 31.664ZM203.815 37.888V34.544H202.503V38.96H212.071V37.888H203.815ZM215.222 26.384V27.44H220.454C220.214 30.8 218.438 33.536 214.582 35.424L215.302 36.448C220.07 34.096 221.766 30.464 221.766 26.384H215.222ZM225.094 24.848V30.592H221.734V31.664H225.094V39.184H226.406V24.848H225.094ZM234.54 26.384V27.44H239.932C239.66 30.848 237.74 33.6 233.884 35.44L234.588 36.512C239.356 34.176 241.26 30.528 241.26 26.384H234.54ZM244.156 24.832V39.184H245.468V24.832H244.156ZM250.635 35.152H258.907V39.2H260.235V34.096H250.635V35.152ZM252.331 31.424C250.923 31.424 249.883 30.448 249.883 29.072C249.883 27.728 250.923 26.752 252.331 26.752C253.723 26.752 254.779 27.728 254.779 29.072C254.779 30.448 253.723 31.424 252.331 31.424ZM258.907 24.848V28.528H255.963C255.723 26.8 254.251 25.632 252.331 25.632C250.203 25.632 248.635 27.056 248.635 29.072C248.635 31.12 250.203 32.544 252.331 32.544C254.267 32.544 255.739 31.36 255.979 29.6H258.907V33.296H260.235V24.848H258.907ZM267.337 34.896C266.041 34.896 265.097 33.968 265.097 32.688C265.097 31.392 266.041 30.464 267.337 30.464C268.649 30.464 269.593 31.392 269.593 32.688C269.593 33.968 268.649 34.896 267.337 34.896ZM267.337 29.376C265.321 29.376 263.865 30.752 263.865 32.688C263.865 34.64 265.321 35.984 267.337 35.984C269.385 35.984 270.841 34.64 270.841 32.688C270.841 30.752 269.385 29.376 267.337 29.376ZM267.977 25.008H266.665V27.136H263.049V28.192H271.513V27.136H267.977V25.008ZM276.537 30.736H274.185V24.848H272.873V39.184H274.185V31.84H276.537V30.736ZM282.936 26.08H281.64V28.656C281.64 31.376 279.896 34.128 277.784 35.136L278.584 36.208C280.264 35.344 281.64 33.552 282.296 31.392C282.984 33.44 284.36 35.136 285.992 35.936L286.776 34.88C284.648 33.92 282.936 31.28 282.936 28.656V26.08ZM288.28 24.832V39.216H289.592V24.832H288.28ZM295.095 29.536C295.095 27.888 296.775 26.816 299.063 26.816C301.351 26.816 303.015 27.888 303.015 29.536C303.015 31.184 301.351 32.256 299.063 32.256C296.775 32.256 295.095 31.184 295.095 29.536ZM299.719 36.256V33.264C302.391 33.072 304.263 31.648 304.263 29.536C304.263 27.248 302.087 25.776 299.063 25.776C296.023 25.776 293.831 27.248 293.831 29.536C293.831 31.648 295.719 33.072 298.391 33.264V36.256H292.551V37.344H305.591V36.256H299.719ZM309.5 34.5H311.117V34.0234C311.117 33.2188 311.406 32.8047 312.414 32.2109C313.445 31.5938 314.055 30.7422 314.055 29.5391V29.5234C314.055 27.8594 312.664 26.6328 310.602 26.6328C308.336 26.6328 307.125 27.9766 307.055 29.7422V29.7578L308.664 29.75H308.68C308.742 28.7188 309.438 28.0703 310.516 28.0703C311.586 28.0703 312.281 28.7188 312.281 29.5938V29.6094C312.281 30.4062 311.945 30.8594 311 31.4297C309.93 32.0703 309.453 32.7734 309.492 33.875L309.5 34.5ZM310.406 38.1719C311.125 38.1719 311.609 37.7031 311.609 37.0078C311.609 36.3047 311.125 35.8359 310.406 35.8359C309.688 35.8359 309.195 36.3047 309.195 37.0078C309.195 37.7031 309.688 38.1719 310.406 38.1719Z" fill="black"/>
</svg>
