<svg width="365" height="88" viewBox="0 0 365 88" fill="none" xmlns="http://www.w3.org/2000/svg">
<path d="M0 12C0 5.37258 5.37258 0 12 0H365V76C365 82.6274 359.627 88 353 88H12C5.37259 88 0 82.6274 0 76V12Z" fill="#F4F1FF"/>
<path d="M32.464 28.8V29.872H35.344V35.36H36.672V24.848H35.344V28.8H32.464ZM33.312 32.176C31.232 31.44 29.824 29.648 29.824 27.776V27.072H32.976V26H25.312V27.072H28.512V27.792C28.512 29.824 27.024 31.728 24.896 32.496L25.584 33.52C27.264 32.912 28.576 31.584 29.2 29.952C29.824 31.424 31.056 32.624 32.656 33.2L33.312 32.176ZM28.816 37.792V34.432H27.488V38.864H37.072V37.792H28.816ZM43.7428 28.56H46.3988V27.472H43.7588V25.344H42.4948V27.472H39.8388V28.56H42.4948V29.248C42.4948 31.6 41.3908 34.112 39.4548 35.264L40.2228 36.24C41.6308 35.392 42.6388 33.792 43.1348 31.968C43.6628 33.696 44.6868 35.152 46.0788 35.936L46.8308 34.944C44.8948 33.904 43.7428 31.536 43.7428 29.248V28.56ZM47.6148 30.496H45.4228V31.584H47.6148V38.432H48.8628V25.168H47.6148V30.496ZM50.4948 24.832V39.168H51.7588V24.832H50.4948ZM57.1175 29.488H64.4455V32.128H57.1175V29.488ZM61.4375 36.272V33.184H65.7255V25.856H64.4455V28.416H57.1175V25.856H55.8215V33.184H60.1095V36.272H54.2855V37.344H67.2935V36.272H61.4375ZM69.8523 26.384V27.44H75.2443C74.9723 30.848 73.0523 33.6 69.1963 35.44L69.9003 36.512C74.6683 34.176 76.5723 30.528 76.5723 26.384H69.8523ZM79.4683 24.832V39.184H80.7803V24.832H79.4683ZM93.771 27.344H85.387V30.416H95.323V29.472H86.683V28.24H95.067V25.248H85.355V26.176H93.771V27.344ZM86.603 36.72H95.115V33.664H85.275V34.608H93.819V35.808H85.307V38.992H95.563V38.048H86.603V36.72ZM83.723 31.504V32.496H96.731V31.504H83.723ZM114.337 29.648H105.809V25.568H104.481V30.72H114.337V29.648ZM115.841 32.88H102.801V33.952H108.625V39.184H109.937V33.952H115.841V32.88ZM127.664 29.216H119.152V33.68H129.28V32.608H120.448V30.272H128.944V25.936H119.12V26.992H127.664V29.216ZM117.52 36.288V37.376H130.56V36.288H117.52ZM138.174 31.744H134.206V27.136H138.174V31.744ZM142.75 28.432V30.432H139.454V28.432H142.75ZM139.454 31.504H142.75V35.312H144.078V24.848H142.75V27.36H139.454V26.096H132.91V32.784H139.454V31.504ZM136.158 37.792V34.384H134.846V38.864H144.414V37.792H136.158ZM154.148 27.072H161.492V31.728H154.148V27.072ZM158.5 36.256V32.768H162.772V26.032H152.884V32.768H157.172V36.256H151.348V37.344H164.356V36.256H158.5ZM177.555 29.44H169.011V26.512H177.427V25.44H167.699V30.496H177.555V29.44ZM169.043 34.656H167.731V38.848H177.683V37.776H169.043V34.656ZM166.067 32.08V33.136H179.043V32.08H166.067ZM193.465 31.12C191.593 31.488 189.961 31.6 187.129 31.6V27.136H192.169V26.08H185.817V32.672H186.937C189.945 32.672 191.641 32.576 193.609 32.176L193.465 31.12ZM188.681 34.176H187.369V38.864H196.937V37.792H188.681V34.176ZM196.297 29.088V24.832H194.985V35.216H196.297V30.176H198.425V29.088H196.297ZM207.943 28.832H205.815C205.943 28.112 206.007 27.392 206.007 26.656H200.503V27.728H204.711C204.487 30.736 202.951 33.312 199.863 35.152L200.631 36.08C203.351 34.464 204.903 32.304 205.575 29.888H207.943V32.416H205.351V33.488H207.943V38.448H209.191V25.216H207.943V28.832ZM210.823 24.832V39.168H212.071V24.832H210.823ZM219.254 25.888C217.03 25.888 215.414 27.248 215.414 29.264C215.414 31.264 217.03 32.64 219.254 32.64C221.494 32.64 223.094 31.264 223.094 29.264C223.094 27.248 221.494 25.888 219.254 25.888ZM219.254 27.008C220.742 27.008 221.814 27.92 221.814 29.264C221.814 30.592 220.742 31.52 219.254 31.52C217.782 31.52 216.694 30.592 216.694 29.264C216.694 27.92 217.782 27.008 219.254 27.008ZM224.982 24.832V39.216H226.294V24.832H224.982ZM214.854 36.064C217.446 36.064 220.918 36.032 224.15 35.44L224.038 34.464C220.902 34.944 217.302 34.96 214.694 34.96L214.854 36.064ZM237.868 28.56H240.524V27.472H237.884V25.344H236.62V27.472H233.964V28.56H236.62V29.248C236.62 31.6 235.516 34.112 233.58 35.264L234.348 36.24C235.756 35.392 236.764 33.792 237.26 31.968C237.788 33.696 238.812 35.152 240.204 35.936L240.956 34.944C239.02 33.904 237.868 31.536 237.868 29.248V28.56ZM241.74 30.496H239.548V31.584H241.74V38.432H242.988V25.168H241.74V30.496ZM244.62 24.832V39.168H245.884V24.832H244.62ZM249.595 30.656L249.787 31.744L258.443 31.264C258.363 32.368 258.203 33.552 257.883 34.928L259.179 35.056C259.803 32.112 259.803 30.176 259.803 28.048V26.288H249.963V27.36H258.523V28.048C258.523 28.784 258.523 29.52 258.491 30.272L249.595 30.656ZM248.427 36.112V37.184H261.403V36.112H248.427ZM265.273 31.28H270.569V26.16H263.913V27.232H269.241V30.224H263.961V35.728H265.145C267.609 35.728 269.785 35.632 272.377 35.2L272.249 34.128C269.737 34.528 267.625 34.64 265.273 34.64V31.28ZM273.593 24.816V39.2H274.905V24.816H273.593ZM290.216 32.048C287.704 31.568 284.984 29.392 284.984 26.944V25.84H283.608V26.944C283.608 29.392 280.904 31.552 278.392 32.048L278.984 33.136C281.144 32.624 283.384 31.088 284.296 28.992C285.208 31.104 287.448 32.64 289.624 33.136L290.216 32.048ZM277.848 36.176V37.264H290.856V36.176H277.848ZM304.087 32.576H295.559V30.304H303.623V29.264H295.559V27.136H303.943V26.08H294.231V33.632H304.087V32.576ZM292.551 36.256V37.328H305.575V36.256H292.551ZM308.054 26.368V27.456H313.318C313.014 30.848 311.046 33.6 307.382 35.44L308.102 36.464C312.742 34.144 314.614 30.448 314.614 26.368H308.054ZM320.63 30.656H318.326V24.832H317.014V39.184H318.326V31.744H320.63V30.656ZM334.891 26.592H331.307V24.832H329.995V26.592H326.427V27.648H334.891V26.592ZM328.475 31.104C328.475 30.112 329.355 29.472 330.651 29.472C331.947 29.472 332.843 30.112 332.843 31.104C332.843 32.112 331.947 32.752 330.651 32.752C329.355 32.752 328.475 32.112 328.475 31.104ZM334.091 31.104C334.091 29.504 332.683 28.448 330.651 28.448C328.619 28.448 327.227 29.504 327.227 31.104C327.227 32.72 328.619 33.776 330.651 33.776C332.683 33.776 334.091 32.72 334.091 31.104ZM329.899 34.752H328.587V38.864H338.155V37.792H329.899V34.752ZM337.515 29.568V24.832H336.203V35.6H337.515V30.672H339.627V29.568H337.515ZM36.352 53.2H27.92V49.376H26.624V54.24H36.352V53.2ZM27.808 58.672H26.496V62.864H36.448V61.792H27.808V58.672ZM24.848 55.936V56.992H30.784V59.936H32.096V56.992H37.824V55.936H24.848ZM42.8148 58.816C41.6628 58.816 40.9428 57.36 40.9428 55.008C40.9428 52.704 41.6628 51.248 42.8148 51.248C43.9348 51.248 44.6708 52.704 44.6708 55.008C44.6708 57.36 43.9348 58.816 42.8148 58.816ZM47.6628 54.416H45.8548C45.6948 51.712 44.5428 50.032 42.8148 50.032C40.9428 50.032 39.7428 51.952 39.7428 55.008C39.7428 58.112 40.9428 60.032 42.8148 60.032C44.5748 60.032 45.7428 58.304 45.8548 55.488H47.6628V62.48H48.9108V49.152H47.6628V54.416ZM50.5108 48.832V63.184H51.7588V48.832H50.5108ZM61.4925 53.488H68.8205V56.128H61.4925V53.488ZM65.8125 60.272V57.184H70.1005V49.856H68.8205V52.416H61.4925V49.856H60.1965V57.184H64.4845V60.272H58.6605V61.344H71.6685V60.272H65.8125ZM85.1553 48.848H83.8433V59.328H85.1553V48.848ZM74.9953 53.36C74.9953 51.968 76.0513 50.976 77.4433 50.976C78.8673 50.976 79.9233 51.968 79.9233 53.36C79.9233 54.784 78.8673 55.776 77.4433 55.776C76.0513 55.776 74.9953 54.784 74.9953 53.36ZM81.2033 53.36C81.2033 51.296 79.5873 49.84 77.4433 49.84C75.3153 49.84 73.7153 51.296 73.7153 53.36C73.7153 55.44 75.3153 56.912 77.4433 56.912C79.5873 56.912 81.2033 55.44 81.2033 53.36ZM77.2352 61.792V58.256H75.9233V62.864H85.5873V61.792H77.2352ZM90.018 51.296H95.378V50.208H88.706V59.632H89.842C92.546 59.632 94.434 59.536 96.626 59.12L96.482 58.032C94.402 58.4 92.562 58.512 90.018 58.512V51.296ZM101.506 54.496H99.138V48.832H97.826V63.216H99.138V55.584H101.506V54.496ZM114.321 53.152H105.873V49.36H104.561V54.224H114.321V53.152ZM105.777 58.64H104.465V62.832H114.401V61.76H105.777V58.64ZM102.801 56.144V57.2H115.809V56.144H102.801ZM132.407 58.544H133.735V48.848H132.407V52.88H129.319V53.952H132.407V58.544ZM122.839 49.968V51.04H127.863C127.607 53.568 125.543 55.52 122.151 56.592L122.727 57.632C126.823 56.304 129.271 53.664 129.271 49.968H122.839ZM129.751 57.296H128.439V57.952C128.439 60.048 126.199 61.648 123.639 62.096L124.167 63.136C126.311 62.72 128.247 61.584 129.095 59.904C129.943 61.552 131.863 62.688 133.975 63.104L134.503 62.08C131.975 61.6 129.751 60.016 129.751 57.952V57.296ZM143.781 60.288V56.608H148.149V55.552H139.589V51.056H148.005V49.984H138.277V56.608H142.453V60.288H136.613V61.376H149.653V60.288H143.781ZM157.275 52.528C157.275 51.296 158.299 50.4 159.691 50.4C161.099 50.4 162.123 51.296 162.123 52.528C162.123 53.792 161.099 54.672 159.691 54.672C158.299 54.672 157.275 53.792 157.275 52.528ZM163.403 52.528C163.403 50.656 161.851 49.344 159.691 49.344C157.547 49.344 155.995 50.656 155.995 52.528C155.995 54.432 157.547 55.744 159.691 55.744C161.851 55.744 163.403 54.432 163.403 52.528ZM159.067 60.336H166.859V56.816H157.739V57.856H165.563V59.36H157.787V62.992H167.387V61.936H159.067V60.336ZM166.859 51.92V48.832H165.547V56.144H166.859V53.008H168.987V51.92H166.859ZM174.266 58.784C172.874 58.784 171.898 57.28 171.898 54.944C171.898 52.624 172.874 51.12 174.266 51.12C175.642 51.12 176.618 52.624 176.618 54.944C176.618 57.28 175.642 58.784 174.266 58.784ZM174.266 49.936C172.154 49.936 170.65 51.888 170.65 54.944C170.65 58 172.154 59.952 174.266 59.952C176.378 59.952 177.866 58 177.866 54.944C177.866 51.888 176.378 49.936 174.266 49.936ZM183.85 54.56H181.482V48.848H180.17V63.184H181.482V55.664H183.85V54.56ZM196.537 54.176H188.281V50.752H196.361V49.68H186.937V55.232H196.537V54.176ZM198.169 57.104H185.161V58.176H190.969V63.12H192.281V58.176H198.169V57.104ZM201.751 55.312H206.919V50.16H200.423V51.232H205.623V54.24H200.471V59.728H201.607C204.343 59.728 206.263 59.616 208.503 59.216L208.359 58.128C206.215 58.544 204.359 58.64 201.751 58.64V55.312ZM213.287 54.528H210.935V48.816H209.623V63.2H210.935V55.632H213.287V54.528ZM221.078 62.16C218.822 62.16 217.494 61.6 217.494 60.608C217.494 59.632 218.822 59.056 221.078 59.056C223.334 59.056 224.662 59.632 224.662 60.608C224.662 61.6 223.334 62.16 221.078 62.16ZM221.078 58.048C218.022 58.048 216.166 58.96 216.166 60.608C216.166 62.256 218.022 63.168 221.078 63.168C224.15 63.168 225.99 62.256 225.99 60.608C225.99 58.96 224.15 58.048 221.078 58.048ZM217.382 51.84C217.382 50.784 218.806 50.16 221.078 50.16C223.35 50.16 224.774 50.784 224.774 51.84C224.774 52.896 223.35 53.52 221.078 53.52C218.806 53.52 217.382 52.896 217.382 51.84ZM221.734 55.888V54.528C224.438 54.384 226.118 53.408 226.118 51.84C226.118 50.128 224.182 49.12 221.078 49.12C217.974 49.12 216.038 50.128 216.038 51.84C216.038 53.408 217.702 54.384 220.422 54.528V55.888H214.598V56.944H227.558V55.888H221.734ZM230.992 62.1172C231.641 62.1172 232.133 61.6172 232.133 60.9844C232.133 60.3438 231.641 59.8438 230.992 59.8438C230.344 59.8438 229.844 60.3438 229.844 60.9844C229.844 61.6172 230.344 62.1172 230.992 62.1172Z" fill="black"/>
</svg>
