<svg width="365" height="112" viewBox="0 0 365 112" fill="none" xmlns="http://www.w3.org/2000/svg">
<path d="M0 0H353C359.627 0 365 5.37258 365 12V100C365 106.627 359.627 112 353 112H12C5.37259 112 0 106.627 0 100V0Z" fill="#F4F1FF"/>
<path d="M29.344 32.88C29.936 33.024 30.624 33.104 31.328 33.104C32.048 33.104 32.736 33.024 33.344 32.88V36.256H29.344V32.88ZM31.328 26.768C33.632 26.768 35.296 27.824 35.296 29.424C35.296 31.024 33.632 32.08 31.328 32.08C29.024 32.08 27.376 31.024 27.376 29.424C27.376 27.824 29.024 26.768 31.328 26.768ZM34.656 36.256V32.368C35.84 31.744 36.544 30.72 36.544 29.424C36.544 27.184 34.384 25.744 31.328 25.744C28.288 25.744 26.112 27.184 26.112 29.424C26.112 30.72 26.832 31.76 28.032 32.384V36.256H24.832V37.344H37.872V36.256H34.656ZM40.7668 30.688C43.1188 30.4 45.2628 29.36 46.0628 27.792C46.8468 29.36 49.0068 30.4 51.3588 30.688L51.8228 29.648C49.2788 29.376 46.9588 28.128 46.9108 26.512H51.3748V25.456H40.7668V26.512H45.2148C45.1668 28.128 42.8468 29.376 40.3028 29.648L40.7668 30.688ZM42.4468 35.2H49.6788V37.936H42.4468V35.2ZM41.1668 38.992H50.9588V34.16H41.1668V38.992ZM39.5668 31.552V32.608H52.5428V31.552H39.5668ZM70.1805 32.576H61.6525V30.304H69.7165V29.264H61.6525V27.136H70.0365V26.08H60.3245V33.632H70.1805V32.576ZM58.6445 36.256V37.328H71.6685V36.256H58.6445ZM85.4913 24.848H84.2273V35.616H85.4913V24.848ZM81.4113 35.248H82.6593V25.104H81.4113V28.816H79.6513V29.888H81.4113V35.248ZM80.1793 31.936C78.5633 32.272 77.1553 32.336 75.3153 32.352V30.128H79.0913V26.016H74.0033V27.04H77.8113V29.136H74.0353V33.408H74.9633C77.0273 33.408 78.5153 33.328 80.3233 32.976L80.1793 31.936ZM77.4433 37.792V34.544H76.1313V38.864H85.9073V37.792H77.4433ZM99.602 31.712H91.042V27.232H99.458V26.144H89.746V32.784H99.602V31.712ZM88.082 36.16V37.248H101.106V36.16H88.082ZM106.065 34.816C104.913 34.816 104.193 33.36 104.193 31.008C104.193 28.704 104.913 27.248 106.065 27.248C107.185 27.248 107.921 28.704 107.921 31.008C107.921 33.36 107.185 34.816 106.065 34.816ZM110.913 30.416H109.105C108.945 27.712 107.793 26.032 106.065 26.032C104.193 26.032 102.993 27.952 102.993 31.008C102.993 34.112 104.193 36.032 106.065 36.032C107.825 36.032 108.993 34.304 109.105 31.488H110.913V38.48H112.161V25.152H110.913V30.416ZM113.761 24.832V39.184H115.009V24.832H113.761ZM127.815 30.896H123.783V26.848H127.815V30.896ZM129.095 25.808H122.503V31.952H129.095V25.808ZM133.287 34.928V33.872H123.911V34.928H127.911C127.751 36.464 125.719 37.776 123.351 38.128L123.831 39.136C125.959 38.8 127.799 37.776 128.615 36.32C129.431 37.76 131.271 38.8 133.351 39.152L133.847 38.144C131.511 37.776 129.447 36.432 129.286 34.928H133.287ZM133.047 28.272V24.832H131.735V33.024H133.047V29.36H135.175V28.272H133.047ZM137.717 31.824C139.413 31.392 140.677 30.416 141.269 29.152C141.877 30.32 143.125 31.216 144.741 31.6L145.301 30.592C143.301 30.144 141.909 28.928 141.909 27.488V27.456H144.965V26.416H141.893V24.864H140.565V26.416H137.445V27.456H140.565V27.488C140.565 29.024 139.173 30.32 137.157 30.816L137.717 31.824ZM146.005 32.256C142.885 32.704 139.253 32.736 136.565 32.736L136.741 33.84C137.893 33.84 139.173 33.824 140.533 33.776V38.752H141.845V33.712C143.253 33.632 144.693 33.488 146.101 33.248L146.005 32.256ZM147.109 24.848V34.88H143.877V35.904H147.109V39.2H148.421V24.848H147.109ZM164.507 31.376C162.395 30.72 160.891 29.04 160.891 27.152V26.832H164.139V25.76H156.267V26.832H159.547V27.152C159.547 29.12 158.075 30.912 155.899 31.6L156.571 32.64C158.283 32.048 159.611 30.8 160.235 29.216C160.891 30.704 162.219 31.856 163.867 32.384L164.507 31.376ZM166.203 37.92H159.547V36.064H166.203V37.92ZM166.203 35.04H159.547V33.296H158.251V38.992H167.499V33.296H166.203V35.04ZM166.187 24.832V32.608H167.499V24.832H166.187ZM176.922 26.064C179.274 26.064 180.618 26.608 180.618 27.568C180.618 28.528 179.274 29.072 176.922 29.072C174.57 29.072 173.226 28.528 173.226 27.568C173.226 26.608 174.57 26.064 176.922 26.064ZM176.922 30.048C180.074 30.048 181.962 29.184 181.962 27.568C181.962 25.952 180.074 25.072 176.922 25.072C173.77 25.072 171.882 25.952 171.882 27.568C171.882 29.184 173.77 30.048 176.922 30.048ZM173.322 36.544H181.754V33.312H171.994V34.304H180.458V35.584H172.042V39.024H182.186V38H173.322V36.544ZM170.426 31.024V32.08H183.418V31.024H170.426ZM192.512 34.72H191.2V38.864H201.072V37.792H192.512V34.72ZM192.32 28.128C192.32 26.992 193.76 26.32 196.032 26.32C198.272 26.32 199.712 26.992 199.712 28.128C199.712 29.264 198.272 29.92 196.032 29.92C193.76 29.92 192.32 29.264 192.32 28.128ZM196.688 32.464V30.96C199.36 30.816 201.056 29.776 201.056 28.128C201.056 26.336 199.088 25.264 196.032 25.264C192.944 25.264 190.976 26.336 190.976 28.128C190.976 29.792 192.672 30.816 195.376 30.96V32.464H189.536V33.536H202.496V32.464H196.688ZM206.126 31.312H211.294V26.16H204.798V27.232H209.998V30.24H204.846V35.728H205.982C208.718 35.728 210.638 35.616 212.878 35.216L212.734 34.128C210.59 34.544 208.734 34.64 206.126 34.64V31.312ZM217.662 30.528H215.31V24.816H213.998V39.2H215.31V31.632H217.662V30.528ZM230.749 24.848H229.437V35.328H230.749V24.848ZM220.589 29.36C220.589 27.968 221.645 26.976 223.037 26.976C224.461 26.976 225.517 27.968 225.517 29.36C225.517 30.784 224.461 31.776 223.037 31.776C221.645 31.776 220.589 30.784 220.589 29.36ZM226.797 29.36C226.797 27.296 225.181 25.84 223.037 25.84C220.909 25.84 219.309 27.296 219.309 29.36C219.309 31.44 220.909 32.912 223.037 32.912C225.181 32.912 226.797 31.44 226.797 29.36ZM222.829 37.792V34.256H221.517V38.864H231.181V37.792H222.829ZM240.172 25.728C237.196 25.728 234.956 27.312 234.956 29.696C234.956 32.096 237.196 33.664 240.172 33.664C243.148 33.664 245.388 32.096 245.388 29.696C245.388 27.312 243.148 25.728 240.172 25.728ZM240.172 26.8C242.444 26.8 244.14 27.968 244.14 29.696C244.14 31.44 242.444 32.592 240.172 32.592C237.916 32.592 236.204 31.44 236.204 29.696C236.204 27.968 237.916 26.8 240.172 26.8ZM233.676 36.192V37.28H246.716V36.192H233.676ZM255.562 36.336V33.632H260.155V32.576H251.323V30.256H259.819V25.888H249.995V26.96H258.539V29.2H250.027V33.632H254.235V36.336H248.395V37.408H261.435V36.336H255.562ZM269.056 28.528C269.056 27.296 270.08 26.4 271.472 26.4C272.88 26.4 273.904 27.296 273.904 28.528C273.904 29.792 272.88 30.672 271.472 30.672C270.08 30.672 269.056 29.792 269.056 28.528ZM275.184 28.528C275.184 26.656 273.632 25.344 271.472 25.344C269.328 25.344 267.776 26.656 267.776 28.528C267.776 30.432 269.328 31.744 271.472 31.744C273.632 31.744 275.184 30.432 275.184 28.528ZM270.848 36.336H278.64V32.816H269.52V33.856H277.344V35.36H269.568V38.992H279.168V37.936H270.848V36.336ZM278.64 27.92V24.832H277.328V32.144H278.64V29.008H280.768V27.92H278.64ZM286.047 34.784C284.655 34.784 283.679 33.28 283.679 30.944C283.679 28.624 284.655 27.12 286.047 27.12C287.423 27.12 288.399 28.624 288.399 30.944C288.399 33.28 287.423 34.784 286.047 34.784ZM286.047 25.936C283.935 25.936 282.431 27.888 282.431 30.944C282.431 34 283.935 35.952 286.047 35.952C288.159 35.952 289.647 34 289.647 30.944C289.647 27.888 288.159 25.936 286.047 25.936ZM295.631 30.56H293.263V24.848H291.951V39.184H293.263V31.664H295.631V30.56ZM299.822 36.624H308.254V33.424H298.494V34.416H306.958V35.664H298.542V39.024H308.686V38.016H299.822V36.624ZM299.95 27.408H306.926V28.784H299.95V27.408ZM304.078 31.168V29.792H308.222V25.056H306.926V26.416H299.95V25.056H298.654V29.792H302.766V31.168H296.926V32.224H309.918V31.168H304.078ZM317.668 27.712H319.54V26.64H316.468V35.44H317.044C317.636 35.44 318.564 35.44 319.748 35.168L319.62 34.08C318.884 34.256 318.196 34.32 317.668 34.336V27.712ZM321.348 27.712H323.316V26.64H320.148V35.44H320.74C321.572 35.44 322.548 35.424 323.732 35.12L323.62 34.032C322.788 34.256 322.004 34.32 321.348 34.352V27.712ZM327.156 24.832V30.688H325.476V25.152H324.26V38.464H325.476V31.76H327.156V39.168H328.404V24.832H327.156ZM330.828 40.9297H332.023L333.32 36.3438H331.516L330.828 40.9297ZM33.632 55.376C31.52 54.72 30.016 53.04 30.016 51.152V50.832H33.264V49.76H25.392V50.832H28.672V51.152C28.672 53.12 27.2 54.912 25.024 55.6L25.696 56.64C27.408 56.048 28.736 54.8 29.36 53.216C30.016 54.704 31.344 55.856 32.992 56.384L33.632 55.376ZM35.328 61.92H28.672V60.064H35.328V61.92ZM35.328 59.04H28.672V57.296H27.376V62.992H36.624V57.296H35.328V59.04ZM35.312 48.832V56.608H36.624V48.832H35.312ZM46.0468 50.064C48.3988 50.064 49.7428 50.608 49.7428 51.568C49.7428 52.528 48.3988 53.072 46.0468 53.072C43.6948 53.072 42.3508 52.528 42.3508 51.568C42.3508 50.608 43.6948 50.064 46.0468 50.064ZM46.0468 54.048C49.1988 54.048 51.0868 53.184 51.0868 51.568C51.0868 49.952 49.1988 49.072 46.0468 49.072C42.8948 49.072 41.0068 49.952 41.0068 51.568C41.0068 53.184 42.8948 54.048 46.0468 54.048ZM42.4468 60.544H50.8788V57.312H41.1188V58.304H49.5828V59.584H41.1668V63.024H51.3108V62H42.4468V60.544ZM39.5508 55.024V56.08H52.5428V55.024H39.5508ZM70.4205 48.848H69.1085V56.272H70.4205V48.848ZM67.3485 54.832C65.2205 54.128 63.7165 52.336 63.7165 50.352V49.264H62.4045V50.352C62.4045 52.432 60.9165 54.352 58.7565 55.104L59.4285 56.128C61.1245 55.52 62.4525 54.208 63.0765 52.56C63.7325 54.08 65.0445 55.28 66.6925 55.856L67.3485 54.832ZM62.4685 61.984V60.448H70.4365V56.992H61.1405V58.016H69.1405V59.456H61.1725V63.024H70.9165V61.984H62.4685ZM77.5873 51.584H80.1473V50.512H73.6033V51.584H76.3233V52.88C76.3233 55.52 75.2033 58.128 73.2033 59.328L74.0033 60.304C75.4273 59.408 76.4673 57.728 76.9633 55.76C77.4593 57.584 78.4513 59.12 79.8433 59.952L80.6433 58.992C78.6593 57.872 77.5873 55.376 77.5873 52.88V51.584ZM81.4273 53.984H79.0593V55.056H81.4273V62.432H82.6753V49.152H81.4273V53.984ZM84.3073 48.816V63.168H85.5713V48.816H84.3073ZM95.25 60.336V57.632H99.842V56.576H91.01V54.256H99.506V49.888H89.682V50.96H98.226V53.2H89.714V57.632H93.922V60.336H88.082V61.408H101.122V60.336H95.25ZM110.072 60.624H118.504V57.424H108.744V58.416H117.208V59.664H108.792V63.024H118.936V62.016H110.072V60.624ZM110.2 51.408H117.176V52.784H110.2V51.408ZM114.328 55.168V53.792H118.472V49.056H117.176V50.416H110.2V49.056H108.904V53.792H113.016V55.168H107.176V56.224H120.168V55.168H114.328ZM127.918 51.712H129.79V50.64H126.718V59.44H127.294C127.886 59.44 128.814 59.44 129.998 59.168L129.87 58.08C129.134 58.256 128.446 58.32 127.918 58.336V51.712ZM131.598 51.712H133.566V50.64H130.398V59.44H130.99C131.822 59.44 132.798 59.424 133.982 59.12L133.87 58.032C133.038 58.256 132.254 58.32 131.598 58.352V51.712ZM137.406 48.832V54.688H135.726V49.152H134.51V62.464H135.726V55.76H137.406V63.168H138.654V48.832H137.406ZM141.078 64.9297H142.273L143.57 60.3438H141.766L141.078 64.9297ZM159.21 55.376C157.098 54.72 155.594 53.04 155.594 51.152V50.832H158.842V49.76H150.97V50.832H154.25V51.152C154.25 53.12 152.778 54.912 150.602 55.6L151.274 56.64C152.986 56.048 154.314 54.8 154.938 53.216C155.594 54.704 156.922 55.856 158.57 56.384L159.21 55.376ZM160.906 61.92H154.25V60.064H160.906V61.92ZM160.906 59.04H154.25V57.296H152.954V62.992H162.202V57.296H160.906V59.04ZM160.89 48.832V56.608H162.202V48.832H160.89ZM171.625 50.064C173.977 50.064 175.321 50.608 175.321 51.568C175.321 52.528 173.977 53.072 171.625 53.072C169.273 53.072 167.929 52.528 167.929 51.568C167.929 50.608 169.273 50.064 171.625 50.064ZM171.625 54.048C174.777 54.048 176.665 53.184 176.665 51.568C176.665 49.952 174.777 49.072 171.625 49.072C168.473 49.072 166.585 49.952 166.585 51.568C166.585 53.184 168.473 54.048 171.625 54.048ZM168.025 60.544H176.457V57.312H166.697V58.304H175.161V59.584H166.745V63.024H176.889V62H168.025V60.544ZM165.129 55.024V56.08H178.121V55.024H165.129ZM192.303 52.832H190.175C190.303 52.112 190.367 51.392 190.367 50.656H184.863V51.728H189.071C188.847 54.736 187.311 57.312 184.223 59.152L184.991 60.08C187.711 58.464 189.263 56.304 189.935 53.888H192.303V56.416H189.711V57.488H192.303V62.448H193.551V49.216H192.303V52.832ZM195.183 48.832V63.168H196.431V48.832H195.183ZM200.509 53.088C200.509 51.728 201.533 50.8 202.973 50.8C204.397 50.8 205.437 51.728 205.437 53.088C205.437 54.432 204.397 55.376 202.973 55.376C201.533 55.376 200.509 54.432 200.509 53.088ZM206.717 53.088C206.717 51.072 205.133 49.696 202.973 49.696C200.797 49.696 199.229 51.072 199.229 53.088C199.229 55.088 200.797 56.48 202.973 56.48C205.133 56.48 206.717 55.088 206.717 53.088ZM200.765 59.104H208.781V63.184H210.093V58.032H200.765V59.104ZM212.173 52.112V51.024H210.093V48.848H208.781V57.36H210.093V55.168H212.173V54.096H210.093V52.112H212.173ZM222.188 50.144H218.604V48.688H217.292V50.144H213.724V51.152H222.188V50.144ZM215.772 54.144C215.772 53.28 216.62 52.768 217.948 52.768C219.276 52.768 220.14 53.28 220.14 54.144C220.14 54.992 219.276 55.52 217.948 55.52C216.62 55.52 215.772 54.992 215.772 54.144ZM221.388 54.144C221.388 52.688 220.028 51.792 217.948 51.792C215.884 51.792 214.524 52.688 214.524 54.144C214.524 55.6 215.884 56.496 217.948 56.496C220.028 56.496 221.388 55.6 221.388 54.144ZM217.02 60.64H224.812V57.456H215.692V58.432H223.516V59.68H215.74V63.024H225.34V62.016H217.02V60.64ZM224.812 52.24V48.784H223.5V56.72H224.812V53.328H226.94V52.24H224.812ZM234.402 51.712H236.274V50.64H233.202V59.44H233.778C234.37 59.44 235.298 59.44 236.482 59.168L236.354 58.08C235.618 58.256 234.93 58.32 234.402 58.336V51.712ZM238.082 51.712H240.05V50.64H236.882V59.44H237.474C238.306 59.44 239.282 59.424 240.466 59.12L240.354 58.032C239.522 58.256 238.738 58.32 238.082 58.352V51.712ZM243.89 48.832V54.688H242.21V49.152H240.994V62.464H242.21V55.76H243.89V63.168H245.138V48.832H243.89ZM254.641 60.336V57.632H259.233V56.576H250.401V54.256H258.897V49.888H249.073V50.96H257.617V53.2H249.105V57.632H253.313V60.336H247.473V61.408H260.513V60.336H254.641ZM268.598 50.576H267.286V59.456H268.198C269.75 59.456 271.398 59.376 273.334 59.008L273.206 57.872C271.494 58.208 269.974 58.304 268.598 58.32V50.576ZM277.494 48.832V54.672H275.462V49.152H274.23V62.448H275.462V55.76H277.494V63.168H278.758V48.832H277.494ZM282.069 50.368V51.456H287.333C287.029 54.848 285.061 57.6 281.397 59.44L282.117 60.464C286.757 58.144 288.629 54.448 288.629 50.368H282.069ZM294.645 54.656H292.341V48.832H291.029V63.184H292.341V55.744H294.645V54.656ZM308.907 50.592H305.323V48.832H304.011V50.592H300.443V51.648H308.907V50.592ZM302.491 55.104C302.491 54.112 303.371 53.472 304.667 53.472C305.963 53.472 306.859 54.112 306.859 55.104C306.859 56.112 305.963 56.752 304.667 56.752C303.371 56.752 302.491 56.112 302.491 55.104ZM308.107 55.104C308.107 53.504 306.699 52.448 304.667 52.448C302.635 52.448 301.243 53.504 301.243 55.104C301.243 56.72 302.635 57.776 304.667 57.776C306.699 57.776 308.107 56.72 308.107 55.104ZM303.915 58.752H302.603V62.864H312.171V61.792H303.915V58.752ZM311.531 53.568V48.832H310.219V59.6H311.531V54.672H313.643V53.568H311.531ZM325.377 55.952H321.505V53.36H325.377V55.952ZM326.673 53.952H329.985V59.456H331.313V48.832H329.985V52.88H326.673V49.792H325.377V52.32H321.505V49.792H320.209V57.008H326.673V53.952ZM323.393 61.792V58.416H322.081V62.864H331.649V61.792H323.393ZM26.72 74.224H25.424V83.552H26.56C28.752 83.552 30.944 83.392 33.392 82.896L33.232 81.808C30.912 82.272 28.784 82.448 26.72 82.448V74.224ZM38.192 78.56H35.888V72.832H34.576V87.184H35.888V79.648H38.192V78.56ZM47.8708 77.312H42.1108V73.6H40.7988V78.368H47.8708V77.312ZM48.8468 79.872C45.7908 80.176 42.3188 80.208 39.4388 80.208L39.6148 81.312C40.8148 81.312 42.1268 81.296 43.4868 81.248V86.752H44.7988V81.2C46.1748 81.12 47.5828 81.024 48.9268 80.848L48.8468 79.872ZM49.9988 72.848V82.512H46.7508V83.552H49.9988V87.2H51.3108V72.848H49.9988ZM56.5575 75.952H60.8135V77.488H56.5575V75.952ZM63.1815 79.76C61.9815 79.936 60.6535 80.032 59.3575 80.096V78.528H62.1255V73.44H60.8135V74.944H56.5575V73.44H55.2615V78.528H58.0455V80.16C56.7015 80.208 55.3895 80.224 54.2695 80.224L54.3975 81.264C56.9255 81.248 60.3175 81.184 63.2775 80.672L63.1815 79.76ZM64.1575 82.24H62.8775V82.592C62.8775 83.776 62.2055 85.12 60.8615 85.888C59.5015 85.136 58.8295 83.792 58.8295 82.592V82.24H57.5815V82.592C57.5815 84.016 56.5255 85.44 54.7015 86.048L55.3575 87.008C56.7335 86.512 57.7095 85.568 58.2055 84.432C58.6215 85.584 59.5015 86.608 60.8615 87.136C62.2215 86.608 63.0855 85.568 63.5175 84.4C64.0135 85.552 64.9895 86.512 66.3815 87.008L67.0375 86.048C65.2135 85.44 64.1575 84.016 64.1575 82.592V82.24ZM65.4055 76.864V72.832H64.0935V81.664H65.4055V77.952H67.5175V76.864H65.4055ZM70.9243 75.296H76.2843V74.208H69.6123V83.632H70.7483C73.4523 83.632 75.3403 83.536 77.5323 83.12L77.3883 82.032C75.3083 82.4 73.4683 82.512 70.9243 82.512V75.296ZM82.4123 78.496H80.0443V72.832H78.7323V87.216H80.0443V79.584H82.4123V78.496ZM90.203 86.16C87.947 86.16 86.619 85.6 86.619 84.608C86.619 83.632 87.947 83.056 90.203 83.056C92.459 83.056 93.787 83.632 93.787 84.608C93.787 85.6 92.459 86.16 90.203 86.16ZM90.203 82.048C87.147 82.048 85.291 82.96 85.291 84.608C85.291 86.256 87.147 87.168 90.203 87.168C93.275 87.168 95.115 86.256 95.115 84.608C95.115 82.96 93.275 82.048 90.203 82.048ZM86.507 75.84C86.507 74.784 87.931 74.16 90.203 74.16C92.475 74.16 93.899 74.784 93.899 75.84C93.899 76.896 92.475 77.52 90.203 77.52C87.931 77.52 86.507 76.896 86.507 75.84ZM90.859 79.888V78.528C93.563 78.384 95.243 77.408 95.243 75.84C95.243 74.128 93.307 73.12 90.203 73.12C87.099 73.12 85.163 74.128 85.163 75.84C85.163 77.408 86.827 78.384 89.547 78.528V79.888H83.723V80.944H96.683V79.888H90.859ZM100.117 86.1172C100.766 86.1172 101.258 85.6172 101.258 84.9844C101.258 84.3438 100.766 83.8438 100.117 83.8438C99.4688 83.8438 98.9688 84.3438 98.9688 84.9844C98.9688 85.6172 99.4688 86.1172 100.117 86.1172Z" fill="black"/>
</svg>
