<svg width="365" height="88" viewBox="0 0 365 88" fill="none" xmlns="http://www.w3.org/2000/svg">
<path d="M0 0H353C359.627 0 365 5.37258 365 12V76C365 82.6274 359.627 88 353 88H12C5.37259 88 0 82.6274 0 76V0Z" fill="#F4F1FF"/>
<path d="M26.4 29.024C26.4 27.696 27.424 26.752 28.848 26.752C30.288 26.752 31.328 27.696 31.328 29.024C31.328 30.368 30.288 31.296 28.848 31.296C27.424 31.296 26.4 30.368 26.4 29.024ZM32.608 29.024C32.608 27.04 31.04 25.664 28.848 25.664C26.688 25.664 25.12 27.04 25.12 29.024C25.12 31.024 26.688 32.384 28.848 32.384C31.04 32.384 32.608 31.024 32.608 29.024ZM30.112 34.784H33.088V37.904H30.112V34.784ZM34.384 34.784H36.368V33.744H26.848V34.784H28.816V37.904H26.72V38.96H36.544V37.904H34.384V34.784ZM35.984 28.336V24.848H34.672V32.96H35.984V29.424H38.112V28.336H35.984ZM46.0468 25.728C43.0708 25.728 40.8307 27.312 40.8307 29.696C40.8307 32.096 43.0708 33.664 46.0468 33.664C49.0228 33.664 51.2628 32.096 51.2628 29.696C51.2628 27.312 49.0228 25.728 46.0468 25.728ZM46.0468 26.8C48.3188 26.8 50.0148 27.968 50.0148 29.696C50.0148 31.44 48.3188 32.592 46.0468 32.592C43.7908 32.592 42.0788 31.44 42.0788 29.696C42.0788 27.968 43.7908 26.8 46.0468 26.8ZM39.5508 36.192V37.28H52.5908V36.192H39.5508ZM61.4375 36.336V33.632H66.0295V32.576H57.1975V30.256H65.6935V25.888H55.8695V26.96H64.4135V29.2H55.9015V33.632H60.1095V36.336H54.2695V37.408H67.3095V36.336H61.4375ZM76.2113 29.488H83.5393V32.128H76.2113V29.488ZM80.5312 36.272V33.184H84.8193V25.856H83.5393V28.416H76.2113V25.856H74.9153V33.184H79.2033V36.272H73.3793V37.344H86.3873V36.272H80.5312ZM95.346 32.576C95.442 32.08 95.506 31.536 95.506 30.944C95.506 30.288 95.426 29.68 95.298 29.12H98.61V32.576H95.346ZM91.938 34.784C90.562 34.784 89.602 33.28 89.602 30.944C89.602 28.624 90.562 27.12 91.938 27.12C93.298 27.12 94.274 28.624 94.274 30.944C94.274 33.28 93.298 34.784 91.938 34.784ZM98.61 24.832V28.048H94.93C94.322 26.704 93.266 25.936 91.938 25.936C89.842 25.936 88.354 27.888 88.354 30.944C88.354 34 89.842 35.952 91.938 35.952C93.314 35.952 94.434 35.104 95.026 33.648H98.61V39.216H99.922V24.832H98.61ZM103.921 30.112C106.305 29.888 108.449 28.976 109.313 27.552C110.177 28.976 112.321 29.888 114.689 30.112L115.105 29.12C112.561 28.896 110.273 27.808 110.097 26.368H114.625V25.328H104.001V26.368H108.529C108.337 27.808 106.033 28.896 103.505 29.12L103.921 30.112ZM115.793 31.872V30.816H102.801V31.872H108.641V33.296H104.369V34.288H112.833V35.648H104.417V39.024H114.561V38.016H105.697V36.592H114.129V33.296H109.969V31.872H115.793ZM126.087 28.56H128.743V27.472H126.103V25.344H124.839V27.472H122.183V28.56H124.839V29.248C124.839 31.6 123.735 34.112 121.799 35.264L122.567 36.24C123.975 35.392 124.983 33.792 125.479 31.968C126.007 33.696 127.031 35.152 128.423 35.936L129.175 34.944C127.239 33.904 126.087 31.536 126.087 29.248V28.56ZM129.959 30.496H127.767V31.584H129.959V38.432H131.207V25.168H129.959V30.496ZM132.839 24.832V39.168H134.103V24.832H132.839ZM137.813 30.656L138.005 31.744L146.661 31.264C146.581 32.368 146.421 33.552 146.101 34.928L147.397 35.056C148.021 32.112 148.021 30.176 148.021 28.048V26.288H138.181V27.36H146.741V28.048C146.741 28.784 146.741 29.52 146.709 30.272L137.813 30.656ZM136.645 36.112V37.184H149.621V36.112H136.645ZM153.492 31.28H158.788V26.16H152.132V27.232H157.46V30.224H152.18V35.728H153.364C155.828 35.728 158.004 35.632 160.596 35.2L160.468 34.128C157.956 34.528 155.844 34.64 153.492 34.64V31.28ZM161.812 24.816V39.2H163.124V24.816H161.812ZM178.435 32.048C175.923 31.568 173.203 29.392 173.203 26.944V25.84H171.827V26.944C171.827 29.392 169.123 31.552 166.611 32.048L167.203 33.136C169.363 32.624 171.603 31.088 172.515 28.992C173.427 31.104 175.667 32.64 177.843 33.136L178.435 32.048ZM166.067 36.176V37.264H179.075V36.176H166.067ZM192.306 32.576H183.778V30.304H191.842V29.264H183.778V27.136H192.162V26.08H182.45V33.632H192.306V32.576ZM180.77 36.256V37.328H193.794V36.256H180.77ZM207.008 29.152H198.56V25.36H197.248V30.224H207.008V29.152ZM198.464 34.64H197.152V38.832H207.088V37.76H198.464V34.64ZM195.488 32.144V33.2H208.496V32.144H195.488ZM223.382 31.376C221.27 30.72 219.766 29.04 219.766 27.152V26.832H223.014V25.76H215.142V26.832H218.422V27.152C218.422 29.12 216.95 30.912 214.774 31.6L215.446 32.64C217.158 32.048 218.486 30.8 219.11 29.216C219.766 30.704 221.094 31.856 222.742 32.384L223.382 31.376ZM225.078 37.92H218.422V36.064H225.078V37.92ZM225.078 35.04H218.422V33.296H217.126V38.992H226.374V33.296H225.078V35.04ZM225.062 24.832V32.608H226.374V24.832H225.062ZM235.797 26.064C238.149 26.064 239.493 26.608 239.493 27.568C239.493 28.528 238.149 29.072 235.797 29.072C233.445 29.072 232.101 28.528 232.101 27.568C232.101 26.608 233.445 26.064 235.797 26.064ZM235.797 30.048C238.949 30.048 240.837 29.184 240.837 27.568C240.837 25.952 238.949 25.072 235.797 25.072C232.645 25.072 230.757 25.952 230.757 27.568C230.757 29.184 232.645 30.048 235.797 30.048ZM232.197 36.544H240.629V33.312H230.869V34.304H239.333V35.584H230.917V39.024H241.061V38H232.197V36.544ZM229.301 31.024V32.08H242.293V31.024H229.301ZM261.403 31.936H259.275C259.675 29.872 259.675 28.352 259.675 27.008V25.76H250.043V26.816H258.395V27.008C258.395 28.352 258.395 29.872 257.947 31.936H248.427V33.008H254.219V39.2H255.547V33.008H261.403V31.936ZM271.641 26.144H268.057V24.688H266.745V26.144H263.177V27.152H271.641V26.144ZM265.225 30.144C265.225 29.28 266.073 28.768 267.401 28.768C268.729 28.768 269.593 29.28 269.593 30.144C269.593 30.992 268.729 31.52 267.401 31.52C266.073 31.52 265.225 30.992 265.225 30.144ZM270.841 30.144C270.841 28.688 269.481 27.792 267.401 27.792C265.337 27.792 263.977 28.688 263.977 30.144C263.977 31.6 265.337 32.496 267.401 32.496C269.481 32.496 270.841 31.6 270.841 30.144ZM266.473 36.64H274.265V33.456H265.145V34.432H272.969V35.68H265.193V39.024H274.793V38.016H266.473V36.64ZM274.265 28.24V24.784H272.953V32.72H274.265V29.328H276.393V28.24H274.265ZM283.855 27.712H285.727V26.64H282.655V35.44H283.231C283.823 35.44 284.751 35.44 285.935 35.168L285.807 34.08C285.071 34.256 284.383 34.32 283.855 34.336V27.712ZM287.535 27.712H289.503V26.64H286.335V35.44H286.927C287.759 35.44 288.735 35.424 289.919 35.12L289.807 34.032C288.975 34.256 288.191 34.32 287.535 34.352V27.712ZM293.343 24.832V30.688H291.663V25.152H290.447V38.464H291.663V31.76H293.343V39.168H294.591V24.832H293.343ZM309.845 26.144H306.389V24.736H305.077V26.144H301.605V27.136H309.845V26.144ZM303.621 29.792C303.621 29.04 304.437 28.576 305.733 28.576C306.997 28.576 307.829 29.04 307.829 29.792C307.829 30.544 306.997 31.024 305.733 31.024C304.437 31.024 303.621 30.544 303.621 29.792ZM310.277 32.544C309.029 32.736 307.701 32.832 306.389 32.896V31.904C308.037 31.728 309.077 30.96 309.077 29.792C309.077 28.48 307.733 27.664 305.733 27.664C303.701 27.664 302.373 28.48 302.373 29.792C302.373 30.976 303.413 31.744 305.077 31.904V32.944C303.701 32.992 302.389 32.992 301.253 32.992L301.397 34.048C303.909 34.032 307.301 34.016 310.373 33.488L310.277 32.544ZM302.997 36.224H311.125V39.184H312.437V35.184H302.997V36.224ZM314.533 29.184H312.437V24.848H311.125V34.464H312.437V30.272H314.533V29.184ZM327.812 24.848H326.5V35.328H327.812V24.848ZM317.652 29.36C317.652 27.968 318.708 26.976 320.1 26.976C321.524 26.976 322.58 27.968 322.58 29.36C322.58 30.784 321.524 31.776 320.1 31.776C318.708 31.776 317.652 30.784 317.652 29.36ZM323.86 29.36C323.86 27.296 322.244 25.84 320.1 25.84C317.972 25.84 316.372 27.296 316.372 29.36C316.372 31.44 317.972 32.912 320.1 32.912C322.244 32.912 323.86 31.44 323.86 29.36ZM319.891 37.792V34.256H318.58V38.864H328.244V37.792H319.891ZM28.4 58.768C27.28 58.768 26.496 57.856 26.496 56.576C26.496 55.328 27.28 54.416 28.4 54.416C29.504 54.416 30.304 55.328 30.304 56.576C30.304 57.856 29.504 58.768 28.4 58.768ZM28.4 53.312C26.624 53.312 25.328 54.656 25.328 56.576C25.328 58.528 26.624 59.856 28.4 59.856C30.176 59.856 31.472 58.528 31.472 56.576C31.472 54.656 30.176 53.312 28.4 53.312ZM29.04 49.248H27.744V51.28H24.832V52.352H31.952V51.28H29.04V49.248ZM35.744 48.816V54.88H33.904V49.152H32.672V62.48H33.904V55.952H35.744V63.168H37.008V48.816H35.744ZM41.6468 53.216H46.1748V55.424H41.6468V53.216ZM44.5588 56.48H47.4868V50.032H46.1748V52.176H41.6468V50.032H40.3508V56.48H43.2468V59.088C41.8868 59.136 40.5748 59.136 39.4068 59.136L39.5988 60.24C42.1268 60.24 45.4708 60.208 48.4948 59.68L48.3828 58.72C47.1828 58.896 45.8708 58.976 44.5588 59.04V56.48ZM52.8788 54.848H50.6068V48.832H49.2948V63.168H50.6068V55.952H52.8788V54.848ZM58.1095 58.784C56.7175 58.784 55.7415 57.264 55.7415 54.928C55.7415 52.624 56.7175 51.12 58.1095 51.12C59.4855 51.12 60.4615 52.624 60.4615 54.928C60.4615 57.264 59.4855 58.784 58.1095 58.784ZM58.1095 49.936C55.9975 49.936 54.4935 51.888 54.4935 54.928C54.4935 58 55.9975 59.952 58.1095 59.952C60.2215 59.952 61.7095 58 61.7095 54.928C61.7095 51.888 60.2215 49.936 58.1095 49.936ZM67.6135 53.536V52.448H65.3255V48.848H64.0135V63.184H65.3255V57.808H67.6135V56.72H65.3255V53.536H67.6135ZM81.8913 50.144H78.3073V48.688H76.9953V50.144H73.4273V51.152H81.8913V50.144ZM75.4753 54.144C75.4753 53.28 76.3233 52.768 77.6513 52.768C78.9793 52.768 79.8433 53.28 79.8433 54.144C79.8433 54.992 78.9793 55.52 77.6513 55.52C76.3233 55.52 75.4753 54.992 75.4753 54.144ZM81.0913 54.144C81.0913 52.688 79.7313 51.792 77.6513 51.792C75.5873 51.792 74.2273 52.688 74.2273 54.144C74.2273 55.6 75.5873 56.496 77.6513 56.496C79.7313 56.496 81.0913 55.6 81.0913 54.144ZM76.7233 60.64H84.5153V57.456H75.3953V58.432H83.2193V59.68H75.4433V63.024H85.0433V62.016H76.7233V60.64ZM84.5153 52.24V48.784H83.2033V56.72H84.5153V53.328H86.6433V52.24H84.5153ZM93.913 59.712H102.537V63.2H103.849V58.656H93.913V59.712ZM95.417 50.464H102.489V53.248H95.417V50.464ZM99.625 56.112V54.288H103.785V49.424H94.137V54.288H98.313V56.112H92.457V57.168H105.449V56.112H99.625ZM108.632 59.968H117.304V63.056H118.616V58.896H108.632V59.968ZM114.36 56.72V55.216H118.84V54.192H110.152V52.688H118.536V49.2H108.824V50.224H117.24V51.712H108.856V55.216H113.032V56.72H107.176V57.792H120.2V56.72H114.36ZM133.351 52.608H124.951V50.368H133.207V49.312H123.639V53.664H133.351V52.608ZM124.791 60.512H133.223V57.136H123.463V58.16H131.927V59.536H123.511V63.008H133.655V61.984H124.791V60.512ZM121.911 54.816V55.888H134.903V54.816H121.911ZM147.061 48.832V63.216H148.373V48.832H147.061ZM140.805 49.936C138.677 49.936 137.157 51.888 137.157 54.944C137.157 58 138.677 59.952 140.805 59.952C142.933 59.952 144.453 58 144.453 54.944C144.453 51.888 142.933 49.936 140.805 49.936ZM140.805 51.12C142.197 51.12 143.189 52.624 143.189 54.944C143.189 57.28 142.197 58.784 140.805 58.784C139.397 58.784 138.405 57.28 138.405 54.944C138.405 52.624 139.397 51.12 140.805 51.12ZM153.876 53.536C153.876 51.888 155.556 50.816 157.844 50.816C160.132 50.816 161.796 51.888 161.796 53.536C161.796 55.184 160.132 56.256 157.844 56.256C155.556 56.256 153.876 55.184 153.876 53.536ZM158.5 60.256V57.264C161.172 57.072 163.044 55.648 163.044 53.536C163.044 51.248 160.868 49.776 157.844 49.776C154.804 49.776 152.612 51.248 152.612 53.536C152.612 55.648 154.5 57.072 157.172 57.264V60.256H151.332V61.344H164.372V60.256H158.5ZM167.742 62.1172C168.391 62.1172 168.883 61.6172 168.883 60.9844C168.883 60.3438 168.391 59.8438 167.742 59.8438C167.094 59.8438 166.594 60.3438 166.594 60.9844C166.594 61.6172 167.094 62.1172 167.742 62.1172Z" fill="black"/>
</svg>
