<svg width="399" height="836" viewBox="0 0 399 836" fill="none" xmlns="http://www.w3.org/2000/svg">
<rect x="12" y="12" width="375" height="300" fill="#373946"/>
<path d="M98.4225 149.36V142.26H96.0625V144.02H89.0225V142.3H86.6625V149.36H98.4225ZM84.4625 134.66H88.0225C87.8225 137.12 86.1625 138.94 83.7625 139.8L85.1625 141.64C86.9025 141.02 88.7425 139.4 89.2625 137.64C90.0625 139.32 91.7625 140.6 93.1025 141.14L94.3825 139.3C92.4825 138.7 90.7425 137.08 90.4625 134.66H93.8625V132.78H84.4625V134.66ZM98.4025 141.36V131.76H96.0625V141.36H98.4025ZM96.0625 147.5H89.0225V145.84H96.0625V147.5ZM115.007 132.72H102.947V134.6H112.687C112.687 136.78 112.527 138.78 112.207 140.32H100.967V142.18H107.807V149.58H110.147V142.18H117.067V140.32H114.427C114.827 138.28 115.007 135.6 115.007 132.72ZM128.532 137.86V136H118.192V137.86H128.532ZM120.692 134.76H126.192V132.92H120.692V134.76ZM132.212 131.76H129.852V149.58H132.212V140.92H134.692V138.98H132.212V131.76ZM119.072 142.32C119.072 144.58 120.812 146.16 123.372 146.16C125.932 146.16 127.672 144.5 127.672 142.32C127.672 140.08 125.932 138.48 123.372 138.48C120.812 138.48 119.072 140.14 119.072 142.32ZM121.352 142.32C121.352 141.14 122.212 140.36 123.372 140.36C124.532 140.36 125.392 141.14 125.392 142.32C125.392 143.48 124.672 144.26 123.372 144.26C122.192 144.26 121.352 143.48 121.352 142.32ZM150.317 149.58V131.76H147.977V149.58H150.317ZM144.837 133.62H136.517V135.56H142.317C141.997 139.1 139.337 142.82 135.437 144.6L136.877 146.36C142.317 143.4 144.697 139 144.837 133.62ZM167.895 143H170.535V149.58H172.875V131.76H170.535V135.28H167.895L167.975 137.26H170.535V141H167.975L167.895 143ZM158.235 139.36C158.235 143.1 159.915 145.7 162.815 145.7C165.735 145.7 167.415 143.08 167.415 139.36C167.415 135.6 165.735 132.98 162.815 132.98C159.915 132.98 158.235 135.6 158.235 139.36ZM165.175 139.36C165.175 142.16 164.195 143.82 162.815 143.82C161.475 143.82 160.515 142.16 160.515 139.36C160.515 136.54 161.475 134.86 162.815 134.86C164.195 134.86 165.175 136.54 165.175 139.36ZM190.3 146.02C190.3 143.8 188 142.44 184.06 142.44C180.12 142.44 177.82 143.8 177.82 146.02C177.82 148.18 180.12 149.54 184.06 149.54C188 149.54 190.3 148.18 190.3 146.02ZM176.06 134.94H179.6C179.46 137.48 177.82 139.36 175.32 140.26C175.8 140.86 176.24 141.46 176.72 142.08C178.44 141.48 180.32 139.8 180.86 138.08C181.62 139.7 183.36 141.04 184.72 141.56C185.14 140.94 185.58 140.34 185.98 139.72C184.04 139.08 182.24 137.42 182.06 134.94H185.44V133.02H176.06V134.94ZM185.16 137.9H187.84V142.36H190.18V131.76H187.84V136.02H185.16V137.9ZM184.06 144.32C186.52 144.32 187.92 144.94 187.92 146.02C187.92 147.06 186.52 147.68 184.06 147.68C181.64 147.68 180.22 147.06 180.22 146.02C180.22 144.94 181.64 144.32 184.06 144.32ZM192.725 149.88H194.605L196.045 145.84H193.525L192.725 149.88ZM217.758 149.58V131.76H215.418V149.58H217.758ZM214.078 143.78C211.378 142.04 209.958 139.38 209.958 135.86V133.26H207.538V135.98C207.538 139.52 205.998 142.34 203.118 144.2L204.538 145.92C206.378 144.92 208.218 142.66 208.798 140.62C209.398 142.48 211.258 144.64 212.718 145.54L214.078 143.78ZM220.543 134.8H224.123C224.003 137.38 222.323 139.3 219.843 140.2L221.223 142.02C222.943 141.44 224.823 139.74 225.343 138.02C226.123 139.66 227.843 141 229.223 141.54L230.503 139.68C228.523 139.04 226.723 137.34 226.523 134.8H229.923V132.9H220.543V134.8ZM222.563 143.04V144.9H231.923V149.6H234.283V143.04H222.563ZM236.803 137.9V135.98H234.263V131.76H231.903V142.14H234.263V137.9H236.803ZM252.787 149.58V131.76H250.567V138.96H249.087V132.08H246.907V148.76H249.087V140.84H250.567V149.58H252.787ZM245.787 142.24C245.787 140 244.207 138.54 241.887 138.54C239.607 138.54 237.987 139.98 237.987 142.24C237.987 144.36 239.587 145.94 241.887 145.94C244.207 145.94 245.787 144.48 245.787 142.24ZM237.607 137.88H246.107V136.02H237.607V137.88ZM243.687 142.24C243.687 143.32 242.927 144.1 241.887 144.1C240.867 144.1 240.107 143.36 240.107 142.24C240.107 141.14 240.867 140.38 241.887 140.38C242.927 140.38 243.687 141.14 243.687 142.24ZM239.547 135H244.347V133.14H239.547V135ZM268.972 138.12V131.86H266.652V133.4H259.332V131.9H256.992V138.12H261.772V139.36H254.932V141.24H271.032V139.36H264.112V138.12H268.972ZM269.632 149.5V147.6H259.212V146.68H268.992V142.18H256.832V144.04H266.672V145.04H256.892V149.5H269.632ZM266.652 136.34H259.332V135.18H266.652V136.34ZM286.257 131.76H283.997V149.58H286.257V140.78H288.797V138.84H286.257V131.76ZM277.617 133.62H272.837V135.56H275.417C275.437 138.74 274.217 142.04 271.737 144.36L273.457 145.68C276.277 142.68 277.637 139.3 277.617 133.62ZM282.557 133.62H278.417V135.56H280.357C280.357 139.52 279.257 142.8 276.717 145.46L278.537 146.76C281.657 143.04 282.577 139.76 282.557 133.62ZM304.101 137.54C304.101 134.8 301.521 132.8 297.601 132.8C293.701 132.8 291.121 134.8 291.121 137.54C291.121 140.26 293.701 142.22 297.601 142.22C301.521 142.22 304.101 140.26 304.101 137.54ZM305.641 147.36V145.48H302.001V142.52L299.661 142.62V145.48H295.481V142.62L293.141 142.52V145.48H289.541V147.36H305.641ZM301.701 137.54C301.701 139.14 300.061 140.3 297.601 140.3C295.121 140.3 293.521 139.14 293.521 137.54C293.521 135.92 295.121 134.76 297.601 134.76C300.081 134.76 301.701 135.92 301.701 137.54ZM308.646 143.22H310.726V141.9C310.726 140.98 311.246 140.64 312.266 139.84C313.706 138.72 314.286 138.1 314.286 136.38C314.286 133.92 312.466 132.96 310.186 132.96C308.846 132.96 307.826 133.16 306.906 133.56V135.28C307.726 135.04 308.366 134.86 309.526 134.86C311.026 134.86 311.826 135.28 311.826 136.56C311.826 137.6 311.486 138.08 310.626 138.74C309.326 139.78 308.646 140.34 308.646 141.72V143.22ZM308.526 147.48H310.966V145.14H308.526V147.48Z" fill="white"/>
<path d="M42.288 610.088V604.408H40.4V605.816H34.768V604.44H32.88V610.088H42.288ZM31.12 598.328H33.968C33.808 600.296 32.48 601.752 30.56 602.44L31.68 603.912C33.072 603.416 34.544 602.12 34.96 600.712C35.6 602.056 36.96 603.08 38.032 603.512L39.056 602.04C37.536 601.56 36.144 600.264 35.92 598.328H38.64V596.824H31.12V598.328ZM42.272 603.688V596.008H40.4V603.688H42.272ZM40.4 608.6H34.768V607.272H40.4V608.6ZM55.5558 596.776H45.9078V598.28H53.6998C53.6998 600.024 53.5718 601.624 53.3158 602.856H44.3238V604.344H49.7958V610.264H51.6678V604.344H57.2038V602.856H55.0918C55.4118 601.224 55.5558 599.08 55.5558 596.776ZM66.3755 600.888V599.4H58.1035V600.888H66.3755ZM60.1035 598.408H64.5035V596.936H60.1035V598.408ZM69.3195 596.008H67.4315V610.264H69.3195V603.336H71.3035V601.784H69.3195V596.008ZM58.8075 604.456C58.8075 606.264 60.1995 607.528 62.2475 607.528C64.2955 607.528 65.6875 606.2 65.6875 604.456C65.6875 602.664 64.2955 601.384 62.2475 601.384C60.1995 601.384 58.8075 602.712 58.8075 604.456ZM60.6315 604.456C60.6315 603.512 61.3195 602.888 62.2475 602.888C63.1755 602.888 63.8635 603.512 63.8635 604.456C63.8635 605.384 63.2875 606.008 62.2475 606.008C61.3035 606.008 60.6315 605.384 60.6315 604.456ZM83.8033 610.264V596.008H81.9313V610.264H83.8033ZM79.4193 597.496H72.7633V599.048H77.4033C77.1473 601.88 75.0193 604.856 71.8993 606.28L73.0513 607.688C77.4033 605.32 79.3073 601.8 79.4193 597.496ZM102.938 604.088V602.584H90.0581V604.088H95.5301V605C92.9221 605.176 91.4181 606.136 91.4181 607.56C91.4181 609.144 93.2741 610.12 96.4901 610.12C99.7221 610.12 101.578 609.144 101.578 607.56C101.578 606.136 100.058 605.176 97.4021 605V604.088H102.938ZM102.282 600.584C100.378 600.504 98.2181 599.608 97.6421 598.168H101.658V596.68H91.3861V598.168H95.3861C94.8901 599.608 92.9541 600.52 90.7301 600.616C90.9861 601.096 91.2581 601.576 91.5141 602.072C93.7701 601.88 95.7701 600.824 96.4901 599.416C97.3221 600.792 99.4021 601.896 101.482 602.072L102.282 600.584ZM99.6741 607.576C99.6741 608.264 98.4101 608.664 96.4741 608.664C94.5541 608.664 93.3221 608.264 93.3221 607.576C93.3221 606.856 94.5541 606.456 96.4741 606.456C98.4101 606.456 99.6741 606.856 99.6741 607.576Z" fill="#101010"/>
<path d="M112 600L116 604L112 608" stroke="#101010"/>
<path d="M354.265 636.7C355.635 636.7 356.715 635.78 356.715 633.48V632.9C356.715 630.56 355.605 629.74 354.275 629.74C352.935 629.74 351.765 630.56 351.765 632.94V633.47C351.765 635.76 352.855 636.7 354.265 636.7ZM354.265 635.98C353.235 635.98 352.705 635.19 352.705 633.54V632.83C352.705 631.18 353.255 630.46 354.275 630.46C355.275 630.46 355.805 631.22 355.805 632.9V633.59C355.805 635.3 355.265 635.98 354.265 635.98ZM357.375 637.6H358.145L360.465 629.28H359.695L357.375 637.6ZM363.747 636.7C365.117 636.7 366.197 635.78 366.197 633.48V632.9C366.197 630.56 365.087 629.74 363.757 629.74C362.417 629.74 361.247 630.56 361.247 632.94V633.47C361.247 635.76 362.337 636.7 363.747 636.7ZM363.747 635.98C362.717 635.98 362.187 635.19 362.187 633.54V632.83C362.187 631.18 362.737 630.46 363.757 630.46C364.757 630.46 365.287 631.22 365.287 632.9V633.59C365.287 635.3 364.747 635.98 363.747 635.98Z" fill="#101010"/>
<rect x="30" y="624" width="307" height="20" rx="10" fill="#EFEFEF"/>
<path d="M54.363 638.205C56.3083 638.205 57.4861 636.5 57.4861 633.775V633.764C57.4861 631.039 56.3083 629.34 54.363 629.34C52.4119 629.34 51.24 631.039 51.24 633.764V633.775C51.24 636.5 52.4119 638.205 54.363 638.205ZM54.363 637.115C53.2263 637.115 52.5642 635.844 52.5642 633.775V633.764C52.5642 631.695 53.2263 630.436 54.363 630.436C55.4939 630.436 56.1619 631.695 56.1619 633.764V633.775C56.1619 635.844 55.4939 637.115 54.363 637.115ZM60.8611 634.062C61.9978 634.062 62.6892 633.166 62.6892 631.742V631.736C62.6892 630.312 61.9978 629.428 60.8611 629.428C59.7244 629.428 59.033 630.312 59.033 631.736V631.742C59.033 633.166 59.7244 634.062 60.8611 634.062ZM61.7341 638L67.4646 629.545H66.3689L60.6384 638H61.7341ZM60.8611 633.277C60.3044 633.277 59.988 632.709 59.988 631.742V631.736C59.988 630.775 60.3044 630.213 60.8611 630.213C61.4177 630.213 61.74 630.775 61.74 631.736V631.742C61.74 632.709 61.4177 633.277 60.8611 633.277ZM67.2361 638.117C68.3728 638.117 69.0642 637.227 69.0642 635.803V635.797C69.0642 634.373 68.3728 633.482 67.2361 633.482C66.0994 633.482 65.408 634.373 65.408 635.797V635.803C65.408 637.227 66.0994 638.117 67.2361 638.117ZM67.2361 637.332C66.6794 637.332 66.363 636.764 66.363 635.803V635.797C66.363 634.83 66.6794 634.268 67.2361 634.268C67.7927 634.268 68.1091 634.83 68.1091 635.797V635.803C68.1091 636.764 67.7927 637.332 67.2361 637.332Z" fill="white"/>
<path d="M42.288 686.088V680.408H40.4V681.816H34.768V680.44H32.88V686.088H42.288ZM31.12 674.328H33.968C33.808 676.296 32.48 677.752 30.56 678.44L31.68 679.912C33.072 679.416 34.544 678.12 34.96 676.712C35.6 678.056 36.96 679.08 38.032 679.512L39.056 678.04C37.536 677.56 36.144 676.264 35.92 674.328H38.64V672.824H31.12V674.328ZM42.272 679.688V672.008H40.4V679.688H42.272ZM40.4 684.6H34.768V683.272H40.4V684.6ZM55.5558 672.776H45.9078V674.28H53.6998C53.6998 676.024 53.5718 677.624 53.3158 678.856H44.3238V680.344H49.7958V686.264H51.6678V680.344H57.2038V678.856H55.0918C55.4118 677.224 55.5558 675.08 55.5558 672.776ZM66.3755 676.888V675.4H58.1035V676.888H66.3755ZM60.1035 674.408H64.5035V672.936H60.1035V674.408ZM69.3195 672.008H67.4315V686.264H69.3195V679.336H71.3035V677.784H69.3195V672.008ZM58.8075 680.456C58.8075 682.264 60.1995 683.528 62.2475 683.528C64.2955 683.528 65.6875 682.2 65.6875 680.456C65.6875 678.664 64.2955 677.384 62.2475 677.384C60.1995 677.384 58.8075 678.712 58.8075 680.456ZM60.6315 680.456C60.6315 679.512 61.3195 678.888 62.2475 678.888C63.1755 678.888 63.8635 679.512 63.8635 680.456C63.8635 681.384 63.2875 682.008 62.2475 682.008C61.3035 682.008 60.6315 681.384 60.6315 680.456ZM83.8033 686.264V672.008H81.9313V686.264H83.8033ZM79.4193 673.496H72.7633V675.048H77.4033C77.1473 677.88 75.0193 680.856 71.8993 682.28L73.0513 683.688C77.4033 681.32 79.3073 677.8 79.4193 673.496ZM101.114 678.584C101.114 677.144 99.3861 676.296 96.5221 676.296C93.6741 676.296 91.9461 677.144 91.9461 678.584C91.9461 679.992 93.6741 680.84 96.5221 680.84C99.3861 680.84 101.114 679.992 101.114 678.584ZM97.4021 686.248V682.888H102.938V681.4H90.0581V682.888H95.5301V686.248H97.4021ZM102.218 675.8V674.328H90.8101V675.8H102.218ZM93.9621 673.656H99.0501V672.2H93.9621V673.656ZM99.1941 678.584C99.1941 679.112 98.0101 679.432 96.5221 679.432C95.0341 679.432 93.8821 679.112 93.8821 678.584C93.8821 678.024 95.0341 677.704 96.5221 677.704C98.0101 677.704 99.1941 678.024 99.1941 678.584Z" fill="#101010"/>
<path d="M112 676L116 680L112 684" stroke="#101010"/>
<path d="M354.265 712.7C355.635 712.7 356.715 711.78 356.715 709.48V708.9C356.715 706.56 355.605 705.74 354.275 705.74C352.935 705.74 351.765 706.56 351.765 708.94V709.47C351.765 711.76 352.855 712.7 354.265 712.7ZM354.265 711.98C353.235 711.98 352.705 711.19 352.705 709.54V708.83C352.705 707.18 353.255 706.46 354.275 706.46C355.275 706.46 355.805 707.22 355.805 708.9V709.59C355.805 711.3 355.265 711.98 354.265 711.98ZM357.375 713.6H358.145L360.465 705.28H359.695L357.375 713.6ZM363.747 712.7C365.117 712.7 366.197 711.78 366.197 709.48V708.9C366.197 706.56 365.087 705.74 363.757 705.74C362.417 705.74 361.247 706.56 361.247 708.94V709.47C361.247 711.76 362.337 712.7 363.747 712.7ZM363.747 711.98C362.717 711.98 362.187 711.19 362.187 709.54V708.83C362.187 707.18 362.737 706.46 363.757 706.46C364.757 706.46 365.287 707.22 365.287 708.9V709.59C365.287 711.3 364.747 711.98 363.747 711.98Z" fill="#101010"/>
<rect x="30" y="700" width="307" height="20" rx="10" fill="#EFEFEF"/>
<path d="M54.363 714.205C56.3083 714.205 57.4861 712.5 57.4861 709.775V709.764C57.4861 707.039 56.3083 705.34 54.363 705.34C52.4119 705.34 51.24 707.039 51.24 709.764V709.775C51.24 712.5 52.4119 714.205 54.363 714.205ZM54.363 713.115C53.2263 713.115 52.5642 711.844 52.5642 709.775V709.764C52.5642 707.695 53.2263 706.436 54.363 706.436C55.4939 706.436 56.1619 707.695 56.1619 709.764V709.775C56.1619 711.844 55.4939 713.115 54.363 713.115ZM60.8611 710.062C61.9978 710.062 62.6892 709.166 62.6892 707.742V707.736C62.6892 706.312 61.9978 705.428 60.8611 705.428C59.7244 705.428 59.033 706.312 59.033 707.736V707.742C59.033 709.166 59.7244 710.062 60.8611 710.062ZM61.7341 714L67.4646 705.545H66.3689L60.6384 714H61.7341ZM60.8611 709.277C60.3044 709.277 59.988 708.709 59.988 707.742V707.736C59.988 706.775 60.3044 706.213 60.8611 706.213C61.4177 706.213 61.74 706.775 61.74 707.736V707.742C61.74 708.709 61.4177 709.277 60.8611 709.277ZM67.2361 714.117C68.3728 714.117 69.0642 713.227 69.0642 711.803V711.797C69.0642 710.373 68.3728 709.482 67.2361 709.482C66.0994 709.482 65.408 710.373 65.408 711.797V711.803C65.408 713.227 66.0994 714.117 67.2361 714.117ZM67.2361 713.332C66.6794 713.332 66.363 712.764 66.363 711.803V711.797C66.363 710.83 66.6794 710.268 67.2361 710.268C67.7927 710.268 68.1091 710.83 68.1091 711.797V711.803C68.1091 712.764 67.7927 713.332 67.2361 713.332Z" fill="white"/>
<rect x="109.5" y="180" width="181" height="60" rx="8" fill="#6F52E6"/>
<path d="M160.432 215.106V202.632H158.808V215.106H160.432ZM150.478 207.952C150.478 210.57 151.668 212.39 153.698 212.39C155.742 212.39 156.932 210.556 156.932 207.952C156.932 205.32 155.742 203.486 153.698 203.486C151.668 203.486 150.478 205.32 150.478 207.952ZM155.364 207.952C155.364 209.912 154.664 211.074 153.698 211.074C152.76 211.074 152.074 209.912 152.074 207.952C152.074 205.978 152.76 204.802 153.698 204.802C154.664 204.802 155.364 205.978 155.364 207.952ZM162.325 207.952C162.325 210.57 163.515 212.39 165.545 212.39C167.407 212.39 168.555 210.85 168.737 208.596H170.921V215.106H172.559V202.632H170.921V207.21H168.723C168.527 204.984 167.393 203.486 165.545 203.486C163.515 203.486 162.325 205.32 162.325 207.952ZM167.197 207.952C167.197 209.912 166.511 211.074 165.545 211.074C164.607 211.074 163.921 209.912 163.921 207.952C163.921 205.978 164.607 204.802 165.545 204.802C166.511 204.802 167.197 205.978 167.197 207.952ZM184.687 215.106V202.632H183.035V206.846H180.781V208.232H183.035V215.106H184.687ZM181.943 211.102C180.067 209.898 178.947 207.966 178.947 205.502V203.682H177.267V205.586C177.267 208.064 176.175 210.038 174.173 211.34L175.153 212.544C176.455 211.844 177.729 210.262 178.135 208.834C178.555 210.136 179.969 211.704 181.005 212.334L181.943 211.102ZM200.464 215.106V202.632H198.826V215.106H200.464ZM197.888 211.046C195.998 209.828 195.004 207.966 195.004 205.502V203.682H193.31V205.586C193.31 208.064 192.232 210.038 190.216 211.34L191.21 212.544C192.498 211.844 193.786 210.262 194.192 208.834C194.612 210.136 195.914 211.648 196.936 212.278L197.888 211.046ZM202.413 204.76H204.919C204.835 206.566 203.659 207.91 201.923 208.54L202.889 209.814C204.093 209.408 205.409 208.218 205.773 207.014C206.319 208.162 207.523 209.1 208.489 209.478L209.385 208.176C207.999 207.728 206.739 206.538 206.599 204.76H208.979V203.43H202.413V204.76ZM203.827 210.528V211.83H210.379V215.12H212.031V210.528H203.827ZM213.795 206.93V205.586H212.017V202.632H210.365V209.898H212.017V206.93H213.795ZM221.512 205.698V204.438H214.274V205.698H221.512ZM216.164 203.92H219.86V202.688H216.164V203.92ZM225.88 207.238V205.894H224.13V202.632H222.492V209.716H224.13V207.238H225.88ZM224.438 215.078V213.846H217.55V213.23H224.13V210.318H215.898V211.536H222.478V212.124H215.912V215.078H224.438ZM220.966 207.952C220.966 206.804 219.706 206.006 218.012 206.006C216.276 206.006 215.016 206.804 215.016 207.952C215.016 209.114 216.29 209.898 218.012 209.898C219.706 209.898 220.966 209.114 220.966 207.952ZM216.64 207.952C216.64 207.504 217.256 207.196 218.012 207.196C218.726 207.196 219.356 207.504 219.356 207.952C219.356 208.428 218.726 208.722 218.012 208.722C217.27 208.722 216.64 208.428 216.64 207.952ZM237.097 215.106V202.632H235.543V215.106H237.097ZM234.591 214.532V202.87H233.065V207.532H231.441V208.848H233.065V214.532H234.591ZM231.763 204.102H226.961V205.418H230.167C229.985 207.896 228.641 210.08 226.205 211.536L227.269 212.67C230.321 210.668 231.763 207.826 231.763 204.102ZM248.791 206.678C248.791 204.76 246.985 203.36 244.241 203.36C241.511 203.36 239.705 204.76 239.705 206.678C239.705 208.582 241.511 209.954 244.241 209.954C246.985 209.954 248.791 208.582 248.791 206.678ZM249.869 213.552V212.236H247.321V210.164L245.683 210.234V212.236H242.757V210.234L241.119 210.164V212.236H238.599V213.552H249.869ZM247.111 206.678C247.111 207.798 245.963 208.61 244.241 208.61C242.505 208.61 241.385 207.798 241.385 206.678C241.385 205.544 242.505 204.732 244.241 204.732C245.977 204.732 247.111 205.544 247.111 206.678Z" fill="white"/>
<path d="M91.18 368.816V364.556H89.944V365.72H85.432V364.58H84.184V368.816H91.18ZM82.84 359.816H85.084C85.072 361.4 83.92 362.672 82.432 363.224L83.176 364.184C84.244 363.764 85.396 362.756 85.708 361.688C86.176 362.684 87.22 363.548 88.108 363.896L88.78 362.912C87.544 362.516 86.38 361.376 86.344 359.816H88.48V358.844H82.84V359.816ZM91.168 364.004V358.256H89.932V364.004H91.168ZM89.944 367.82H85.432V366.68H89.944V367.82ZM101.119 358.868H93.9668V359.876H99.8828C99.8708 361.112 99.7868 362.48 99.5828 363.428H92.7428V364.424H96.9428V368.948H98.1668V364.424H102.403V363.428H100.759C101.023 362.156 101.119 360.656 101.119 358.868ZM108.718 364.544C108.718 363.236 107.698 362.264 106.174 362.264C104.638 362.264 103.606 363.272 103.606 364.544C103.606 365.864 104.638 366.824 106.174 366.824C107.698 366.824 108.718 365.828 108.718 364.544ZM107.506 364.544C107.506 365.288 107.002 365.816 106.174 365.816C105.394 365.816 104.842 365.288 104.842 364.544C104.842 363.788 105.394 363.272 106.174 363.272C106.942 363.272 107.506 363.788 107.506 364.544ZM109.258 361.748V360.752H103.042V361.748H109.258ZM104.554 359.888H107.794V358.88H104.554V359.888ZM111.43 358.256H110.194V368.948H111.43V363.68H113.086V362.648H111.43V358.256ZM122.316 368.948V358.256H121.092V368.948H122.316ZM119.04 359.384H114.084V360.392H117.72C117.516 362.636 115.92 364.88 113.46 366.008L114.228 366.944C117.312 365.252 118.968 362.696 119.04 359.384ZM135.852 368.948V358.256H134.628V368.948H135.852ZM133.56 365.552C132 364.568 131.004 362.912 131.004 360.86V359.18H129.732V360.932C129.732 362.972 128.676 364.736 127.02 365.816L127.776 366.716C128.952 366.008 130.02 364.664 130.38 363.392C130.776 364.568 131.916 365.888 132.828 366.476L133.56 365.552ZM137.558 359.96H139.79V360.02C139.79 361.616 138.662 362.888 137.162 363.452L137.882 364.4C138.962 363.992 140.102 362.96 140.414 361.904C140.882 362.912 141.902 363.752 142.802 364.112L143.474 363.128C142.238 362.72 141.05 361.556 141.05 359.984V359.96H143.186V358.94H137.558V359.96ZM138.758 365.084V366.056H144.506V368.96H145.742V365.084H138.758ZM147.302 361.868V360.848H145.73V358.256H144.494V364.52H145.73V361.868H147.302ZM153.917 361.112V360.14H147.725V361.112H153.917ZM153.353 363.38C153.353 362.276 152.273 361.52 150.845 361.52C149.393 361.52 148.313 362.276 148.313 363.38C148.313 364.508 149.405 365.24 150.845 365.24C152.273 365.24 153.353 364.508 153.353 363.38ZM152.177 363.38C152.177 363.956 151.565 364.292 150.845 364.292C150.089 364.292 149.489 363.956 149.489 363.38C149.489 362.816 150.089 362.456 150.845 362.456C151.565 362.456 152.177 362.816 152.177 363.38ZM149.273 359.48H152.405V358.496H149.273V359.48ZM156.113 358.256H154.877V366.164H156.113V362.624H157.697V361.604H156.113V358.256ZM156.425 368.66V367.676H150.509V365.792H149.273V368.66H156.425ZM164.876 365.468C163.304 364.616 162.152 363.02 162.152 360.86V360.344H164.324V359.372H158.648V360.344H160.88V360.872C160.88 363.032 159.812 364.724 158.108 365.684L158.888 366.584C160.16 365.912 161.24 364.496 161.516 363.344C161.864 364.448 163.16 365.816 164.156 366.368L164.876 365.468ZM167 368.948V358.256H165.776V368.948H167ZM172.615 367.52H174.007L177.055 360.164V359.408H171.799V360.404H175.687L172.615 367.52ZM183.534 361.088C183.534 359.636 182.37 358.64 180.81 358.64C179.25 358.64 178.086 359.66 178.086 361.088C178.086 362.54 179.298 363.44 180.81 363.44C182.37 363.44 183.534 362.504 183.534 361.088ZM182.322 361.076C182.322 361.808 181.722 362.42 180.81 362.42C179.946 362.42 179.298 361.856 179.298 361.076C179.298 360.284 179.982 359.66 180.81 359.66C181.746 359.66 182.322 360.272 182.322 361.076ZM186.942 368.864V367.892H180.87V366.98H186.594V364.196H179.586V365.192H185.37V366.068H179.634V368.864H186.942ZM186.582 363.644V358.256H185.358V363.644H186.582ZM196.965 368.948V358.256H195.741V368.948H196.965ZM188.481 362.828C188.481 365.084 189.501 366.572 191.217 366.572C192.933 366.572 193.929 365.084 193.929 362.84C193.929 360.572 192.933 359.084 191.217 359.084C189.501 359.084 188.481 360.572 188.481 362.828ZM192.765 362.828C192.765 364.544 192.129 365.576 191.217 365.576C190.317 365.576 189.693 364.544 189.693 362.828C189.693 361.112 190.317 360.092 191.217 360.092C192.129 360.092 192.765 361.112 192.765 362.828ZM208.784 365.528C207.992 365.648 206.888 365.72 205.796 365.756V363.74H207.944V362.744H203.804V360.236H207.896V359.24H202.568V363.74H204.572V365.804C203.588 365.828 202.604 365.828 201.692 365.828L201.884 366.848C204.308 366.836 206.648 366.764 208.88 366.476L208.784 365.528ZM210.644 358.256H209.408V368.948H210.644V358.256ZM220.883 364.16V358.256H219.659V360.824H218.111V361.82H219.659V364.16H220.883ZM217.631 361.388C217.631 359.876 216.407 358.832 214.883 358.832C213.371 358.832 212.159 359.9 212.159 361.388C212.159 362.9 213.395 363.86 214.883 363.86C216.419 363.86 217.631 362.9 217.631 361.388ZM216.431 361.376C216.431 362.252 215.807 362.912 214.883 362.912C213.983 362.912 213.359 362.264 213.359 361.376C213.359 360.548 213.971 359.852 214.883 359.852C215.843 359.852 216.431 360.524 216.431 361.376ZM221.891 368.024C220.703 367.604 219.887 366.572 219.887 365.228V364.724H218.687V365.24C218.687 366.608 217.859 367.7 216.623 368.264L217.331 369.092C218.147 368.684 219.095 367.784 219.299 366.98C219.575 367.772 220.511 368.6 221.219 368.912L221.891 368.024ZM216.515 368.036L217.295 367.172C216.683 366.98 215.927 366.332 215.927 365.252V364.784H214.727V365.312C214.727 366.668 213.755 367.712 212.627 368.192L213.311 369.02C214.271 368.6 215.111 367.784 215.387 366.932C215.603 367.4 216.131 367.832 216.515 368.036ZM232.369 363.38V362.348H230.761V358.256H229.537V368.948H230.761V363.38H232.369ZM228.541 364.964C227.173 365.252 225.433 365.324 224.113 365.3V360.26H227.761V359.252H222.901V366.332H224.029C225.817 366.332 227.533 366.212 228.697 365.972L228.541 364.964ZM237.928 365.924L237.748 364.904C237.064 365.084 235.624 365.216 234.58 365.216V359.288H233.356V366.26L234.412 366.248C235.696 366.236 237.16 366.08 237.928 365.924ZM241.852 368.948V358.256H240.676V368.948H241.852ZM239.704 368.432V358.472H238.54V361.676H236.356V362.696H238.54V368.432H239.704ZM244.003 365.12H245.071L245.227 359H243.847L244.003 365.12ZM243.883 367.628H245.203V366.332H243.883V367.628ZM83.968 377.768H83.212C83.224 377.204 83.488 376.82 83.968 376.676V376.064C83.128 376.244 82.564 376.964 82.564 377.816V379.172H83.968V377.768ZM93.6644 386.816V382.556H92.4284V383.72H87.9164V382.58H86.6684V386.816H93.6644ZM85.3244 377.816H87.5684C87.5564 379.4 86.4044 380.672 84.9164 381.224L85.6604 382.184C86.7284 381.764 87.8804 380.756 88.1924 379.688C88.6604 380.684 89.7044 381.548 90.5924 381.896L91.2644 380.912C90.0284 380.516 88.8644 379.376 88.8284 377.816H90.9644V376.844H85.3244V377.816ZM93.6524 382.004V376.256H92.4164V382.004H93.6524ZM92.4284 385.82H87.9164V384.68H92.4284V385.82ZM103.603 376.868H96.4512V377.876H102.367C102.355 379.112 102.271 380.48 102.067 381.428H95.2272V382.424H99.4272V386.948H100.651V382.424H104.887V381.428H103.243C103.507 380.156 103.603 378.656 103.603 376.868ZM111.202 382.544C111.202 381.236 110.182 380.264 108.658 380.264C107.122 380.264 106.09 381.272 106.09 382.544C106.09 383.864 107.122 384.824 108.658 384.824C110.182 384.824 111.202 383.828 111.202 382.544ZM109.99 382.544C109.99 383.288 109.486 383.816 108.658 383.816C107.878 383.816 107.326 383.288 107.326 382.544C107.326 381.788 107.878 381.272 108.658 381.272C109.426 381.272 109.99 381.788 109.99 382.544ZM111.742 379.748V378.752H105.526V379.748H111.742ZM107.038 377.888H110.278V376.88H107.038V377.888ZM113.914 376.256H112.678V386.948H113.914V381.68H115.57V380.648H113.914V376.256ZM124.801 386.948V376.256H123.577V386.948H124.801ZM121.525 377.384H116.569V378.392H120.205C120.001 380.636 118.405 382.88 115.945 384.008L116.713 384.944C119.797 383.252 121.453 380.696 121.525 377.384ZM129.9 378.044H132.12V378.404C132.12 379.976 130.98 381.344 129.48 381.896L130.212 382.856C131.292 382.46 132.444 381.344 132.756 380.3C133.212 381.296 134.244 382.208 135.132 382.556L135.816 381.572C134.568 381.188 133.392 379.928 133.392 378.368V378.044H135.528V377.036H129.9V378.044ZM138.324 384.02V376.256H137.1V379.124H135.372V380.156H137.1V384.02H138.324ZM138.564 386.636V385.652H132.576V383.288H131.352V386.636H138.564ZM141.399 376.676H139.983V378.104H140.763C140.751 378.68 140.463 379.052 140.007 379.184V379.82C140.823 379.64 141.399 378.896 141.399 378.032V376.676ZM155.412 380.252V379.22H153.852V376.256H152.616V383.984H153.852V380.252H155.412ZM154.164 386.612V385.616H148.308V383.252H147.084V386.612H154.164ZM151.476 380.792C150.324 381.044 148.74 381.128 147.144 381.128V378.152H150.66V377.168H145.92V382.124H147.036C148.956 382.124 150.564 381.992 151.668 381.752L151.476 380.792ZM162.866 386.444V376.472H161.702V379.112H160.502V380.072H161.702V381.788H160.238V382.76H161.702V386.444H162.866ZM164.942 386.948V376.256H163.766V386.948H164.942ZM160.406 377.54H156.35V378.548H159.194C159.05 380.696 157.838 382.676 155.714 383.936L156.53 384.788C159.086 383.096 160.382 380.744 160.406 377.54ZM176.201 381.452V380.432H174.617V376.256H173.381V386.948H174.617V381.452H176.201ZM171.809 377.384H166.877V378.392H170.489C170.285 380.636 168.713 382.88 166.253 384.008L167.021 384.944C170.105 383.252 171.725 380.696 171.809 377.384ZM186.208 378.908V377.948H180.004V378.908H186.208ZM181.564 377.324H184.696V376.352H181.564V377.324ZM188.668 386.816V383.336H181.648V386.816H188.668ZM187.432 385.832H182.872V384.308H187.432V385.832ZM188.644 382.772V376.256H187.42V382.772H188.644ZM185.608 381.08C185.608 380.012 184.528 379.304 183.112 379.304C181.66 379.304 180.58 380.012 180.58 381.08C180.58 382.124 181.672 382.832 183.112 382.832C184.528 382.832 185.608 382.124 185.608 381.08ZM184.42 381.08C184.42 381.596 183.796 381.92 183.112 381.92C182.416 381.92 181.792 381.596 181.792 381.08C181.792 380.54 182.404 380.228 183.112 380.228C183.796 380.228 184.42 380.54 184.42 381.08ZM198.763 379.808V378.824H192.739V377.444H198.655V376.46H191.503V379.808H198.763ZM199.891 381.572V380.588H190.231V381.572H199.891ZM198.991 386.876V385.892H192.691V385.076H198.607V382.388H191.419V383.372H197.371V384.176H191.467V386.876H198.991ZM210.514 381.38V380.348H208.906V376.256H207.682V386.948H208.906V381.38H210.514ZM206.686 382.964C205.318 383.252 203.578 383.324 202.258 383.3V378.26H205.906V377.252H201.046V384.332H202.174C203.962 384.332 205.678 384.212 206.842 383.972L206.686 382.964ZM216.901 378.956H218.569V380.312H216.901V381.32H218.569V384.008H219.793V376.256H218.569V377.96H216.901V378.956ZM220.021 386.636V385.652H214.057V383.336H212.821V386.636H220.021ZM216.349 382.124V377.18H211.465V382.124H216.349ZM215.113 381.176H212.689V378.14H215.113V381.176ZM234.48 381.404V380.384H232.824V376.256H231.6V386.948H232.824V381.404H234.48ZM230.808 383.732L230.64 382.724C229.428 383.048 227.568 383.18 226.176 383.18V377.348H224.964V384.224L226.068 384.212C227.412 384.2 229.524 384.044 230.808 383.732ZM244.575 382.088V381.164H234.915V382.088H244.575ZM243.627 386.864V385.988H237.375V385.256H243.339V382.784H236.115V383.672H242.115V384.392H236.151V386.864H243.627ZM243.507 380.516V379.616H237.423V378.944H243.279V376.532H236.163V377.432H242.043V378.116H236.187V380.516H243.507ZM249.866 382.94V383.924H252.746C252.506 385.172 250.982 386 249.314 386.108L249.878 387.02C251.426 386.852 252.986 385.892 253.394 384.944C253.766 385.892 255.518 386.936 256.898 387.044L257.462 386.108C255.95 385.94 254.198 385.16 254.066 383.924H256.934V382.94H249.866ZM248.69 379.088H250.814C250.61 380.348 249.566 381.212 248.234 381.656L248.93 382.604C250.034 382.244 251.126 381.284 251.498 380.324C251.966 381.248 253.07 382.028 253.922 382.304L254.558 381.344C253.454 381.044 252.398 380.312 252.158 379.088H254.294V378.092H248.69V379.088ZM258.326 379.832V378.8H256.754V376.256H255.518V382.424H256.754V379.832H258.326ZM249.974 377.42H253.01V376.424H249.974V377.42ZM267.137 376.256H265.901V386.948H267.137V381.452H268.793V380.432H267.137V376.256ZM258.953 380.828C258.953 383.084 259.973 384.572 261.689 384.572C263.405 384.572 264.401 383.084 264.401 380.84C264.401 378.572 263.405 377.084 261.689 377.084C259.973 377.084 258.953 378.572 258.953 380.828ZM263.237 380.828C263.237 382.544 262.601 383.576 261.689 383.576C260.789 383.576 260.165 382.544 260.165 380.828C260.165 379.112 260.789 378.092 261.689 378.092C262.601 378.092 263.237 379.112 263.237 380.828ZM277.975 377.684V376.688H270.103V377.684H273.403C273.187 379.016 271.291 380.024 269.647 380.192L270.235 381.164C271.807 380.924 273.535 379.952 274.051 378.908C274.591 379.892 276.367 380.9 277.867 381.116L278.419 380.144C276.823 379.976 274.939 379.004 274.723 377.684H277.975ZM274.639 386.936V383.132H278.875V382.148H269.215V383.132H273.415V386.936H274.639ZM288.406 386.948V376.256H287.182V386.948H288.406ZM286.114 383.552C284.554 382.568 283.558 380.912 283.558 378.86V377.18H282.286V378.932C282.286 380.972 281.23 382.736 279.574 383.816L280.33 384.716C281.506 384.008 282.574 382.664 282.934 381.392C283.33 382.568 284.47 383.888 285.382 384.476L286.114 383.552ZM299.641 385.58V384.596H295.405V382.784C297.409 382.592 298.693 381.464 298.693 379.856C298.693 378.092 297.157 376.916 294.805 376.916C292.489 376.916 290.941 378.092 290.941 379.856C290.941 381.452 292.201 382.58 294.181 382.772V384.596H289.981V385.58H299.641ZM297.457 379.868C297.457 380.996 296.401 381.764 294.805 381.764C293.233 381.764 292.177 380.996 292.177 379.868C292.177 378.728 293.233 377.924 294.805 377.924C296.413 377.924 297.457 378.728 297.457 379.868Z" fill="#101010"/>
<g clip-path="url(#clip0_164:4054)">
<path d="M90 10H309C306.894 10.6027 305.418 12.4952 305.345 14.6845L305.317 15.5618C305.317 29.0587 294.375 40 280.878 40H118.122C104.625 40 93.6835 29.0587 93.6835 15.5618L93.6545 14.6845C93.5823 12.4952 92.1059 10.6027 90 10Z" fill="black"/>
<path opacity="0.35" d="M348.5 32.0002C348.5 30.8035 349.47 29.8335 350.667 29.8335H367.333C368.53 29.8335 369.5 30.8035 369.5 32.0002V38.0002C369.5 39.1968 368.53 40.1668 367.333 40.1668H350.667C349.47 40.1668 348.5 39.1968 348.5 38.0002V32.0002Z" stroke="white"/>
<path opacity="0.4" d="M371 33V37C371.805 36.6612 372.328 35.8731 372.328 35C372.328 34.1269 371.805 33.3388 371 33Z" fill="white"/>
<path d="M350 32.4335C350 31.826 350.492 31.3335 351.1 31.3335H366.9C367.508 31.3335 368 31.826 368 32.4335V37.5668C368 38.1743 367.508 38.6668 366.9 38.6668H351.1C350.492 38.6668 350 38.1743 350 37.5668V32.4335Z" fill="white"/>
<path fill-rule="evenodd" clip-rule="evenodd" d="M335.33 31.6084C337.546 31.6085 339.678 32.4599 341.283 33.9867C341.404 34.1046 341.598 34.1031 341.717 33.9834L342.873 32.8167C342.933 32.756 342.967 32.6737 342.966 32.5882C342.966 32.5026 342.931 32.4207 342.87 32.3607C338.655 28.3212 332.005 28.3212 327.79 32.3607C327.729 32.4207 327.694 32.5025 327.694 32.5881C327.693 32.6737 327.727 32.7559 327.787 32.8167L328.943 33.9834C329.062 34.1033 329.256 34.1048 329.377 33.9867C330.983 32.4598 333.114 31.6084 335.33 31.6084ZM335.33 35.404C336.548 35.404 337.722 35.8565 338.624 36.6737C338.747 36.7897 338.939 36.7872 339.058 36.668L340.212 35.5014C340.273 35.4402 340.307 35.3572 340.306 35.2709C340.305 35.1846 340.27 35.1023 340.208 35.0424C337.46 32.486 333.204 32.486 330.455 35.0424C330.393 35.1023 330.358 35.1847 330.357 35.271C330.356 35.3573 330.39 35.4403 330.451 35.5014L331.605 36.668C331.724 36.7872 331.917 36.7897 332.039 36.6737C332.941 35.857 334.114 35.4046 335.33 35.404ZM337.643 37.9579C337.645 38.0444 337.611 38.1278 337.549 38.1884L335.552 40.204C335.494 40.2633 335.414 40.2966 335.33 40.2966C335.247 40.2966 335.167 40.2633 335.109 40.204L333.111 38.1884C333.049 38.1277 333.015 38.0443 333.017 37.9578C333.019 37.8713 333.057 37.7894 333.121 37.7314C334.396 36.6525 336.265 36.6525 337.54 37.7314C337.604 37.7894 337.642 37.8714 337.643 37.9579Z" fill="white"/>
<path fill-rule="evenodd" clip-rule="evenodd" d="M321.667 29.667H320.667C320.114 29.667 319.667 30.1147 319.667 30.667V39.3337C319.667 39.8859 320.114 40.3337 320.667 40.3337H321.667C322.219 40.3337 322.667 39.8859 322.667 39.3337V30.667C322.667 30.1147 322.219 29.667 321.667 29.667ZM316 32.0003H317C317.552 32.0003 318 32.448 318 33.0003V39.3337C318 39.8859 317.552 40.3337 317 40.3337H316C315.448 40.3337 315 39.8859 315 39.3337V33.0003C315 32.448 315.448 32.0003 316 32.0003ZM312.333 34.3337H311.333C310.781 34.3337 310.333 34.7814 310.333 35.3337V39.3337C310.333 39.8859 310.781 40.3337 311.333 40.3337H312.333C312.886 40.3337 313.333 39.8859 313.333 39.3337V35.3337C313.333 34.7814 312.886 34.3337 312.333 34.3337ZM307.667 36.3337H306.667C306.114 36.3337 305.667 36.7814 305.667 37.3337V39.3337C305.667 39.8859 306.114 40.3337 306.667 40.3337H307.667C308.219 40.3337 308.667 39.8859 308.667 39.3337V37.3337C308.667 36.7814 308.219 36.3337 307.667 36.3337Z" fill="white"/>
<path d="M49.5146 29.1675C47.2222 29.1675 45.5889 30.7349 45.5889 32.8809V32.8955C45.5889 34.9023 47.0098 36.3818 49.0386 36.3818C50.4888 36.3818 51.4116 35.6421 51.7998 34.8071H51.9463C51.9463 34.8877 51.939 34.9683 51.939 35.0488C51.8584 37.0703 51.1479 38.7109 49.4707 38.7109C48.5405 38.7109 47.8887 38.2275 47.6104 37.4878L47.5884 37.4146H45.728L45.7427 37.4951C46.0796 39.1138 47.5298 40.2637 49.4707 40.2637C52.1294 40.2637 53.7334 38.1543 53.7334 34.5947V34.5801C53.7334 30.7715 51.7705 29.1675 49.5146 29.1675ZM49.5073 34.9316C48.3062 34.9316 47.4346 34.0527 47.4346 32.8296V32.8149C47.4346 31.6357 48.3647 30.7056 49.5293 30.7056C50.7012 30.7056 51.6167 31.6504 51.6167 32.8589V32.8735C51.6167 34.0674 50.7012 34.9316 49.5073 34.9316ZM56.5586 33.1519C57.2324 33.1519 57.7231 32.6392 57.7231 31.9946C57.7231 31.3428 57.2324 30.8374 56.5586 30.8374C55.8921 30.8374 55.394 31.3428 55.394 31.9946C55.394 32.6392 55.8921 33.1519 56.5586 33.1519ZM56.5586 38.5864C57.2324 38.5864 57.7231 38.0811 57.7231 37.4292C57.7231 36.7773 57.2324 36.272 56.5586 36.272C55.8921 36.272 55.394 36.7773 55.394 37.4292C55.394 38.0811 55.8921 38.5864 56.5586 38.5864ZM64.5107 40H66.3198V37.9712H67.7407V36.4111H66.3198V29.4312H63.6465C62.2109 31.6138 60.7095 34.0454 59.3398 36.4258V37.9712H64.5107V40ZM61.0977 36.4551V36.3452C62.123 34.5508 63.3462 32.5952 64.4302 30.9399H64.54V36.4551H61.0977ZM71.6206 40H73.5103V29.4312H71.6279L68.8667 31.3721V33.1519L71.4961 31.2915H71.6206V40Z" fill="white"/>
</g>
<path d="M30.976 426.68H33.84V426.728C33.84 428.888 32.464 430.616 30.4 431.368L31.504 432.84C32.88 432.36 34.384 430.936 34.816 429.544C35.424 430.856 36.816 432.04 37.904 432.44L38.928 430.968C37.296 430.44 35.792 428.856 35.76 426.68H38.496V425.144H30.976V426.68ZM42.272 434.344V424.008H40.4V427.8H38.256V429.304H40.4V434.344H42.272ZM42.576 437.88V436.408H34.624V433.384H32.736V437.88H42.576ZM51.3318 433.96C49.7798 433.064 48.8358 431.576 48.7238 429.064H50.9638V427.576H44.5478V429.064H46.8838C46.7718 431.624 45.8278 433.16 43.9718 434.344L45.1078 435.608C46.2758 434.936 47.4598 433.464 47.7958 432.136C48.1638 433.4 49.3478 434.744 50.2758 435.288L51.3318 433.96ZM53.6998 437.608V424.28H51.9398V429.96H50.1798V431.464H51.9398V437.608H53.6998ZM56.4518 438.264V424.008H54.6758V438.264H56.4518ZM49.6838 426.632V425.16H45.9557V426.632H49.6838Z" fill="#6F52E6"/>
<path d="M66 428L70 432L66 436" stroke="#6F52E6"/>
<path d="M350.793 464.61H351.783L354.373 458.43V457.87H350.063V458.61H353.403L350.793 464.61ZM354.187 465.6H354.957L357.277 457.28H356.507L354.187 465.6ZM357.989 464.58H362.199V463.84H359.199L360.199 462.83C361.299 461.72 362.069 460.86 362.069 459.68C362.069 458.48 361.329 457.73 359.949 457.73C359.189 457.73 358.499 458.05 358.079 458.33L358.289 459.01C358.679 458.75 359.219 458.48 359.779 458.48C360.719 458.48 361.139 458.9 361.139 459.77C361.139 460.71 360.479 461.47 359.529 462.46L357.989 464.06V464.58ZM365.842 464.7C367.212 464.7 368.292 463.78 368.292 461.48V460.9C368.292 458.56 367.182 457.74 365.852 457.74C364.512 457.74 363.342 458.56 363.342 460.94V461.47C363.342 463.76 364.432 464.7 365.842 464.7ZM365.842 463.98C364.812 463.98 364.282 463.19 364.282 461.54V460.83C364.282 459.18 364.832 458.46 365.852 458.46C366.852 458.46 367.382 459.22 367.382 460.9V461.59C367.382 463.3 366.842 463.98 365.842 463.98Z" fill="#101010"/>
<rect x="30" y="452" width="307" height="20" rx="10" fill="#EFEFEF"/>
<path d="M54.363 466.205C56.3083 466.205 57.4861 464.5 57.4861 461.775V461.764C57.4861 459.039 56.3083 457.34 54.363 457.34C52.4119 457.34 51.24 459.039 51.24 461.764V461.775C51.24 464.5 52.4119 466.205 54.363 466.205ZM54.363 465.115C53.2263 465.115 52.5642 463.844 52.5642 461.775V461.764C52.5642 459.695 53.2263 458.436 54.363 458.436C55.4939 458.436 56.1619 459.695 56.1619 461.764V461.775C56.1619 463.844 55.4939 465.115 54.363 465.115ZM60.8611 462.062C61.9978 462.062 62.6892 461.166 62.6892 459.742V459.736C62.6892 458.312 61.9978 457.428 60.8611 457.428C59.7244 457.428 59.033 458.312 59.033 459.736V459.742C59.033 461.166 59.7244 462.062 60.8611 462.062ZM61.7341 466L67.4646 457.545H66.3689L60.6384 466H61.7341ZM60.8611 461.277C60.3044 461.277 59.988 460.709 59.988 459.742V459.736C59.988 458.775 60.3044 458.213 60.8611 458.213C61.4177 458.213 61.74 458.775 61.74 459.736V459.742C61.74 460.709 61.4177 461.277 60.8611 461.277ZM67.2361 466.117C68.3728 466.117 69.0642 465.227 69.0642 463.803V463.797C69.0642 462.373 68.3728 461.482 67.2361 461.482C66.0994 461.482 65.408 462.373 65.408 463.797V463.803C65.408 465.227 66.0994 466.117 67.2361 466.117ZM67.2361 465.332C66.6794 465.332 66.363 464.764 66.363 463.803V463.797C66.363 462.83 66.6794 462.268 67.2361 462.268C67.7927 462.268 68.1091 462.83 68.1091 463.797V463.803C68.1091 464.764 67.7927 465.332 67.2361 465.332Z" fill="white"/>
<rect x="30" y="452" width="122" height="20" rx="10" fill="#6F52E6"/>
<path d="M53.8906 466.158C55.6836 466.158 56.9551 465.115 56.9551 463.662V463.65C56.9551 462.467 56.123 461.717 54.8809 461.605V461.576C55.9121 461.359 56.6621 460.656 56.6621 459.607V459.596C56.6621 458.289 55.5605 457.387 53.8789 457.387C52.2266 457.387 51.1016 458.33 50.9727 459.754L50.9668 459.818H52.1973L52.2031 459.76C52.2852 458.963 52.9414 458.465 53.8789 458.465C54.834 458.465 55.3848 458.945 55.3848 459.766V459.777C55.3848 460.562 54.7285 461.131 53.7617 461.131H52.7715V462.15H53.8027C54.9277 462.15 55.6191 462.684 55.6191 463.639V463.65C55.6191 464.482 54.9219 465.062 53.8906 465.062C52.8418 465.062 52.1328 464.523 52.0508 463.756L52.0449 463.697H50.791L50.7969 463.768C50.9082 465.168 52.0859 466.158 53.8906 466.158ZM61.584 466.205C63.5293 466.205 64.707 464.5 64.707 461.775V461.764C64.707 459.039 63.5293 457.34 61.584 457.34C59.6328 457.34 58.4609 459.039 58.4609 461.764V461.775C58.4609 464.5 59.6328 466.205 61.584 466.205ZM61.584 465.115C60.4473 465.115 59.7852 463.844 59.7852 461.775V461.764C59.7852 459.695 60.4473 458.436 61.584 458.436C62.7148 458.436 63.3828 459.695 63.3828 461.764V461.775C63.3828 463.844 62.7148 465.115 61.584 465.115ZM68.082 462.062C69.2188 462.062 69.9102 461.166 69.9102 459.742V459.736C69.9102 458.312 69.2188 457.428 68.082 457.428C66.9453 457.428 66.2539 458.312 66.2539 459.736V459.742C66.2539 461.166 66.9453 462.062 68.082 462.062ZM68.9551 466L74.6855 457.545H73.5898L67.8594 466H68.9551ZM68.082 461.277C67.5254 461.277 67.209 460.709 67.209 459.742V459.736C67.209 458.775 67.5254 458.213 68.082 458.213C68.6387 458.213 68.9609 458.775 68.9609 459.736V459.742C68.9609 460.709 68.6387 461.277 68.082 461.277ZM74.457 466.117C75.5938 466.117 76.2852 465.227 76.2852 463.803V463.797C76.2852 462.373 75.5938 461.482 74.457 461.482C73.3203 461.482 72.6289 462.373 72.6289 463.797V463.803C72.6289 465.227 73.3203 466.117 74.457 466.117ZM74.457 465.332C73.9004 465.332 73.584 464.764 73.584 463.803V463.797C73.584 462.83 73.9004 462.268 74.457 462.268C75.0137 462.268 75.3301 462.83 75.3301 463.797V463.803C75.3301 464.764 75.0137 465.332 74.457 465.332Z" fill="white"/>
<path d="M42.288 534.088V528.408H40.4V529.816H34.768V528.44H32.88V534.088H42.288ZM31.12 522.328H33.968C33.808 524.296 32.48 525.752 30.56 526.44L31.68 527.912C33.072 527.416 34.544 526.12 34.96 524.712C35.6 526.056 36.96 527.08 38.032 527.512L39.056 526.04C37.536 525.56 36.144 524.264 35.92 522.328H38.64V520.824H31.12V522.328ZM42.272 527.688V520.008H40.4V527.688H42.272ZM40.4 532.6H34.768V531.272H40.4V532.6ZM55.5558 520.776H45.9078V522.28H53.6998C53.6998 524.024 53.5718 525.624 53.3158 526.856H44.3238V528.344H49.7958V534.264H51.6678V528.344H57.2038V526.856H55.0918C55.4118 525.224 55.5558 523.08 55.5558 520.776ZM66.3755 524.888V523.4H58.1035V524.888H66.3755ZM60.1035 522.408H64.5035V520.936H60.1035V522.408ZM69.3195 520.008H67.4315V534.264H69.3195V527.336H71.3035V525.784H69.3195V520.008ZM58.8075 528.456C58.8075 530.264 60.1995 531.528 62.2475 531.528C64.2955 531.528 65.6875 530.2 65.6875 528.456C65.6875 526.664 64.2955 525.384 62.2475 525.384C60.1995 525.384 58.8075 526.712 58.8075 528.456ZM60.6315 528.456C60.6315 527.512 61.3195 526.888 62.2475 526.888C63.1755 526.888 63.8635 527.512 63.8635 528.456C63.8635 529.384 63.2875 530.008 62.2475 530.008C61.3035 530.008 60.6315 529.384 60.6315 528.456ZM83.8033 534.264V520.008H81.9313V534.264H83.8033ZM79.4193 521.496H72.7633V523.048H77.4033C77.1473 525.88 75.0193 528.856 71.8993 530.28L73.0513 531.688C77.4033 529.32 79.3073 525.8 79.4193 521.496ZM90.5541 522.68H93.4181V522.728C93.4181 524.888 92.0421 526.616 89.9781 527.368L91.0821 528.84C92.4581 528.36 93.9621 526.936 94.3941 525.544C95.0021 526.856 96.3941 528.04 97.4821 528.44L98.5061 526.968C96.8741 526.44 95.3701 524.856 95.3381 522.68H98.0741V521.144H90.5541V522.68ZM101.85 530.344V520.008H99.9781V523.8H97.8341V525.304H99.9781V530.344H101.85ZM102.154 533.88V532.408H94.2021V529.384H92.3141V533.88H102.154Z" fill="#101010"/>
<path d="M112 524L116 528L112 532" stroke="#101010"/>
<path d="M356.662 560.61H357.652L360.242 554.43V553.87H355.932V554.61H359.272L356.662 560.61ZM360.056 561.6H360.826L363.146 553.28H362.376L360.056 561.6ZM366.099 560.71C367.579 560.71 368.489 559.87 368.489 558.78C368.489 557.78 367.709 557.3 366.889 557.03C367.579 556.68 368.229 556.2 368.229 555.39C368.229 554.34 367.359 553.73 366.069 553.73C364.749 553.73 363.909 554.45 363.909 555.44C363.909 556.3 364.479 556.8 365.189 557.09C364.449 557.38 363.709 557.99 363.709 558.87C363.709 559.97 364.619 560.71 366.099 560.71ZM366.079 560C365.199 560 364.589 559.54 364.589 558.82C364.589 558.11 365.239 557.63 365.889 557.41C367.019 557.76 367.559 558.07 367.559 558.87C367.559 559.53 366.939 560 366.079 560ZM366.239 556.71C365.349 556.49 364.839 556.09 364.839 555.42C364.839 554.8 365.319 554.44 366.089 554.44C366.899 554.44 367.329 554.86 367.329 555.43C367.329 556.05 366.839 556.45 366.239 556.71Z" fill="#101010"/>
<rect x="30" y="548" width="307" height="20" rx="10" fill="#EFEFEF"/>
<path d="M53.8965 562.205C55.8418 562.205 57.0195 560.5 57.0195 557.775V557.764C57.0195 555.039 55.8418 553.34 53.8965 553.34C51.9453 553.34 50.7734 555.039 50.7734 557.764V557.775C50.7734 560.5 51.9453 562.205 53.8965 562.205ZM53.8965 561.115C52.7598 561.115 52.0977 559.844 52.0977 557.775V557.764C52.0977 555.695 52.7598 554.436 53.8965 554.436C55.0273 554.436 55.6953 555.695 55.6953 557.764V557.775C55.6953 559.844 55.0273 561.115 53.8965 561.115ZM60.3945 558.062C61.5312 558.062 62.2227 557.166 62.2227 555.742V555.736C62.2227 554.312 61.5312 553.428 60.3945 553.428C59.2578 553.428 58.5664 554.312 58.5664 555.736V555.742C58.5664 557.166 59.2578 558.062 60.3945 558.062ZM61.2676 562L66.998 553.545H65.9023L60.1719 562H61.2676ZM60.3945 557.277C59.8379 557.277 59.5215 556.709 59.5215 555.742V555.736C59.5215 554.775 59.8379 554.213 60.3945 554.213C60.9512 554.213 61.2734 554.775 61.2734 555.736V555.742C61.2734 556.709 60.9512 557.277 60.3945 557.277ZM66.7695 562.117C67.9062 562.117 68.5977 561.227 68.5977 559.803V559.797C68.5977 558.373 67.9062 557.482 66.7695 557.482C65.6328 557.482 64.9414 558.373 64.9414 559.797V559.803C64.9414 561.227 65.6328 562.117 66.7695 562.117ZM66.7695 561.332C66.2129 561.332 65.8965 560.764 65.8965 559.803V559.797C65.8965 558.83 66.2129 558.268 66.7695 558.268C67.3262 558.268 67.6426 558.83 67.6426 559.797V559.803C67.6426 560.764 67.3262 561.332 66.7695 561.332Z" fill="white"/>
<rect x="30" y="548" width="300" height="20" rx="10" fill="#6F52E6"/>
<path d="M53.8086 553.34C52.0332 553.34 50.7441 554.582 50.7441 556.281V556.293C50.7441 557.91 51.9043 559.105 53.5156 559.105C54.6641 559.105 55.4316 558.502 55.7363 557.822H55.8535C55.8535 557.887 55.8477 557.951 55.8477 558.016C55.7832 559.703 55.1855 561.092 53.7617 561.092C52.9707 561.092 52.4199 560.682 52.1797 560.037L52.1621 559.979H50.8555L50.873 560.049C51.1484 561.326 52.2617 562.205 53.7617 562.205C55.8535 562.205 57.1016 560.518 57.1016 557.652V557.641C57.1016 554.535 55.502 553.34 53.8086 553.34ZM53.8027 558.045C52.7832 558.045 52.0391 557.295 52.0391 556.258V556.246C52.0391 555.232 52.8301 554.441 53.8203 554.441C54.8164 554.441 55.5957 555.25 55.5957 556.281V556.287C55.5957 557.307 54.8164 558.045 53.8027 558.045ZM61.8887 562.205C63.6641 562.205 64.9473 560.963 64.9473 559.264V559.252C64.9473 557.635 63.793 556.439 62.1816 556.439C61.0273 556.439 60.2656 557.043 59.9551 557.723H59.8438C59.8438 557.658 59.8438 557.594 59.8496 557.529C59.9141 555.842 60.5059 554.453 61.9297 554.453C62.7266 554.453 63.2773 554.863 63.5117 555.508L63.5352 555.566H64.8359L64.8242 555.496C64.543 554.219 63.4297 553.34 61.9355 553.34C59.8438 553.34 58.5957 555.027 58.5957 557.887V557.898C58.5957 561.01 60.1895 562.205 61.8887 562.205ZM60.1016 559.264V559.258C60.1016 558.238 60.875 557.5 61.8887 557.5C62.9141 557.5 63.6523 558.25 63.6523 559.287V559.299C63.6523 560.312 62.8672 561.104 61.877 561.104C60.8809 561.104 60.1016 560.295 60.1016 559.264ZM68.3047 558.062C69.4414 558.062 70.1328 557.166 70.1328 555.742V555.736C70.1328 554.312 69.4414 553.428 68.3047 553.428C67.168 553.428 66.4766 554.312 66.4766 555.736V555.742C66.4766 557.166 67.168 558.062 68.3047 558.062ZM69.1777 562L74.9082 553.545H73.8125L68.082 562H69.1777ZM68.3047 557.277C67.748 557.277 67.4316 556.709 67.4316 555.742V555.736C67.4316 554.775 67.748 554.213 68.3047 554.213C68.8613 554.213 69.1836 554.775 69.1836 555.736V555.742C69.1836 556.709 68.8613 557.277 68.3047 557.277ZM74.6797 562.117C75.8164 562.117 76.5078 561.227 76.5078 559.803V559.797C76.5078 558.373 75.8164 557.482 74.6797 557.482C73.543 557.482 72.8516 558.373 72.8516 559.797V559.803C72.8516 561.227 73.543 562.117 74.6797 562.117ZM74.6797 561.332C74.123 561.332 73.8066 560.764 73.8066 559.803V559.797C73.8066 558.83 74.123 558.268 74.6797 558.268C75.2363 558.268 75.5527 558.83 75.5527 559.797V559.803C75.5527 560.764 75.2363 561.332 74.6797 561.332Z" fill="white"/>
<path d="M44.0327 364.234C44.0327 364.234 49.7428 358.514 49.8211 352.07C49.8994 345.626 73.2929 355.694 69.6461 365.039C69.6461 365.039 61.3183 370.839 61.6365 376.076" fill="#45207F"/>
<path d="M44.0327 364.234C44.0327 364.234 49.7428 358.514 49.8211 352.07C49.8994 345.626 73.2929 355.694 69.6461 365.039C69.6461 365.039 61.3183 370.839 61.6365 376.076" stroke="black" stroke-width="0.5" stroke-miterlimit="10"/>
<path d="M62.3438 372.719C56.3367 362.155 45.8127 362.114 45.8127 362.114L44.2354 364.048C44.2354 364.048 55.7413 368.135 61.5123 375.424L62.3438 372.719Z" fill="#EAE1FF"/>
<path d="M58.8947 381.012C58.8947 381.012 68.2491 383.778 61.4676 375.405C54.6861 367.032 42.9925 362.422 39.4066 364.113C35.8207 365.805 35.8207 368.415 58.8947 381.012Z" fill="#45207F" stroke="black" stroke-width="0.5" stroke-miterlimit="10"/>
<path d="M49.7043 389.85C49.7043 389.85 55.5573 389.635 57.2204 385.641C58.8835 381.647 58.1464 378.157 58.1464 378.157C51.1859 365.354 39.3332 368.529 39.3332 368.529C39.3332 368.529 33.3049 360.335 30.9147 362.486C28.5245 364.637 31.7462 376.927 31.7462 376.927C31.7462 376.927 30.1478 384.373 33.0973 386.971C33.0973 386.971 36.1226 389.543 39.8092 389.732C43.096 390.086 46.4098 390.126 49.7043 389.85Z" fill="white" stroke="black" stroke-width="0.5" stroke-miterlimit="10"/>
<path d="M39.4625 384.696C41.1484 384.696 42.5151 383.217 42.5151 381.393C42.5151 379.568 41.1484 378.089 39.4625 378.089C37.7765 378.089 36.4098 379.568 36.4098 381.393C36.4098 383.217 37.7765 384.696 39.4625 384.696Z" fill="white" stroke="black" stroke-width="0.5" stroke-miterlimit="10"/>
<path d="M50.3358 384.766C52.0217 384.766 53.3884 383.287 53.3884 381.463C53.3884 379.638 52.0217 378.159 50.3358 378.159C48.6498 378.159 47.2831 379.638 47.2831 381.463C47.2831 383.287 48.6498 384.766 50.3358 384.766Z" fill="white" stroke="black" stroke-width="0.5" stroke-miterlimit="10"/>
<path d="M39.1902 378.157C39.1902 378.157 36.1761 381.045 39.1902 384.466C39.1902 384.466 43.3466 381.251 39.5792 378.089" fill="#45207F"/>
<path d="M39.1902 378.157C39.1902 378.157 36.1761 381.045 39.1902 384.466C39.1902 384.466 43.3466 381.251 39.5792 378.089" stroke="black" stroke-width="0.5" stroke-miterlimit="10"/>
<path d="M50.1481 378.241C50.1481 378.241 47.3279 381.09 50.1481 384.466C50.1481 384.466 54.0348 381.294 50.5123 378.174" fill="#45207F"/>
<path d="M50.1481 378.241C50.1481 378.241 47.3279 381.09 50.1481 384.466C50.1481 384.466 54.0348 381.294 50.5123 378.174" stroke="black" stroke-width="0.5" stroke-miterlimit="10"/>
<path d="M41.1478 376.8H42.5151" stroke="black" stroke-width="0.5" stroke-miterlimit="10"/>
<path d="M47.0929 376.954H48.6205" stroke="black" stroke-width="0.5" stroke-miterlimit="10"/>
<path d="M39.5047 386.039C42.1729 386.039 44.336 383.908 44.336 381.278C44.336 378.649 42.1729 376.517 39.5047 376.517C36.8364 376.517 34.6733 378.649 34.6733 381.278C34.6733 383.908 36.8364 386.039 39.5047 386.039Z" stroke="#45207F" stroke-width="0.5" stroke-miterlimit="10"/>
<path d="M44.5448 382.067C44.5448 382.067 41.6015 381.919 40.7526 385.154C40.7526 385.154 44.3497 385.733 44.7412 382.235" fill="black"/>
<path d="M48.6192 385.042C48.6192 385.042 47.7752 382.04 44.3932 382.066C44.3932 382.066 45.0432 385.844 48.5247 385.286" fill="black"/>
<path d="M33.3621 366.909L34.1924 367.699L35.3235 367.474L34.8164 368.495L35.3844 369.485L34.2409 369.327L33.4603 370.164L33.2614 369.044L32.2124 368.571L33.2304 368.038L33.3621 366.909Z" fill="#EAE1FF"/>
<path d="M34.692 381.723C34.692 381.723 34.5493 385.275 35.0556 388.256C35.068 388.328 35.0817 388.401 35.0941 388.473" stroke="#45207F" stroke-width="0.5" stroke-miterlimit="10"/>
<rect x="6" y="6" width="387" height="824" rx="46" stroke="#3C3C3C" stroke-width="12"/>
<defs>
<clipPath id="clip0_164:4054">
<rect width="375" height="44" fill="white" transform="translate(12 12)"/>
</clipPath>
</defs>
</svg>
