<svg width="365" height="88" viewBox="0 0 365 88" fill="none" xmlns="http://www.w3.org/2000/svg">
<path d="M0 12C0 5.37258 5.37258 0 12 0H365V76C365 82.6274 359.627 88 353 88H12C5.37259 88 0 82.6274 0 76V12Z" fill="#F4F1FF"/>
<path d="M32.496 28.896V29.968H35.36V34.768H36.672V24.832H35.36V28.896H32.496ZM33.248 31.968C31.152 31.312 29.744 29.664 29.744 27.888V27.568H32.912V26.528H29.744V24.768H28.432V26.528H25.248V27.568H28.432V27.888C28.432 29.84 27.008 31.632 24.88 32.336L25.536 33.36C27.216 32.784 28.512 31.552 29.12 30C29.744 31.36 30.992 32.464 32.608 32.992L33.248 31.968ZM32.72 33.808H31.376V34.112C31.376 36.064 29.088 37.648 26.544 38.096L27.072 39.12C29.216 38.736 31.168 37.584 32.048 35.968C32.896 37.616 34.848 38.736 37.024 39.12L37.536 38.096C34.976 37.664 32.72 36.112 32.72 34.112V33.808ZM45.4548 31.952H41.5828V29.36H45.4548V31.952ZM46.7508 29.952H50.0628V35.456H51.3908V24.832H50.0628V28.88H46.7508V25.792H45.4548V28.32H41.5828V25.792H40.2868V33.008H46.7508V29.952ZM43.4708 37.792V34.416H42.1588V38.864H51.7268V37.792H43.4708ZM60.4455 27.632H61.8215V26.56H58.4295V27.632H59.2935V29.136C59.2935 30.528 59.2295 32.672 58.2215 34.176C57.1975 32.576 57.1335 30.336 57.1335 29.136V27.632H57.9975V26.56H54.4775V27.632H55.9815V29.136C55.9815 30.896 55.6455 33.504 53.9975 34.848L54.7495 35.744C55.6775 35.008 56.2055 33.824 56.5255 32.56C56.7815 33.856 57.2935 35.104 58.2215 35.888C59.1495 35.104 59.6455 33.888 59.9015 32.608C60.2215 33.872 60.7495 35.008 61.6775 35.744L62.4295 34.848C60.7815 33.536 60.4455 30.976 60.4455 29.136V27.632ZM65.4215 24.832V30.688H63.8695V25.152H62.6535V38.48H63.8695V31.76H65.4215V39.184H66.6695V24.832H65.4215ZM76.2113 29.488H83.5393V32.128H76.2113V29.488ZM80.5312 36.272V33.184H84.8193V25.856H83.5393V28.416H76.2113V25.856H74.9153V33.184H79.2033V36.272H73.3793V37.344H86.3873V36.272H80.5312ZM98.098 28.64H91.058V26.352H98.098V28.64ZM99.394 25.312H89.778V29.68H99.394V25.312ZM101.074 31.936V30.88H88.082V31.936H93.922V33.344H89.65V34.336H98.114V35.616H89.698V39.024H99.842V38H90.978V36.576H99.41V33.344H95.234V31.936H101.074ZM106.065 34.816C104.913 34.816 104.193 33.36 104.193 31.008C104.193 28.704 104.913 27.248 106.065 27.248C107.185 27.248 107.921 28.704 107.921 31.008C107.921 33.36 107.185 34.816 106.065 34.816ZM110.913 30.416H109.105C108.945 27.712 107.793 26.032 106.065 26.032C104.193 26.032 102.993 27.952 102.993 31.008C102.993 34.112 104.193 36.032 106.065 36.032C107.825 36.032 108.993 34.304 109.105 31.488H110.913V38.48H112.161V25.152H110.913V30.416ZM113.761 24.832V39.184H115.009V24.832H113.761ZM122.56 26.064H121.248V28.64C121.248 31.296 119.616 34.064 117.536 35.104L118.336 36.144C119.952 35.28 121.28 33.472 121.904 31.344C122.56 33.36 123.872 35.072 125.503 35.888L126.272 34.848C124.192 33.856 122.56 31.248 122.56 28.64V26.064ZM128.048 24.832V29.696H124.72V30.768H128.048V39.2H129.36V24.832H128.048ZM137.397 26.368V27.456H142.661C142.357 30.848 140.389 33.6 136.725 35.44L137.445 36.464C142.085 34.144 143.957 30.448 143.957 26.368H137.397ZM149.973 30.656H147.669V24.832H146.357V39.184H147.669V31.744H149.973V30.656ZM159.668 31.776C157.556 31.072 156.196 29.392 156.196 27.52V26.96H159.364V25.904H151.668V26.96H154.884V27.52C154.884 29.584 153.444 31.44 151.284 32.192L151.956 33.232C153.668 32.624 154.964 31.344 155.572 29.712C156.18 31.136 157.412 32.272 159.044 32.8L159.668 31.776ZM157.924 38.128C155.78 38.128 154.5 37.536 154.5 36.512C154.5 35.504 155.78 34.912 157.924 34.912C160.036 34.912 161.332 35.504 161.332 36.512C161.332 37.536 160.036 38.128 157.924 38.128ZM157.924 33.872C154.98 33.872 153.188 34.848 153.188 36.512C153.188 38.192 154.98 39.168 157.924 39.168C160.836 39.168 162.644 38.192 162.644 36.512C162.644 34.848 160.836 33.872 157.924 33.872ZM162.484 28.464V24.848H161.172V33.504H162.484V29.568H164.612V28.464H162.484ZM172.458 26.576H171.146V35.456H172.058C173.61 35.456 175.258 35.376 177.194 35.008L177.066 33.872C175.354 34.208 173.834 34.304 172.458 34.32V26.576ZM181.354 24.832V30.672H179.322V25.152H178.09V38.448H179.322V31.76H181.354V39.168H182.618V24.832H181.354ZM185.929 26.368V27.456H191.193C190.889 30.848 188.921 33.6 185.257 35.44L185.977 36.464C190.617 34.144 192.489 30.448 192.489 26.368H185.929ZM198.505 30.656H196.201V24.832H194.889V39.184H196.201V31.744H198.505V30.656ZM208.078 34.784C206.686 34.784 205.71 33.28 205.71 30.944C205.71 28.624 206.686 27.12 208.078 27.12C209.454 27.12 210.43 28.624 210.43 30.944C210.43 33.28 209.454 34.784 208.078 34.784ZM208.078 25.936C205.966 25.936 204.462 27.888 204.462 30.944C204.462 34 205.966 35.952 208.078 35.952C210.19 35.952 211.678 34 211.678 30.944C211.678 27.888 210.19 25.936 208.078 25.936ZM217.662 30.56H215.294V24.848H213.982V39.184H215.294V31.664H217.662V30.56ZM219.485 26.384V27.472H222.141C221.981 30.352 221.069 32.976 218.973 35.152L220.013 35.92C222.573 33.184 223.405 29.808 223.405 26.384H219.485ZM223.869 26.384V27.472H226.157C226.029 30.48 225.341 33.632 223.181 36.176L224.269 36.896C226.845 33.792 227.389 29.808 227.389 26.384H223.869ZM229.421 24.832V39.184H230.749V24.832H229.421ZM245.196 29.152H236.748V25.36H235.436V30.224H245.196V29.152ZM236.652 34.64H235.34V38.832H245.276V37.76H236.652V34.64ZM233.676 32.144V33.2H246.684V32.144H233.676ZM262.834 30.544H255.714V28.432H262.834V30.544ZM264.146 25.408H262.834V27.376H255.714V25.408H254.418V31.616H264.146V25.408ZM265.794 33.344H252.77V34.4H258.594V39.2H259.906V34.4H265.794V33.344ZM277.488 29.984H270.512V28.128H277.488V29.984ZM278.784 25.28H277.488V27.12H270.512V25.28H269.216V31.024H278.784V25.28ZM270.432 34.96H269.136V38.864H279.056V37.792H270.432V34.96ZM267.472 32.416V33.472H273.44V36.256H274.752V33.472H280.512V32.416H267.472ZM288.703 26.384C290.959 26.384 292.399 27.056 292.399 28.192C292.399 29.328 290.959 29.984 288.703 29.984C286.447 29.984 285.007 29.328 285.007 28.192C285.007 27.056 286.447 26.384 288.703 26.384ZM288.703 31.04C291.775 31.04 293.743 29.984 293.743 28.192C293.743 26.4 291.775 25.328 288.703 25.328C285.631 25.328 283.663 26.4 283.663 28.192C283.663 29.984 285.631 31.04 288.703 31.04ZM285.199 34.704H283.887V38.864H293.759V37.792H285.199V34.704ZM282.207 32.384V33.44H295.183V32.384H282.207ZM307.285 34.656H303.189V30.88H307.285V34.656ZM307.285 29.84H303.189V26.048H301.893V35.728H308.565V26.048H307.285V29.84ZM314.725 30.48H312.357V24.848H311.045V39.168H312.357V31.584H314.725V30.48ZM323.188 36.336V33.632H327.78V32.576H318.948V30.256H327.444V25.888H317.62V26.96H326.164V29.2H317.652V33.632H321.86V36.336H316.02V37.408H329.06V36.336H323.188ZM35.28 48.832V63.216H36.592V48.832H35.28ZM29.024 49.936C26.896 49.936 25.376 51.888 25.376 54.944C25.376 58 26.896 59.952 29.024 59.952C31.152 59.952 32.672 58 32.672 54.944C32.672 51.888 31.152 49.936 29.024 49.936ZM29.024 51.12C30.416 51.12 31.408 52.624 31.408 54.944C31.408 57.28 30.416 58.784 29.024 58.784C27.616 58.784 26.624 57.28 26.624 54.944C26.624 52.624 27.616 51.12 29.024 51.12ZM50.0628 58.544H51.3908V48.848H50.0628V52.88H46.9748V53.952H50.0628V58.544ZM40.4948 49.968V51.04H45.5188C45.2628 53.568 43.1988 55.52 39.8068 56.592L40.3828 57.632C44.4788 56.304 46.9268 53.664 46.9268 49.968H40.4948ZM47.4068 57.296H46.0948V57.952C46.0948 60.048 43.8548 61.648 41.2948 62.096L41.8228 63.136C43.9668 62.72 45.9028 61.584 46.7508 59.904C47.5988 61.552 49.5188 62.688 51.6308 63.104L52.1588 62.08C49.6308 61.6 47.4068 60.016 47.4068 57.952V57.296ZM54.3594 64.9297H55.5547L56.8516 60.3438H55.0469L54.3594 64.9297ZM73.6594 51.792C73.6594 53.568 73.6594 55.712 73.0834 58.64L74.3954 58.784C74.9554 55.68 74.9554 53.616 74.9554 51.792V50.352H65.1154V51.424H73.6594V51.792ZM63.7234 60V61.088H76.6994V60H63.7234ZM80.2341 51.648H84.2821V50.576H78.9381V59.648H79.8821C82.0261 59.648 83.4821 59.584 85.1941 59.216L85.0821 58.128C83.5141 58.464 82.1541 58.544 80.2341 58.56V51.648ZM89.3541 48.832V54.592H87.3221V49.152H86.0901V62.464H87.3221V55.664H89.3541V63.184H90.6181V48.832H89.3541ZM99.0489 55.712H95.0169V51.168H99.0489V55.712ZM100.329 50.112H93.7369V56.752H100.329V50.112ZM96.6649 58.352H95.3529V62.864H104.921V61.792H96.6649V58.352ZM104.281 53.2V48.816H102.969V59.328H104.281V54.304H106.393V53.2H104.281ZM114.344 50.064C116.696 50.064 118.04 50.608 118.04 51.568C118.04 52.528 116.696 53.072 114.344 53.072C111.992 53.072 110.648 52.528 110.648 51.568C110.648 50.608 111.992 50.064 114.344 50.064ZM114.344 54.048C117.496 54.048 119.384 53.184 119.384 51.568C119.384 49.952 117.496 49.072 114.344 49.072C111.192 49.072 109.304 49.952 109.304 51.568C109.304 53.184 111.192 54.048 114.344 54.048ZM110.744 60.544H119.176V57.312H109.416V58.304H117.88V59.584H109.464V63.024H119.608V62H110.744V60.544ZM107.848 55.024V56.08H120.84V55.024H107.848ZM131.661 50.592C133.053 50.592 134.045 51.344 134.045 52.464C134.045 53.584 133.053 54.336 131.661 54.336C130.253 54.336 129.261 53.584 129.261 52.464C129.261 51.344 130.253 50.592 131.661 50.592ZM131.661 55.408C133.789 55.408 135.309 54.208 135.309 52.464C135.309 50.704 133.789 49.504 131.661 49.504C129.517 49.504 127.997 50.704 127.997 52.464C127.997 54.208 129.517 55.408 131.661 55.408ZM136.381 56.112C133.229 56.592 129.597 56.624 126.925 56.624L127.101 57.728C128.285 57.728 129.645 57.712 131.069 57.648V62.736H132.381V57.568C133.741 57.488 135.133 57.328 136.493 57.088L136.381 56.112ZM137.421 48.848V63.2H138.733V48.848H137.421ZM150.188 50.592H146.604V48.832H145.292V50.592H141.724V51.648H150.188V50.592ZM143.772 55.104C143.772 54.112 144.652 53.472 145.948 53.472C147.244 53.472 148.14 54.112 148.14 55.104C148.14 56.112 147.244 56.752 145.948 56.752C144.652 56.752 143.772 56.112 143.772 55.104ZM149.388 55.104C149.388 53.504 147.98 52.448 145.948 52.448C143.916 52.448 142.524 53.504 142.524 55.104C142.524 56.72 143.916 57.776 145.948 57.776C147.98 57.776 149.388 56.72 149.388 55.104ZM145.196 58.752H143.884V62.864H153.452V61.792H145.196V58.752ZM152.812 53.568V48.832H151.5V59.6H152.812V54.672H154.924V53.568H152.812ZM168.434 52.56V53.632H171.266V57.392H172.594V48.848H171.266V52.56H168.434ZM169.234 55.824C167.154 55.088 165.746 53.28 165.746 51.44V50.944H168.898V49.888H161.234V50.944H164.434V51.44C164.434 53.504 162.962 55.44 160.818 56.224L161.506 57.264C163.186 56.624 164.514 55.28 165.122 53.616C165.746 55.088 166.978 56.272 168.578 56.848L169.234 55.824ZM167.858 62.16C165.698 62.16 164.386 61.552 164.386 60.512C164.386 59.472 165.698 58.848 167.858 58.848C170.018 58.848 171.33 59.472 171.33 60.512C171.33 61.552 170.018 62.16 167.858 62.16ZM167.858 57.84C164.914 57.84 163.074 58.816 163.074 60.512C163.074 62.208 164.914 63.184 167.858 63.184C170.802 63.184 172.642 62.208 172.642 60.512C172.642 58.816 170.802 57.84 167.858 57.84ZM178.321 53.488H185.649V56.128H178.321V53.488ZM182.641 60.272V57.184H186.929V49.856H185.649V52.416H178.321V49.856H177.025V57.184H181.313V60.272H175.489V61.344H188.497V60.272H182.641ZM195.878 56.416C198.102 56.08 200.166 54.976 201.078 53.424C201.99 54.976 204.038 56.08 206.262 56.416L206.726 55.36C204.166 55.008 201.734 53.424 201.734 51.664H206.31V50.608H201.734V48.832H200.422V50.608H195.846V51.664H200.406C200.406 53.44 197.99 55.008 195.398 55.36L195.878 56.416ZM207.574 57.504H194.598V58.576H200.422V63.2H201.734V58.576H207.574V57.504ZM216.901 53.248V54.336H219.797V59.552H221.125V48.848H219.797V53.248H216.901ZM217.781 56.496C215.653 55.824 214.197 54.16 214.197 52.256V51.808H217.365V50.752H214.197V48.912H212.885V50.752H209.701V51.808H212.885V52.256C212.885 54.256 211.461 56.048 209.333 56.768L209.989 57.792C211.669 57.2 212.949 55.984 213.557 54.4C214.213 55.856 215.493 56.992 217.141 57.536L217.781 56.496ZM213.269 61.792V58.592H211.941V62.864H221.525V61.792H213.269ZM233.419 50.064H232.107V52.64C232.107 55.296 230.475 58.064 228.395 59.104L229.195 60.144C230.811 59.28 232.139 57.472 232.763 55.344C233.419 57.36 234.731 59.072 236.363 59.888L237.131 58.848C235.051 57.856 233.419 55.248 233.419 52.64V50.064ZM238.907 48.832V53.696H235.579V54.768H238.907V63.2H240.219V48.832H238.907ZM253.546 48.832V63.2H254.858V48.832H253.546ZM243.93 50.048V59.728H250.682V50.048H249.386V53.84H245.226V50.048H243.93ZM245.226 54.88H249.386V58.656H245.226V54.88ZM270.2 56.048C267.688 55.568 264.968 53.392 264.968 50.944V49.84H263.592V50.944C263.592 53.392 260.888 55.552 258.376 56.048L258.968 57.136C261.128 56.624 263.368 55.088 264.28 52.992C265.192 55.104 267.432 56.64 269.608 57.136L270.2 56.048ZM257.832 60.176V61.264H270.84V60.176H257.832ZM273.531 58.2656H275.109L275.266 50.7188H273.367L273.531 58.2656ZM274.328 62.1719C275.047 62.1719 275.523 61.7031 275.523 61.0078C275.523 60.3047 275.047 59.8359 274.328 59.8359C273.602 59.8359 273.117 60.3047 273.117 61.0078C273.117 61.7031 273.602 62.1719 274.328 62.1719Z" fill="black"/>
</svg>
