<svg width="365" height="88" viewBox="0 0 365 88" fill="none" xmlns="http://www.w3.org/2000/svg">
<path d="M0 0H353C359.627 0 365 5.37258 365 12V76C365 82.6274 359.627 88 353 88H12C5.37259 88 0 82.6274 0 76V0Z" fill="#F4F1FF"/>
<path d="M34.8 27.792C34.8 29.568 34.8 31.712 34.224 34.64L35.536 34.784C36.096 31.68 36.096 29.616 36.096 27.792V26.352H26.256V27.424H34.8V27.792ZM24.864 36V37.088H37.84V36H24.864ZM45.8618 27.296H51.2218V26.208H44.5498V35.632H45.6858C48.3898 35.632 50.2778 35.536 52.4698 35.12L52.3258 34.032C50.2458 34.4 48.4058 34.512 45.8618 34.512V27.296ZM57.3498 30.496H54.9818V24.832H53.6698V39.216H54.9818V31.584H57.3498V30.496ZM65.1405 25.152C62.0365 25.152 60.1005 26.16 60.1005 27.872C60.1005 29.568 62.0365 30.576 65.1405 30.576C68.2445 30.576 70.1805 29.568 70.1805 27.872C70.1805 26.16 68.2445 25.152 65.1405 25.152ZM65.1405 26.192C67.4125 26.192 68.8365 26.816 68.8365 27.872C68.8365 28.928 67.4125 29.552 65.1405 29.552C62.8685 29.552 61.4445 28.928 61.4445 27.872C61.4445 26.816 62.8685 26.192 65.1405 26.192ZM60.2605 34.272V38.992H70.0525V34.272H60.2605ZM68.7725 35.312V37.936H61.5405V35.312H68.7725ZM58.6605 31.808V32.864H71.6365V31.808H58.6605ZM79.8593 26.384C82.1153 26.384 83.5553 27.056 83.5553 28.192C83.5553 29.328 82.1153 29.984 79.8593 29.984C77.6033 29.984 76.1633 29.328 76.1633 28.192C76.1633 27.056 77.6033 26.384 79.8593 26.384ZM79.8593 31.04C82.9313 31.04 84.8993 29.984 84.8993 28.192C84.8993 26.4 82.9313 25.328 79.8593 25.328C76.7873 25.328 74.8193 26.4 74.8193 28.192C74.8193 29.984 76.7873 31.04 79.8593 31.04ZM76.3553 34.704H75.0433V38.864H84.9153V37.792H76.3553V34.704ZM73.3633 32.384V33.44H86.3393V32.384H73.3633ZM98.441 34.656H94.345V30.88H98.441V34.656ZM98.441 29.84H94.345V26.048H93.049V35.728H99.721V26.048H98.441V29.84ZM105.881 30.48H103.513V24.848H102.201V39.168H103.513V31.584H105.881V30.48ZM114.344 36.336V33.632H118.936V32.576H110.104V30.256H118.6V25.888H108.776V26.96H117.32V29.2H108.808V33.632H113.016V36.336H107.176V37.408H120.216V36.336H114.344ZM136.35 37.92H129.198V34.992H136.35V37.92ZM139.31 31.52V30.464H137.294C137.742 28.416 137.742 26.944 137.742 26.08V25.52H133.214V26.576H136.462C136.446 27.456 136.382 28.72 135.998 30.464H131.614C132.142 28.304 132.142 26.72 132.142 25.936V25.52H127.534V26.576H130.878C130.846 27.456 130.75 28.736 130.286 30.464H126.27V31.52H132.11V33.936H127.902V38.976H137.63V33.936H133.422V31.52H139.31ZM145.66 25.888C143.436 25.888 141.82 27.248 141.82 29.264C141.82 31.264 143.436 32.64 145.66 32.64C147.9 32.64 149.5 31.264 149.5 29.264C149.5 27.248 147.9 25.888 145.66 25.888ZM145.66 27.008C147.148 27.008 148.22 27.92 148.22 29.264C148.22 30.592 147.148 31.52 145.66 31.52C144.188 31.52 143.1 30.592 143.1 29.264C143.1 27.92 144.188 27.008 145.66 27.008ZM151.388 24.832V39.216H152.7V24.832H151.388ZM141.26 36.064C143.852 36.064 147.324 36.032 150.556 35.44L150.444 34.464C147.308 34.944 143.708 34.96 141.1 34.96L141.26 36.064ZM168.882 31.376C166.77 30.72 165.266 29.04 165.266 27.152V26.832H168.514V25.76H160.642V26.832H163.922V27.152C163.922 29.12 162.45 30.912 160.274 31.6L160.946 32.64C162.658 32.048 163.986 30.8 164.61 29.216C165.266 30.704 166.594 31.856 168.242 32.384L168.882 31.376ZM170.578 37.92H163.922V36.064H170.578V37.92ZM170.578 35.04H163.922V33.296H162.626V38.992H171.874V33.296H170.578V35.04ZM170.562 24.832V32.608H171.874V24.832H170.562ZM181.297 26.064C183.649 26.064 184.993 26.608 184.993 27.568C184.993 28.528 183.649 29.072 181.297 29.072C178.945 29.072 177.601 28.528 177.601 27.568C177.601 26.608 178.945 26.064 181.297 26.064ZM181.297 30.048C184.449 30.048 186.337 29.184 186.337 27.568C186.337 25.952 184.449 25.072 181.297 25.072C178.145 25.072 176.257 25.952 176.257 27.568C176.257 29.184 178.145 30.048 181.297 30.048ZM177.697 36.544H186.129V33.312H176.369V34.304H184.833V35.584H176.417V39.024H186.561V38H177.697V36.544ZM174.801 31.024V32.08H187.793V31.024H174.801ZM202.231 31.776C200.119 31.072 198.759 29.392 198.759 27.52V26.96H201.927V25.904H194.231V26.96H197.447V27.52C197.447 29.584 196.007 31.44 193.847 32.192L194.519 33.232C196.231 32.624 197.527 31.344 198.135 29.712C198.743 31.136 199.975 32.272 201.607 32.8L202.231 31.776ZM200.487 38.128C198.343 38.128 197.062 37.536 197.062 36.512C197.062 35.504 198.343 34.912 200.487 34.912C202.599 34.912 203.895 35.504 203.895 36.512C203.895 37.536 202.599 38.128 200.487 38.128ZM200.487 33.872C197.543 33.872 195.751 34.848 195.751 36.512C195.751 38.192 197.543 39.168 200.487 39.168C203.399 39.168 205.207 38.192 205.207 36.512C205.207 34.848 203.399 33.872 200.487 33.872ZM205.047 28.464V24.848H203.735V33.504H205.047V29.568H207.175V28.464H205.047ZM214.533 31.712H210.501V27.168H214.533V31.712ZM215.813 26.112H209.221V32.752H215.813V26.112ZM212.149 34.352H210.837V38.864H220.405V37.792H212.149V34.352ZM219.765 29.2V24.816H218.453V35.328H219.765V30.304H221.877V29.2H219.765ZM227.556 34.896C226.26 34.896 225.316 33.968 225.316 32.688C225.316 31.392 226.26 30.464 227.556 30.464C228.868 30.464 229.812 31.392 229.812 32.688C229.812 33.968 228.868 34.896 227.556 34.896ZM227.556 29.376C225.54 29.376 224.084 30.752 224.084 32.688C224.084 34.64 225.54 35.984 227.556 35.984C229.604 35.984 231.06 34.64 231.06 32.688C231.06 30.752 229.604 29.376 227.556 29.376ZM228.196 25.008H226.884V27.136H223.268V28.192H231.732V27.136H228.196V25.008ZM236.756 30.736H234.404V24.848H233.092V39.184H234.404V31.84H236.756V30.736ZM238.915 26.384V27.44H244.307C244.035 30.848 242.115 33.6 238.259 35.44L238.963 36.512C243.731 34.176 245.635 30.528 245.635 26.384H238.915ZM248.531 24.832V39.184H249.843V24.832H248.531ZM261.865 26.592C263.257 26.592 264.249 27.344 264.249 28.464C264.249 29.584 263.257 30.336 261.865 30.336C260.457 30.336 259.465 29.584 259.465 28.464C259.465 27.344 260.457 26.592 261.865 26.592ZM261.865 31.408C263.993 31.408 265.513 30.208 265.513 28.464C265.513 26.704 263.993 25.504 261.865 25.504C259.721 25.504 258.201 26.704 258.201 28.464C258.201 30.208 259.721 31.408 261.865 31.408ZM266.585 32.112C263.433 32.592 259.801 32.624 257.129 32.624L257.305 33.728C258.489 33.728 259.849 33.712 261.273 33.648V38.736H262.585V33.568C263.945 33.488 265.337 33.328 266.697 33.088L266.585 32.112ZM267.625 24.848V39.2H268.937V24.848H267.625ZM280.391 26.592H276.807V24.832H275.495V26.592H271.927V27.648H280.391V26.592ZM273.975 31.104C273.975 30.112 274.855 29.472 276.151 29.472C277.447 29.472 278.343 30.112 278.343 31.104C278.343 32.112 277.447 32.752 276.151 32.752C274.855 32.752 273.975 32.112 273.975 31.104ZM279.591 31.104C279.591 29.504 278.183 28.448 276.151 28.448C274.119 28.448 272.727 29.504 272.727 31.104C272.727 32.72 274.119 33.776 276.151 33.776C278.183 33.776 279.591 32.72 279.591 31.104ZM275.399 34.752H274.087V38.864H283.655V37.792H275.399V34.752ZM283.015 29.568V24.832H281.703V35.6H283.015V30.672H285.127V29.568H283.015ZM300.925 27.792C300.925 29.568 300.925 31.712 300.349 34.64L301.661 34.784C302.221 31.68 302.221 29.616 302.221 27.792V26.352H292.381V27.424H300.925V27.792ZM290.989 36V37.088H303.965V36H290.989ZM307.5 27.648H311.548V26.576H306.204V35.648H307.148C309.292 35.648 310.748 35.584 312.46 35.216L312.348 34.128C310.78 34.464 309.42 34.544 307.5 34.56V27.648ZM316.62 24.832V30.592H314.588V25.152H313.356V38.464H314.588V31.664H316.62V39.184H317.884V24.832H316.62ZM325.067 25.888C322.843 25.888 321.227 27.248 321.227 29.264C321.227 31.264 322.843 32.64 325.067 32.64C327.307 32.64 328.907 31.264 328.907 29.264C328.907 27.248 327.307 25.888 325.067 25.888ZM325.067 27.008C326.555 27.008 327.627 27.92 327.627 29.264C327.627 30.592 326.555 31.52 325.067 31.52C323.595 31.52 322.507 30.592 322.507 29.264C322.507 27.92 323.595 27.008 325.067 27.008ZM330.795 24.832V39.216H332.107V24.832H330.795ZM320.667 36.064C323.259 36.064 326.731 36.032 329.963 35.44L329.851 34.464C326.715 34.944 323.115 34.96 320.507 34.96L320.667 36.064ZM26.864 50.576H25.552V59.456H26.464C28.016 59.456 29.664 59.376 31.6 59.008L31.472 57.872C29.76 58.208 28.24 58.304 26.864 58.32V50.576ZM35.76 48.832V54.672H33.728V49.152H32.496V62.448H33.728V55.76H35.76V63.168H37.024V48.832H35.76ZM48.3508 55.376C46.2388 54.72 44.7348 53.04 44.7348 51.152V50.832H47.9828V49.76H40.1108V50.832H43.3908V51.152C43.3908 53.12 41.9188 54.912 39.7428 55.6L40.4148 56.64C42.1268 56.048 43.4548 54.8 44.0788 53.216C44.7348 54.704 46.0628 55.856 47.7108 56.384L48.3508 55.376ZM50.0468 61.92H43.3908V60.064H50.0468V61.92ZM50.0468 59.04H43.3908V57.296H42.0948V62.992H51.3428V57.296H50.0468V59.04ZM50.0308 48.832V56.608H51.3428V48.832H50.0308ZM56.1415 51.328H60.1575V58.48H56.1415V51.328ZM54.8615 59.536H61.4375V50.272H54.8615V59.536ZM67.6935 54.56H65.3255V48.848H64.0135V63.184H65.3255V55.664H67.6935V54.56ZM79.5003 59.392H80.8283V48.848H79.5003V51.264H76.7163V52.32H79.5003V54.464H76.7163V55.536H79.5003V59.392ZM76.6042 56.032C74.8923 56.336 73.4523 56.4 70.8923 56.4V54.048H75.7563V49.856H69.5643V50.912H74.4443V53.024H69.5963V57.472H70.6363C73.4043 57.472 74.9083 57.424 76.7323 57.104L76.6042 56.032ZM72.8443 61.744V58.624H71.5323V62.8H81.2603V61.744H72.8443ZM96.162 52.832H94.034C94.162 52.112 94.226 51.392 94.226 50.656H88.722V51.728H92.93C92.706 54.736 91.17 57.312 88.082 59.152L88.85 60.08C91.57 58.464 93.122 56.304 93.794 53.888H96.162V56.416H93.57V57.488H96.162V62.448H97.41V49.216H96.162V52.832ZM99.042 48.832V63.168H100.29V48.832H99.042ZM111.761 50.144H108.209V48.752H106.897V50.144H103.361V51.136H111.761V50.144ZM105.393 53.808C105.393 53.056 106.257 52.592 107.553 52.592C108.881 52.592 109.729 53.056 109.729 53.808C109.729 54.544 108.881 55.024 107.553 55.024C106.257 55.024 105.393 54.544 105.393 53.808ZM112.113 56.512C110.865 56.688 109.537 56.784 108.209 56.848V55.92C109.905 55.76 110.977 54.976 110.977 53.808C110.977 52.496 109.617 51.664 107.553 51.664C105.521 51.664 104.161 52.496 104.161 53.808C104.161 54.96 105.217 55.744 106.897 55.92V56.912C105.473 56.96 104.081 56.96 102.881 56.96L103.073 58C105.649 58 109.073 57.952 112.193 57.44L112.113 56.512ZM104.945 60.16H113.249V63.184H114.561V59.12H104.945V60.16ZM113.249 48.864V58.448H114.561V48.864H113.249ZM127.968 48.832V63.216H129.28V48.832H127.968ZM121.712 49.936C119.584 49.936 118.064 51.888 118.064 54.944C118.064 58 119.584 59.952 121.712 59.952C123.84 59.952 125.36 58 125.36 54.944C125.36 51.888 123.84 49.936 121.712 49.936ZM121.712 51.12C123.104 51.12 124.096 52.624 124.096 54.944C124.096 57.28 123.104 58.784 121.712 58.784C120.304 58.784 119.312 57.28 119.312 54.944C119.312 52.624 120.304 51.12 121.712 51.12ZM134.782 53.536C134.782 51.888 136.462 50.816 138.75 50.816C141.038 50.816 142.702 51.888 142.702 53.536C142.702 55.184 141.038 56.256 138.75 56.256C136.462 56.256 134.782 55.184 134.782 53.536ZM139.406 60.256V57.264C142.078 57.072 143.95 55.648 143.95 53.536C143.95 51.248 141.774 49.776 138.75 49.776C135.71 49.776 133.518 51.248 133.518 53.536C133.518 55.648 135.406 57.072 138.078 57.264V60.256H132.238V61.344H145.278V60.256H139.406ZM148.648 62.1172C149.297 62.1172 149.789 61.6172 149.789 60.9844C149.789 60.3438 149.297 59.8438 148.648 59.8438C148 59.8438 147.5 60.3438 147.5 60.9844C147.5 61.6172 148 62.1172 148.648 62.1172Z" fill="black"/>
</svg>
