<svg width="365" height="112" viewBox="0 0 365 112" fill="none" xmlns="http://www.w3.org/2000/svg">
<path d="M0 0H353C359.627 0 365 5.37258 365 12V100C365 106.627 359.627 112 353 112H12C5.37259 112 0 106.627 0 100V0Z" fill="#F4F1FF"/>
<path d="M26.864 26.576H25.552V35.456H26.464C28.016 35.456 29.664 35.376 31.6 35.008L31.472 33.872C29.76 34.208 28.24 34.304 26.864 34.32V26.576ZM35.76 24.832V30.672H33.728V25.152H32.496V38.448H33.728V31.76H35.76V39.168H37.024V24.832H35.76ZM40.3348 26.368V27.456H45.5988C45.2948 30.848 43.3268 33.6 39.6628 35.44L40.3828 36.464C45.0228 34.144 46.8948 30.448 46.8948 26.368H40.3348ZM52.9108 30.656H50.6068V24.832H49.2948V39.184H50.6068V31.744H52.9108V30.656ZM69.1565 35.568H70.4845V24.848H69.1565V28.208H66.0205V29.296H69.1565V35.568ZM67.0445 32.176C64.9805 31.408 63.5725 29.52 63.5725 27.52V25.696H62.2605V27.472C62.2605 29.664 60.8205 31.696 58.6765 32.48L59.3645 33.52C61.0445 32.848 62.3245 31.488 62.9325 29.776C63.5405 31.328 64.7725 32.56 66.3565 33.184L67.0445 32.176ZM62.5645 37.792V34.384H61.2525V38.864H70.8205V37.792H62.5645ZM78.1953 26.08H76.8993V28.656C76.8993 31.264 75.2673 34.016 73.2033 35.072L73.9873 36.128C75.6033 35.264 76.9313 33.472 77.5553 31.376C78.2113 33.344 79.5073 35.024 81.0273 35.84L81.8433 34.8C79.8273 33.792 78.1953 31.184 78.1953 28.656V26.08ZM86.7873 30.656H84.4193V24.848H83.1073V39.184H84.4193V31.744H86.7873V30.656ZM96.61 26.144H93.026V24.688H91.714V26.144H88.146V27.152H96.61V26.144ZM90.194 30.144C90.194 29.28 91.042 28.768 92.37 28.768C93.698 28.768 94.562 29.28 94.562 30.144C94.562 30.992 93.698 31.52 92.37 31.52C91.042 31.52 90.194 30.992 90.194 30.144ZM95.81 30.144C95.81 28.688 94.45 27.792 92.37 27.792C90.306 27.792 88.946 28.688 88.946 30.144C88.946 31.6 90.306 32.496 92.37 32.496C94.45 32.496 95.81 31.6 95.81 30.144ZM91.442 36.64H99.234V33.456H90.114V34.432H97.938V35.68H90.162V39.024H99.762V38.016H91.442V36.64ZM99.234 28.24V24.784H97.922V32.72H99.234V29.328H101.362V28.24H99.234ZM114.84 28.896V29.968H117.704V34.768H119.016V24.832H117.704V28.896H114.84ZM115.592 31.968C113.496 31.312 112.088 29.664 112.088 27.888V27.568H115.256V26.528H112.088V24.768H110.776V26.528H107.592V27.568H110.776V27.888C110.776 29.84 109.352 31.632 107.224 32.336L107.88 33.36C109.56 32.784 110.856 31.552 111.464 30C112.088 31.36 113.336 32.464 114.952 32.992L115.592 31.968ZM115.064 33.808H113.72V34.112C113.72 36.064 111.432 37.648 108.888 38.096L109.416 39.12C111.56 38.736 113.512 37.584 114.392 35.968C115.24 37.616 117.192 38.736 119.368 39.12L119.88 38.096C117.32 37.664 115.064 36.112 115.064 34.112V33.808ZM127.799 31.952H123.927V29.36H127.799V31.952ZM129.095 29.952H132.407V35.456H133.735V24.832H132.407V28.88H129.095V25.792H127.799V28.32H123.927V25.792H122.631V33.008H129.095V29.952ZM125.815 37.792V34.416H124.503V38.864H134.071V37.792H125.815ZM142.789 27.632H144.165V26.56H140.773V27.632H141.637V29.136C141.637 30.528 141.573 32.672 140.565 34.176C139.541 32.576 139.477 30.336 139.477 29.136V27.632H140.341V26.56H136.821V27.632H138.325V29.136C138.325 30.896 137.989 33.504 136.341 34.848L137.093 35.744C138.021 35.008 138.549 33.824 138.869 32.56C139.125 33.856 139.637 35.104 140.565 35.888C141.493 35.104 141.989 33.888 142.245 32.608C142.565 33.872 143.093 35.008 144.021 35.744L144.773 34.848C143.125 33.536 142.789 30.976 142.789 29.136V27.632ZM147.765 24.832V30.688H146.213V25.152H144.997V38.48H146.213V31.76H147.765V39.184H149.013V24.832H147.765ZM158.555 29.488H165.883V32.128H158.555V29.488ZM162.875 36.272V33.184H167.163V25.856H165.883V28.416H158.555V25.856H157.259V33.184H161.547V36.272H155.723V37.344H168.731V36.272H162.875ZM180.442 28.64H173.402V26.352H180.442V28.64ZM181.738 25.312H172.122V29.68H181.738V25.312ZM183.418 31.936V30.88H170.426V31.936H176.266V33.344H171.994V34.336H180.458V35.616H172.042V39.024H182.186V38H173.322V36.576H181.754V33.344H177.578V31.936H183.418ZM191.641 26.384C193.897 26.384 195.337 27.056 195.337 28.192C195.337 29.328 193.897 29.984 191.641 29.984C189.385 29.984 187.945 29.328 187.945 28.192C187.945 27.056 189.385 26.384 191.641 26.384ZM191.641 31.04C194.713 31.04 196.681 29.984 196.681 28.192C196.681 26.4 194.713 25.328 191.641 25.328C188.569 25.328 186.601 26.4 186.601 28.192C186.601 29.984 188.569 31.04 191.641 31.04ZM188.137 34.704H186.825V38.864H196.697V37.792H188.137V34.704ZM185.145 32.384V33.44H198.121V32.384H185.145ZM214.206 27.792C214.206 29.568 214.206 31.712 213.63 34.64L214.942 34.784C215.502 31.68 215.502 29.616 215.502 27.792V26.352H205.662V27.424H214.206V27.792ZM204.27 36V37.088H217.246V36H204.27ZM220.781 27.648H224.829V26.576H219.485V35.648H220.429C222.573 35.648 224.029 35.584 225.741 35.216L225.629 34.128C224.061 34.464 222.701 34.544 220.781 34.56V27.648ZM229.901 24.832V30.592H227.869V25.152H226.637V38.464H227.869V31.664H229.901V39.184H231.165V24.832H229.901ZM234.46 26.368V27.456H239.724C239.42 30.848 237.452 33.6 233.788 35.44L234.508 36.464C239.148 34.144 241.02 30.448 241.02 26.368H234.46ZM247.036 30.656H244.732V24.832H243.42V39.184H244.732V31.744H247.036V30.656ZM254.226 35.712H262.85V39.2H264.162V34.656H254.226V35.712ZM255.73 26.464H262.802V29.248H255.73V26.464ZM259.938 32.112V30.288H264.098V25.424H254.45V30.288H258.626V32.112H252.77V33.168H265.762V32.112H259.938ZM272.416 32.96H275.536V36.368H272.416V32.96ZM272.192 27.216H275.76V31.904H272.192V27.216ZM276.848 36.368V32.96H279.28V31.904H277.072V27.216H279.296V26.16H268.656V27.216H270.88V31.904H268.688V32.96H271.104V36.368H267.488V37.44H280.512V36.368H276.848ZM286.431 34.896C285.135 34.896 284.191 33.968 284.191 32.688C284.191 31.392 285.135 30.464 286.431 30.464C287.743 30.464 288.687 31.392 288.687 32.688C288.687 33.968 287.743 34.896 286.431 34.896ZM286.431 29.376C284.415 29.376 282.959 30.752 282.959 32.688C282.959 34.64 284.415 35.984 286.431 35.984C288.479 35.984 289.935 34.64 289.935 32.688C289.935 30.752 288.479 29.376 286.431 29.376ZM287.071 25.008H285.759V27.136H282.143V28.192H290.607V27.136H287.071V25.008ZM295.631 30.736H293.279V24.848H291.967V39.184H293.279V31.84H295.631V30.736ZM308.446 29.152H299.998V25.36H298.686V30.224H308.446V29.152ZM299.902 34.64H298.59V38.832H308.526V37.76H299.902V34.64ZM296.926 32.144V33.2H309.934V32.144H296.926ZM324.82 31.376C322.708 30.72 321.204 29.04 321.204 27.152V26.832H324.452V25.76H316.58V26.832H319.86V27.152C319.86 29.12 318.388 30.912 316.212 31.6L316.884 32.64C318.596 32.048 319.924 30.8 320.548 29.216C321.204 30.704 322.532 31.856 324.18 32.384L324.82 31.376ZM326.516 37.92H319.86V36.064H326.516V37.92ZM326.516 35.04H319.86V33.296H318.564V38.992H327.812V33.296H326.516V35.04ZM326.5 24.832V32.608H327.812V24.832H326.5ZM31.328 50.064C33.68 50.064 35.024 50.608 35.024 51.568C35.024 52.528 33.68 53.072 31.328 53.072C28.976 53.072 27.632 52.528 27.632 51.568C27.632 50.608 28.976 50.064 31.328 50.064ZM31.328 54.048C34.48 54.048 36.368 53.184 36.368 51.568C36.368 49.952 34.48 49.072 31.328 49.072C28.176 49.072 26.288 49.952 26.288 51.568C26.288 53.184 28.176 54.048 31.328 54.048ZM27.728 60.544H36.16V57.312H26.4V58.304H34.864V59.584H26.448V63.024H36.592V62H27.728V60.544ZM24.832 55.024V56.08H37.824V55.024H24.832ZM56.9338 55.936H54.8058C55.2058 53.872 55.2058 52.352 55.2058 51.008V49.76H45.5738V50.816H53.9258V51.008C53.9258 52.352 53.9258 53.872 53.4778 55.936H43.9578V57.008H49.7498V63.2H51.0778V57.008H56.9338V55.936ZM62.8685 58.896C61.5725 58.896 60.6285 57.968 60.6285 56.688C60.6285 55.392 61.5725 54.464 62.8685 54.464C64.1805 54.464 65.1245 55.392 65.1245 56.688C65.1245 57.968 64.1805 58.896 62.8685 58.896ZM62.8685 53.376C60.8525 53.376 59.3965 54.752 59.3965 56.688C59.3965 58.64 60.8525 59.984 62.8685 59.984C64.9165 59.984 66.3725 58.64 66.3725 56.688C66.3725 54.752 64.9165 53.376 62.8685 53.376ZM63.5085 49.008H62.1965V51.136H58.5805V52.192H67.0445V51.136H63.5085V49.008ZM72.0685 54.736H69.7165V48.848H68.4045V63.184H69.7165V55.84H72.0685V54.736ZM74.2273 50.384V51.44H79.6193C79.3473 54.848 77.4273 57.6 73.5713 59.44L74.2753 60.512C79.0433 58.176 80.9473 54.528 80.9473 50.384H74.2273ZM83.8433 48.832V63.184H85.1553V48.832H83.8433ZM97.177 50.592C98.569 50.592 99.561 51.344 99.561 52.464C99.561 53.584 98.569 54.336 97.177 54.336C95.769 54.336 94.777 53.584 94.777 52.464C94.777 51.344 95.769 50.592 97.177 50.592ZM97.177 55.408C99.305 55.408 100.825 54.208 100.825 52.464C100.825 50.704 99.305 49.504 97.177 49.504C95.033 49.504 93.513 50.704 93.513 52.464C93.513 54.208 95.033 55.408 97.177 55.408ZM101.897 56.112C98.745 56.592 95.113 56.624 92.441 56.624L92.617 57.728C93.801 57.728 95.161 57.712 96.585 57.648V62.736H97.897V57.568C99.257 57.488 100.649 57.328 102.009 57.088L101.897 56.112ZM102.937 48.848V63.2H104.249V48.848H102.937ZM115.704 50.592H112.12V48.832H110.808V50.592H107.24V51.648H115.704V50.592ZM109.288 55.104C109.288 54.112 110.168 53.472 111.464 53.472C112.76 53.472 113.656 54.112 113.656 55.104C113.656 56.112 112.76 56.752 111.464 56.752C110.168 56.752 109.288 56.112 109.288 55.104ZM114.904 55.104C114.904 53.504 113.496 52.448 111.464 52.448C109.432 52.448 108.04 53.504 108.04 55.104C108.04 56.72 109.432 57.776 111.464 57.776C113.496 57.776 114.904 56.72 114.904 55.104ZM110.712 58.752H109.4V62.864H118.968V61.792H110.712V58.752ZM118.328 53.568V48.832H117.016V59.6H118.328V54.672H120.44V53.568H118.328ZM121.984 64.9297H123.18L124.477 60.3438H122.672L121.984 64.9297ZM143.108 48.832H141.796V56.192H143.108V48.832ZM132.932 52.544C132.932 51.296 133.972 50.416 135.364 50.416C136.772 50.416 137.796 51.296 137.796 52.544C137.796 53.776 136.772 54.656 135.364 54.656C133.972 54.656 132.932 53.776 132.932 52.544ZM139.076 52.544C139.076 50.64 137.508 49.344 135.364 49.344C133.22 49.344 131.668 50.64 131.668 52.544C131.668 54.432 133.22 55.712 135.364 55.712C137.508 55.712 139.076 54.432 139.076 52.544ZM135.14 61.952V60.368H143.108V56.896H133.812V57.936H141.812V59.392H133.844V62.992H143.588V61.952H135.14ZM156.547 51.904V53.488H153.235V51.904H156.547ZM151.939 54.704H148.067V52.576H151.939V54.704ZM153.235 54.512H156.547V56.336H157.859V48.848H156.547V50.88H153.235V49.52H151.939V51.552H148.067V49.504H146.771V55.76H153.235V54.512ZM149.939 61.952V60.432H157.859V57.024H148.611V58.064H156.563V59.44H148.643V62.992H158.403V61.952H149.939ZM164.961 50.1875H163.367L159.922 64.8281H161.516L164.961 50.1875ZM173.401 55.664V56.528H176.249V57.28H177.561V48.848H176.249V55.664H173.401ZM170.409 50.032C171.817 50.032 172.713 50.512 172.713 51.28C172.713 52.016 171.817 52.512 170.409 52.512C169.017 52.512 168.105 52.016 168.105 51.28C168.105 50.512 169.017 50.032 170.409 50.032ZM170.409 53.408C172.537 53.408 173.945 52.592 173.945 51.28C173.945 49.936 172.537 49.12 170.409 49.12C168.281 49.12 166.873 49.936 166.873 51.28C166.873 52.592 168.281 53.408 170.409 53.408ZM169.673 57.328H170.985V55.12C172.377 55.04 173.801 54.928 175.193 54.736L175.113 53.872C172.041 54.224 168.537 54.24 165.769 54.24L165.929 55.232C167.081 55.232 168.345 55.216 169.673 55.184V57.328ZM169.273 62.048V60.8H177.561V57.808H167.945V58.752H176.281V59.904H167.977V63.024H178.057V62.048H169.273ZM191.032 51.904V53.488H187.72V51.904H191.032ZM186.424 54.704H182.552V52.576H186.424V54.704ZM187.72 54.512H191.032V56.336H192.344V48.848H191.032V50.88H187.72V49.52H186.424V51.552H182.552V49.504H181.256V55.76H187.72V54.512ZM184.424 61.952V60.432H192.344V57.024H183.096V58.064H191.048V59.44H183.128V62.992H192.888V61.952H184.424ZM201.069 59.712H209.693V63.2H211.005V58.656H201.069V59.712ZM202.573 50.464H209.645V53.248H202.573V50.464ZM206.781 56.112V54.288H210.941V49.424H201.293V54.288H205.469V56.112H199.613V57.168H212.605V56.112H206.781ZM219.26 56.96H222.38V60.368H219.26V56.96ZM219.036 51.216H222.604V55.904H219.036V51.216ZM223.692 60.368V56.96H226.124V55.904H223.916V51.216H226.14V50.16H215.5V51.216H217.724V55.904H215.532V56.96H217.948V60.368H214.332V61.44H227.356V60.368H223.692ZM241.106 52.048V53.104H243.938V56.256H245.25V48.848H243.938V52.048H241.106ZM241.858 55.056C239.81 54.4 238.402 52.752 238.402 51.024V50.64H241.57V49.584H233.89V50.64H237.074V51.024C237.074 52.88 235.586 54.672 233.49 55.392L234.146 56.416C235.826 55.84 237.138 54.576 237.746 53.04C238.37 54.448 239.618 55.568 241.234 56.08L241.858 55.056ZM237.33 61.984V60.416H245.25V56.976H236.002V58H243.954V59.424H236.034V63.024H245.794V61.984H237.33ZM249.713 53.088C249.713 51.728 250.737 50.8 252.177 50.8C253.601 50.8 254.641 51.728 254.641 53.088C254.641 54.432 253.601 55.376 252.177 55.376C250.737 55.376 249.713 54.432 249.713 53.088ZM255.921 53.088C255.921 51.072 254.337 49.696 252.177 49.696C250.001 49.696 248.433 51.072 248.433 53.088C248.433 55.088 250.001 56.48 252.177 56.48C254.337 56.48 255.921 55.088 255.921 53.088ZM249.969 59.104H257.985V63.184H259.297V58.032H249.969V59.104ZM261.377 52.112V51.024H259.297V48.848H257.985V57.36H259.297V55.168H261.377V54.096H259.297V52.112H261.377ZM265.759 58.944H272.975V61.936H265.759V58.944ZM264.479 62.992H274.271V57.888H264.479V62.992ZM273.839 54.88C274.223 53.088 274.223 51.776 274.223 50.656V49.6H264.527V50.656H272.927C272.927 51.776 272.927 53.088 272.511 54.88H262.863V55.936H275.903V54.88H273.839ZM278.926 53.12C278.926 51.792 279.806 50.832 281.006 50.832C282.19 50.832 283.07 51.792 283.07 53.12C283.07 54.448 282.19 55.408 281.006 55.408C279.806 55.408 278.926 54.448 278.926 53.12ZM284.27 53.12C284.27 51.104 282.878 49.728 281.006 49.728C279.118 49.728 277.742 51.104 277.742 53.12C277.742 55.12 279.118 56.496 281.006 56.496C282.878 56.496 284.27 55.12 284.27 53.12ZM280.062 59.248H288.398V63.2H289.71V58.192H280.062V59.248ZM288.446 48.832V52.528H286.622V49.104H285.39V57.296H286.622V53.6H288.446V57.376H289.71V48.832H288.446ZM298.797 50.064C301.149 50.064 302.493 50.608 302.493 51.568C302.493 52.528 301.149 53.072 298.797 53.072C296.445 53.072 295.101 52.528 295.101 51.568C295.101 50.608 296.445 50.064 298.797 50.064ZM298.797 54.048C301.949 54.048 303.837 53.184 303.837 51.568C303.837 49.952 301.949 49.072 298.797 49.072C295.645 49.072 293.757 49.952 293.757 51.568C293.757 53.184 295.645 54.048 298.797 54.048ZM295.197 60.544H303.629V57.312H293.869V58.304H302.333V59.584H293.917V63.024H304.061V62H295.197V60.544ZM292.301 55.024V56.08H305.293V55.024H292.301ZM321.907 56.256H323.235V48.848H321.907V51.44H318.786V52.512H321.907V56.256ZM319.795 54.928C317.731 54.24 316.275 52.496 316.275 50.624V49.296H314.979V50.624C314.979 52.704 313.555 54.512 311.395 55.248L312.083 56.288C313.763 55.664 315.059 54.416 315.667 52.8C316.291 54.256 317.539 55.392 319.123 55.952L319.795 54.928ZM315.315 61.952V60.416H323.235V56.976H313.987V58.016H321.939V59.424H314.019V62.992H323.779V61.952H315.315ZM333.793 52.56V53.632H336.625V57.392H337.953V48.848H336.625V52.56H333.793ZM334.593 55.824C332.513 55.088 331.105 53.28 331.105 51.44V50.944H334.257V49.888H326.593V50.944H329.793V51.44C329.793 53.504 328.321 55.44 326.177 56.224L326.865 57.264C328.545 56.624 329.873 55.28 330.481 53.616C331.105 55.088 332.337 56.272 333.937 56.848L334.593 55.824ZM333.217 62.16C331.057 62.16 329.745 61.552 329.745 60.512C329.745 59.472 331.057 58.848 333.217 58.848C335.377 58.848 336.689 59.472 336.689 60.512C336.689 61.552 335.377 62.16 333.217 62.16ZM333.217 57.84C330.273 57.84 328.433 58.816 328.433 60.512C328.433 62.208 330.273 63.184 333.217 63.184C336.161 63.184 338.001 62.208 338.001 60.512C338.001 58.816 336.161 57.84 333.217 57.84ZM28.4 82.768C27.28 82.768 26.496 81.856 26.496 80.576C26.496 79.328 27.28 78.416 28.4 78.416C29.504 78.416 30.304 79.328 30.304 80.576C30.304 81.856 29.504 82.768 28.4 82.768ZM28.4 77.312C26.624 77.312 25.328 78.656 25.328 80.576C25.328 82.528 26.624 83.856 28.4 83.856C30.176 83.856 31.472 82.528 31.472 80.576C31.472 78.656 30.176 77.312 28.4 77.312ZM29.04 73.248H27.744V75.28H24.832V76.352H31.952V75.28H29.04V73.248ZM35.744 72.816V78.88H33.904V73.152H32.672V86.48H33.904V79.952H35.744V87.168H37.008V72.816H35.744ZM48.7738 75.392H51.9578V74.304H44.1978V75.392H47.4778V77.216C47.4778 79.648 45.7498 82.368 43.7018 83.392L44.4698 84.432C46.0858 83.6 47.4778 81.776 48.1338 79.68C48.7898 81.6 50.1338 83.28 51.7338 84.08L52.4858 83.024C50.4058 82.048 48.7738 79.504 48.7738 77.216V75.392ZM57.3498 78.624H54.9818V72.848H53.6698V87.184H54.9818V79.728H57.3498V78.624ZM67.0285 80.048C64.9165 79.296 63.4925 77.472 63.4925 75.504V73.696H62.1805V75.472C62.1805 77.696 60.7885 79.616 58.5965 80.4L59.2845 81.44C60.9965 80.8 62.2765 79.488 62.8685 77.792C63.5085 79.296 64.7565 80.496 66.3725 81.088L67.0285 80.048ZM62.2125 82.416H60.9005V86.864H70.4205V85.792H62.2125V82.416ZM69.7965 77.232V72.816H68.4845V83.424H69.7965V78.32H71.9085V77.232H69.7965ZM79.8593 74.064C82.2113 74.064 83.5553 74.608 83.5553 75.568C83.5553 76.528 82.2113 77.072 79.8593 77.072C77.5073 77.072 76.1633 76.528 76.1633 75.568C76.1633 74.608 77.5073 74.064 79.8593 74.064ZM79.8593 78.048C83.0113 78.048 84.8993 77.184 84.8993 75.568C84.8993 73.952 83.0113 73.072 79.8593 73.072C76.7073 73.072 74.8193 73.952 74.8193 75.568C74.8193 77.184 76.7073 78.048 79.8593 78.048ZM76.2593 84.544H84.6913V81.312H74.9313V82.304H83.3953V83.584H74.9793V87.024H85.1233V86H76.2593V84.544ZM73.3633 79.024V80.08H86.3553V79.024H73.3633ZM100.009 78.96C100.377 77.072 100.377 75.648 100.377 74.704V73.952H93.241V75.024H99.097C99.097 75.936 99.049 77.168 98.713 78.816L100.009 78.96ZM101.369 79.824C99.913 80.016 98.281 80.144 96.713 80.208V77.152H95.417V80.256C94.329 80.272 93.289 80.288 92.377 80.288L92.505 81.36C95.049 81.36 98.489 81.28 101.465 80.784L101.369 79.824ZM95.881 82.656H94.569V86.864H104.105V85.792H95.881V82.656ZM103.641 77.504V72.832H102.329V83.648H103.641V78.592H105.689V77.504H103.641ZM109.336 79.28H114.632V74.16H107.976V75.232H113.304V78.224H108.024V83.728H109.208C111.672 83.728 113.848 83.632 116.44 83.2L116.312 82.128C113.8 82.528 111.688 82.64 109.336 82.64V79.28ZM117.656 72.816V87.2H118.968V72.816H117.656ZM126.119 82.896C124.823 82.896 123.879 81.968 123.879 80.688C123.879 79.392 124.823 78.464 126.119 78.464C127.431 78.464 128.375 79.392 128.375 80.688C128.375 81.968 127.431 82.896 126.119 82.896ZM126.119 77.376C124.103 77.376 122.647 78.752 122.647 80.688C122.647 82.64 124.103 83.984 126.119 83.984C128.167 83.984 129.623 82.64 129.623 80.688C129.623 78.752 128.167 77.376 126.119 77.376ZM126.759 73.008H125.447V75.136H121.831V76.192H130.295V75.136H126.759V73.008ZM135.319 78.736H132.967V72.848H131.655V87.184H132.967V79.84H135.319V78.736ZM148.133 77.152H139.685V73.36H138.373V78.224H148.133V77.152ZM139.589 82.64H138.277V86.832H148.213V85.76H139.589V82.64ZM136.613 80.144V81.2H149.621V80.144H136.613ZM156.571 74.384V75.44H161.963C161.691 78.848 159.771 81.6 155.915 83.44L156.619 84.512C161.387 82.176 163.291 78.528 163.291 74.384H156.571ZM166.187 72.832V87.184H167.499V72.832H166.187ZM181.946 76.832H173.514V73.136H172.202V77.888H181.946V76.832ZM176.922 86.112C174.666 86.112 173.338 85.52 173.338 84.528C173.338 83.504 174.666 82.928 176.922 82.928C179.178 82.928 180.506 83.504 180.506 84.528C180.506 85.52 179.162 86.112 176.922 86.112ZM176.922 81.904C173.866 81.904 172.01 82.848 172.01 84.528C172.01 86.192 173.866 87.136 176.922 87.136C179.978 87.136 181.834 86.192 181.834 84.528C181.834 82.848 179.978 81.904 176.922 81.904ZM170.458 79.552V80.624H183.434V79.552H170.458ZM195.593 72.832V87.216H196.905V72.832H195.593ZM189.337 73.936C187.209 73.936 185.689 75.888 185.689 78.944C185.689 82 187.209 83.952 189.337 83.952C191.465 83.952 192.985 82 192.985 78.944C192.985 75.888 191.465 73.936 189.337 73.936ZM189.337 75.12C190.729 75.12 191.721 76.624 191.721 78.944C191.721 81.28 190.729 82.784 189.337 82.784C187.929 82.784 186.937 81.28 186.937 78.944C186.937 76.624 187.929 75.12 189.337 75.12ZM202.407 77.536C202.407 75.888 204.087 74.816 206.375 74.816C208.663 74.816 210.327 75.888 210.327 77.536C210.327 79.184 208.663 80.256 206.375 80.256C204.087 80.256 202.407 79.184 202.407 77.536ZM207.031 84.256V81.264C209.703 81.072 211.575 79.648 211.575 77.536C211.575 75.248 209.399 73.776 206.375 73.776C203.335 73.776 201.143 75.248 201.143 77.536C201.143 79.648 203.031 81.072 205.703 81.264V84.256H199.863V85.344H212.903V84.256H207.031ZM216.273 86.1172C216.922 86.1172 217.414 85.6172 217.414 84.9844C217.414 84.3438 216.922 83.8438 216.273 83.8438C215.625 83.8438 215.125 84.3438 215.125 84.9844C215.125 85.6172 215.625 86.1172 216.273 86.1172Z" fill="black"/>
</svg>
