<svg width="365" height="88" viewBox="0 0 365 88" fill="none" xmlns="http://www.w3.org/2000/svg">
<path d="M0 0H353C359.627 0 365 5.37258 365 12V76C365 82.6274 359.627 88 353 88H12C5.37259 88 0 82.6274 0 76V0Z" fill="#F4F1FF"/>
<path d="M26.864 26.576H25.552V35.456H26.464C28.016 35.456 29.664 35.376 31.6 35.008L31.472 33.872C29.76 34.208 28.24 34.304 26.864 34.32V26.576ZM35.76 24.832V30.672H33.728V25.152H32.496V38.448H33.728V31.76H35.76V39.168H37.024V24.832H35.76ZM40.3348 26.368V27.456H45.5988C45.2948 30.848 43.3268 33.6 39.6628 35.44L40.3828 36.464C45.0228 34.144 46.8948 30.448 46.8948 26.368H40.3348ZM52.9108 30.656H50.6068V24.832H49.2948V39.184H50.6068V31.744H52.9108V30.656ZM69.0925 24.832V39.216H70.4045V24.832H69.0925ZM62.8365 25.936C60.7085 25.936 59.1885 27.888 59.1885 30.944C59.1885 34 60.7085 35.952 62.8365 35.952C64.9645 35.952 66.4845 34 66.4845 30.944C66.4845 27.888 64.9645 25.936 62.8365 25.936ZM62.8365 27.12C64.2285 27.12 65.2205 28.624 65.2205 30.944C65.2205 33.28 64.2285 34.784 62.8365 34.784C61.4285 34.784 60.4365 33.28 60.4365 30.944C60.4365 28.624 61.4285 27.12 62.8365 27.12ZM75.1233 31.44H79.2033V26.4H73.8113V27.472H77.9233V30.368H73.8593V35.744H74.8033C76.5793 35.744 78.1953 35.68 80.1793 35.344L80.0833 34.256C78.2593 34.576 76.7552 34.64 75.1233 34.656V31.44ZM84.3073 24.832V30.496H82.2753V25.152H81.0433V38.448H82.2753V31.568H84.3073V39.168H85.5713V24.832H84.3073ZM90.498 29.12H95.138V31.424H90.498V29.12ZM93.442 32.48H96.434V26.016H95.138V28.08H90.498V26.016H89.186V32.48H92.13V35.12C90.738 35.152 89.394 35.168 88.194 35.168L88.354 36.272C91.01 36.272 94.482 36.208 97.65 35.696L97.538 34.736C96.226 34.912 94.818 35.008 93.442 35.072V32.48ZM98.482 24.816V39.2H99.794V24.816H98.482ZM109.969 36.288V32.608H114.337V31.552H105.777V27.056H114.193V25.984H104.465V32.608H108.641V36.288H102.801V37.376H115.841V36.288H109.969ZM126.743 27.392H129.927V26.304H122.167V27.392H125.447V29.216C125.447 31.648 123.719 34.368 121.671 35.392L122.439 36.432C124.055 35.6 125.447 33.776 126.103 31.68C126.759 33.6 128.103 35.28 129.703 36.08L130.455 35.024C128.375 34.048 126.743 31.504 126.743 29.216V27.392ZM135.319 30.624H132.951V24.848H131.639V39.184H132.951V31.728H135.319V30.624ZM144.997 32.048C142.885 31.296 141.461 29.472 141.461 27.504V25.696H140.149V27.472C140.149 29.696 138.757 31.616 136.565 32.4L137.253 33.44C138.965 32.8 140.245 31.488 140.837 29.792C141.477 31.296 142.725 32.496 144.341 33.088L144.997 32.048ZM140.181 34.416H138.869V38.864H148.389V37.792H140.181V34.416ZM147.765 29.232V24.816H146.453V35.424H147.765V30.32H149.877V29.232H147.765ZM156.907 31.248C159.259 31.008 161.355 30.144 162.219 28.704C163.083 30.144 165.163 31.008 167.515 31.248L167.931 30.256C165.211 29.984 163.035 28.88 162.923 27.28H167.371V26.24H162.875V24.752H161.563V26.24H157.067V27.28H161.499C161.387 28.88 159.211 29.984 156.507 30.256L156.907 31.248ZM168.699 33.104V32.048H155.723V33.104H161.563V34.752H157.163V35.792H165.787V39.136H167.099V34.752H162.875V33.104H168.699ZM178.906 31.84C176.826 31.104 175.418 29.296 175.418 27.456V26.88H178.57V25.808H170.906V26.88H174.106V27.456C174.106 29.488 172.618 31.408 170.49 32.16L171.178 33.2C172.858 32.576 174.17 31.264 174.778 29.616C175.418 31.104 176.65 32.288 178.25 32.864L178.906 31.84ZM172.666 35.264H180.938V39.2H182.266V34.208H172.666V35.264ZM180.938 24.832V28.576H178.138V29.648H180.938V33.424H182.266V24.832H180.938ZM199.52 29.984H192.544V28.128H199.52V29.984ZM200.816 25.28H199.52V27.12H192.544V25.28H191.248V31.024H200.816V25.28ZM192.464 34.96H191.168V38.864H201.088V37.792H192.464V34.96ZM189.504 32.416V33.472H195.472V36.256H196.784V33.472H202.544V32.416H189.504ZM208.078 34.784C206.686 34.784 205.71 33.264 205.71 30.928C205.71 28.624 206.686 27.12 208.078 27.12C209.454 27.12 210.43 28.624 210.43 30.928C210.43 33.264 209.454 34.784 208.078 34.784ZM208.078 25.936C205.966 25.936 204.462 27.888 204.462 30.928C204.462 34 205.966 35.952 208.078 35.952C210.19 35.952 211.678 34 211.678 30.928C211.678 27.888 210.19 25.936 208.078 25.936ZM217.582 29.536V28.448H215.294V24.848H213.982V39.184H215.294V33.808H217.582V32.72H215.294V29.536H217.582ZM222.221 34.816C221.069 34.816 220.349 33.36 220.349 31.008C220.349 28.704 221.069 27.248 222.221 27.248C223.341 27.248 224.077 28.704 224.077 31.008C224.077 33.36 223.341 34.816 222.221 34.816ZM227.069 30.416H225.261C225.101 27.712 223.949 26.032 222.221 26.032C220.349 26.032 219.149 27.952 219.149 31.008C219.149 34.112 220.349 36.032 222.221 36.032C223.981 36.032 225.149 34.304 225.261 31.488H227.069V38.48H228.317V25.152H227.069V30.416ZM229.917 24.832V39.184H231.165V24.832H229.917ZM238.716 26.064H237.404V28.64C237.404 31.296 235.772 34.064 233.692 35.104L234.492 36.144C236.108 35.28 237.436 33.472 238.06 31.344C238.716 33.36 240.028 35.072 241.66 35.888L242.428 34.848C240.348 33.856 238.716 31.248 238.716 28.64V26.064ZM244.204 24.832V29.696H240.876V30.768H244.204V39.2H245.516V24.832H244.204ZM259.915 29.152H251.467V25.36H250.155V30.224H259.915V29.152ZM251.371 34.64H250.059V38.832H259.995V37.76H251.371V34.64ZM248.395 32.144V33.2H261.403V32.144H248.395ZM273.984 25.728C271.008 25.728 268.768 27.312 268.768 29.696C268.768 32.096 271.008 33.664 273.984 33.664C276.96 33.664 279.2 32.096 279.2 29.696C279.2 27.312 276.96 25.728 273.984 25.728ZM273.984 26.8C276.256 26.8 277.952 27.968 277.952 29.696C277.952 31.44 276.256 32.592 273.984 32.592C271.728 32.592 270.016 31.44 270.016 29.696C270.016 27.968 271.728 26.8 273.984 26.8ZM267.488 36.192V37.28H280.528V36.192H267.488ZM294.079 29.168H290.431V26.496H293.951V25.44H289.135V30.224H294.079V29.168ZM288.527 28.768C287.183 29.056 285.983 29.152 284.751 29.168V26.496H288.319V25.44H283.455V30.224H284.239C285.727 30.224 287.055 30.176 288.655 29.824L288.527 28.768ZM285.103 35.296H292.351V37.936H285.103V35.296ZM283.823 38.992H293.631V34.24H283.823V38.992ZM282.223 31.6V32.656H295.199V31.6H282.223ZM297.71 26.368V27.456H302.974C302.67 30.848 300.702 33.6 297.038 35.44L297.758 36.464C302.398 34.144 304.27 30.448 304.27 26.368H297.71ZM310.286 30.656H307.982V24.832H306.67V39.184H307.982V31.744H310.286V30.656ZM323.165 29.152H314.717V25.36H313.405V30.224H323.165V29.152ZM314.621 34.64H313.309V38.832H323.245V37.76H314.621V34.64ZM311.645 32.144V33.2H324.653V32.144H311.645ZM32.464 52.8V53.872H35.344V59.36H36.672V48.848H35.344V52.8H32.464ZM33.312 56.176C31.232 55.44 29.824 53.648 29.824 51.776V51.072H32.976V50H25.312V51.072H28.512V51.792C28.512 53.824 27.024 55.728 24.896 56.496L25.584 57.52C27.264 56.912 28.576 55.584 29.2 53.952C29.824 55.424 31.056 56.624 32.656 57.2L33.312 56.176ZM28.816 61.792V58.432H27.488V62.864H37.072V61.792H28.816ZM49.5828 53.488H42.5108V50.56H49.5828V53.488ZM50.8788 49.504H41.2308V54.544H50.8788V49.504ZM42.5108 58.768H41.1988V62.864H51.1188V61.792H42.5108V58.768ZM39.5348 56.176V57.232H45.5028V60.128H46.8148V57.232H52.5748V56.176H39.5348ZM67.0285 54.368C64.7405 54.832 62.6925 54.976 60.6605 54.992V49.712H59.3645V56.096H60.4845C62.6285 56.096 64.7725 55.936 67.2045 55.44L67.0285 54.368ZM65.2205 62.128C63.1245 62.128 61.7805 61.456 61.7805 60.368C61.7805 59.28 63.1245 58.608 65.2205 58.608C67.3165 58.608 68.6445 59.28 68.6445 60.368C68.6445 61.456 67.3165 62.128 65.2205 62.128ZM65.2205 57.568C62.3565 57.568 60.4845 58.64 60.4845 60.368C60.4845 62.112 62.3565 63.184 65.2205 63.184C68.0845 63.184 69.9565 62.112 69.9565 60.368C69.9565 58.64 68.0845 57.568 65.2205 57.568ZM71.9085 52.08V50.992H69.8125V48.832H68.5005V57.36H69.8125V55.136H71.9085V54.048H69.8125V52.08H71.9085ZM83.8113 48.832V63.216H85.1233V48.832H83.8113ZM77.5553 49.936C75.4273 49.936 73.9073 51.888 73.9073 54.944C73.9073 58 75.4273 59.952 77.5553 59.952C79.6833 59.952 81.2033 58 81.2033 54.944C81.2033 51.888 79.6833 49.936 77.5553 49.936ZM77.5553 51.12C78.9473 51.12 79.9393 52.624 79.9393 54.944C79.9393 57.28 78.9473 58.784 77.5553 58.784C76.1473 58.784 75.1553 57.28 75.1553 54.944C75.1553 52.624 76.1473 51.12 77.5553 51.12ZM89.97 55.312H95.138V50.16H88.642V51.232H93.842V54.24H88.69V59.728H89.826C92.562 59.728 94.482 59.616 96.722 59.216L96.578 58.128C94.434 58.544 92.578 58.64 89.97 58.64V55.312ZM101.506 54.528H99.154V48.816H97.842V63.2H99.154V55.632H101.506V54.528ZM104.817 50.368H103.521V59.552H104.433C106.161 59.552 107.761 59.456 109.633 59.072L109.457 57.968C107.793 58.304 106.353 58.4 104.817 58.416V50.368ZM110.705 53.648H107.505V54.736H110.705V62.464H111.953V49.184H110.705V53.648ZM113.761 48.816V63.184H115.009V48.816H113.761ZM119.211 62.1172C119.859 62.1172 120.352 61.6172 120.352 60.9844C120.352 60.3438 119.859 59.8438 119.211 59.8438C118.562 59.8438 118.062 60.3438 118.062 60.9844C118.062 61.6172 118.562 62.1172 119.211 62.1172Z" fill="black"/>
</svg>
