<svg width="365" height="88" viewBox="0 0 365 88" fill="none" xmlns="http://www.w3.org/2000/svg">
<path d="M0 12C0 5.37258 5.37258 0 12 0H365V76C365 82.6274 359.627 88 353 88H12C5.37259 88 0 82.6274 0 76V12Z" fill="#F4F1FF"/>
<path d="M32.368 33.312V34.288H35.28V35.76H36.592V24.832H35.28V33.312H32.368ZM29.44 26.384C30.8 26.384 31.728 26.992 31.728 27.904C31.728 28.832 30.8 29.44 29.44 29.44C28.08 29.44 27.152 28.832 27.152 27.904C27.152 26.992 28.08 26.384 29.44 26.384ZM29.44 30.416C31.536 30.416 32.976 29.44 32.976 27.904C32.976 26.4 31.536 25.408 29.44 25.408C27.344 25.408 25.904 26.4 25.904 27.904C25.904 29.44 27.344 30.416 29.44 30.416ZM28.928 35.248H30.24V32.416C31.536 32.336 32.864 32.192 34.128 32L34.016 31.056C30.976 31.44 27.424 31.472 24.768 31.472L24.944 32.56C26.128 32.56 27.504 32.544 28.928 32.48V35.248ZM28.128 37.792V34.688H26.816V38.864H36.96V37.792H28.128ZM43.7748 34.896C42.4788 34.896 41.5348 33.968 41.5348 32.688C41.5348 31.392 42.4788 30.464 43.7748 30.464C45.0868 30.464 46.0308 31.392 46.0308 32.688C46.0308 33.968 45.0868 34.896 43.7748 34.896ZM43.7748 29.376C41.7588 29.376 40.3028 30.752 40.3028 32.688C40.3028 34.64 41.7588 35.984 43.7748 35.984C45.8228 35.984 47.2788 34.64 47.2788 32.688C47.2788 30.752 45.8228 29.376 43.7748 29.376ZM44.4148 25.008H43.1028V27.136H39.4868V28.192H47.9508V27.136H44.4148V25.008ZM52.9748 30.736H50.6228V24.848H49.3108V39.184H50.6228V31.84H52.9748V30.736ZM65.7895 29.152H57.3415V25.36H56.0295V30.224H65.7895V29.152ZM57.2455 34.64H55.9335V38.832H65.8695V37.76H57.2455V34.64ZM54.2695 32.144V33.2H67.2775V32.144H54.2695ZM76.2593 34.944H83.4753V37.936H76.2593V34.944ZM74.9793 38.992H84.7713V33.888H74.9793V38.992ZM84.3393 30.88C84.7233 29.088 84.7233 27.776 84.7233 26.656V25.6H75.0273V26.656H83.4273C83.4273 27.776 83.4273 29.088 83.0113 30.88H73.3633V31.936H86.4033V30.88H84.3393ZM94.578 26.144C96.85 26.144 98.274 26.752 98.274 27.808C98.274 28.848 96.85 29.472 94.578 29.472C92.306 29.472 90.882 28.848 90.882 27.808C90.882 26.752 92.306 26.144 94.578 26.144ZM94.578 30.48C97.698 30.48 99.618 29.504 99.618 27.808C99.618 26.112 97.698 25.12 94.578 25.12C91.474 25.12 89.538 26.112 89.538 27.808C89.538 29.504 91.474 30.48 94.578 30.48ZM96.53 34.24C95.954 34.128 95.298 34.08 94.578 34.08C93.874 34.08 93.25 34.128 92.674 34.224V32.608H96.53V34.24ZM98.162 36.624C98.162 37.616 96.818 38.16 94.578 38.16C92.322 38.16 90.994 37.616 90.994 36.624C90.994 35.664 92.322 35.088 94.578 35.088C96.818 35.088 98.162 35.664 98.162 36.624ZM101.074 32.608V31.552H88.098V32.608H91.362V34.576C90.29 34.976 89.666 35.696 89.666 36.624C89.666 38.272 91.506 39.184 94.578 39.184C97.65 39.184 99.49 38.272 99.49 36.624C99.49 35.712 98.898 35.008 97.842 34.592V32.608H101.074ZM114.856 28.56V29.632H117.688V33.392H119.016V24.848H117.688V28.56H114.856ZM115.656 31.824C113.576 31.088 112.168 29.28 112.168 27.44V26.944H115.32V25.888H107.656V26.944H110.856V27.44C110.856 29.504 109.384 31.44 107.24 32.224L107.928 33.264C109.608 32.624 110.936 31.28 111.544 29.616C112.168 31.088 113.4 32.272 115 32.848L115.656 31.824ZM114.28 38.16C112.12 38.16 110.808 37.552 110.808 36.512C110.808 35.472 112.12 34.848 114.28 34.848C116.44 34.848 117.752 35.472 117.752 36.512C117.752 37.552 116.44 38.16 114.28 38.16ZM114.28 33.84C111.336 33.84 109.496 34.816 109.496 36.512C109.496 38.208 111.336 39.184 114.28 39.184C117.224 39.184 119.064 38.208 119.064 36.512C119.064 34.816 117.224 33.84 114.28 33.84ZM124.743 29.488H132.071V32.128H124.743V29.488ZM129.062 36.272V33.184H133.351V25.856H132.071V28.416H124.743V25.856H123.447V33.184H127.735V36.272H121.911V37.344H134.919V36.272H129.062ZM136.703 40.9297H137.898L139.195 36.3438H137.391L136.703 40.9297ZM154.835 31.376C152.723 30.72 151.219 29.04 151.219 27.152V26.832H154.467V25.76H146.595V26.832H149.875V27.152C149.875 29.12 148.403 30.912 146.227 31.6L146.899 32.64C148.611 32.048 149.939 30.8 150.563 29.216C151.219 30.704 152.547 31.856 154.195 32.384L154.835 31.376ZM156.531 37.92H149.875V36.064H156.531V37.92ZM156.531 35.04H149.875V33.296H148.579V38.992H157.827V33.296H156.531V35.04ZM156.515 24.832V32.608H157.827V24.832H156.515ZM160.844 40.9297H162.039L163.336 36.3438H161.531L160.844 40.9297ZM175.312 27.392H178.688V26.304H170.672V27.392H174V29.216C174 31.696 172.256 34.4 170.192 35.376L170.96 36.432C172.592 35.6 174 33.792 174.656 31.696C175.344 33.664 176.752 35.312 178.416 36.08L179.152 35.024C177.04 34.128 175.312 31.648 175.312 29.216V27.392ZM180.624 24.848V39.184H181.936V24.848H180.624ZM192.431 33.312V34.288H195.343V35.76H196.655V24.832H195.343V33.312H192.431ZM189.503 26.384C190.863 26.384 191.791 26.992 191.791 27.904C191.791 28.832 190.863 29.44 189.503 29.44C188.143 29.44 187.215 28.832 187.215 27.904C187.215 26.992 188.143 26.384 189.503 26.384ZM189.503 30.416C191.599 30.416 193.039 29.44 193.039 27.904C193.039 26.4 191.599 25.408 189.503 25.408C187.407 25.408 185.967 26.4 185.967 27.904C185.967 29.44 187.407 30.416 189.503 30.416ZM188.991 35.248H190.303V32.416C191.599 32.336 192.927 32.192 194.191 32L194.079 31.056C191.039 31.44 187.487 31.472 184.831 31.472L185.007 32.56C186.191 32.56 187.567 32.544 188.991 32.48V35.248ZM188.191 37.792V34.688H186.879V38.864H197.023V37.792H188.191ZM215.476 29.232H206.948V26.464H215.38V25.408H205.636V30.288H215.476V29.232ZM210.484 38.144C208.228 38.144 206.9 37.584 206.9 36.576C206.9 35.568 208.228 35.008 210.484 35.008C212.74 35.008 214.068 35.568 214.068 36.576C214.068 37.584 212.724 38.144 210.484 38.144ZM210.484 33.984C207.428 33.984 205.572 34.912 205.572 36.576C205.572 38.24 207.428 39.168 210.484 39.168C213.54 39.168 215.396 38.24 215.396 36.576C215.396 34.912 213.54 33.984 210.484 33.984ZM204.004 31.664V32.752H216.996V31.664H204.004ZM225.018 27.296H230.378V26.208H223.706V35.632H224.842C227.546 35.632 229.434 35.536 231.626 35.12L231.482 34.032C229.402 34.4 227.562 34.512 225.018 34.512V27.296ZM236.506 30.496H234.138V24.832H232.826V39.216H234.138V31.584H236.506V30.496ZM239.369 29.056C239.369 27.712 240.393 26.784 241.833 26.784C243.257 26.784 244.297 27.712 244.297 29.056C244.297 30.4 243.257 31.344 241.833 31.344C240.393 31.344 239.369 30.4 239.369 29.056ZM245.577 29.056C245.577 27.072 243.993 25.696 241.833 25.696C239.657 25.696 238.089 27.072 238.089 29.056C238.089 31.056 239.657 32.448 241.833 32.448C243.993 32.448 245.577 31.056 245.577 29.056ZM244.393 38.128C242.265 38.128 240.969 37.504 240.969 36.48C240.969 35.44 242.265 34.832 244.393 34.832C246.505 34.832 247.801 35.44 247.801 36.48C247.801 37.504 246.505 38.128 244.393 38.128ZM244.393 33.792C241.481 33.792 239.657 34.768 239.657 36.48C239.657 38.176 241.481 39.168 244.393 39.168C247.289 39.168 249.113 38.176 249.113 36.48C249.113 34.768 247.289 33.792 244.393 33.792ZM251.049 28.048V26.976H248.969V24.848H247.657V33.344H248.969V31.12H251.049V30.032H248.969V28.048H251.049ZM261.048 26.592H257.464V24.832H256.152V26.592H252.584V27.648H261.048V26.592ZM254.632 31.104C254.632 30.112 255.512 29.472 256.808 29.472C258.104 29.472 259 30.112 259 31.104C259 32.112 258.104 32.752 256.808 32.752C255.512 32.752 254.632 32.112 254.632 31.104ZM260.248 31.104C260.248 29.504 258.84 28.448 256.808 28.448C254.776 28.448 253.384 29.504 253.384 31.104C253.384 32.72 254.776 33.776 256.808 33.776C258.84 33.776 260.248 32.72 260.248 31.104ZM256.056 34.752H254.744V38.864H264.312V37.792H256.056V34.752ZM263.672 29.568V24.832H262.36V35.6H263.672V30.672H265.784V29.568H263.672ZM279.293 28.56V29.632H282.125V33.392H283.453V24.848H282.125V28.56H279.293ZM280.093 31.824C278.013 31.088 276.605 29.28 276.605 27.44V26.944H279.757V25.888H272.093V26.944H275.293V27.44C275.293 29.504 273.821 31.44 271.677 32.224L272.365 33.264C274.045 32.624 275.373 31.28 275.981 29.616C276.605 31.088 277.837 32.272 279.437 32.848L280.093 31.824ZM278.717 38.16C276.557 38.16 275.245 37.552 275.245 36.512C275.245 35.472 276.557 34.848 278.717 34.848C280.877 34.848 282.189 35.472 282.189 36.512C282.189 37.552 280.877 38.16 278.717 38.16ZM278.717 33.84C275.773 33.84 273.933 34.816 273.933 36.512C273.933 38.208 275.773 39.184 278.717 39.184C281.661 39.184 283.501 38.208 283.501 36.512C283.501 34.816 281.661 33.84 278.717 33.84ZM289.18 29.488H296.508V32.128H289.18V29.488ZM293.5 36.272V33.184H297.788V25.856H296.508V28.416H289.18V25.856H287.884V33.184H292.172V36.272H286.348V37.344H299.356V36.272H293.5ZM311.115 27.344H302.731V30.416H312.667V29.472H304.027V28.24H312.411V25.248H302.699V26.176H311.115V27.344ZM303.947 36.72H312.459V33.664H302.619V34.608H311.163V35.808H302.651V38.992H312.907V38.048H303.947V36.72ZM301.067 31.504V32.496H314.075V31.504H301.067ZM322.177 26.576H320.865V35.456H321.777C323.329 35.456 324.977 35.376 326.913 35.008L326.785 33.872C325.073 34.208 323.553 34.304 322.177 34.32V26.576ZM331.073 24.832V30.672H329.041V25.152H327.809V38.448H329.041V31.76H331.073V39.168H332.337V24.832H331.073ZM25.616 50.368V51.456H30.88C30.576 54.848 28.608 57.6 24.944 59.44L25.664 60.464C30.304 58.144 32.176 54.448 32.176 50.368H25.616ZM38.192 54.656H35.888V48.832H34.576V63.184H35.888V55.744H38.192V54.656ZM45.6858 51.536H48.6938V58.288H45.6858V51.536ZM44.4538 59.328H49.9098V50.496H44.4538V59.328ZM54.8858 48.832V54.512H52.9498V49.152H51.7178V62.464H52.9498V55.584H54.8858V63.168H56.1338V48.832H54.8858ZM70.4365 48.832H69.1245V56.192H70.4365V48.832ZM60.2605 52.544C60.2605 51.296 61.3005 50.416 62.6925 50.416C64.1005 50.416 65.1245 51.296 65.1245 52.544C65.1245 53.776 64.1005 54.656 62.6925 54.656C61.3005 54.656 60.2605 53.776 60.2605 52.544ZM66.4045 52.544C66.4045 50.64 64.8365 49.344 62.6925 49.344C60.5485 49.344 58.9965 50.64 58.9965 52.544C58.9965 54.432 60.5485 55.712 62.6925 55.712C64.8365 55.712 66.4045 54.432 66.4045 52.544ZM62.4685 61.952V60.368H70.4365V56.896H61.1405V57.936H69.1405V59.392H61.1725V62.992H70.9165V61.952H62.4685ZM75.1233 51.536H78.1313V58.288H75.1233V51.536ZM73.8913 59.328H79.3473V50.496H73.8913V59.328ZM84.3233 48.832V54.512H82.3873V49.152H81.1553V62.464H82.3873V55.584H84.3233V63.168H85.5713V48.832H84.3233ZM99.874 48.832H98.562V56.192H99.874V48.832ZM89.698 52.544C89.698 51.296 90.738 50.416 92.13 50.416C93.538 50.416 94.562 51.296 94.562 52.544C94.562 53.776 93.538 54.656 92.13 54.656C90.738 54.656 89.698 53.776 89.698 52.544ZM95.842 52.544C95.842 50.64 94.274 49.344 92.13 49.344C89.986 49.344 88.434 50.64 88.434 52.544C88.434 54.432 89.986 55.712 92.13 55.712C94.274 55.712 95.842 54.432 95.842 52.544ZM91.906 61.952V60.368H99.874V56.896H90.578V57.936H98.578V59.392H90.61V62.992H100.354V61.952H91.906ZM117.192 52.64H110.152V50.352H117.192V52.64ZM118.488 49.312H108.872V53.68H118.488V49.312ZM120.168 55.936V54.88H107.176V55.936H113.016V57.344H108.744V58.336H117.208V59.616H108.792V63.024H118.936V62H110.072V60.576H118.504V57.344H114.328V55.936H120.168ZM125.751 58.784C124.375 58.784 123.414 57.28 123.414 54.944C123.414 52.624 124.375 51.12 125.751 51.12C127.111 51.12 128.071 52.624 128.071 54.944C128.071 57.28 127.111 58.784 125.751 58.784ZM132.423 48.832V54.304H129.303C129.095 51.616 127.687 49.936 125.751 49.936C123.655 49.936 122.167 51.888 122.167 54.944C122.167 58 123.655 59.952 125.751 59.952C127.751 59.952 129.175 58.192 129.303 55.376H132.423V63.216H133.735V48.832H132.423ZM138.549 51.296H143.909V50.208H137.237V59.632H138.373C141.077 59.632 142.965 59.536 145.157 59.12L145.013 58.032C142.933 58.4 141.093 58.512 138.549 58.512V51.296ZM150.037 54.496H147.669V48.832H146.357V63.216H147.669V55.584H150.037V54.496ZM156.827 54.112C159.211 53.888 161.355 52.976 162.219 51.552C163.083 52.976 165.227 53.888 167.595 54.112L168.011 53.12C165.467 52.896 163.179 51.808 163.003 50.368H167.531V49.328H156.907V50.368H161.435C161.243 51.808 158.939 52.896 156.411 53.12L156.827 54.112ZM168.699 55.872V54.816H155.707V55.872H161.547V57.296H157.275V58.288H165.739V59.648H157.323V63.024H167.467V62.016H158.603V60.592H167.035V57.296H162.875V55.872H168.699ZM185.313 58.544H186.641V48.848H185.313V52.88H182.225V53.952H185.313V58.544ZM175.745 49.968V51.04H180.769C180.513 53.568 178.449 55.52 175.057 56.592L175.633 57.632C179.729 56.304 182.177 53.664 182.177 49.968H175.745ZM182.657 57.296H181.345V57.952C181.345 60.048 179.105 61.648 176.545 62.096L177.073 63.136C179.217 62.72 181.153 61.584 182.001 59.904C182.849 61.552 184.769 62.688 186.881 63.104L187.409 62.08C184.881 61.6 182.657 60.016 182.657 57.952V57.296ZM199.968 48.832V63.216H201.28V48.832H199.968ZM193.712 49.936C191.584 49.936 190.064 51.888 190.064 54.944C190.064 58 191.584 59.952 193.712 59.952C195.84 59.952 197.36 58 197.36 54.944C197.36 51.888 195.84 49.936 193.712 49.936ZM193.712 51.12C195.104 51.12 196.096 52.624 196.096 54.944C196.096 57.28 195.104 58.784 193.712 58.784C192.304 58.784 191.312 57.28 191.312 54.944C191.312 52.624 192.304 51.12 193.712 51.12ZM206.782 53.536C206.782 51.888 208.462 50.816 210.75 50.816C213.038 50.816 214.702 51.888 214.702 53.536C214.702 55.184 213.038 56.256 210.75 56.256C208.462 56.256 206.782 55.184 206.782 53.536ZM211.406 60.256V57.264C214.078 57.072 215.95 55.648 215.95 53.536C215.95 51.248 213.774 49.776 210.75 49.776C207.71 49.776 205.518 51.248 205.518 53.536C205.518 55.648 207.406 57.072 210.078 57.264V60.256H204.238V61.344H217.278V60.256H211.406ZM220.648 62.1172C221.297 62.1172 221.789 61.6172 221.789 60.9844C221.789 60.3438 221.297 59.8438 220.648 59.8438C220 59.8438 219.5 60.3438 219.5 60.9844C219.5 61.6172 220 62.1172 220.648 62.1172Z" fill="black"/>
</svg>
