<svg width="365" height="88" viewBox="0 0 365 88" fill="none" xmlns="http://www.w3.org/2000/svg">
<path d="M0 0H353C359.627 0 365 5.37258 365 12V76C365 82.6274 359.627 88 353 88H12C5.37259 88 0 82.6274 0 76V0Z" fill="#F4F1FF"/>
<path d="M34.8 27.792C34.8 29.568 34.8 31.712 34.224 34.64L35.536 34.784C36.096 31.68 36.096 29.616 36.096 27.792V26.352H26.256V27.424H34.8V27.792ZM24.864 36V37.088H37.84V36H24.864ZM41.3748 27.648H45.4228V26.576H40.0788V35.648H41.0228C43.1668 35.648 44.6228 35.584 46.3348 35.216L46.2228 34.128C44.6548 34.464 43.2948 34.544 41.3748 34.56V27.648ZM50.4948 24.832V30.592H48.4628V25.152H47.2308V38.464H48.4628V31.664H50.4948V39.184H51.7588V24.832H50.4948ZM55.0535 26.368V27.456H60.3175C60.0135 30.848 58.0455 33.6 54.3815 35.44L55.1015 36.464C59.7415 34.144 61.6135 30.448 61.6135 26.368H55.0535ZM67.6295 30.656H65.3255V24.832H64.0135V39.184H65.3255V31.744H67.6295V30.656ZM78.1953 26.08H76.8993V28.656C76.8993 31.264 75.2673 34.016 73.2033 35.072L73.9873 36.128C75.6033 35.264 76.9313 33.472 77.5553 31.376C78.2113 33.344 79.5073 35.024 81.0273 35.84L81.8433 34.8C79.8273 33.792 78.1953 31.184 78.1953 28.656V26.08ZM86.7873 30.656H84.4193V24.848H83.1073V39.184H84.4193V31.744H86.7873V30.656ZM94.578 38.16C92.322 38.16 90.994 37.6 90.994 36.624C90.994 35.648 92.322 35.088 94.578 35.088C96.818 35.088 98.162 35.648 98.162 36.624C98.162 37.6 96.818 38.16 94.578 38.16ZM94.578 34.064C91.506 34.064 89.666 34.976 89.666 36.624C89.666 38.272 91.506 39.168 94.578 39.168C97.666 39.168 99.49 38.272 99.49 36.624C99.49 34.976 97.666 34.064 94.578 34.064ZM92.594 30.256C93.186 30.352 93.858 30.416 94.578 30.416C95.314 30.416 95.986 30.352 96.578 30.256V31.936H92.594V30.256ZM90.882 27.76C90.882 26.72 92.29 26.112 94.578 26.112C96.866 26.112 98.274 26.72 98.274 27.76C98.274 28.784 96.866 29.408 94.578 29.408C92.29 29.408 90.882 28.784 90.882 27.76ZM97.874 31.936V29.904C98.978 29.456 99.618 28.72 99.618 27.76C99.618 26.08 97.698 25.088 94.578 25.088C91.474 25.088 89.538 26.08 89.538 27.76C89.538 28.736 90.162 29.456 91.298 29.92V31.936H88.082V32.992H101.074V31.936H97.874ZM108.392 30.688C110.744 30.4 112.904 29.344 113.688 27.76C114.488 29.344 116.632 30.4 118.984 30.688L119.448 29.648C116.936 29.36 114.648 28.128 114.536 26.544H119V25.488H108.392V26.544H112.84C112.728 28.128 110.44 29.36 107.928 29.648L108.392 30.688ZM117.256 36.64C117.256 37.6 115.912 38.16 113.672 38.16C111.416 38.16 110.088 37.6 110.088 36.64C110.088 35.68 111.416 35.136 113.672 35.136C115.912 35.136 117.256 35.68 117.256 36.64ZM120.168 32.608V31.552H107.192V32.608H113.016V34.144C110.344 34.272 108.76 35.152 108.76 36.64C108.76 38.272 110.616 39.168 113.688 39.168C116.744 39.168 118.584 38.272 118.584 36.64C118.584 35.152 117.016 34.272 114.344 34.144V32.608H120.168ZM133.687 24.848H132.375V35.328H133.687V24.848ZM123.527 29.36C123.527 27.968 124.583 26.976 125.975 26.976C127.399 26.976 128.455 27.968 128.455 29.36C128.455 30.784 127.399 31.776 125.975 31.776C124.583 31.776 123.527 30.784 123.527 29.36ZM129.735 29.36C129.735 27.296 128.119 25.84 125.975 25.84C123.847 25.84 122.247 27.296 122.247 29.36C122.247 31.44 123.847 32.912 125.975 32.912C128.119 32.912 129.735 31.44 129.735 29.36ZM125.766 37.792V34.256H124.455V38.864H134.119V37.792H125.766ZM143.884 34.944H151.1V37.936H143.884V34.944ZM142.604 38.992H152.396V33.888H142.604V38.992ZM151.964 30.88C152.348 29.088 152.348 27.776 152.348 26.656V25.6H142.652V26.656H151.052C151.052 27.776 151.052 29.088 150.636 30.88H140.988V31.936H154.028V30.88H151.964ZM162.203 26.144C164.475 26.144 165.899 26.752 165.899 27.808C165.899 28.848 164.475 29.472 162.203 29.472C159.931 29.472 158.507 28.848 158.507 27.808C158.507 26.752 159.931 26.144 162.203 26.144ZM162.203 30.48C165.323 30.48 167.243 29.504 167.243 27.808C167.243 26.112 165.323 25.12 162.203 25.12C159.099 25.12 157.163 26.112 157.163 27.808C157.163 29.504 159.099 30.48 162.203 30.48ZM164.155 34.24C163.579 34.128 162.923 34.08 162.203 34.08C161.499 34.08 160.875 34.128 160.299 34.224V32.608H164.155V34.24ZM165.787 36.624C165.787 37.616 164.443 38.16 162.203 38.16C159.947 38.16 158.619 37.616 158.619 36.624C158.619 35.664 159.947 35.088 162.203 35.088C164.443 35.088 165.787 35.664 165.787 36.624ZM168.699 32.608V31.552H155.723V32.608H158.987V34.576C157.915 34.976 157.291 35.696 157.291 36.624C157.291 38.272 159.131 39.184 162.203 39.184C165.275 39.184 167.115 38.272 167.115 36.624C167.115 35.712 166.523 35.008 165.467 34.592V32.608H168.699ZM175.466 26.064H174.154V28.64C174.154 31.296 172.522 34.064 170.442 35.104L171.242 36.144C172.858 35.28 174.186 33.472 174.81 31.344C175.466 33.36 176.778 35.072 178.41 35.888L179.178 34.848C177.098 33.856 175.466 31.248 175.466 28.64V26.064ZM180.954 24.832V29.696H177.626V30.768H180.954V39.2H182.266V24.832H180.954ZM195.593 24.832V39.2H196.905V24.832H195.593ZM185.977 26.048V35.728H192.729V26.048H191.433V29.84H187.273V26.048H185.977ZM187.273 30.88H191.433V34.656H187.273V30.88ZM212.247 32.048C209.735 31.568 207.015 29.392 207.015 26.944V25.84H205.639V26.944C205.639 29.392 202.935 31.552 200.423 32.048L201.015 33.136C203.175 32.624 205.415 31.088 206.327 28.992C207.239 31.104 209.479 32.64 211.655 33.136L212.247 32.048ZM199.879 36.176V37.264H212.887V36.176H199.879ZM214.672 40.9297H215.867L217.164 36.3438H215.359L214.672 40.9297ZM234.068 30.544H226.948V28.432H234.068V30.544ZM235.38 25.408H234.068V27.376H226.948V25.408H225.652V31.616H235.38V25.408ZM237.028 33.344H224.004V34.4H229.828V39.2H231.14V34.4H237.028V33.344ZM245.235 38.16C242.963 38.16 241.635 37.6 241.635 36.592C241.635 35.584 242.963 35.024 245.235 35.024C247.475 35.024 248.803 35.584 248.803 36.592C248.803 37.6 247.475 38.16 245.235 38.16ZM245.235 34C242.163 34 240.307 34.928 240.307 36.592C240.307 38.256 242.163 39.184 245.235 39.184C248.275 39.184 250.131 38.256 250.131 36.592C250.131 34.928 248.275 34 245.235 34ZM245.891 31.92V30.256H250.211V29.2H241.683V26.544H250.115V25.488H240.371V30.256H244.579V31.92H238.739V32.976H251.731V31.92H245.891ZM261.825 32.048C259.713 31.296 258.289 29.472 258.289 27.504V25.696H256.977V27.472C256.977 29.696 255.585 31.616 253.393 32.4L254.081 33.44C255.793 32.8 257.073 31.488 257.665 29.792C258.305 31.296 259.553 32.496 261.169 33.088L261.825 32.048ZM257.009 34.416H255.697V38.864H265.217V37.792H257.009V34.416ZM264.593 29.232V24.816H263.281V35.424H264.593V30.32H266.705V29.232H264.593ZM268.25 40.9297H269.445L270.742 36.3438H268.938L268.25 40.9297ZM282.718 27.392H286.094V26.304H278.078V27.392H281.406V29.216C281.406 31.696 279.662 34.4 277.598 35.376L278.366 36.432C279.998 35.6 281.406 33.792 282.062 31.696C282.75 33.664 284.158 35.312 285.822 36.08L286.558 35.024C284.446 34.128 282.718 31.648 282.718 29.216V27.392ZM288.03 24.848V39.184H289.342V24.848H288.03ZM299.837 33.312V34.288H302.749V35.76H304.061V24.832H302.749V33.312H299.837ZM296.909 26.384C298.269 26.384 299.197 26.992 299.197 27.904C299.197 28.832 298.269 29.44 296.909 29.44C295.549 29.44 294.621 28.832 294.621 27.904C294.621 26.992 295.549 26.384 296.909 26.384ZM296.909 30.416C299.005 30.416 300.445 29.44 300.445 27.904C300.445 26.4 299.005 25.408 296.909 25.408C294.813 25.408 293.373 26.4 293.373 27.904C293.373 29.44 294.813 30.416 296.909 30.416ZM296.397 35.248H297.709V32.416C299.005 32.336 300.333 32.192 301.597 32L301.485 31.056C298.445 31.44 294.893 31.472 292.237 31.472L292.413 32.56C293.597 32.56 294.973 32.544 296.397 32.48V35.248ZM295.597 37.792V34.688H294.285V38.864H304.429V37.792H295.597ZM314.7 28.56V29.632H317.532V33.392H318.86V24.848H317.532V28.56H314.7ZM315.5 31.824C313.42 31.088 312.012 29.28 312.012 27.44V26.944H315.164V25.888H307.5V26.944H310.7V27.44C310.7 29.504 309.228 31.44 307.084 32.224L307.772 33.264C309.452 32.624 310.78 31.28 311.388 29.616C312.012 31.088 313.244 32.272 314.844 32.848L315.5 31.824ZM314.124 38.16C311.964 38.16 310.652 37.552 310.652 36.512C310.652 35.472 311.964 34.848 314.124 34.848C316.284 34.848 317.596 35.472 317.596 36.512C317.596 37.552 316.284 38.16 314.124 38.16ZM314.124 33.84C311.18 33.84 309.34 34.816 309.34 36.512C309.34 38.208 311.18 39.184 314.124 39.184C317.068 39.184 318.908 38.208 318.908 36.512C318.908 34.816 317.068 33.84 314.124 33.84ZM328.906 31.952C327.082 31.264 325.994 29.632 325.994 27.936V27.776H328.554V26.72H325.994V24.992H324.746V26.72H322.154V27.776H324.746V27.936C324.746 29.744 323.69 31.488 321.866 32.24L322.506 33.2C323.93 32.608 324.922 31.456 325.386 30.048C325.898 31.344 326.89 32.4 328.282 32.96L328.906 31.952ZM324.218 35.472H332.554V39.184H333.866V34.4H324.218V35.472ZM332.602 24.848V28.672H330.794V25.088H329.562V33.552H330.794V29.744H332.602V33.648H333.866V24.848H332.602ZM336.547 40.9297H337.742L339.039 36.3438H337.234L336.547 40.9297ZM37.44 52.88C35.68 52.336 34.72 51.008 34.72 49.792V48.992H33.424V49.792C33.424 50.704 32.704 51.888 31.344 52.528C29.984 51.856 29.232 50.656 29.232 49.792V48.992H27.92V49.792C27.92 50.88 26.944 52.288 25.216 52.88L25.856 53.84C27.2 53.36 28.144 52.384 28.576 51.344C29.04 52.336 29.952 53.296 31.344 53.744C32.72 53.312 33.6 52.384 34.064 51.392C34.512 52.464 35.44 53.376 36.816 53.84L37.44 52.88ZM27.728 60.544H36.16V57.264H26.4V58.272H34.864V59.584H26.448V63.024H36.592V62H27.728V60.544ZM32.016 55.104V53.92H30.688V55.104H24.848V56.144H37.84V55.104H32.016ZM52.1588 52.88C50.3988 52.336 49.4388 51.008 49.4388 49.792V48.992H48.1428V49.792C48.1428 50.704 47.4228 51.888 46.0628 52.528C44.7028 51.856 43.9508 50.656 43.9508 49.792V48.992H42.6388V49.792C42.6388 50.88 41.6628 52.288 39.9348 52.88L40.5748 53.84C41.9188 53.36 42.8628 52.384 43.2948 51.344C43.7588 52.336 44.6708 53.296 46.0628 53.744C47.4388 53.312 48.3188 52.384 48.7828 51.392C49.2308 52.464 50.1588 53.376 51.5348 53.84L52.1588 52.88ZM42.4468 60.544H50.8788V57.264H41.1188V58.272H49.5828V59.584H41.1668V63.024H51.3108V62H42.4468V60.544ZM46.7348 55.104V53.92H45.4068V55.104H39.5668V56.144H52.5588V55.104H46.7348ZM62.7975 50.592H59.2135V48.832H57.9015V50.592H54.3335V51.648H62.7975V50.592ZM56.3815 55.104C56.3815 54.112 57.2615 53.472 58.5575 53.472C59.8535 53.472 60.7495 54.112 60.7495 55.104C60.7495 56.112 59.8535 56.752 58.5575 56.752C57.2615 56.752 56.3815 56.112 56.3815 55.104ZM61.9975 55.104C61.9975 53.504 60.5895 52.448 58.5575 52.448C56.5255 52.448 55.1335 53.504 55.1335 55.104C55.1335 56.72 56.5255 57.776 58.5575 57.776C60.5895 57.776 61.9975 56.72 61.9975 55.104ZM57.8055 58.752H56.4935V62.864H66.0615V61.792H57.8055V58.752ZM65.4215 53.568V48.832H64.1095V59.6H65.4215V54.672H67.5335V53.568H65.4215ZM81.0433 52.56V53.632H83.8753V57.392H85.2033V48.848H83.8753V52.56H81.0433ZM81.8433 55.824C79.7633 55.088 78.3553 53.28 78.3553 51.44V50.944H81.5073V49.888H73.8433V50.944H77.0433V51.44C77.0433 53.504 75.5713 55.44 73.4273 56.224L74.1153 57.264C75.7953 56.624 77.1233 55.28 77.7313 53.616C78.3553 55.088 79.5873 56.272 81.1873 56.848L81.8433 55.824ZM80.4673 62.16C78.3073 62.16 76.9953 61.552 76.9953 60.512C76.9953 59.472 78.3073 58.848 80.4673 58.848C82.6273 58.848 83.9393 59.472 83.9393 60.512C83.9393 61.552 82.6273 62.16 80.4673 62.16ZM80.4673 57.84C77.5233 57.84 75.6833 58.816 75.6833 60.512C75.6833 62.208 77.5233 63.184 80.4673 63.184C83.4113 63.184 85.2513 62.208 85.2513 60.512C85.2513 58.816 83.4113 57.84 80.4673 57.84ZM90.93 53.488H98.258V56.128H90.93V53.488ZM95.25 60.272V57.184H99.538V49.856H98.258V52.416H90.93V49.856H89.634V57.184H93.922V60.272H88.098V61.344H101.106V60.272H95.25ZM118.664 53.232H110.136V50.464H118.568V49.408H108.824V54.288H118.664V53.232ZM113.672 62.144C111.416 62.144 110.088 61.584 110.088 60.576C110.088 59.568 111.416 59.008 113.672 59.008C115.928 59.008 117.256 59.568 117.256 60.576C117.256 61.584 115.912 62.144 113.672 62.144ZM113.672 57.984C110.616 57.984 108.76 58.912 108.76 60.576C108.76 62.24 110.616 63.168 113.672 63.168C116.728 63.168 118.584 62.24 118.584 60.576C118.584 58.912 116.728 57.984 113.672 57.984ZM107.192 55.664V56.752H120.184V55.664H107.192ZM129.086 51.072H136.43V55.728H129.086V51.072ZM133.438 60.256V56.768H137.71V50.032H127.822V56.768H132.11V60.256H126.286V61.344H139.294V60.256H133.438ZM152.492 53.44H143.948V50.512H152.364V49.44H142.636V54.496H152.492V53.44ZM143.98 58.656H142.668V62.848H152.62V61.776H143.98V58.656ZM141.004 56.08V57.136H153.98V56.08H141.004ZM170.594 58.544H171.922V48.848H170.594V52.88H167.506V53.952H170.594V58.544ZM161.026 49.968V51.04H166.05C165.794 53.568 163.73 55.52 160.338 56.592L160.914 57.632C165.01 56.304 167.458 53.664 167.458 49.968H161.026ZM167.938 57.296H166.626V57.952C166.626 60.048 164.386 61.648 161.826 62.096L162.354 63.136C164.498 62.72 166.434 61.584 167.282 59.904C168.13 61.552 170.05 62.688 172.162 63.104L172.69 62.08C170.162 61.6 167.938 60.016 167.938 57.952V57.296ZM181.297 50.064C183.649 50.064 184.993 50.608 184.993 51.568C184.993 52.528 183.649 53.072 181.297 53.072C178.945 53.072 177.601 52.528 177.601 51.568C177.601 50.608 178.945 50.064 181.297 50.064ZM181.297 54.048C184.449 54.048 186.337 53.184 186.337 51.568C186.337 49.952 184.449 49.072 181.297 49.072C178.145 49.072 176.257 49.952 176.257 51.568C176.257 53.184 178.145 54.048 181.297 54.048ZM177.697 60.544H186.129V57.312H176.369V58.304H184.833V59.584H176.417V63.024H186.561V62H177.697V60.544ZM174.801 55.024V56.08H187.793V55.024H174.801ZM195.831 51.296H201.191V50.208H194.519V59.632H195.655C198.359 59.632 200.247 59.536 202.439 59.12L202.295 58.032C200.215 58.4 198.375 58.512 195.831 58.512V51.296ZM207.319 54.496H204.951V48.832H203.639V63.216H204.951V55.584H207.319V54.496ZM215.804 51.072H223.148V55.728H215.804V51.072ZM220.156 60.256V56.768H224.428V50.032H214.54V56.768H218.828V60.256H213.004V61.344H226.012V60.256H220.156ZM231.547 58.784C230.155 58.784 229.179 57.28 229.179 54.944C229.179 52.624 230.155 51.12 231.547 51.12C232.923 51.12 233.899 52.624 233.899 54.944C233.899 57.28 232.923 58.784 231.547 58.784ZM231.547 49.936C229.435 49.936 227.931 51.888 227.931 54.944C227.931 58 229.435 59.952 231.547 59.952C233.659 59.952 235.147 58 235.147 54.944C235.147 51.888 233.659 49.936 231.547 49.936ZM241.131 54.56H238.763V48.848H237.451V63.184H238.763V55.664H241.131V54.56ZM245.322 60.624H253.754V57.424H243.994V58.416H252.458V59.664H244.042V63.024H254.186V62.016H245.322V60.624ZM245.45 51.408H252.426V52.784H245.45V51.408ZM249.578 55.168V53.792H253.722V49.056H252.426V50.416H245.45V49.056H244.154V53.792H248.266V55.168H242.426V56.224H255.418V55.168H249.578ZM273.888 54.304C271.28 53.92 268.72 52.144 268.72 50.144V49.344H267.344V50.144C267.344 52.192 264.816 53.92 262.208 54.304L262.736 55.36C264.976 54.976 267.136 53.744 268.032 52C268.96 53.728 271.12 54.976 273.344 55.36L273.888 54.304ZM274.512 56.912H261.552V58H267.344V63.2H268.656V58H274.528L274.512 56.912ZM292.405 48.848H291.093V57.04H292.405V48.848ZM284.693 50.768C286.117 50.768 287.173 51.712 287.173 53.024C287.173 54.352 286.117 55.28 284.693 55.28C283.269 55.28 282.245 54.352 282.245 53.024C282.245 51.712 283.269 50.768 284.693 50.768ZM284.693 56.368C286.869 56.368 288.453 55.008 288.453 53.024C288.453 51.04 286.869 49.68 284.693 49.68C282.533 49.68 280.965 51.04 280.965 53.024C280.965 55.008 282.533 56.368 284.693 56.368ZM290.805 57.664H289.525V58.432C289.525 59.552 288.837 60.992 287.461 61.84C286.133 61.056 285.477 59.696 285.477 58.432V57.664H284.213V58.432C284.213 59.808 283.141 61.36 281.333 62L281.989 62.992C283.333 62.48 284.309 61.488 284.821 60.336C285.253 61.536 286.117 62.576 287.493 63.12C288.821 62.544 289.701 61.456 290.149 60.288C290.629 61.488 291.621 62.48 293.029 62.992L293.685 62C291.861 61.392 290.805 59.92 290.805 58.432V57.664ZM300.468 51.392H303.844V50.304H295.828V51.392H299.156V53.216C299.156 55.696 297.412 58.4 295.348 59.376L296.116 60.432C297.748 59.6 299.156 57.792 299.812 55.696C300.5 57.664 301.908 59.312 303.572 60.08L304.308 59.024C302.196 58.128 300.468 55.648 300.468 53.216V51.392ZM305.78 48.848V63.184H307.092V48.848H305.78ZM311.742 62.1172C312.391 62.1172 312.883 61.6172 312.883 60.9844C312.883 60.3438 312.391 59.8438 311.742 59.8438C311.094 59.8438 310.594 60.3438 310.594 60.9844C310.594 61.6172 311.094 62.1172 311.742 62.1172Z" fill="black"/>
</svg>
