<svg width="365" height="88" viewBox="0 0 365 88" fill="none" xmlns="http://www.w3.org/2000/svg">
<path d="M0 0H353C359.627 0 365 5.37258 365 12V76C365 82.6274 359.627 88 353 88H12C5.37259 88 0 82.6274 0 76V0Z" fill="#F4F1FF"/>
<path d="M35.28 24.832V39.216H36.592V24.832H35.28ZM29.024 25.936C26.896 25.936 25.376 27.888 25.376 30.944C25.376 34 26.896 35.952 29.024 35.952C31.152 35.952 32.672 34 32.672 30.944C32.672 27.888 31.152 25.936 29.024 25.936ZM29.024 27.12C30.416 27.12 31.408 28.624 31.408 30.944C31.408 33.28 30.416 34.784 29.024 34.784C27.616 34.784 26.624 33.28 26.624 30.944C26.624 28.624 27.616 27.12 29.024 27.12ZM44.5268 28.368H47.7108V27.312H44.5268V25.088H43.2148V27.312H39.9828V28.368H43.2308V29.472C43.2308 31.952 41.6948 34.4 39.5828 35.408L40.3188 36.416C41.9508 35.616 43.2788 33.952 43.8868 31.952C44.5268 33.84 45.8548 35.392 47.4868 36.144L48.2068 35.136C46.0948 34.192 44.5268 31.856 44.5268 29.472V28.368ZM50.0788 24.816V30.592H46.9748V31.664H50.0788V39.216H51.3908V24.816H50.0788ZM62.3815 31.2C60.2535 31.536 58.4935 31.616 56.1735 31.616V29.552H61.2135V25.568H54.8455V26.624H59.9335V28.544H54.8935V32.688H55.9815C58.4455 32.688 60.2695 32.624 62.4935 32.272L62.3815 31.2ZM57.9975 35.104H64.8135V37.936H57.9975V35.104ZM56.7175 38.992H66.1095V34.048H56.7175V38.992ZM64.7815 24.848V28.048H62.1255V29.12H64.7815V33.28H66.1095V24.848H64.7815ZM85.5873 26.16H80.5312V24.672H79.2193V26.16H74.0513V27.168H85.5873V26.16ZM76.3553 35.296H75.0433V38.864H84.9153V37.824H76.3553V35.296ZM76.5633 29.984C76.5633 29.2 77.7473 28.768 79.8753 28.768C81.9873 28.768 83.1713 29.2 83.1713 29.984C83.1713 30.768 81.9873 31.2 79.8753 31.2C77.7473 31.2 76.5633 30.768 76.5633 29.984ZM80.5312 33.312V32.16C83.0433 32.048 84.4993 31.296 84.4993 29.984C84.4993 28.576 82.7873 27.808 79.8753 27.808C76.9313 27.808 75.2353 28.576 75.2353 29.984C75.2353 31.296 76.6913 32.048 79.2193 32.16V33.312H73.3793V34.352H86.3393V33.312H80.5312ZM92.93 27.392H96.114V26.304H88.354V27.392H91.634V29.216C91.634 31.648 89.906 34.368 87.858 35.392L88.626 36.432C90.242 35.6 91.634 33.776 92.29 31.68C92.946 33.6 94.29 35.28 95.89 36.08L96.642 35.024C94.562 34.048 92.93 31.504 92.93 29.216V27.392ZM101.506 30.624H99.138V24.848H97.826V39.184H99.138V31.728H101.506V30.624ZM113.313 35.568H114.641V24.848H113.313V28.208H110.177V29.296H113.313V35.568ZM111.201 32.176C109.137 31.408 107.729 29.52 107.729 27.52V25.696H106.417V27.472C106.417 29.664 104.977 31.696 102.833 32.48L103.521 33.52C105.201 32.848 106.481 31.488 107.089 29.776C107.697 31.328 108.929 32.56 110.513 33.184L111.201 32.176ZM106.721 37.792V34.384H105.409V38.864H114.977V37.792H106.721ZM130.311 31.712C128.199 31.104 126.807 29.536 126.807 27.808V27.568H129.975V26.512H126.807V24.768H125.495V26.512H122.311V27.568H125.495V27.808C125.495 29.696 124.039 31.328 121.911 31.968L122.551 33.008C124.231 32.464 125.543 31.328 126.167 29.84C126.807 31.184 128.055 32.24 129.687 32.72L130.311 31.712ZM133.287 34.992V33.936H123.895V34.992H127.895C127.687 36.496 125.655 37.76 123.351 38.112L123.815 39.12C125.927 38.768 127.783 37.76 128.583 36.32C129.399 37.744 131.271 38.784 133.351 39.136L133.847 38.128C131.543 37.76 129.51 36.464 129.271 34.992H133.287ZM133.047 28.384V24.848H131.735V33.168H133.047V29.472H135.175V28.384H133.047ZM137.477 26.384V27.44H142.869C142.597 30.848 140.677 33.6 136.821 35.44L137.525 36.512C142.293 34.176 144.197 30.528 144.197 26.384H137.477ZM147.093 24.832V39.184H148.405V24.832H147.093ZM159.563 34.784C158.187 34.784 157.227 33.28 157.227 30.944C157.227 28.624 158.187 27.12 159.563 27.12C160.923 27.12 161.883 28.624 161.883 30.944C161.883 33.28 160.923 34.784 159.563 34.784ZM166.235 24.832V30.304H163.115C162.907 27.616 161.499 25.936 159.563 25.936C157.467 25.936 155.979 27.888 155.979 30.944C155.979 34 157.467 35.952 159.563 35.952C161.563 35.952 162.987 34.192 163.115 31.376H166.235V39.216H167.547V24.832H166.235ZM172.266 31.264H177.21V26.128H170.938V27.184H175.914V30.192H170.97V35.856H172.058C174.298 35.856 176.138 35.776 178.394 35.424L178.282 34.336C176.138 34.672 174.378 34.768 172.266 34.768V31.264ZM180.938 24.816V28.096H178.106V29.168H180.938V32.032H178.01V33.104H180.938V39.2H182.25V24.816H180.938ZM191.641 26.256C193.849 26.256 195.289 26.944 195.289 28.08C195.289 29.2 193.849 29.888 191.641 29.888C189.449 29.888 187.993 29.2 187.993 28.08C187.993 26.944 189.449 26.256 191.641 26.256ZM191.641 30.96C194.681 30.96 196.665 29.856 196.665 28.08C196.665 26.304 194.681 25.2 191.641 25.2C188.601 25.2 186.617 26.304 186.617 28.08C186.617 29.856 188.601 30.96 191.641 30.96ZM188.121 34.672H186.809V38.864H196.729V37.776H188.121V34.672ZM185.145 32.112V33.184H191.097V36.08H192.425V33.184H198.153V32.112H185.145ZM211.918 28.56V29.632H214.75V33.392H216.078V24.848H214.75V28.56H211.918ZM212.718 31.824C210.638 31.088 209.23 29.28 209.23 27.44V26.944H212.382V25.888H204.718V26.944H207.918V27.44C207.918 29.504 206.446 31.44 204.302 32.224L204.99 33.264C206.67 32.624 207.998 31.28 208.606 29.616C209.23 31.088 210.462 32.272 212.062 32.848L212.718 31.824ZM211.342 38.16C209.182 38.16 207.87 37.552 207.87 36.512C207.87 35.472 209.182 34.848 211.342 34.848C213.502 34.848 214.814 35.472 214.814 36.512C214.814 37.552 213.502 38.16 211.342 38.16ZM211.342 33.84C208.398 33.84 206.558 34.816 206.558 36.512C206.558 38.208 208.398 39.184 211.342 39.184C214.286 39.184 216.126 38.208 216.126 36.512C216.126 34.816 214.286 33.84 211.342 33.84ZM221.805 29.488H229.133V32.128H221.805V29.488ZM226.125 36.272V33.184H230.413V25.856H229.133V28.416H221.805V25.856H220.509V33.184H224.797V36.272H218.973V37.344H231.981V36.272H226.125ZM243.74 27.344H235.356V30.416H245.292V29.472H236.652V28.24H245.036V25.248H235.324V26.176H243.74V27.344ZM236.572 36.72H245.084V33.664H235.244V34.608H243.788V35.808H235.276V38.992H245.532V38.048H236.572V36.72ZM233.692 31.504V32.496H246.7V31.504H233.692ZM261.602 31.072C259.602 31.408 257.906 31.472 254.914 31.472V29.584H260.05V28.544H254.914V26.768H260.45V25.712H253.602V32.528H254.77C257.906 32.528 259.65 32.464 261.746 32.112L261.602 31.072ZM256.562 35.168H263.282V37.936H256.562V35.168ZM255.282 38.992H264.562V34.112H255.282V38.992ZM263.25 24.848V33.408H264.562V24.848H263.25ZM275.024 33.312V34.288H277.936V35.76H279.248V24.832H277.936V33.312H275.024ZM272.096 26.384C273.456 26.384 274.384 26.992 274.384 27.904C274.384 28.832 273.456 29.44 272.096 29.44C270.736 29.44 269.808 28.832 269.808 27.904C269.808 26.992 270.736 26.384 272.096 26.384ZM272.096 30.416C274.192 30.416 275.632 29.44 275.632 27.904C275.632 26.4 274.192 25.408 272.096 25.408C270 25.408 268.56 26.4 268.56 27.904C268.56 29.44 270 30.416 272.096 30.416ZM271.584 35.248H272.896V32.416C274.192 32.336 275.52 32.192 276.784 32L276.672 31.056C273.632 31.44 270.08 31.472 267.424 31.472L267.6 32.56C268.784 32.56 270.16 32.544 271.584 32.48V35.248ZM270.784 37.792V34.688H269.472V38.864H279.616V37.792H270.784ZM293.663 28.608H285.263V26.368H293.519V25.312H283.951V29.664H293.663V28.608ZM285.103 36.512H293.535V33.136H283.775V34.16H292.239V35.536H283.823V39.008H293.967V37.984H285.103V36.512ZM282.223 30.816V31.888H295.215V30.816H282.223ZM304.43 32.88C304.83 30.208 304.83 28.336 304.83 27.184V26.4H297.582V27.472H303.55C303.55 28.624 303.518 30.368 303.118 32.752L304.43 32.88ZM301.134 30.496H299.838V34.912C298.766 34.944 297.71 34.96 296.798 34.96L296.942 36.048C299.486 36.048 302.862 35.984 305.838 35.504L305.758 34.544C304.302 34.72 302.702 34.816 301.134 34.88V30.496ZM310.238 30.832H307.95V24.832H306.638V39.184H307.95V31.936H310.238V30.832ZM326.068 26.784C326.068 27.904 326.068 28.96 325.684 30.432L326.964 30.576C327.364 29.104 327.364 27.936 327.364 26.784V25.568H317.588V26.624H326.068V26.784ZM322.468 38.144C320.228 38.144 318.788 37.536 318.788 36.544C318.788 35.52 320.228 34.912 322.468 34.912C324.724 34.912 326.164 35.52 326.164 36.544C326.164 37.536 324.724 38.144 322.468 38.144ZM322.468 33.904C319.411 33.904 317.476 34.88 317.476 36.544C317.476 38.176 319.411 39.168 322.468 39.168C325.524 39.168 327.476 38.176 327.476 36.544C327.476 34.88 325.524 33.904 322.468 33.904ZM322.676 31.52V28.768H321.364V31.52H316.068V32.576H328.98V31.52H322.676ZM31.312 50.464C33.504 50.464 34.992 51.264 34.992 52.528C34.992 53.792 33.504 54.608 31.312 54.608C29.136 54.608 27.648 53.792 27.648 52.528C27.648 51.264 29.136 50.464 31.312 50.464ZM31.312 55.664C34.304 55.664 36.336 54.448 36.336 52.528C36.336 50.608 34.304 49.408 31.312 49.408C28.336 49.408 26.304 50.608 26.304 52.528C26.304 54.448 28.336 55.664 31.312 55.664ZM37.84 57.008H24.848V58.08H28.192V63.184H29.52V58.08H33.12V63.184H34.448V58.08H37.84V57.008ZM43.7748 58.896C42.4788 58.896 41.5348 57.968 41.5348 56.688C41.5348 55.392 42.4788 54.464 43.7748 54.464C45.0868 54.464 46.0308 55.392 46.0308 56.688C46.0308 57.968 45.0868 58.896 43.7748 58.896ZM43.7748 53.376C41.7588 53.376 40.3028 54.752 40.3028 56.688C40.3028 58.64 41.7588 59.984 43.7748 59.984C45.8228 59.984 47.2788 58.64 47.2788 56.688C47.2788 54.752 45.8228 53.376 43.7748 53.376ZM44.4148 49.008H43.1028V51.136H39.4868V52.192H47.9508V51.136H44.4148V49.008ZM52.9748 54.736H50.6228V48.848H49.3108V63.184H50.6228V55.84H52.9748V54.736ZM61.3895 56.224V53.344H64.7975V56.224H61.3895ZM60.0935 58.512H56.1415V51.28H60.0935V58.512ZM64.7975 48.832V52.272H61.3895V50.24H54.8615V59.552H61.3895V57.296H64.7975V63.216H66.1095V48.832H64.7975ZM69.0781 64.9297H70.2734L71.5703 60.3438H69.7656L69.0781 64.9297ZM83.4501 50.064H82.1381V52.64C82.1381 55.296 80.5061 58.064 78.4261 59.104L79.2261 60.144C80.8421 59.28 82.1701 57.472 82.7941 55.344C83.4501 57.36 84.7621 59.072 86.3941 59.888L87.1621 58.848C85.0821 57.856 83.4501 55.248 83.4501 52.64V50.064ZM88.9381 48.832V53.696H85.6101V54.768H88.9381V63.2H90.2501V48.832H88.9381ZM100.297 60.336V57.632H104.889V56.576H96.0569V54.256H104.553V49.888H94.7289V50.96H103.273V53.2H94.7609V57.632H98.9689V60.336H93.1289V61.408H106.169V60.336H100.297ZM118.719 49.728C115.743 49.728 113.503 51.312 113.503 53.696C113.503 56.096 115.743 57.664 118.719 57.664C121.695 57.664 123.935 56.096 123.935 53.696C123.935 51.312 121.695 49.728 118.719 49.728ZM118.719 50.8C120.991 50.8 122.687 51.968 122.687 53.696C122.687 55.44 120.991 56.592 118.719 56.592C116.463 56.592 114.751 55.44 114.751 53.696C114.751 51.968 116.463 50.8 118.719 50.8ZM112.223 60.192V61.28H125.263V60.192H112.223ZM134.221 50.096H132.957V53.328C132.957 54.864 132.717 56.944 131.581 58.352C130.445 56.896 130.205 54.784 130.205 53.328V50.096H128.957V53.328C128.957 55.168 128.477 57.68 126.749 58.96L127.597 59.888C128.621 59.104 129.229 57.84 129.581 56.496C129.885 57.888 130.493 59.248 131.581 60.048V60.032V60.048C132.685 59.264 133.277 57.936 133.597 56.528C133.949 57.888 134.573 59.152 135.613 59.92L136.429 58.96C134.685 57.712 134.221 55.232 134.221 53.328V50.096ZM140.269 53.536V52.432H138.269V48.832H136.957V63.168H138.269V57.904H140.269V56.8H138.269V53.536H140.269ZM148.156 49.728C145.18 49.728 142.94 51.312 142.94 53.696C142.94 56.096 145.18 57.664 148.156 57.664C151.132 57.664 153.372 56.096 153.372 53.696C153.372 51.312 151.132 49.728 148.156 49.728ZM148.156 50.8C150.428 50.8 152.124 51.968 152.124 53.696C152.124 55.44 150.428 56.592 148.156 56.592C145.9 56.592 144.188 55.44 144.188 53.696C144.188 51.968 145.9 50.8 148.156 50.8ZM141.66 60.192V61.28H154.7V60.192H141.66ZM163.659 50.096H162.395V53.328C162.395 54.864 162.155 56.944 161.019 58.352C159.883 56.896 159.643 54.784 159.643 53.328V50.096H158.395V53.328C158.395 55.168 157.915 57.68 156.187 58.96L157.035 59.888C158.059 59.104 158.667 57.84 159.019 56.496C159.323 57.888 159.931 59.248 161.019 60.048V60.032V60.048C162.123 59.264 162.715 57.936 163.035 56.528C163.387 57.888 164.011 59.152 165.051 59.92L165.867 58.96C164.123 57.712 163.659 55.232 163.659 53.328V50.096ZM169.707 53.536V52.432H167.707V48.832H166.395V63.168H167.707V57.904H169.707V56.8H167.707V53.536H169.707ZM179.041 58.768C177.921 58.768 177.137 57.856 177.137 56.576C177.137 55.328 177.921 54.416 179.041 54.416C180.145 54.416 180.945 55.328 180.945 56.576C180.945 57.856 180.145 58.768 179.041 58.768ZM179.041 53.312C177.265 53.312 175.969 54.656 175.969 56.576C175.969 58.528 177.265 59.856 179.041 59.856C180.817 59.856 182.113 58.528 182.113 56.576C182.113 54.656 180.817 53.312 179.041 53.312ZM179.681 49.248H178.385V51.28H175.473V52.352H182.593V51.28H179.681V49.248ZM186.385 48.816V54.88H184.545V49.152H183.313V62.48H184.545V55.952H186.385V63.168H187.649V48.816H186.385ZM191.311 54.112C193.695 53.888 195.839 52.976 196.703 51.552C197.567 52.976 199.711 53.888 202.079 54.112L202.495 53.12C199.951 52.896 197.663 51.808 197.487 50.368H202.015V49.328H191.391V50.368H195.919C195.727 51.808 193.423 52.896 190.895 53.12L191.311 54.112ZM203.183 55.872V54.816H190.191V55.872H196.031V57.296H191.759V58.288H200.223V59.648H191.807V63.024H201.951V62.016H193.087V60.592H201.519V57.296H197.359V55.872H203.183ZM221.653 54.304C219.045 53.92 216.485 52.144 216.485 50.144V49.344H215.109V50.144C215.109 52.192 212.581 53.92 209.973 54.304L210.501 55.36C212.741 54.976 214.901 53.744 215.797 52C216.725 53.728 218.885 54.976 221.109 55.36L221.653 54.304ZM222.277 56.912H209.317V58H215.109V63.2H216.421V58H222.293L222.277 56.912ZM240.171 48.848H238.859V57.04H240.171V48.848ZM232.459 50.768C233.883 50.768 234.939 51.712 234.939 53.024C234.939 54.352 233.883 55.28 232.459 55.28C231.035 55.28 230.011 54.352 230.011 53.024C230.011 51.712 231.035 50.768 232.459 50.768ZM232.459 56.368C234.635 56.368 236.219 55.008 236.219 53.024C236.219 51.04 234.635 49.68 232.459 49.68C230.299 49.68 228.731 51.04 228.731 53.024C228.731 55.008 230.299 56.368 232.459 56.368ZM238.571 57.664H237.291V58.432C237.291 59.552 236.603 60.992 235.227 61.84C233.899 61.056 233.243 59.696 233.243 58.432V57.664H231.979V58.432C231.979 59.808 230.907 61.36 229.099 62L229.755 62.992C231.099 62.48 232.075 61.488 232.587 60.336C233.019 61.536 233.883 62.576 235.259 63.12C236.587 62.544 237.467 61.456 237.915 60.288C238.395 61.488 239.387 62.48 240.795 62.992L241.451 62C239.627 61.392 238.571 59.92 238.571 58.432V57.664ZM248.234 51.392H251.61V50.304H243.594V51.392H246.922V53.216C246.922 55.696 245.178 58.4 243.114 59.376L243.882 60.432C245.514 59.6 246.922 57.792 247.578 55.696C248.266 57.664 249.674 59.312 251.338 60.08L252.074 59.024C249.962 58.128 248.234 55.648 248.234 53.216V51.392ZM253.546 48.848V63.184H254.858V48.848H253.546ZM263.759 52.96C263.759 51.648 264.799 50.72 266.191 50.72C267.567 50.72 268.607 51.648 268.607 52.96C268.607 54.272 267.567 55.2 266.191 55.2C264.799 55.2 263.759 54.272 263.759 52.96ZM269.887 52.96C269.887 51.008 268.319 49.648 266.191 49.648C264.047 49.648 262.479 51.008 262.479 52.96C262.479 54.912 264.047 56.272 266.191 56.272C268.319 56.272 269.887 54.912 269.887 52.96ZM264.991 57.536H263.711V62.816H264.399C265.375 62.816 266.719 62.736 268.079 62.288L267.871 61.248C266.879 61.568 265.823 61.696 264.991 61.728V57.536ZM271.167 62.24C270.287 62.24 269.679 61.792 269.679 61.136C269.679 60.48 270.287 60.048 271.167 60.048C272.031 60.048 272.655 60.48 272.655 61.136C272.655 61.792 272.031 62.24 271.167 62.24ZM271.167 59.12C269.615 59.12 268.511 59.904 268.511 61.136C268.511 62.384 269.615 63.168 271.167 63.168C272.719 63.168 273.823 62.384 273.823 61.136C273.823 59.904 272.719 59.12 271.167 59.12ZM271.807 56.336H270.527V57.632H267.551V58.608H274.767V57.632H271.807V56.336ZM273.343 52.048V48.832H272.031V55.984H273.343V53.136H275.471V52.048H273.343ZM289.038 48.848H287.774V57.12H289.038V48.848ZM284.926 53.968V56.896H286.158V49.152H284.926V52.912H282.654C283.038 52 283.23 50.992 283.23 49.904H277.678V50.96H281.886C281.63 53.376 279.982 55.264 277.054 56.432L277.742 57.408C279.694 56.56 281.182 55.408 282.11 53.968H284.926ZM287.214 57.616H285.934V58.544C285.934 59.648 285.262 61.12 283.902 61.968C282.574 61.184 281.918 59.84 281.918 58.544V57.616H280.654V58.544C280.654 59.952 279.566 61.504 277.758 62.16L278.414 63.12C279.774 62.608 280.75 61.6 281.278 60.448C281.694 61.648 282.542 62.704 283.918 63.248C285.262 62.688 286.126 61.568 286.558 60.4C287.038 61.616 288.03 62.624 289.454 63.12L290.094 62.16C288.286 61.536 287.214 60.032 287.214 58.544V57.616ZM293.517 50.224H292.221V59.568H293.357C295.549 59.568 297.741 59.408 300.189 58.928L300.029 57.792C297.709 58.272 295.581 58.448 293.517 58.448V50.224ZM304.925 53.536V52.448H302.685V48.816H301.373V63.184H302.685V57.792H304.925V56.704H302.685V53.536H304.925ZM312.844 62.16C310.588 62.16 309.26 61.6 309.26 60.608C309.26 59.632 310.588 59.056 312.844 59.056C315.1 59.056 316.428 59.632 316.428 60.608C316.428 61.6 315.1 62.16 312.844 62.16ZM312.844 58.048C309.788 58.048 307.932 58.96 307.932 60.608C307.932 62.256 309.788 63.168 312.844 63.168C315.916 63.168 317.756 62.256 317.756 60.608C317.756 58.96 315.916 58.048 312.844 58.048ZM309.148 51.84C309.148 50.784 310.572 50.16 312.844 50.16C315.116 50.16 316.54 50.784 316.54 51.84C316.54 52.896 315.116 53.52 312.844 53.52C310.572 53.52 309.148 52.896 309.148 51.84ZM313.5 55.888V54.528C316.204 54.384 317.884 53.408 317.884 51.84C317.884 50.128 315.948 49.12 312.844 49.12C309.74 49.12 307.804 50.128 307.804 51.84C307.804 53.408 309.468 54.384 312.188 54.528V55.888H306.364V56.944H319.324V55.888H313.5ZM323.297 58.5H324.914V58.0234C324.914 57.2188 325.203 56.8047 326.211 56.2109C327.242 55.5938 327.852 54.7422 327.852 53.5391V53.5234C327.852 51.8594 326.461 50.6328 324.398 50.6328C322.133 50.6328 320.922 51.9766 320.852 53.7422V53.7578L322.461 53.75H322.477C322.539 52.7188 323.234 52.0703 324.312 52.0703C325.383 52.0703 326.078 52.7188 326.078 53.5938V53.6094C326.078 54.4062 325.742 54.8594 324.797 55.4297C323.727 56.0703 323.25 56.7734 323.289 57.875L323.297 58.5ZM324.203 62.1719C324.922 62.1719 325.406 61.7031 325.406 61.0078C325.406 60.3047 324.922 59.8359 324.203 59.8359C323.484 59.8359 322.992 60.3047 322.992 61.0078C322.992 61.7031 323.484 62.1719 324.203 62.1719Z" fill="black"/>
</svg>
