<svg width="365" height="88" viewBox="0 0 365 88" fill="none" xmlns="http://www.w3.org/2000/svg">
<path d="M0 0H353C359.627 0 365 5.37258 365 12V76C365 82.6274 359.627 88 353 88H12C5.37259 88 0 82.6274 0 76V0Z" fill="#F4F1FF"/>
<path d="M26.7734 38L27.3984 34.9297H29.7578L29.1328 38H30.4688L31.0938 34.9297H33.0938L33.3438 33.6094H31.3594L31.8906 30.9922H33.8203L34.0703 29.6797H32.1641L32.7656 26.7266H31.4219L30.8203 29.6797H28.4609L29.0625 26.7266H27.7266L27.1328 29.6797H25.2266L24.9609 30.9922H26.8594L26.3359 33.6094H24.5078L24.25 34.9297H26.0625L25.4375 38H26.7734ZM27.6172 33.6484L28.1641 30.9609H30.6016L30.0547 33.6484H27.6172ZM43.9601 31.376C41.8481 30.72 40.3441 29.04 40.3441 27.152V26.832H43.5921V25.76H35.7201V26.832H39.0001V27.152C39.0001 29.12 37.5281 30.912 35.3521 31.6L36.0241 32.64C37.7361 32.048 39.0641 30.8 39.6881 29.216C40.3441 30.704 41.6721 31.856 43.3201 32.384L43.9601 31.376ZM45.6561 37.92H39.0001V36.064H45.6561V37.92ZM45.6561 35.04H39.0001V33.296H37.7041V38.992H46.9521V33.296H45.6561V35.04ZM45.6401 24.832V32.608H46.9521V24.832H45.6401ZM58.2949 31.712C56.1829 31.104 54.7909 29.536 54.7909 27.808V27.568H57.9589V26.512H54.7909V24.768H53.4789V26.512H50.2949V27.568H53.4789V27.808C53.4789 29.696 52.0229 31.328 49.8949 31.968L50.5349 33.008C52.2149 32.464 53.5269 31.328 54.1509 29.84C54.7909 31.184 56.0389 32.24 57.6709 32.72L58.2949 31.712ZM61.2709 34.992V33.936H51.8789V34.992H55.8789C55.6709 36.496 53.6389 37.76 51.3349 38.112L51.7989 39.12C53.9109 38.768 55.7669 37.76 56.5669 36.32C57.3829 37.744 59.2549 38.784 61.3349 39.136L61.8309 38.128C59.5269 37.76 57.4949 36.464 57.2549 34.992H61.2709ZM61.0309 28.384V24.848H59.7189V33.168H61.0309V29.472H63.1589V28.384H61.0309ZM65.4616 26.384V27.44H70.8536C70.5816 30.848 68.6616 33.6 64.8056 35.44L65.5096 36.512C70.2776 34.176 72.1816 30.528 72.1816 26.384H65.4616ZM75.0776 24.832V39.184H76.3896V24.832H75.0776ZM87.8834 28.576H90.5874V27.504H87.8994V25.36H86.6354V27.504H83.9314V28.576H86.6354V29.232C86.6354 31.584 85.5154 34.08 83.5794 35.216L84.3634 36.208C85.7714 35.376 86.7794 33.776 87.2754 31.952C87.8034 33.664 88.8114 35.104 90.2194 35.888L90.9714 34.912C89.0514 33.856 87.8834 31.52 87.8834 29.232V28.576ZM94.6834 24.832V30.624H92.7954V25.152H91.5634V38.48H92.7954V31.712H94.6834V39.184H95.9474V24.832H94.6834ZM108.922 32.256H110.25V24.832H108.922V27.232H104.858V28.288H108.922V32.256ZM106.73 30C104.65 30.416 102.762 30.544 100.57 30.544V25.52H99.2581V31.648H100.362C102.73 31.648 104.666 31.52 106.906 31.088L106.73 30ZM102.33 37.936V36.384H110.25V32.928H101.002V33.984H108.938V35.376H101.034V38.992H110.762V37.936H102.33ZM116.393 34.816C115.241 34.816 114.521 33.36 114.521 31.008C114.521 28.704 115.241 27.248 116.393 27.248C117.513 27.248 118.249 28.704 118.249 31.008C118.249 33.36 117.513 34.816 116.393 34.816ZM121.241 30.416H119.433C119.273 27.712 118.121 26.032 116.393 26.032C114.521 26.032 113.321 27.952 113.321 31.008C113.321 34.112 114.521 36.032 116.393 36.032C118.153 36.032 119.321 34.304 119.433 31.488H121.241V38.48H122.489V25.152H121.241V30.416ZM124.089 24.832V39.184H125.337V24.832H124.089ZM132.888 26.064H131.576V28.64C131.576 31.296 129.944 34.064 127.864 35.104L128.664 36.144C130.28 35.28 131.608 33.472 132.232 31.344C132.888 33.36 134.2 35.072 135.832 35.888L136.6 34.848C134.52 33.856 132.888 31.248 132.888 28.64V26.064ZM138.376 24.832V29.696H135.048V30.768H138.376V39.2H139.688V24.832H138.376ZM155.773 31.072C153.773 31.408 152.077 31.472 149.085 31.472V29.584H154.221V28.544H149.085V26.768H154.621V25.712H147.773V32.528H148.941C152.077 32.528 153.821 32.464 155.917 32.112L155.773 31.072ZM150.733 35.168H157.453V37.936H150.733V35.168ZM149.453 38.992H158.733V34.112H149.453V38.992ZM157.421 24.848V33.408H158.733V24.848H157.421ZM169.196 33.312V34.288H172.108V35.76H173.42V24.832H172.108V33.312H169.196ZM166.268 26.384C167.628 26.384 168.556 26.992 168.556 27.904C168.556 28.832 167.628 29.44 166.268 29.44C164.908 29.44 163.98 28.832 163.98 27.904C163.98 26.992 164.908 26.384 166.268 26.384ZM166.268 30.416C168.364 30.416 169.804 29.44 169.804 27.904C169.804 26.4 168.364 25.408 166.268 25.408C164.172 25.408 162.732 26.4 162.732 27.904C162.732 29.44 164.172 30.416 166.268 30.416ZM165.756 35.248H167.068V32.416C168.364 32.336 169.692 32.192 170.956 32L170.844 31.056C167.804 31.44 164.252 31.472 161.596 31.472L161.772 32.56C162.956 32.56 164.332 32.544 165.756 32.48V35.248ZM164.956 37.792V34.688H163.644V38.864H173.788V37.792H164.956ZM176.907 26.384V27.472H179.563C179.403 30.352 178.491 32.976 176.395 35.152L177.435 35.92C179.995 33.184 180.827 29.808 180.827 26.384H176.907ZM181.291 26.384V27.472H183.579C183.451 30.48 182.763 33.632 180.603 36.176L181.691 36.896C184.267 33.792 184.811 29.808 184.811 26.384H181.291ZM186.843 24.832V39.184H188.171V24.832H186.843ZM193.258 31.28H198.554V26.16H191.898V27.232H197.226V30.224H191.946V35.728H193.13C195.594 35.728 197.77 35.632 200.362 35.2L200.234 34.128C197.722 34.528 195.61 34.64 193.258 34.64V31.28ZM201.578 24.816V39.2H202.89V24.816H201.578ZM212.015 27.648H216.063V26.576H210.719V35.648H211.663C213.807 35.648 215.263 35.584 216.975 35.216L216.863 34.128C215.295 34.464 213.935 34.544 212.015 34.56V27.648ZM221.135 24.832V30.592H219.103V25.152H217.871V38.464H219.103V31.664H221.135V39.184H222.399V24.832H221.135ZM233.582 26.576H229.966V24.848H228.654V26.576H225.006V27.616H233.582V26.576ZM227.166 31.12C227.166 30.128 228.03 29.472 229.31 29.472C230.59 29.472 231.454 30.128 231.454 31.12C231.454 32.112 230.59 32.752 229.31 32.752C228.03 32.752 227.166 32.112 227.166 31.12ZM229.966 33.744C231.614 33.536 232.702 32.544 232.702 31.12C232.702 29.504 231.31 28.464 229.31 28.464C227.31 28.464 225.918 29.504 225.918 31.12C225.918 32.544 227.006 33.536 228.654 33.744V35.312C227.262 35.36 225.918 35.36 224.766 35.36L224.942 36.464C227.454 36.464 230.83 36.432 233.902 35.888L233.822 34.912C232.59 35.104 231.262 35.2 229.966 35.264V33.744ZM238.222 30.928H235.982V24.832H234.67V39.184H235.982V32.032H238.222V30.928ZM249.693 27.344H241.309V30.416H251.245V29.472H242.605V28.24H250.989V25.248H241.277V26.176H249.693V27.344ZM242.525 36.72H251.037V33.664H241.197V34.608H249.741V35.808H241.229V38.992H251.485V38.048H242.525V36.72ZM239.645 31.504V32.496H252.653V31.504H239.645ZM260.611 26.224H259.315V35.552H260.451C262.643 35.552 264.835 35.392 267.283 34.896L267.123 33.808C264.803 34.272 262.675 34.448 260.611 34.448V26.224ZM272.083 30.56H269.779V24.832H268.467V39.184H269.779V31.648H272.083V30.56ZM284.977 29.648H276.449V25.568H275.121V30.72H284.977V29.648ZM286.481 32.88H273.441V33.952H279.265V39.184H280.577V33.952H286.481V32.88ZM299.68 29.152H291.232V25.36H289.92V30.224H299.68V29.152ZM291.136 34.64H289.824V38.832H299.76V37.76H291.136V34.64ZM288.16 32.144V33.2H301.168V32.144H288.16ZM310.07 27.072H317.414V31.728H310.07V27.072ZM314.422 36.256V32.768H318.694V26.032H308.806V32.768H313.094V36.256H307.27V37.344H320.278V36.256H314.422ZM334.229 29.312C331.685 28.992 329.157 27.408 329.157 25.632V24.992H327.813V25.632C327.813 27.456 325.301 28.992 322.725 29.312L323.205 30.368C325.445 30.016 327.589 28.896 328.485 27.296C329.397 28.896 331.525 30.016 333.749 30.368L334.229 29.312ZM331.973 37.936H324.917V36.112H331.973V37.936ZM331.973 35.104H324.917V33.424H323.621V38.992H333.269V33.424H331.973V35.104ZM321.973 31.376V32.432H334.965V31.376H321.973ZM35.28 48.832V63.216H36.592V48.832H35.28ZM29.024 49.936C26.896 49.936 25.376 51.888 25.376 54.944C25.376 58 26.896 59.952 29.024 59.952C31.152 59.952 32.672 58 32.672 54.944C32.672 51.888 31.152 49.936 29.024 49.936ZM29.024 51.12C30.416 51.12 31.408 52.624 31.408 54.944C31.408 57.28 30.416 58.784 29.024 58.784C27.616 58.784 26.624 57.28 26.624 54.944C26.624 52.624 27.616 51.12 29.024 51.12ZM42.0948 53.536C42.0948 51.888 43.7748 50.816 46.0628 50.816C48.3508 50.816 50.0148 51.888 50.0148 53.536C50.0148 55.184 48.3508 56.256 46.0628 56.256C43.7748 56.256 42.0948 55.184 42.0948 53.536ZM46.7188 60.256V57.264C49.3908 57.072 51.2628 55.648 51.2628 53.536C51.2628 51.248 49.0868 49.776 46.0628 49.776C43.0228 49.776 40.8307 51.248 40.8307 53.536C40.8307 55.648 42.7188 57.072 45.3908 57.264V60.256H39.5508V61.344H52.5908V60.256H46.7188ZM55.9609 62.1172C56.6094 62.1172 57.1016 61.6172 57.1016 60.9844C57.1016 60.3438 56.6094 59.8438 55.9609 59.8438C55.3125 59.8438 54.8125 60.3438 54.8125 60.9844C54.8125 61.6172 55.3125 62.1172 55.9609 62.1172Z" fill="black"/>
</svg>
