<svg width="365" height="112" viewBox="0 0 365 112" fill="none" xmlns="http://www.w3.org/2000/svg">
<path d="M0 0H353C359.627 0 365 5.37258 365 12V100C365 106.627 359.627 112 353 112H12C5.37259 112 0 106.627 0 100V0Z" fill="#F4F1FF"/>
<path d="M34.88 26.784C34.88 27.904 34.88 28.96 34.496 30.432L35.776 30.576C36.176 29.104 36.176 27.936 36.176 26.784V25.568H26.4V26.624H34.88V26.784ZM31.28 38.144C29.04 38.144 27.6 37.536 27.6 36.544C27.6 35.52 29.04 34.912 31.28 34.912C33.536 34.912 34.976 35.52 34.976 36.544C34.976 37.536 33.536 38.144 31.28 38.144ZM31.28 33.904C28.224 33.904 26.288 34.88 26.288 36.544C26.288 38.176 28.224 39.168 31.28 39.168C34.336 39.168 36.288 38.176 36.288 36.544C36.288 34.88 34.336 33.904 31.28 33.904ZM31.488 31.52V28.768H30.176V31.52H24.88V32.576H37.792V31.52H31.488ZM46.0628 38.16C43.7908 38.16 42.4628 37.6 42.4628 36.592C42.4628 35.584 43.7908 35.024 46.0628 35.024C48.3028 35.024 49.6308 35.584 49.6308 36.592C49.6308 37.6 48.3028 38.16 46.0628 38.16ZM46.0628 34C42.9908 34 41.1348 34.928 41.1348 36.592C41.1348 38.256 42.9908 39.184 46.0628 39.184C49.1028 39.184 50.9588 38.256 50.9588 36.592C50.9588 34.928 49.1028 34 46.0628 34ZM46.7188 31.92V30.256H51.0388V29.2H42.5108V26.544H50.9428V25.488H41.1988V30.256H45.4068V31.92H39.5668V32.976H52.5588V31.92H46.7188ZM60.1005 35.712H68.7245V39.2H70.0365V34.656H60.1005V35.712ZM61.6045 26.464H68.6765V29.248H61.6045V26.464ZM65.8125 32.112V30.288H69.9725V25.424H60.3245V30.288H64.5005V32.112H58.6445V33.168H71.6365V32.112H65.8125ZM78.2913 32.96H81.4113V36.368H78.2913V32.96ZM78.0673 27.216H81.6353V31.904H78.0673V27.216ZM82.7233 36.368V32.96H85.1553V31.904H82.9473V27.216H85.1713V26.16H74.5312V27.216H76.7552V31.904H74.5633V32.96H76.9793V36.368H73.3633V37.44H86.3873V36.368H82.7233ZM98.146 27.344H89.762V30.416H99.698V29.472H91.058V28.24H99.442V25.248H89.73V26.176H98.146V27.344ZM90.978 36.72H99.49V33.664H89.65V34.608H98.194V35.808H89.682V38.992H99.938V38.048H90.978V36.72ZM88.098 31.504V32.496H101.106V31.504H88.098ZM120.152 31.808H118.168C118.696 29.264 118.696 27.488 118.696 26.464V25.824H113.928V26.896H117.4C117.384 27.968 117.32 29.6 116.856 31.808H112.232C112.872 29.104 112.872 27.2 112.872 26.304V25.824H108.232V26.896H111.592C111.576 27.952 111.464 29.6 110.872 31.808H107.176V32.88H113.016V39.184H114.328V32.88H120.152V31.808ZM123.191 31.184C125.511 30.832 127.623 29.68 128.407 28.016C129.175 29.68 131.287 30.832 133.623 31.184L134.103 30.128C131.575 29.792 129.255 28.368 129.255 26.624V26.608H133.719V25.552H123.095V26.608H127.559V26.624C127.559 28.368 125.239 29.792 122.695 30.128L123.191 31.184ZM124.855 34.8H123.543V38.864H133.463V37.792H124.855V34.8ZM121.879 32.224V33.28H127.847V36.192H129.159V33.28H134.903V32.224H121.879ZM141.269 34.896C139.941 34.896 138.981 33.968 138.981 32.672C138.981 31.392 139.941 30.464 141.269 30.464C142.597 30.464 143.573 31.392 143.573 32.672C143.573 33.968 142.597 34.896 141.269 34.896ZM141.269 29.376C139.221 29.376 137.733 30.736 137.733 32.672C137.733 34.64 139.221 35.984 141.269 35.984C143.349 35.984 144.821 34.64 144.821 32.672C144.821 30.736 143.349 29.376 141.269 29.376ZM141.909 24.976H140.597V27.152H136.949V28.224H145.557V27.152H141.909V24.976ZM147.061 24.832V39.184H148.373V24.832H147.061ZM164.027 29.968C162.107 30.352 160.443 30.464 157.659 30.464V26.72H162.699V25.664H156.363V31.52H157.467C160.427 31.52 162.171 31.424 164.187 31.008L164.027 29.968ZM159.067 36.32H166.859V32.784H157.739V33.824H165.563V35.328H157.787V38.992H167.387V37.936H159.067V36.32ZM166.859 27.856V24.832H165.547V32.048H166.859V28.928H168.987V27.856H166.859ZM180.938 33.328H182.266V24.848H180.938V27.888H177.818V28.96H180.938V33.328ZM178.858 31.632C176.762 30.896 175.37 29.12 175.37 27.072V25.648H174.058V27.12C174.058 29.312 172.634 31.232 170.426 32.016L171.114 33.088C172.842 32.432 174.138 31.136 174.746 29.44C175.37 30.928 176.586 32.064 178.154 32.656L178.858 31.632ZM177.53 38.128C175.37 38.128 174.058 37.504 174.058 36.464C174.058 35.408 175.37 34.784 177.53 34.784C179.69 34.784 181.002 35.408 181.002 36.464C181.002 37.504 179.69 38.128 177.53 38.128ZM177.53 33.76C174.586 33.76 172.746 34.736 172.746 36.464C172.746 38.176 174.586 39.168 177.53 39.168C180.474 39.168 182.314 38.176 182.314 36.464C182.314 34.736 180.474 33.76 177.53 33.76ZM193.673 26.592H190.089V24.832H188.777V26.592H185.209V27.648H193.673V26.592ZM187.257 31.104C187.257 30.112 188.137 29.472 189.433 29.472C190.729 29.472 191.625 30.112 191.625 31.104C191.625 32.112 190.729 32.752 189.433 32.752C188.137 32.752 187.257 32.112 187.257 31.104ZM192.873 31.104C192.873 29.504 191.465 28.448 189.433 28.448C187.401 28.448 186.009 29.504 186.009 31.104C186.009 32.72 187.401 33.776 189.433 33.776C191.465 33.776 192.873 32.72 192.873 31.104ZM188.681 34.752H187.369V38.864H196.937V37.792H188.681V34.752ZM196.297 29.568V24.832H194.985V35.6H196.297V30.672H198.409V29.568H196.297ZM214.302 30.176H207.182V26.688H214.302V30.176ZM215.598 25.632H205.902V31.216H215.598V25.632ZM217.262 33.168H204.238V34.224H210.062V39.168H211.374V34.224H217.262V33.168ZM221.117 31.28H226.413V26.16H219.757V27.232H225.085V30.224H219.805V35.728H220.989C223.453 35.728 225.629 35.632 228.221 35.2L228.093 34.128C225.581 34.528 223.469 34.64 221.117 34.64V31.28ZM229.437 24.816V39.2H230.749V24.816H229.437ZM236.94 34.816C235.788 34.816 235.068 33.36 235.068 31.008C235.068 28.704 235.788 27.248 236.94 27.248C238.06 27.248 238.796 28.704 238.796 31.008C238.796 33.36 238.06 34.816 236.94 34.816ZM241.788 30.416H239.98C239.82 27.712 238.668 26.032 236.94 26.032C235.068 26.032 233.868 27.952 233.868 31.008C233.868 34.112 235.068 36.032 236.94 36.032C238.7 36.032 239.868 34.304 239.98 31.488H241.788V38.48H243.036V25.152H241.788V30.416ZM244.636 24.832V39.184H245.884V24.832H244.636ZM256.363 30.704H253.883C254.363 29.424 254.571 28.064 254.571 26.656H249.035V27.728H253.275C253.035 30.736 251.499 33.312 248.427 35.152L249.195 36.096C251.179 34.912 252.555 33.424 253.419 31.76H256.363V38.464H257.611V25.216H256.363V30.704ZM259.355 24.832V39.184H260.603V24.832H259.355ZM274.633 29.152H266.185V25.36H264.873V30.224H274.633V29.152ZM266.089 34.64H264.777V38.832H274.713V37.76H266.089V34.64ZM263.113 32.144V33.2H276.121V32.144H263.113ZM288.991 32.304C289.311 30.304 289.311 28.784 289.311 27.568V26.496H286.015V27.568H288.159C288.159 28.736 288.159 30.192 287.855 32.128L288.991 32.304ZM284.703 32.32C285.295 29.904 285.295 28.192 285.295 27.168V26.496H282.415V27.568H284.143C284.127 28.576 284.063 30.08 283.551 32.128L284.703 32.32ZM286.703 30.88H285.583V34.64C284.287 34.688 283.055 34.688 282.079 34.688L282.255 35.76C284.271 35.76 287.391 35.712 289.855 35.248L289.775 34.304C288.831 34.448 287.775 34.528 286.703 34.576V30.88ZM293.151 24.816V30.8H291.615V25.136H290.383V38.464H291.615V31.872H293.151V39.168H294.415V24.816H293.151ZM309.685 30.368C307.397 30.832 305.349 30.976 303.317 30.992V25.712H302.021V32.096H303.141C305.285 32.096 307.429 31.936 309.861 31.44L309.685 30.368ZM307.877 38.128C305.781 38.128 304.437 37.456 304.437 36.368C304.437 35.28 305.781 34.608 307.877 34.608C309.973 34.608 311.301 35.28 311.301 36.368C311.301 37.456 309.973 38.128 307.877 38.128ZM307.877 33.568C305.013 33.568 303.141 34.64 303.141 36.368C303.141 38.112 305.013 39.184 307.877 39.184C310.741 39.184 312.613 38.112 312.613 36.368C312.613 34.64 310.741 33.568 307.877 33.568ZM314.565 28.08V26.992H312.469V24.832H311.157V33.36H312.469V31.136H314.565V30.048H312.469V28.08H314.565ZM324.404 30.368C322.116 30.832 320.068 30.976 318.036 30.992V25.712H316.74V32.096H317.86C320.004 32.096 322.148 31.936 324.58 31.44L324.404 30.368ZM322.596 38.128C320.5 38.128 319.156 37.456 319.156 36.368C319.156 35.28 320.5 34.608 322.596 34.608C324.692 34.608 326.02 35.28 326.02 36.368C326.02 37.456 324.692 38.128 322.596 38.128ZM322.596 33.568C319.732 33.568 317.86 34.64 317.86 36.368C317.86 38.112 319.732 39.184 322.596 39.184C325.46 39.184 327.332 38.112 327.332 36.368C327.332 34.64 325.46 33.568 322.596 33.568ZM329.284 28.08V26.992H327.188V24.832H325.876V33.36H327.188V31.136H329.284V30.048H327.188V28.08H329.284ZM33.36 50.592H29.776V48.832H28.464V50.592H24.896V51.648H33.36V50.592ZM26.944 55.104C26.944 54.112 27.824 53.472 29.12 53.472C30.416 53.472 31.312 54.112 31.312 55.104C31.312 56.112 30.416 56.752 29.12 56.752C27.824 56.752 26.944 56.112 26.944 55.104ZM32.56 55.104C32.56 53.504 31.152 52.448 29.12 52.448C27.088 52.448 25.696 53.504 25.696 55.104C25.696 56.72 27.088 57.776 29.12 57.776C31.152 57.776 32.56 56.72 32.56 55.104ZM28.368 58.752H27.056V62.864H36.624V61.792H28.368V58.752ZM35.984 53.568V48.832H34.672V59.6H35.984V54.672H38.096V53.568H35.984ZM46.7738 53.488H54.1018V56.128H46.7738V53.488ZM51.0938 60.272V57.184H55.3818V49.856H54.1018V52.416H46.7738V49.856H45.4778V57.184H49.7658V60.272H43.9418V61.344H56.9498V60.272H51.0938ZM66.9485 55.584C64.8845 54.88 63.4765 53.088 63.4765 51.152V49.568H62.1645V51.04C62.1645 53.232 60.7725 55.184 58.5965 55.968L59.2845 57.008C60.9645 56.368 62.2445 55.056 62.8365 53.376C63.4765 54.848 64.7085 56.032 66.2605 56.608L66.9485 55.584ZM65.2365 62.144C63.1085 62.144 61.8125 61.552 61.8125 60.56C61.8125 59.552 63.1085 58.96 65.2365 58.96C67.3485 58.96 68.6445 59.552 68.6445 60.56C68.6445 61.552 67.3485 62.144 65.2365 62.144ZM65.2365 57.936C62.3085 57.936 60.5005 58.88 60.5005 60.56C60.5005 62.224 62.3085 63.168 65.2365 63.168C68.1485 63.168 69.9565 62.224 69.9565 60.56C69.9565 58.88 68.1485 57.936 65.2365 57.936ZM69.7965 52.544V48.848H68.4845V57.536H69.7965V53.632H71.9245V52.544H69.7965ZM80.5312 60.288V56.608H84.8993V55.552H76.3393V51.056H84.7553V49.984H75.0273V56.608H79.2033V60.288H73.3633V61.376H86.4033V60.288H80.5312ZM104.249 48.848H102.937V57.04H104.249V48.848ZM96.537 50.768C97.961 50.768 99.017 51.712 99.017 53.024C99.017 54.352 97.961 55.28 96.537 55.28C95.113 55.28 94.089 54.352 94.089 53.024C94.089 51.712 95.113 50.768 96.537 50.768ZM96.537 56.368C98.713 56.368 100.297 55.008 100.297 53.024C100.297 51.04 98.713 49.68 96.537 49.68C94.377 49.68 92.809 51.04 92.809 53.024C92.809 55.008 94.377 56.368 96.537 56.368ZM102.649 57.664H101.369V58.432C101.369 59.552 100.681 60.992 99.305 61.84C97.977 61.056 97.321 59.696 97.321 58.432V57.664H96.057V58.432C96.057 59.808 94.985 61.36 93.177 62L93.833 62.992C95.177 62.48 96.153 61.488 96.665 60.336C97.097 61.536 97.961 62.576 99.337 63.12C100.665 62.544 101.545 61.456 101.993 60.288C102.473 61.488 103.465 62.48 104.873 62.992L105.529 62C103.705 61.392 102.649 59.92 102.649 58.432V57.664ZM113.672 49.728C110.696 49.728 108.456 51.312 108.456 53.696C108.456 56.096 110.696 57.664 113.672 57.664C116.648 57.664 118.888 56.096 118.888 53.696C118.888 51.312 116.648 49.728 113.672 49.728ZM113.672 50.8C115.944 50.8 117.64 51.968 117.64 53.696C117.64 55.44 115.944 56.592 113.672 56.592C111.416 56.592 109.704 55.44 109.704 53.696C109.704 51.968 111.416 50.8 113.672 50.8ZM107.176 60.192V61.28H120.216V60.192H107.176ZM124.119 50.224H122.807V59.472H123.991C126.279 59.472 128.535 59.312 131.031 58.8L130.887 57.68C128.503 58.16 126.279 58.352 124.119 58.352V50.224ZM132.359 48.832V63.168H133.671V48.832H132.359ZM145.964 51.376H149.228V50.304H141.404V51.376H144.652V53.04C144.652 55.584 142.94 58.304 140.892 59.312L141.66 60.352C143.292 59.488 144.684 57.648 145.308 55.536C145.964 57.52 147.34 59.232 148.94 60.048L149.724 59.024C147.644 58.032 145.964 55.424 145.964 53.04V51.376ZM151.516 48.832V54.048H148.412V55.12H151.516V63.2H152.828V48.832H151.516ZM156.907 55.248C159.259 55.008 161.355 54.144 162.219 52.704C163.083 54.144 165.163 55.008 167.515 55.248L167.931 54.256C165.211 53.984 163.035 52.88 162.923 51.28H167.371V50.24H162.875V48.752H161.563V50.24H157.067V51.28H161.499C161.387 52.88 159.211 53.984 156.507 54.256L156.907 55.248ZM168.699 57.104V56.048H155.723V57.104H161.563V58.752H157.163V59.792H165.787V63.136H167.099V58.752H162.875V57.104H168.699ZM177.93 56.88C178.33 54.208 178.33 52.336 178.33 51.184V50.4H171.082V51.472H177.05C177.05 52.624 177.018 54.368 176.618 56.752L177.93 56.88ZM174.634 54.496H173.338V58.912C172.266 58.944 171.21 58.96 170.298 58.96L170.442 60.048C172.986 60.048 176.362 59.984 179.338 59.504L179.258 58.544C177.802 58.72 176.202 58.816 174.634 58.88V54.496ZM183.738 54.832H181.45V48.832H180.138V63.184H181.45V55.936H183.738V54.832ZM194.368 51.392H197.552V50.304H189.792V51.392H193.072V53.216C193.072 55.648 191.344 58.368 189.296 59.392L190.064 60.432C191.68 59.6 193.072 57.776 193.728 55.68C194.384 57.6 195.728 59.28 197.328 60.08L198.08 59.024C196 58.048 194.368 55.504 194.368 53.216V51.392ZM202.944 54.624H200.576V48.848H199.264V63.184H200.576V55.728H202.944V54.624ZM212.622 56.048C210.51 55.296 209.086 53.472 209.086 51.504V49.696H207.774V51.472C207.774 53.696 206.382 55.616 204.19 56.4L204.878 57.44C206.59 56.8 207.87 55.488 208.462 53.792C209.102 55.296 210.35 56.496 211.966 57.088L212.622 56.048ZM207.806 58.416H206.494V62.864H216.014V61.792H207.806V58.416ZM215.39 53.232V48.816H214.078V59.424H215.39V54.32H217.502V53.232H215.39ZM226.509 54.96C226.877 53.072 226.877 51.648 226.877 50.704V49.952H219.741V51.024H225.597C225.597 51.936 225.549 53.168 225.213 54.816L226.509 54.96ZM227.869 55.824C226.413 56.016 224.781 56.144 223.213 56.208V53.152H221.917V56.256C220.829 56.272 219.789 56.288 218.877 56.288L219.005 57.36C221.549 57.36 224.989 57.28 227.965 56.784L227.869 55.824ZM222.381 58.656H221.069V62.864H230.605V61.792H222.381V58.656ZM230.141 53.504V48.832H228.829V59.648H230.141V54.592H232.189V53.504H230.141ZM235.836 55.28H241.132V50.16H234.476V51.232H239.804V54.224H234.524V59.728H235.708C238.172 59.728 240.348 59.632 242.94 59.2L242.812 58.128C240.3 58.528 238.188 58.64 235.836 58.64V55.28ZM244.156 48.816V63.2H245.468V48.816H244.156ZM248.484 64.9297H249.68L250.977 60.3438H249.172L248.484 64.9297ZM268.264 48.832V63.216H269.576V48.832H268.264ZM262.008 49.936C259.88 49.936 258.36 51.888 258.36 54.944C258.36 58 259.88 59.952 262.008 59.952C264.136 59.952 265.656 58 265.656 54.944C265.656 51.888 264.136 49.936 262.008 49.936ZM262.008 51.12C263.4 51.12 264.392 52.624 264.392 54.944C264.392 57.28 263.4 58.784 262.008 58.784C260.6 58.784 259.608 57.28 259.608 54.944C259.608 52.624 260.6 51.12 262.008 51.12ZM276.759 51.584H279.319V50.512H272.775V51.584H275.495V52.88C275.495 55.52 274.375 58.128 272.375 59.328L273.175 60.304C274.599 59.408 275.639 57.728 276.135 55.76C276.631 57.584 277.623 59.12 279.015 59.952L279.815 58.992C277.831 57.872 276.759 55.376 276.759 52.88V51.584ZM280.599 53.984H278.231V55.056H280.599V62.432H281.847V49.152H280.599V53.984ZM283.479 48.816V63.168H284.743V48.816H283.479ZM298.774 53.152H290.326V49.36H289.014V54.224H298.774V53.152ZM290.23 58.64H288.918V62.832H298.854V61.76H290.23V58.64ZM287.254 56.144V57.2H300.262V56.144H287.254ZM308.396 51.28H313.612V50.192H307.084V59.664H308.188C310.908 59.664 312.636 59.568 314.716 59.184L314.556 58.096C312.62 58.464 310.94 58.56 308.396 58.56V51.28ZM316.876 48.832V54.032H312.764V55.12H316.876V63.216H318.188V48.832H316.876ZM333.825 54.944C331.729 54.352 330.305 52.8 330.305 51.088V50.704H333.457V49.632H325.777V50.704H328.977V51.104C328.977 52.992 327.489 54.672 325.329 55.328L325.969 56.352C327.713 55.808 329.057 54.624 329.665 53.088C330.305 54.432 331.569 55.504 333.233 55.984L333.825 54.944ZM328.801 60.368H336.593V56.912H327.473V57.92H335.297V59.392H327.521V63.04H337.121V62.032H328.801V60.368ZM336.593 51.952V48.848H335.281V56.224H336.593V53.04H338.721V51.952H336.593ZM33.36 74.144H29.776V72.688H28.464V74.144H24.896V75.152H33.36V74.144ZM26.944 78.144C26.944 77.28 27.792 76.768 29.12 76.768C30.448 76.768 31.312 77.28 31.312 78.144C31.312 78.992 30.448 79.52 29.12 79.52C27.792 79.52 26.944 78.992 26.944 78.144ZM32.56 78.144C32.56 76.688 31.2 75.792 29.12 75.792C27.056 75.792 25.696 76.688 25.696 78.144C25.696 79.6 27.056 80.496 29.12 80.496C31.2 80.496 32.56 79.6 32.56 78.144ZM28.192 84.64H35.984V81.456H26.864V82.432H34.688V83.68H26.912V87.024H36.512V86.016H28.192V84.64ZM35.984 76.24V72.784H34.672V80.72H35.984V77.328H38.112V76.24H35.984ZM56.2938 78.304C53.6858 77.92 51.1258 76.144 51.1258 74.144V73.344H49.7498V74.144C49.7498 76.192 47.2218 77.92 44.6138 78.304L45.1418 79.36C47.3818 78.976 49.5418 77.744 50.4378 76C51.3658 77.728 53.5258 78.976 55.7498 79.36L56.2938 78.304ZM56.9178 80.912H43.9578V82H49.7498V87.2H51.0618V82H56.9338L56.9178 80.912ZM74.8115 72.848H73.4995V81.04H74.8115V72.848ZM67.0995 74.768C68.5235 74.768 69.5795 75.712 69.5795 77.024C69.5795 78.352 68.5235 79.28 67.0995 79.28C65.6755 79.28 64.6515 78.352 64.6515 77.024C64.6515 75.712 65.6755 74.768 67.0995 74.768ZM67.0995 80.368C69.2755 80.368 70.8595 79.008 70.8595 77.024C70.8595 75.04 69.2755 73.68 67.0995 73.68C64.9395 73.68 63.3715 75.04 63.3715 77.024C63.3715 79.008 64.9395 80.368 67.0995 80.368ZM73.2115 81.664H71.9315V82.432C71.9315 83.552 71.2435 84.992 69.8675 85.84C68.5395 85.056 67.8835 83.696 67.8835 82.432V81.664H66.6195V82.432C66.6195 83.808 65.5475 85.36 63.7395 86L64.3955 86.992C65.7395 86.48 66.7155 85.488 67.2275 84.336C67.6595 85.536 68.5235 86.576 69.8995 87.12C71.2275 86.544 72.1075 85.456 72.5555 84.288C73.0355 85.488 74.0275 86.48 75.4355 86.992L76.0915 86C74.2675 85.392 73.2115 83.92 73.2115 82.432V81.664ZM84.2343 74.064C86.5863 74.064 87.9303 74.608 87.9303 75.568C87.9303 76.528 86.5863 77.072 84.2343 77.072C81.8823 77.072 80.5383 76.528 80.5383 75.568C80.5383 74.608 81.8823 74.064 84.2343 74.064ZM84.2343 78.048C87.3863 78.048 89.2743 77.184 89.2743 75.568C89.2743 73.952 87.3863 73.072 84.2343 73.072C81.0823 73.072 79.1943 73.952 79.1943 75.568C79.1943 77.184 81.0823 78.048 84.2343 78.048ZM80.6343 84.544H89.0663V81.312H79.3063V82.304H87.7703V83.584H79.3543V87.024H89.4983V86H80.6343V84.544ZM77.7383 79.024V80.08H90.7303V79.024H77.7383ZM93.097 74.384V75.44H98.329C98.089 78.8 96.313 81.536 92.457 83.424L93.177 84.448C97.945 82.096 99.641 78.464 99.641 74.384H93.097ZM102.969 72.848V78.592H99.609V79.664H102.969V87.184H104.281V72.848H102.969ZM109.064 79.312H114.232V74.16H107.736V75.232H112.936V78.24H107.784V83.728H108.92C111.656 83.728 113.576 83.616 115.816 83.216L115.672 82.128C113.528 82.544 111.672 82.64 109.064 82.64V79.312ZM120.6 78.528H118.248V72.816H116.936V87.2H118.248V79.632H120.6V78.528ZM138.062 72.832H136.75V81.056H138.062V72.832ZM132.462 78.944H128.318V74.784H132.462V78.944ZM133.742 73.744H127.038V79.984H133.742V73.744ZM130.094 85.936V82.928H138.142V81.872H128.782V86.992H138.43V85.936H130.094ZM147.484 73.728C144.508 73.728 142.268 75.312 142.268 77.696C142.268 80.096 144.508 81.664 147.484 81.664C150.46 81.664 152.7 80.096 152.7 77.696C152.7 75.312 150.46 73.728 147.484 73.728ZM147.484 74.8C149.756 74.8 151.452 75.968 151.452 77.696C151.452 79.44 149.756 80.592 147.484 80.592C145.228 80.592 143.516 79.44 143.516 77.696C143.516 75.968 145.228 74.8 147.484 74.8ZM140.988 84.192V85.28H154.028V84.192H140.988ZM158.251 77.536C158.251 75.888 159.931 74.816 162.219 74.816C164.507 74.816 166.171 75.888 166.171 77.536C166.171 79.184 164.507 80.256 162.219 80.256C159.931 80.256 158.251 79.184 158.251 77.536ZM162.875 84.256V81.264C165.547 81.072 167.419 79.648 167.419 77.536C167.419 75.248 165.243 73.776 162.219 73.776C159.179 73.776 156.987 75.248 156.987 77.536C156.987 79.648 158.875 81.072 161.547 81.264V84.256H155.707V85.344H168.747V84.256H162.875ZM172.117 86.1172C172.766 86.1172 173.258 85.6172 173.258 84.9844C173.258 84.3438 172.766 83.8438 172.117 83.8438C171.469 83.8438 170.969 84.3438 170.969 84.9844C170.969 85.6172 171.469 86.1172 172.117 86.1172Z" fill="black"/>
</svg>
