<svg width="365" height="88" viewBox="0 0 365 88" fill="none" xmlns="http://www.w3.org/2000/svg">
<path d="M0 0H353C359.627 0 365 5.37258 365 12V76C365 82.6274 359.627 88 353 88H12C5.37259 88 0 82.6274 0 76V0Z" fill="#F4F1FF"/>
<path d="M33.664 31.072C31.664 31.408 29.968 31.472 26.976 31.472V29.584H32.112V28.544H26.976V26.768H32.512V25.712H25.664V32.528H26.832C29.968 32.528 31.712 32.464 33.808 32.112L33.664 31.072ZM28.624 35.168H35.344V37.936H28.624V35.168ZM27.344 38.992H36.624V34.112H27.344V38.992ZM35.312 24.848V33.408H36.624V24.848H35.312ZM47.0868 33.312V34.288H49.9988V35.76H51.3108V24.832H49.9988V33.312H47.0868ZM44.1588 26.384C45.5188 26.384 46.4468 26.992 46.4468 27.904C46.4468 28.832 45.5188 29.44 44.1588 29.44C42.7988 29.44 41.8708 28.832 41.8708 27.904C41.8708 26.992 42.7988 26.384 44.1588 26.384ZM44.1588 30.416C46.2548 30.416 47.6948 29.44 47.6948 27.904C47.6948 26.4 46.2548 25.408 44.1588 25.408C42.0628 25.408 40.6228 26.4 40.6228 27.904C40.6228 29.44 42.0628 30.416 44.1588 30.416ZM43.6468 35.248H44.9588V32.416C46.2548 32.336 47.5828 32.192 48.8468 32L48.7348 31.056C45.6948 31.44 42.1428 31.472 39.4868 31.472L39.6628 32.56C40.8468 32.56 42.2228 32.544 43.6468 32.48V35.248ZM42.8468 37.792V34.688H41.5348V38.864H51.6788V37.792H42.8468ZM65.7255 28.608H57.3255V26.368H65.5815V25.312H56.0135V29.664H65.7255V28.608ZM57.1655 36.512H65.5975V33.136H55.8375V34.16H64.3015V35.536H55.8855V39.008H66.0295V37.984H57.1655V36.512ZM54.2855 30.816V31.888H67.2775V30.816H54.2855ZM76.4923 32.88C76.8923 30.208 76.8923 28.336 76.8923 27.184V26.4H69.6443V27.472H75.6123C75.6123 28.624 75.5803 30.368 75.1803 32.752L76.4923 32.88ZM73.1963 30.496H71.9003V34.912C70.8283 34.944 69.7723 34.96 68.8603 34.96L69.0043 36.048C71.5483 36.048 74.9243 35.984 77.9003 35.504L77.8203 34.544C76.3643 34.72 74.7643 34.816 73.1963 34.88V30.496ZM82.3003 30.832H80.0123V24.832H78.7003V39.184H80.0123V31.936H82.3003V30.832ZM92.274 28.576H94.978V27.504H92.29V25.36H91.026V27.504H88.322V28.576H91.026V29.232C91.026 31.584 89.906 34.08 87.97 35.216L88.754 36.208C90.162 35.376 91.17 33.776 91.666 31.952C92.194 33.664 93.202 35.104 94.61 35.888L95.362 34.912C93.442 33.856 92.274 31.52 92.274 29.232V28.576ZM99.074 24.832V30.624H97.186V25.152H95.954V38.48H97.186V31.712H99.074V39.184H100.338V24.832H99.074ZM114.593 24.848H113.281V33.728H114.593V24.848ZM111.633 31.248C109.633 31.584 107.937 31.648 104.945 31.648V29.776H110.081V28.736H104.945V26.944H110.481V25.888H103.633V32.704H104.801C107.937 32.704 109.681 32.64 111.777 32.288L111.633 31.248ZM109.825 38.144C107.649 38.144 106.321 37.552 106.321 36.56C106.321 35.536 107.649 34.96 109.825 34.96C112.017 34.96 113.345 35.536 113.345 36.56C113.345 37.552 112.017 38.144 109.825 38.144ZM109.825 33.936C106.849 33.936 105.025 34.88 105.025 36.56C105.025 38.224 106.849 39.168 109.825 39.168C112.817 39.168 114.641 38.224 114.641 36.56C114.641 34.88 112.817 33.936 109.825 33.936ZM124.016 25.728C121.04 25.728 118.799 27.312 118.799 29.696C118.799 32.096 121.04 33.664 124.016 33.664C126.992 33.664 129.232 32.096 129.232 29.696C129.232 27.312 126.992 25.728 124.016 25.728ZM124.016 26.8C126.288 26.8 127.984 27.968 127.984 29.696C127.984 31.44 126.288 32.592 124.016 32.592C121.76 32.592 120.048 31.44 120.048 29.696C120.048 27.968 121.76 26.8 124.016 26.8ZM117.52 36.192V37.28H130.56V36.192H117.52ZM139.406 36.336V33.632H143.998V32.576H135.166V30.256H143.662V25.888H133.838V26.96H142.382V29.2H133.87V33.632H138.078V36.336H132.238V37.408H145.278V36.336H139.406ZM157.812 26.464C160.004 26.464 161.492 27.264 161.492 28.528C161.492 29.792 160.004 30.608 157.812 30.608C155.636 30.608 154.148 29.792 154.148 28.528C154.148 27.264 155.636 26.464 157.812 26.464ZM157.812 31.664C160.804 31.664 162.836 30.448 162.836 28.528C162.836 26.608 160.804 25.408 157.812 25.408C154.836 25.408 152.804 26.608 152.804 28.528C152.804 30.448 154.836 31.664 157.812 31.664ZM164.34 33.008H151.348V34.08H154.692V39.184H156.02V34.08H159.62V39.184H160.948V34.08H164.34V33.008ZM172.547 38.16C170.291 38.16 168.963 37.6 168.963 36.624C168.963 35.648 170.291 35.088 172.547 35.088C174.787 35.088 176.131 35.648 176.131 36.624C176.131 37.6 174.787 38.16 172.547 38.16ZM172.547 34.064C169.475 34.064 167.635 34.976 167.635 36.624C167.635 38.272 169.475 39.168 172.547 39.168C175.635 39.168 177.459 38.272 177.459 36.624C177.459 34.976 175.635 34.064 172.547 34.064ZM170.563 30.256C171.155 30.352 171.827 30.416 172.547 30.416C173.283 30.416 173.955 30.352 174.547 30.256V31.936H170.563V30.256ZM168.851 27.76C168.851 26.72 170.259 26.112 172.547 26.112C174.835 26.112 176.243 26.72 176.243 27.76C176.243 28.784 174.835 29.408 172.547 29.408C170.259 29.408 168.851 28.784 168.851 27.76ZM175.843 31.936V29.904C176.947 29.456 177.587 28.72 177.587 27.76C177.587 26.08 175.667 25.088 172.547 25.088C169.443 25.088 167.507 26.08 167.507 27.76C167.507 28.736 168.131 29.456 169.267 29.92V31.936H166.051V32.992H179.043V31.936H175.843ZM189.298 26.592H185.714V24.832H184.402V26.592H180.834V27.648H189.298V26.592ZM182.882 31.104C182.882 30.112 183.762 29.472 185.058 29.472C186.354 29.472 187.25 30.112 187.25 31.104C187.25 32.112 186.354 32.752 185.058 32.752C183.762 32.752 182.882 32.112 182.882 31.104ZM188.498 31.104C188.498 29.504 187.09 28.448 185.058 28.448C183.026 28.448 181.634 29.504 181.634 31.104C181.634 32.72 183.026 33.776 185.058 33.776C187.09 33.776 188.498 32.72 188.498 31.104ZM184.306 34.752H182.994V38.864H192.562V37.792H184.306V34.752ZM191.922 29.568V24.832H190.61V35.6H191.922V30.672H194.034V29.568H191.922ZM207.543 28.56V29.632H210.375V33.392H211.703V24.848H210.375V28.56H207.543ZM208.343 31.824C206.263 31.088 204.855 29.28 204.855 27.44V26.944H208.007V25.888H200.343V26.944H203.543V27.44C203.543 29.504 202.071 31.44 199.927 32.224L200.615 33.264C202.295 32.624 203.623 31.28 204.231 29.616C204.855 31.088 206.087 32.272 207.687 32.848L208.343 31.824ZM206.967 38.16C204.807 38.16 203.495 37.552 203.495 36.512C203.495 35.472 204.807 34.848 206.967 34.848C209.127 34.848 210.439 35.472 210.439 36.512C210.439 37.552 209.127 38.16 206.967 38.16ZM206.967 33.84C204.023 33.84 202.183 34.816 202.183 36.512C202.183 38.208 204.023 39.184 206.967 39.184C209.911 39.184 211.751 38.208 211.751 36.512C211.751 34.816 209.911 33.84 206.967 33.84ZM217.43 29.488H224.758V32.128H217.43V29.488ZM221.75 36.272V33.184H226.038V25.856H224.758V28.416H217.43V25.856H216.134V33.184H220.422V36.272H214.598V37.344H227.606V36.272H221.75ZM231.189 26.224H229.893V35.552H231.029C233.221 35.552 235.413 35.392 237.861 34.896L237.701 33.808C235.381 34.272 233.253 34.448 231.189 34.448V26.224ZM242.661 30.56H240.357V24.832H239.045V39.184H240.357V31.648H242.661V30.56ZM244.109 40.9297H245.305L246.602 36.3438H244.797L244.109 40.9297ZM265.841 31.84C263.329 31.392 260.593 29.28 260.593 26.896V25.792H259.217V26.896C259.217 29.28 256.497 31.392 253.985 31.84L254.529 32.928C256.737 32.464 258.977 30.976 259.905 28.928C260.833 30.976 263.089 32.464 265.281 32.928L265.841 31.84ZM260.561 36.24V32.752H259.249V36.24H253.457V37.312H266.481V36.24H260.561ZM280.56 31.84C278.048 31.392 275.312 29.28 275.312 26.896V25.792H273.936V26.896C273.936 29.28 271.216 31.392 268.704 31.84L269.248 32.928C271.456 32.464 273.696 30.976 274.624 28.928C275.552 30.976 277.808 32.464 280 32.928L280.56 31.84ZM275.28 36.24V32.752H273.968V36.24H268.176V37.312H281.2V36.24H275.28ZM291.407 26.592H287.823V24.832H286.511V26.592H282.943V27.648H291.407V26.592ZM284.991 31.104C284.991 30.112 285.871 29.472 287.167 29.472C288.463 29.472 289.359 30.112 289.359 31.104C289.359 32.112 288.463 32.752 287.167 32.752C285.871 32.752 284.991 32.112 284.991 31.104ZM290.607 31.104C290.607 29.504 289.199 28.448 287.167 28.448C285.135 28.448 283.743 29.504 283.743 31.104C283.743 32.72 285.135 33.776 287.167 33.776C289.199 33.776 290.607 32.72 290.607 31.104ZM286.415 34.752H285.103V38.864H294.671V37.792H286.415V34.752ZM294.031 29.568V24.832H292.719V35.6H294.031V30.672H296.143V29.568H294.031ZM312.421 24.832V39.216H313.733V24.832H312.421ZM306.165 25.936C304.037 25.936 302.517 27.888 302.517 30.944C302.517 34 304.037 35.952 306.165 35.952C308.293 35.952 309.813 34 309.813 30.944C309.813 27.888 308.293 25.936 306.165 25.936ZM306.165 27.12C307.557 27.12 308.549 28.624 308.549 30.944C308.549 33.28 307.557 34.784 306.165 34.784C304.757 34.784 303.765 33.28 303.765 30.944C303.765 28.624 304.757 27.12 306.165 27.12ZM320.531 34.784C319.139 34.784 318.163 33.264 318.163 30.928C318.163 28.624 319.139 27.12 320.531 27.12C321.907 27.12 322.883 28.624 322.883 30.928C322.883 33.264 321.907 34.784 320.531 34.784ZM320.531 25.936C318.419 25.936 316.915 27.888 316.915 30.928C316.915 34 318.419 35.952 320.531 35.952C322.643 35.952 324.131 34 324.131 30.928C324.131 27.888 322.643 25.936 320.531 25.936ZM330.035 29.536V28.448H327.747V24.848H326.435V39.184H327.747V33.808H330.035V32.72H327.747V29.536H330.035ZM25.696 50.384V51.44H31.088C30.816 54.848 28.896 57.6 25.04 59.44L25.744 60.512C30.512 58.176 32.416 54.528 32.416 50.384H25.696ZM35.312 48.832V63.184H36.624V48.832H35.312ZM46.7188 60.288V56.608H51.0868V55.552H42.5268V51.056H50.9428V49.984H41.2148V56.608H45.3908V60.288H39.5508V61.376H52.5908V60.288H46.7188ZM59.9405 55.808C62.1645 55.424 64.2765 54.224 65.1565 52.528C66.0205 54.224 68.1485 55.424 70.3725 55.808L70.8845 54.768C68.3565 54.4 65.8765 52.752 65.8765 50.864V50.784H70.3725V49.728H59.8925V50.784H64.4205V50.864C64.4205 52.752 61.9405 54.4 59.4445 54.768L59.9405 55.808ZM71.6365 57.008H58.6765V58.08H64.4685V63.184H65.7805V58.08H71.6525L71.6365 57.008ZM83.5073 51.696C83.5073 53.424 83.5073 55.44 82.9633 58.192L84.2753 58.336C84.8193 55.44 84.8193 53.472 84.8193 51.696V50.272H74.7553V51.344H83.5073V51.696ZM79.7473 60.096V54.96H78.4353V60.096H73.3953V61.168H86.3713V60.096H79.7473ZM94.05 55.264H89.986V52.864H94.05V55.264ZM95.33 49.632H94.05V51.824H89.986V49.632H88.69V56.32H95.33V49.632ZM91.586 59.072H99.346V58.016H90.274V62.976H99.602V61.92H91.586V59.072ZM99.234 52.288V48.848H97.922V57.232H99.234V53.376H101.362V52.288H99.234ZM109.297 50.064C111.649 50.064 112.993 50.608 112.993 51.568C112.993 52.528 111.649 53.072 109.297 53.072C106.945 53.072 105.601 52.528 105.601 51.568C105.601 50.608 106.945 50.064 109.297 50.064ZM109.297 54.048C112.449 54.048 114.337 53.184 114.337 51.568C114.337 49.952 112.449 49.072 109.297 49.072C106.145 49.072 104.257 49.952 104.257 51.568C104.257 53.184 106.145 54.048 109.297 54.048ZM105.697 60.544H114.129V57.312H104.369V58.304H112.833V59.584H104.417V63.024H114.561V62H105.697V60.544ZM102.801 55.024V56.08H115.793V55.024H102.801ZM134.263 54.304C131.655 53.92 129.095 52.144 129.095 50.144V49.344H127.719V50.144C127.719 52.192 125.191 53.92 122.583 54.304L123.111 55.36C125.351 54.976 127.511 53.744 128.407 52C129.335 53.728 131.495 54.976 133.719 55.36L134.263 54.304ZM134.887 56.912H121.927V58H127.719V63.2H129.031V58H134.903L134.887 56.912ZM143.781 60.288V56.608H148.149V55.552H139.589V51.056H148.005V49.984H138.277V56.608H142.453V60.288H136.613V61.376H149.653V60.288H143.781ZM167.499 48.848H166.187V57.04H167.499V48.848ZM159.787 50.768C161.211 50.768 162.267 51.712 162.267 53.024C162.267 54.352 161.211 55.28 159.787 55.28C158.363 55.28 157.339 54.352 157.339 53.024C157.339 51.712 158.363 50.768 159.787 50.768ZM159.787 56.368C161.963 56.368 163.547 55.008 163.547 53.024C163.547 51.04 161.963 49.68 159.787 49.68C157.627 49.68 156.059 51.04 156.059 53.024C156.059 55.008 157.627 56.368 159.787 56.368ZM165.899 57.664H164.619V58.432C164.619 59.552 163.931 60.992 162.555 61.84C161.227 61.056 160.571 59.696 160.571 58.432V57.664H159.307V58.432C159.307 59.808 158.235 61.36 156.427 62L157.083 62.992C158.427 62.48 159.403 61.488 159.915 60.336C160.347 61.536 161.211 62.576 162.587 63.12C163.915 62.544 164.795 61.456 165.243 60.288C165.723 61.488 166.715 62.48 168.123 62.992L168.779 62C166.955 61.392 165.899 59.92 165.899 58.432V57.664ZM175.562 51.392H178.938V50.304H170.922V51.392H174.25V53.216C174.25 55.696 172.506 58.4 170.442 59.376L171.21 60.432C172.842 59.6 174.25 57.792 174.906 55.696C175.594 57.664 177.002 59.312 178.666 60.08L179.402 59.024C177.29 58.128 175.562 55.648 175.562 53.216V51.392ZM180.874 48.848V63.184H182.186V48.848H180.874ZM186.836 62.1172C187.484 62.1172 187.977 61.6172 187.977 60.9844C187.977 60.3438 187.484 59.8438 186.836 59.8438C186.188 59.8438 185.688 60.3438 185.688 60.9844C185.688 61.6172 186.188 62.1172 186.836 62.1172Z" fill="black"/>
</svg>
