<svg width="286" height="127" viewBox="0 0 286 127" fill="none" xmlns="http://www.w3.org/2000/svg">
<path d="M52.8092 12.74C50.1292 11.26 48.4092 8.72 48.4092 4.96V4.5H51.8892V2.58H42.3892V4.5H45.9892V4.98C45.9892 8.72 44.4292 11.46 41.4692 13.08L42.9092 14.82C44.9892 13.8 46.7892 11.42 47.2292 9.6C47.7492 11.32 49.8692 13.62 51.5092 14.44L52.8092 12.74ZM55.9892 0.759999H53.6492V18.58H55.9892V9.56H58.5292V7.62H55.9892V0.759999ZM73.2939 0.759999H70.9539V13.68H73.2939V7.8H75.8339V5.86H73.2939V0.759999ZM73.7339 18.12V16.28H64.2939V12.34H61.9539V18.12H73.7339ZM69.7339 9.18C67.6539 8.5 65.5939 6.28 65.5939 3.52V1.76H63.1939V3.64C63.1939 6.34 61.5139 8.72 58.9339 9.66L60.3339 11.5C62.0139 10.86 63.8739 9.02 64.4139 7.22C65.1739 8.86 67.0539 10.48 68.3939 11L69.7339 9.18ZM83.6325 13.06V14.94H93.6925V18.6H96.0125V13.06H91.0925V11.86H98.0125V10H81.9125V11.86H88.7525V13.06H83.6325ZM97.3125 7.46C94.6925 7.46 92.1525 6.5 91.4125 5.28H96.4325V3.46H83.4925V5.28H88.5725C87.8525 6.5 85.4125 7.44 82.5325 7.42L83.4925 9.32C86.3525 9.22 88.9525 8.1 89.9525 6.64C90.9925 8.04 93.7925 9.22 96.4125 9.38L97.3125 7.46ZM86.9925 2.72H92.9125V0.879999H86.9925V2.72ZM99.8372 3.8H103.417C103.357 6.48 101.657 8.44 99.1172 9.34L100.497 11.18C102.217 10.58 104.097 8.92 104.637 7.18C105.397 8.82 107.157 10.2 108.497 10.68L109.777 8.86C107.777 8.2 105.917 6.46 105.817 3.8H109.237V1.88H99.8372V3.8ZM101.897 12.12V13.96H111.617V18.6H113.977V12.12H101.897ZM113.957 11.2V0.759999H111.617V5.1H108.977V6.98H111.617V11.2H113.957ZM136.096 1.24H130.316V3.06H133.756C133.756 4.1 133.616 5.44 133.196 6.96H128.436C128.896 5.26 129.116 3.22 129.116 1.24H123.256V3.06H126.756C126.756 4.56 126.476 5.88 126.076 6.96H121.776V8.84H128.656V10.68H123.716V12.52H133.416V13.72H123.796V18.5H136.396V16.6H126.116V15.4H135.736V10.68H130.996V8.84H137.876V6.96H135.456C135.896 4.96 136.096 3.24 136.096 1.24ZM153.82 18.36V11.32H151.48V13.08H144.44V11.36H142.08V18.36H153.82ZM153.8 10.42V0.759999H151.46V10.42H153.8ZM151.48 16.5H144.44V14.92H151.48V16.5ZM149.6 8.02C147.6 8.42 144.5 8.56 142.38 8.48V6.9H148.08V5.04H142.38V3.6H148.4V1.74H140.08V10.34H141.76C144.06 10.34 148.04 10.18 149.84 9.8L149.6 8.02ZM156.365 18.88H158.245L159.685 14.84H157.165L156.365 18.88ZM180.879 7.38V5.52H171.139V3.04H180.739V1.16H168.799V7.38H173.499V9.1H166.659V10.96H182.759V9.1H175.859V7.38H180.879ZM180.919 15.26C180.919 13.24 178.659 11.94 174.699 11.94C170.779 11.94 168.519 13.24 168.519 15.26C168.519 17.32 170.779 18.6 174.719 18.6C178.659 18.6 180.919 17.32 180.919 15.26ZM178.519 15.28C178.519 16.2 177.019 16.74 174.699 16.74C172.399 16.74 170.919 16.2 170.919 15.28C170.919 14.36 172.399 13.8 174.699 13.8C177.019 13.8 178.519 14.36 178.519 15.28ZM198.703 18.58V0.759999H196.363V18.58H198.703ZM193.223 2.62H184.903V4.56H190.703C190.383 8.1 187.723 11.82 183.823 13.6L185.263 15.36C190.703 12.4 193.083 8 193.223 2.62ZM215.428 9.08V1.58H213.068V3.62H205.528V1.6H203.208V9.08H215.428ZM210.448 18.6V12.74H217.368V10.88H201.268V12.74H208.108V18.6H210.448ZM213.068 7.22H205.528V5.44H213.068V7.22ZM228.333 12H230.973V18.58H233.313V0.759999H230.973V4.28H228.333L228.413 6.26H230.973V10H228.413L228.333 12ZM218.673 8.36C218.673 12.1 220.353 14.7 223.253 14.7C226.173 14.7 227.853 12.08 227.853 8.36C227.853 4.6 226.173 1.98 223.253 1.98C220.353 1.98 218.673 4.6 218.673 8.36ZM225.613 8.36C225.613 11.16 224.633 12.82 223.253 12.82C221.913 12.82 220.953 11.16 220.953 8.36C220.953 5.54 221.913 3.86 223.253 3.86C224.633 3.86 225.613 5.54 225.613 8.36ZM235.857 18.88H237.737L239.177 14.84H236.657L235.857 18.88ZM74.282 52.06V50.22H58.182V52.06H74.282ZM72.242 38.58H60.022V40.42H69.902C69.922 43.36 69.542 47.16 69.142 48.94L71.422 49.16C71.842 46.94 72.242 43.64 72.242 38.58ZM87.8867 36.76V54.58H90.2067V36.76H87.8867ZM86.3267 48.06C84.0467 48.48 80.5067 48.58 78.8067 48.58V44.96H84.6267V38.28H76.4067V40.14H82.2667V43.1H76.4867V50.5H78.3667C81.3867 50.5 84.7067 50.3 86.5867 49.92L86.3267 48.06ZM108.891 52.08V50.22H100.911V44.22H98.5714V50.22H92.7914V52.08H108.891ZM107.051 38.32H94.5114V40.2H104.691C104.751 42.66 104.611 46.08 104.051 48.14L106.291 48.42C106.911 46.06 107.131 42.8 107.051 38.32ZM126.31 49.16C123.63 47.7 121.91 45.16 121.91 41.4V40.5H125.37V38.58H115.89V40.5H119.47V41.42C119.47 45.16 117.93 47.88 114.95 49.52L116.41 51.24C118.49 50.24 120.27 47.84 120.71 46.04C121.23 47.76 123.37 50.04 124.99 50.88L126.31 49.16ZM130.09 54.58V36.76H127.75V42.9H124.75V44.88H127.75V54.58H130.09ZM134.375 49.06V50.94H144.435V54.6H146.755V49.06H141.835V47.86H148.755V46H132.655V47.86H139.495V49.06H134.375ZM148.055 43.46C145.435 43.46 142.895 42.5 142.155 41.28H147.175V39.46H134.235V41.28H139.315C138.595 42.5 136.155 43.44 133.275 43.42L134.235 45.32C137.095 45.22 139.695 44.1 140.695 42.64C141.735 44.04 144.535 45.22 147.155 45.38L148.055 43.46ZM137.735 38.72H143.655V36.88H137.735V38.72ZM169.933 49.68V36.76H167.613V49.68H169.933ZM170.333 54.1V52.26H160.333V48.4H157.973V54.1H170.333ZM155.773 42.48C155.773 45.04 157.673 46.86 160.593 46.86C163.533 46.86 165.413 45.04 165.413 42.48C165.413 39.96 163.533 38.08 160.593 38.08C157.673 38.08 155.773 39.96 155.773 42.48ZM158.173 42.48C158.173 41.12 159.093 40.08 160.593 40.08C162.133 40.08 163.033 41.12 163.033 42.48C163.033 43.9 162.133 44.94 160.593 44.94C159.093 44.94 158.173 43.9 158.173 42.48ZM186.798 51.26C186.798 49.24 184.518 47.98 180.558 47.98C176.618 47.98 174.338 49.24 174.338 51.26C174.338 53.32 176.618 54.58 180.578 54.58C184.518 54.58 186.798 53.32 186.798 51.26ZM187.798 42.44C185.418 42.32 182.718 41.22 182.018 39.4H187.018V37.54H174.178V39.4H179.198C178.578 41.22 176.138 42.34 173.378 42.48L174.338 44.28C177.158 44.04 179.678 42.74 180.578 40.96C181.598 42.68 184.198 44.06 186.798 44.28L187.798 42.44ZM188.618 45.28H172.518V47.12H188.618V45.28ZM184.398 51.28C184.398 52.18 182.898 52.74 180.558 52.74C178.258 52.74 176.758 52.18 176.758 51.28C176.758 50.38 178.258 49.82 180.558 49.82C182.898 49.82 184.398 50.38 184.398 51.28ZM203.843 36.76H201.583V54.58H203.843V45.78H206.383V43.84H203.843V36.76ZM195.203 38.62H190.423V40.56H193.003C193.023 43.74 191.803 47.04 189.323 49.36L191.043 50.68C193.863 47.68 195.223 44.3 195.203 38.62ZM200.143 38.62H196.003V40.56H197.943C197.943 44.52 196.843 47.8 194.303 50.46L196.123 51.76C199.243 48.04 200.163 44.76 200.143 38.62ZM218.267 48.52C215.587 47.14 213.887 44.66 213.887 40.9V40.44H217.327V38.58H207.867V40.44H211.427V40.92C211.427 44.66 209.967 47.42 206.967 49.02L208.367 50.76C210.447 49.74 212.247 47.36 212.667 45.56C213.207 47.28 215.387 49.54 216.967 50.34L218.267 48.52ZM221.867 54.58V36.76H219.527V54.58H221.867ZM225.632 48.2H227.632L227.912 37.94H225.312L225.632 48.2ZM225.432 52.46H227.832V50.12H225.432V52.46ZM28.5594 88.06V86.22H12.4594V88.06H28.5594ZM26.5194 74.58H14.2994V76.42H24.1794C24.1994 79.36 23.8194 83.16 23.4194 84.94L25.6994 85.16C26.1194 82.94 26.5194 79.64 26.5194 74.58ZM44.9241 90.58V72.76H42.6841V79.78H41.1041V73.08H38.9041V89.76H41.1041V81.64H42.6841V90.58H44.9241ZM32.6241 84.44V76.72C34.1041 76.72 35.5641 76.74 37.0241 76.74V74.88H30.2841V86.36H31.9841C34.0441 86.36 36.6641 86.24 38.0041 85.88L37.7841 84.04C36.5841 84.34 34.4441 84.5 32.6241 84.44ZM58.0688 86.62L57.8288 84.82C56.5687 85 55.2088 85.1 53.4688 85.2V82.34C55.4888 81.92 56.9688 80.44 56.9688 78.32C56.9688 75.82 54.9088 74.02 52.2688 74.02C49.6088 74.02 47.5888 75.86 47.5888 78.32C47.5888 80.46 49.0488 81.96 51.1288 82.36V85.32C49.7088 85.36 48.3488 85.36 46.8288 85.36L47.1287 87.28C48.5088 87.28 49.8688 87.24 51.6688 87.16C53.7488 87.06 56.3688 86.88 58.0688 86.62ZM61.1688 72.76H58.8488V90.58H61.1688V81.82H63.4688V79.9H61.1688V72.76ZM49.8688 78.3C49.8688 76.88 50.9688 75.96 52.2688 75.96C53.5288 75.96 54.6288 76.82 54.6288 78.3C54.6288 79.72 53.5088 80.5 52.2688 80.5C51.0088 80.5 49.8688 79.72 49.8688 78.3ZM84.3473 90.58V72.76H82.0273V90.58H84.3473ZM78.9273 86.18V74.16H76.5673V78.48H72.8273V74.2H70.5073V86.18H78.9273ZM76.5673 84.34H72.8273V80.32H76.5673V84.34ZM103.032 83.02V81.14H86.932V83.02H103.032ZM94.992 76.28C95.892 78.32 99.012 79.76 101.392 80.1L102.392 78.26C99.832 78.14 96.212 76.34 96.212 73.66V73.14H93.792V73.66C93.792 76.34 90.612 77.96 87.632 78.26L88.612 80.08C91.192 79.72 94.092 78.32 94.992 76.28ZM101.852 88.88C98.912 88.66 96.172 86.62 96.172 84.44V84H93.772V84.44C93.772 86.68 91.132 88.62 87.972 88.84L88.992 90.7C91.532 90.42 94.252 88.7 94.932 87.26C95.712 88.72 98.212 90.42 100.732 90.74L101.852 88.88ZM114.437 77.78V75.96H104.097V77.78H114.437ZM113.577 81.56C113.577 79.68 111.777 78.28 109.377 78.28C106.917 78.28 105.137 79.68 105.137 81.56C105.137 83.46 106.937 84.8 109.377 84.8C111.777 84.8 113.577 83.46 113.577 81.56ZM106.737 75.12H112.037V73.34H106.737V75.12ZM118.177 72.76H115.837V86H118.177V80.46H120.657V78.52H118.177V72.76ZM118.597 90.16V88.3H108.777V85.46H106.417V90.16H118.597ZM107.457 81.56C107.457 80.72 108.337 80.14 109.377 80.14C110.397 80.14 111.297 80.72 111.297 81.56C111.297 82.36 110.397 82.92 109.377 82.92C108.337 82.92 107.457 82.36 107.457 81.56ZM141.535 83.16V72.76H139.195V76.46H136.155V78.32H139.195V83.16H141.535ZM137.455 80.66C135.375 79.98 133.335 77.98 133.335 75.22V73.58H130.915V75.34C130.915 78.04 129.195 80.12 126.615 81.06L128.015 82.92C129.675 82.36 131.615 80.68 132.155 78.86C132.935 80.52 134.775 81.94 136.115 82.48L137.455 80.66ZM141.655 86.98C141.655 84.76 139.415 83.36 135.515 83.36C131.675 83.36 129.455 84.76 129.455 86.98C129.455 89.14 131.675 90.56 135.515 90.56C139.415 90.56 141.655 89.14 141.655 86.98ZM135.515 85.24C137.915 85.24 139.235 85.9 139.235 86.98C139.235 88.04 137.915 88.68 135.515 88.68C133.215 88.68 131.855 88.04 131.855 86.98C131.855 85.9 133.215 85.24 135.515 85.24ZM158.22 87.52C158.22 85.52 155.94 84.4 152.12 84.4C148.32 84.4 146.04 85.52 146.04 87.52C146.04 89.54 148.32 90.66 152.12 90.66C155.94 90.66 158.22 89.54 158.22 87.52ZM153.52 81.04C153.52 79.28 151.72 78.1 149.3 78.1C146.82 78.1 145 79.28 145 81.04C145 82.82 146.84 84 149.3 84C151.72 84 153.52 82.82 153.52 81.04ZM160.4 79.78H158.04V78.02H160.4V76.14H158.04V72.76H155.68V84.24H158.04V81.66H160.4V79.78ZM154.42 77.66V75.84H144.08V77.66H154.42ZM152.12 86.18C154.48 86.18 155.82 86.74 155.82 87.54C155.82 88.32 154.48 88.88 152.12 88.88C149.78 88.88 148.44 88.32 148.44 87.54C148.44 86.74 149.78 86.18 152.12 86.18ZM146.66 75.06H151.94V73.24H146.66V75.06ZM147.36 81.04C147.36 80.32 148.22 79.8 149.3 79.8C150.32 79.8 151.2 80.32 151.2 81.04C151.2 81.78 150.32 82.28 149.3 82.28C148.24 82.28 147.36 81.78 147.36 81.04ZM177.865 81.98V80.06H175.505V72.76H173.185V90.58H175.505V81.98H177.865ZM172.325 86.4L172.145 84.62C170.725 84.8 169.065 84.92 166.885 85.04V80.12H164.645V85.14C163.445 85.16 162.265 85.16 160.985 85.16L161.285 87.06C162.665 87.06 164.125 87.02 165.965 86.94C168.045 86.82 170.665 86.62 172.325 86.4ZM171.505 74.7H162.105V76.58H169.125C169.125 78.42 169.005 80.66 168.665 82.24L170.905 82.48C171.325 80.6 171.505 78.16 171.505 74.7ZM197.923 79.46V73.22H186.103V79.46H190.803V81.2H183.963V83.08H200.063V81.2H193.143V79.46H197.923ZM185.863 84.52V86.38H195.663V90.6H197.983V84.52H185.863ZM195.543 77.66H188.443V75.02H195.543V77.66ZM201.888 75.8H205.468C205.408 78.48 203.708 80.44 201.168 81.34L202.548 83.18C204.268 82.58 206.148 80.92 206.688 79.18C207.448 80.82 209.208 82.2 210.548 82.68L211.828 80.86C209.828 80.2 207.968 78.46 207.868 75.8H211.288V73.88H201.888V75.8ZM203.948 84.12V85.96H213.668V90.6H216.028V84.12H203.948ZM216.008 83.2V72.76H213.668V77.1H211.028V78.98H213.668V83.2H216.008ZM234.673 82.14V80.28H218.573V82.14H234.673ZM233.193 90.5V88.58H222.833V87.6H232.553V83.12H220.513V84.94H230.233V85.96H220.493V90.5H233.193ZM222.773 76.22C222.773 75.4 224.173 74.8 226.653 74.8C229.133 74.8 230.553 75.4 230.553 76.22C230.553 77.02 229.133 77.66 226.653 77.66C224.173 77.66 222.773 77.02 222.773 76.22ZM220.353 76.22C220.353 78.14 222.613 79.42 226.653 79.42C230.673 79.42 232.953 78.14 232.953 76.22C232.953 74.28 230.673 73.02 226.653 73.02C222.613 73.02 220.353 74.28 220.353 76.22ZM257.631 81.54V79.6H255.051V72.76H252.731V90.58H255.051V81.54H257.631ZM250.371 74.58H242.051V76.52H247.831C247.511 80.08 244.851 83.82 240.971 85.6L242.391 87.36C247.851 84.4 250.211 79.96 250.371 74.58ZM259.236 76.04H262.816C262.816 78.78 261.116 80.96 258.536 81.9L259.936 83.76C261.656 83.16 263.496 81.36 264.036 79.58C264.836 81.28 266.536 82.72 267.876 83.22L269.156 81.38C267.116 80.74 265.256 78.76 265.216 76.04H268.636V74.2H259.236V76.04ZM273.556 90.1V88.26H263.616V84.46H261.276V90.1H273.556ZM273.156 85.68V72.76H270.836V85.68H273.156ZM15.2173 108.76H12.8973V126.58H15.2173V117.54H17.7773V115.62H15.2173V108.76ZM12.0173 120.58C9.31727 118.86 7.69727 116.1 7.69727 112.58V110.26H5.27727V112.7C5.27727 116.26 3.75727 119.12 0.857266 120.98C1.35727 121.54 1.81727 122.1 2.29727 122.68C4.13727 121.6 5.93727 119.36 6.51727 117.34C7.11727 119.28 9.17727 121.38 10.6373 122.32C11.1173 121.74 11.5373 121.16 12.0173 120.58ZM35.062 115.08V113.16H32.522V108.76H30.182V119.24H32.522V115.08H35.062ZM32.522 126.36V120.16H20.882V126.36H32.522ZM30.162 124.52H23.202V121.98H30.162V124.52ZM28.602 116.36C27.142 116.74 23.762 117 21.582 116.94V114.9H27.142V109.62H19.142V111.48H24.782V113.14H19.222V118.8H21.602C24.022 118.8 27.302 118.54 28.822 118.16L28.602 116.36ZM50.1266 114.76V112.9H40.3866V110.92H49.9866V109.06H38.0466V114.76H50.1266ZM52.0066 117.74V115.86H35.9066V117.74H52.0066ZM50.5266 126.5V124.58H40.2866V123.54H49.8866V118.94H37.8466V120.78H47.5466V121.86H37.9666V126.5H50.5266ZM69.6713 117.98V116.06H67.3113V108.76H64.9913V126.58H67.3113V117.98H69.6713ZM64.1313 122.4L63.9513 120.62C62.5313 120.8 60.8713 120.92 58.6913 121.04V116.12H56.4513V121.14C55.2513 121.16 54.0713 121.16 52.7913 121.16L53.0913 123.06C54.4713 123.06 55.9313 123.02 57.7713 122.94C59.8513 122.82 62.4713 122.62 64.1313 122.4ZM63.3113 110.7H53.9113V112.58H60.9313C60.9313 114.42 60.8113 116.66 60.4713 118.24L62.7113 118.48C63.1313 116.6 63.3113 114.16 63.3113 110.7ZM90.4899 126.36V119.78H78.5899V126.36H90.4899ZM86.2899 116.1C84.2899 116.52 81.1899 116.66 79.0699 116.58V114.96H84.7699V113.1H79.0699V111.6H85.0899V109.74H76.7699V118.44H78.4499C80.7499 118.44 84.7299 118.26 86.5299 117.9L86.2899 116.1ZM90.4899 118.84V108.76H88.1499V118.84H90.4899ZM88.1499 124.52H80.9499V121.56H88.1499V124.52ZM109.175 118.14V116.28H93.0746V118.14H109.175ZM107.695 126.5V124.58H97.3346V123.6H107.055V119.12H95.0146V120.94H104.735V121.96H94.9946V126.5H107.695ZM97.2746 112.22C97.2746 111.4 98.6746 110.8 101.155 110.8C103.635 110.8 105.055 111.4 105.055 112.22C105.055 113.02 103.635 113.66 101.155 113.66C98.6746 113.66 97.2746 113.02 97.2746 112.22ZM94.8546 112.22C94.8546 114.14 97.1146 115.42 101.155 115.42C105.175 115.42 107.455 114.14 107.455 112.22C107.455 110.28 105.175 109.02 101.155 109.02C97.1146 109.02 94.8546 110.28 94.8546 112.22ZM130.353 126.58V108.76H128.033V126.58H130.353ZM116.133 116.36C116.133 120.1 117.833 122.7 120.733 122.7C123.653 122.7 125.353 120.08 125.353 116.36C125.353 112.6 123.653 109.98 120.733 109.98C117.833 109.98 116.133 112.6 116.133 116.36ZM123.113 116.36C123.113 119.16 122.113 120.82 120.733 120.82C119.393 120.82 118.413 119.16 118.413 116.36C118.413 113.54 119.393 111.86 120.733 111.86C122.113 111.86 123.113 113.54 123.113 116.36ZM143.418 116.98V115.2H136.798V114.16H143.158V109.68H134.378V111.4H140.818V112.52H134.418V116.98H143.418ZM141.978 122.76H145.658V126.58H147.978V108.76H145.658V121.04H141.978V122.76ZM139.738 126.06V120.22C141.478 120.12 143.278 119.98 144.618 119.8L144.438 118.02C142.898 118.22 141.078 118.3 138.518 118.44C136.518 118.54 134.718 118.54 132.698 118.54L133.018 120.44C134.358 120.44 135.678 120.42 137.418 120.34V126.06H139.738ZM171.876 115.72V113.84H169.436V108.76H167.096V119.68H169.436V115.72H171.876ZM169.436 126.36V120.56H157.876V126.36H169.436ZM167.076 124.54H160.216V122.36H167.076V124.54ZM165.776 113.48V111.66H155.356V113.48H165.776ZM158.016 110.88H163.296V109.06H158.016V110.88ZM164.876 116.94C164.876 115.1 163.056 113.86 160.636 113.86C158.176 113.86 156.356 115.1 156.356 116.94C156.356 118.76 158.196 119.98 160.636 119.98C163.056 119.98 164.876 118.76 164.876 116.94ZM158.716 116.94C158.716 116.16 159.576 115.66 160.636 115.66C161.676 115.66 162.576 116.16 162.576 116.94C162.576 117.68 161.676 118.22 160.636 118.22C159.596 118.22 158.716 117.68 158.716 116.94ZM181.281 110.82H177.801V112.76H179.141C179.161 116.64 178.241 119.72 176.161 122.3L178.001 123.46C179.401 121.44 180.241 119.58 180.741 117.44H182.381V125.76H184.581V109.08H182.381V115.56H181.061C181.221 114.16 181.281 112.62 181.281 110.82ZM188.101 126.58V108.76H185.861V126.58H188.101ZM177.241 110.82H173.321V112.76H175.101C175.101 116.04 174.261 118.7 172.321 120.94L174.121 122.12C176.281 119.34 177.261 116.3 177.241 110.82ZM206.32 121.16C203.64 119.7 201.92 117.16 201.92 113.4V112.5H205.38V110.58H195.9V112.5H199.48V113.42C199.48 117.16 197.94 119.88 194.96 121.52L196.42 123.24C198.5 122.24 200.28 119.84 200.72 118.04C201.24 119.76 203.38 122.04 205 122.88L206.32 121.16ZM210.1 126.58V108.76H207.76V114.9H204.76V116.88H207.76V126.58H210.1ZM214.384 121.06V122.94H224.444V126.6H226.764V121.06H221.844V119.86H228.764V118H212.664V119.86H219.504V121.06H214.384ZM228.064 115.46C225.444 115.46 222.904 114.5 222.164 113.28H227.184V111.46H214.244V113.28H219.324C218.604 114.5 216.164 115.44 213.284 115.42L214.244 117.32C217.104 117.22 219.704 116.1 220.704 114.64C221.744 116.04 224.544 117.22 227.164 117.38L228.064 115.46ZM217.744 110.72H223.664V108.88H217.744V110.72ZM245.129 126.58V108.76H242.909V115.96H241.429V109.08H239.249V125.76H241.429V117.84H242.909V126.58H245.129ZM238.129 119.24C238.129 117 236.549 115.54 234.229 115.54C231.949 115.54 230.329 116.98 230.329 119.24C230.329 121.36 231.929 122.94 234.229 122.94C236.549 122.94 238.129 121.48 238.129 119.24ZM229.949 114.88H238.449V113.02H229.949V114.88ZM236.029 119.24C236.029 120.32 235.269 121.1 234.229 121.1C233.209 121.1 232.449 120.36 232.449 119.24C232.449 118.14 233.209 117.38 234.229 117.38C235.269 117.38 236.029 118.14 236.029 119.24ZM231.889 112H236.689V110.14H231.889V112ZM263.374 124.36V122.5H256.454V119.04H261.454V109.94H259.114V112.74H251.534V109.98H249.214V119.04H254.114V122.5H247.274V124.36H263.374ZM259.114 117.18H251.534V114.54H259.114V117.18ZM279.739 126.58V108.76H277.519V126.58H279.739ZM276.159 125.76V109.1H273.979V115.76H271.659V117.64H273.979V125.76H276.159ZM272.119 110.86H265.259V112.74H269.839C269.579 116.28 267.659 119.4 264.179 121.48L265.699 123.1C270.059 120.24 272.119 116.18 272.119 110.86ZM282.583 124.5H285.023V122.16H282.583V124.5Z" fill="white"/>
</svg>
