<svg width="365" height="88" viewBox="0 0 365 88" fill="none" xmlns="http://www.w3.org/2000/svg">
<path d="M0 0H353C359.627 0 365 5.37258 365 12V76C365 82.6274 359.627 88 353 88H12C5.37259 88 0 82.6274 0 76V0Z" fill="#F4F1FF"/>
<path d="M32.096 32.576C32.192 32.08 32.256 31.536 32.256 30.944C32.256 30.288 32.176 29.68 32.048 29.12H35.36V32.576H32.096ZM28.688 34.784C27.312 34.784 26.352 33.28 26.352 30.944C26.352 28.624 27.312 27.12 28.688 27.12C30.048 27.12 31.024 28.624 31.024 30.944C31.024 33.28 30.048 34.784 28.688 34.784ZM35.36 24.832V28.048H31.68C31.072 26.704 30.016 25.936 28.688 25.936C26.592 25.936 25.104 27.888 25.104 30.944C25.104 34 26.592 35.952 28.688 35.952C30.064 35.952 31.184 35.104 31.776 33.648H35.36V39.216H36.672V24.832H35.36ZM40.4148 26.384V27.44H45.8068C45.5348 30.848 43.6148 33.6 39.7588 35.44L40.4628 36.512C45.2308 34.176 47.1348 30.528 47.1348 26.384H40.4148ZM50.0308 24.832V39.184H51.3428V24.832H50.0308ZM59.3095 26.064H57.9975V28.64C57.9975 31.296 56.3655 34.064 54.2855 35.104L55.0855 36.144C56.7015 35.28 58.0295 33.472 58.6535 31.344C59.3095 33.36 60.6215 35.072 62.2535 35.888L63.0215 34.848C60.9415 33.856 59.3095 31.248 59.3095 28.64V26.064ZM64.7975 24.832V29.696H61.4695V30.768H64.7975V39.2H66.1095V24.832H64.7975ZM80.5083 29.152H72.0603V25.36H70.7483V30.224H80.5083V29.152ZM71.9643 34.64H70.6523V38.832H80.5883V37.76H71.9643V34.64ZM68.9883 32.144V33.2H81.9963V32.144H68.9883ZM98.05 27.792C98.05 29.568 98.05 31.712 97.474 34.64L98.786 34.784C99.346 31.68 99.346 29.616 99.346 27.792V26.352H89.506V27.424H98.05V27.792ZM88.114 36V37.088H101.09V36H88.114ZM104.625 27.648H108.673V26.576H103.329V35.648H104.273C106.417 35.648 107.873 35.584 109.585 35.216L109.473 34.128C107.905 34.464 106.545 34.544 104.625 34.56V27.648ZM113.745 24.832V30.592H111.713V25.152H110.481V38.464H111.713V31.664H113.745V39.184H115.009V24.832H113.745ZM119.296 29.136C119.296 27.792 120.352 26.864 121.824 26.864C123.28 26.864 124.336 27.792 124.336 29.136C124.336 30.496 123.28 31.392 121.824 31.392C120.352 31.392 119.296 30.496 119.296 29.136ZM122.48 32.464C124.32 32.224 125.616 30.928 125.616 29.136C125.616 27.12 124.016 25.76 121.824 25.76C119.6 25.76 118.016 27.12 118.016 29.136C118.016 30.928 119.296 32.24 121.168 32.464V34.944C119.824 34.976 118.512 34.992 117.376 34.992L117.552 36.096C120.08 36.096 123.424 36.048 126.464 35.536L126.352 34.576C125.12 34.752 123.792 34.832 122.48 34.896V32.464ZM130.848 30.752H128.576V24.816H127.264V39.184H128.576V31.856H130.848V30.752ZM145.445 31.072C143.445 31.408 141.749 31.472 138.757 31.472V29.584H143.893V28.544H138.757V26.768H144.293V25.712H137.445V32.528H138.613C141.749 32.528 143.493 32.464 145.589 32.112L145.445 31.072ZM140.405 35.168H147.125V37.936H140.405V35.168ZM139.125 38.992H148.405V34.112H139.125V38.992ZM147.093 24.848V33.408H148.405V24.848H147.093ZM158.868 33.312V34.288H161.78V35.76H163.092V24.832H161.78V33.312H158.868ZM155.94 26.384C157.3 26.384 158.228 26.992 158.228 27.904C158.228 28.832 157.3 29.44 155.94 29.44C154.58 29.44 153.652 28.832 153.652 27.904C153.652 26.992 154.58 26.384 155.94 26.384ZM155.94 30.416C158.036 30.416 159.476 29.44 159.476 27.904C159.476 26.4 158.036 25.408 155.94 25.408C153.844 25.408 152.404 26.4 152.404 27.904C152.404 29.44 153.844 30.416 155.94 30.416ZM155.428 35.248H156.74V32.416C158.036 32.336 159.364 32.192 160.628 32L160.516 31.056C157.476 31.44 153.924 31.472 151.268 31.472L151.444 32.56C152.628 32.56 154.004 32.544 155.428 32.48V35.248ZM154.628 37.792V34.688H153.316V38.864H163.46V37.792H154.628ZM177.507 28.608H169.107V26.368H177.363V25.312H167.795V29.664H177.507V28.608ZM168.947 36.512H177.379V33.136H167.619V34.16H176.083V35.536H167.667V39.008H177.811V37.984H168.947V36.512ZM166.067 30.816V31.888H179.059V30.816H166.067ZM185.785 25.744V26.816H190.985C190.745 29.248 188.617 31.12 185.129 32.064L185.673 33.104C189.865 31.952 192.392 29.376 192.392 25.744H185.785ZM186.969 34.96H194.985V39.184H196.297V33.904H186.969V34.96ZM198.425 28.464H196.297V24.816H194.985V33.248H196.297V29.552H198.425V28.464ZM204.711 27.392H207.895V26.304H200.135V27.392H203.415V29.216C203.415 31.648 201.687 34.368 199.639 35.392L200.407 36.432C202.023 35.6 203.415 33.776 204.071 31.68C204.727 33.6 206.071 35.28 207.671 36.08L208.423 35.024C206.343 34.048 204.711 31.504 204.711 29.216V27.392ZM213.287 30.624H210.919V24.848H209.607V39.184H210.919V31.728H213.287V30.624ZM219.254 25.888C217.03 25.888 215.414 27.248 215.414 29.264C215.414 31.264 217.03 32.64 219.254 32.64C221.494 32.64 223.094 31.264 223.094 29.264C223.094 27.248 221.494 25.888 219.254 25.888ZM219.254 27.008C220.742 27.008 221.814 27.92 221.814 29.264C221.814 30.592 220.742 31.52 219.254 31.52C217.782 31.52 216.694 30.592 216.694 29.264C216.694 27.92 217.782 27.008 219.254 27.008ZM224.982 24.832V39.216H226.294V24.832H224.982ZM214.854 36.064C217.446 36.064 220.918 36.032 224.15 35.44L224.038 34.464C220.902 34.944 217.302 34.96 214.694 34.96L214.854 36.064ZM235.132 35.712H243.756V39.2H245.068V34.656H235.132V35.712ZM236.636 26.464H243.708V29.248H236.636V26.464ZM240.844 32.112V30.288H245.004V25.424H235.356V30.288H239.532V32.112H233.676V33.168H246.668V32.112H240.844ZM253.323 32.96H256.443V36.368H253.323V32.96ZM253.099 27.216H256.667V31.904H253.099V27.216ZM257.755 36.368V32.96H260.187V31.904H257.979V27.216H260.203V26.16H249.562V27.216H251.786V31.904H249.595V32.96H252.011V36.368H248.395V37.44H261.419V36.368H257.755ZM275.808 29.968C273.888 30.352 272.224 30.464 269.44 30.464V26.72H274.48V25.664H268.144V31.52H269.248C272.208 31.52 273.952 31.424 275.968 31.008L275.808 29.968ZM270.848 36.32H278.64V32.784H269.52V33.824H277.344V35.328H269.568V38.992H279.168V37.936H270.848V36.32ZM278.64 27.856V24.832H277.328V32.048H278.64V28.928H280.768V27.856H278.64ZM292.719 33.328H294.047V24.848H292.719V27.888H289.599V28.96H292.719V33.328ZM290.639 31.632C288.543 30.896 287.151 29.12 287.151 27.072V25.648H285.839V27.12C285.839 29.312 284.415 31.232 282.207 32.016L282.895 33.088C284.623 32.432 285.919 31.136 286.527 29.44C287.151 30.928 288.367 32.064 289.935 32.656L290.639 31.632ZM289.311 38.128C287.151 38.128 285.839 37.504 285.839 36.464C285.839 35.408 287.151 34.784 289.311 34.784C291.471 34.784 292.783 35.408 292.783 36.464C292.783 37.504 291.471 38.128 289.311 38.128ZM289.311 33.76C286.367 33.76 284.527 34.736 284.527 36.464C284.527 38.176 286.367 39.168 289.311 39.168C292.255 39.168 294.095 38.176 294.095 36.464C294.095 34.736 292.255 33.76 289.311 33.76ZM306.99 27.328H298.606V30.4H308.542V29.44H299.902V28.224H308.286V25.232H298.574V26.16H306.99V27.328ZM305.134 33.68H301.758V32.368H305.134V33.68ZM309.95 32.368V31.392H296.926V32.368H300.446V33.68H298.478V34.624H307.038V35.824H298.526V39.024H308.782V38.064H299.822V36.736H308.334V33.68H306.446V32.368H309.95ZM319.149 32.88C319.549 30.208 319.549 28.336 319.549 27.184V26.4H312.301V27.472H318.269C318.269 28.624 318.237 30.368 317.837 32.752L319.149 32.88ZM315.853 30.496H314.557V34.912C313.485 34.944 312.429 34.96 311.517 34.96L311.661 36.048C314.205 36.048 317.581 35.984 320.557 35.504L320.477 34.544C319.021 34.72 317.421 34.816 315.853 34.88V30.496ZM324.957 30.832H322.669V24.832H321.357V39.184H322.669V31.936H324.957V30.832ZM29.68 51.392H32.864V50.304H25.104V51.392H28.384V53.216C28.384 55.648 26.656 58.368 24.608 59.392L25.376 60.432C26.992 59.6 28.384 57.776 29.04 55.68C29.696 57.6 31.04 59.28 32.64 60.08L33.392 59.024C31.312 58.048 29.68 55.504 29.68 53.216V51.392ZM38.256 54.624H35.888V48.848H34.576V63.184H35.888V55.728H38.256V54.624ZM47.9348 56.048C45.8228 55.296 44.3988 53.472 44.3988 51.504V49.696H43.0868V51.472C43.0868 53.696 41.6948 55.616 39.5028 56.4L40.1908 57.44C41.9028 56.8 43.1828 55.488 43.7748 53.792C44.4148 55.296 45.6628 56.496 47.2788 57.088L47.9348 56.048ZM43.1188 58.416H41.8068V62.864H51.3268V61.792H43.1188V58.416ZM50.7028 53.232V48.816H49.3908V59.424H50.7028V54.32H52.8148V53.232H50.7028ZM55.4695 55.248C57.8215 55.008 59.9175 54.144 60.7815 52.704C61.6455 54.144 63.7255 55.008 66.0775 55.248L66.4935 54.256C63.7735 53.984 61.5975 52.88 61.4855 51.28H65.9335V50.24H61.4375V48.752H60.1255V50.24H55.6295V51.28H60.0615C59.9495 52.88 57.7735 53.984 55.0695 54.256L55.4695 55.248ZM67.2615 57.104V56.048H54.2855V57.104H60.1255V58.752H55.7255V59.792H64.3495V63.136H65.6615V58.752H61.4375V57.104H67.2615ZM77.4683 55.84C75.3883 55.104 73.9803 53.296 73.9803 51.456V50.88H77.1323V49.808H69.4683V50.88H72.6683V51.456C72.6683 53.488 71.1803 55.408 69.0523 56.16L69.7403 57.2C71.4203 56.576 72.7323 55.264 73.3403 53.616C73.9803 55.104 75.2123 56.288 76.8123 56.864L77.4683 55.84ZM71.2283 59.264H79.5003V63.2H80.8283V58.208H71.2283V59.264ZM79.5003 48.832V52.576H76.7003V53.648H79.5003V57.424H80.8283V48.832H79.5003ZM94.562 50.464C96.754 50.464 98.242 51.264 98.242 52.528C98.242 53.792 96.754 54.608 94.562 54.608C92.386 54.608 90.898 53.792 90.898 52.528C90.898 51.264 92.386 50.464 94.562 50.464ZM94.562 55.664C97.554 55.664 99.586 54.448 99.586 52.528C99.586 50.608 97.554 49.408 94.562 49.408C91.586 49.408 89.554 50.608 89.554 52.528C89.554 54.448 91.586 55.664 94.562 55.664ZM101.09 57.008H88.098V58.08H91.442V63.184H92.77V58.08H96.37V63.184H97.698V58.08H101.09V57.008ZM113.313 55.072H110.881V56.144H113.313V58.096H114.641V48.832H113.313V52.288H110.897V53.344H113.313V55.072ZM110.881 50.416H107.585V48.704H106.273V50.416H102.849V51.472H110.881V50.416ZM104.897 54.864C104.897 53.872 105.713 53.216 106.913 53.216C108.113 53.216 108.929 53.872 108.929 54.864C108.929 55.872 108.113 56.528 106.913 56.528C105.713 56.528 104.897 55.872 104.897 54.864ZM110.161 54.864C110.161 53.264 108.817 52.208 106.913 52.208C104.993 52.208 103.665 53.264 103.665 54.864C103.665 56.48 104.993 57.536 106.913 57.536C108.817 57.536 110.161 56.48 110.161 54.864ZM109.937 62.16C107.825 62.16 106.513 61.632 106.513 60.72C106.513 59.792 107.825 59.28 109.937 59.28C112.049 59.28 113.345 59.792 113.345 60.72C113.345 61.632 112.049 62.16 109.937 62.16ZM109.937 58.272C106.961 58.272 105.153 59.152 105.153 60.72C105.153 62.272 106.961 63.168 109.937 63.168C112.897 63.168 114.705 62.272 114.705 60.72C114.705 59.152 112.897 58.272 109.937 58.272ZM124.016 50.064C126.368 50.064 127.712 50.608 127.712 51.568C127.712 52.528 126.368 53.072 124.016 53.072C121.664 53.072 120.32 52.528 120.32 51.568C120.32 50.608 121.664 50.064 124.016 50.064ZM124.016 54.048C127.168 54.048 129.056 53.184 129.056 51.568C129.056 49.952 127.168 49.072 124.016 49.072C120.864 49.072 118.976 49.952 118.976 51.568C118.976 53.184 120.864 54.048 124.016 54.048ZM120.416 60.544H128.848V57.312H119.088V58.304H127.552V59.584H119.136V63.024H129.28V62H120.416V60.544ZM117.52 55.024V56.08H130.512V55.024H117.52ZM139.509 60.624H147.941V57.424H138.181V58.416H146.645V59.664H138.229V63.024H148.373V62.016H139.509V60.624ZM139.637 51.408H146.613V52.784H139.637V51.408ZM143.765 55.168V53.792H147.909V49.056H146.613V50.416H139.637V49.056H138.341V53.792H142.453V55.168H136.613V56.224H149.605V55.168H143.765ZM168.075 54.304C165.467 53.92 162.907 52.144 162.907 50.144V49.344H161.531V50.144C161.531 52.192 159.003 53.92 156.395 54.304L156.923 55.36C159.163 54.976 161.323 53.744 162.219 52C163.147 53.728 165.307 54.976 167.531 55.36L168.075 54.304ZM168.699 56.912H155.739V58H161.531V63.2H162.843V58H168.715L168.699 56.912ZM186.593 48.848H185.281V57.04H186.593V48.848ZM178.881 50.768C180.305 50.768 181.361 51.712 181.361 53.024C181.361 54.352 180.305 55.28 178.881 55.28C177.457 55.28 176.433 54.352 176.433 53.024C176.433 51.712 177.457 50.768 178.881 50.768ZM178.881 56.368C181.057 56.368 182.641 55.008 182.641 53.024C182.641 51.04 181.057 49.68 178.881 49.68C176.721 49.68 175.153 51.04 175.153 53.024C175.153 55.008 176.721 56.368 178.881 56.368ZM184.993 57.664H183.713V58.432C183.713 59.552 183.025 60.992 181.649 61.84C180.321 61.056 179.665 59.696 179.665 58.432V57.664H178.401V58.432C178.401 59.808 177.329 61.36 175.521 62L176.177 62.992C177.521 62.48 178.497 61.488 179.009 60.336C179.441 61.536 180.305 62.576 181.681 63.12C183.009 62.544 183.889 61.456 184.337 60.288C184.817 61.488 185.809 62.48 187.217 62.992L187.873 62C186.049 61.392 184.993 59.92 184.993 58.432V57.664ZM191.456 51.296H196.816V50.208H190.144V59.632H191.28C193.984 59.632 195.872 59.536 198.064 59.12L197.92 58.032C195.84 58.4 194 58.512 191.456 58.512V51.296ZM202.944 54.496H200.576V48.832H199.264V63.216H200.576V55.584H202.944V54.496ZM206.782 53.536C206.782 51.888 208.462 50.816 210.75 50.816C213.038 50.816 214.702 51.888 214.702 53.536C214.702 55.184 213.038 56.256 210.75 56.256C208.462 56.256 206.782 55.184 206.782 53.536ZM211.406 60.256V57.264C214.078 57.072 215.95 55.648 215.95 53.536C215.95 51.248 213.774 49.776 210.75 49.776C207.71 49.776 205.518 51.248 205.518 53.536C205.518 55.648 207.406 57.072 210.078 57.264V60.256H204.238V61.344H217.278V60.256H211.406ZM220.648 62.1172C221.297 62.1172 221.789 61.6172 221.789 60.9844C221.789 60.3438 221.297 59.8438 220.648 59.8438C220 59.8438 219.5 60.3438 219.5 60.9844C219.5 61.6172 220 62.1172 220.648 62.1172Z" fill="black"/>
</svg>
