<svg width="302" height="55" viewBox="0 0 302 55" fill="none" xmlns="http://www.w3.org/2000/svg">
<path d="M51.8041 8.56V1.46H49.4841V3.32H42.1641V1.48H39.8241V8.56H51.8041ZM47.1441 14.68V11.76H53.8641V9.92H37.7641V11.76H44.8041V14.68H47.1441ZM51.9841 18.1V16.26H42.1641V13.1H39.8241V18.1H51.9841ZM49.4841 6.7H42.1641V5.14H49.4841V6.7ZM67.4688 5.2V7.04H65.0088V8.88H67.4688V11.14H69.7888V0.759999H67.4688V3.36H65.0287V5.2H67.4688ZM64.0288 10.08V2.04H55.7887V10.08H64.0288ZM61.7288 8.28H58.0888V3.84H61.7288V8.28ZM69.9288 14.98C69.9288 12.74 67.6888 11.36 63.7888 11.36C59.9488 11.36 57.7288 12.74 57.7288 14.98C57.7288 17.16 59.9488 18.58 63.7888 18.58C67.6888 18.58 69.9288 17.16 69.9288 14.98ZM63.7888 13.22C66.1688 13.22 67.5088 13.9 67.5088 14.98C67.5088 16.04 66.1688 16.7 63.7888 16.7C61.5088 16.7 60.1088 16.04 60.1088 14.98C60.1088 13.9 61.5088 13.22 63.7888 13.22ZM93.7273 16.06V14.22H77.6273V16.06H93.7273ZM91.6873 2.58H79.4673V4.42H89.3473C89.3673 7.36 88.9873 11.16 88.5873 12.94L90.8673 13.16C91.2873 10.94 91.6873 7.64 91.6873 2.58ZM110.092 18.58V0.759999H107.852V7.78H106.272V1.08H104.072V17.76H106.272V9.64H107.852V18.58H110.092ZM97.792 12.44V4.72C99.272 4.72 100.732 4.74 102.192 4.74V2.88H95.452V14.36H97.152C99.212 14.36 101.832 14.24 103.172 13.88L102.952 12.04C101.752 12.34 99.612 12.5 97.792 12.44ZM133.591 13.5V11.64H126.671V10.82C129.731 10.6 131.171 9.58 131.171 8.22C131.171 6.78 129.391 5.62 125.551 5.62C121.711 5.62 119.911 6.78 119.911 8.22C119.911 9.56 121.331 10.58 124.331 10.8V11.64H117.491V13.5H133.591ZM131.751 18.22V16.38H121.851V14.2H119.531V18.22H131.751ZM132.611 5.18V3.4H118.471V5.18H132.611ZM122.371 2.74H128.671V1.02H122.371V2.74ZM128.731 8.24C128.731 8.74 127.811 9.22 125.551 9.22C123.311 9.22 122.371 8.74 122.371 8.24C122.371 7.72 123.311 7.28 125.551 7.28C127.811 7.28 128.731 7.72 128.731 8.24ZM145.555 12.74C142.875 11.26 141.155 8.72 141.155 4.96V4.5H144.635V2.58H135.135V4.5H138.735V4.98C138.735 8.72 137.175 11.46 134.215 13.08L135.655 14.82C137.735 13.8 139.535 11.42 139.975 9.6C140.495 11.32 142.615 13.62 144.255 14.44L145.555 12.74ZM148.735 0.759999H146.395V18.58H148.735V9.56H151.275V7.62H148.735V0.759999ZM166.86 18.58V0.759999H164.5V6.78H161.28V8.76H164.5V18.58H166.86ZM162.94 12.86C160.26 11.14 158.66 8.38 158.66 4.86V2.26H156.26V4.98C156.26 8.52 154.7 11.34 151.84 13.2L153.24 14.92C155.1 13.92 156.92 11.66 157.5 9.62C158.1 11.48 160.12 13.72 161.6 14.62L162.94 12.86ZM185.619 13.16C182.939 11.7 181.219 9.16 181.219 5.4V4.5H184.679V2.58H175.199V4.5H178.779V5.42C178.779 9.16 177.239 11.88 174.259 13.52L175.719 15.24C177.799 14.24 179.579 11.84 180.019 10.04C180.539 11.76 182.679 14.04 184.299 14.88L185.619 13.16ZM189.399 18.58V0.759999H187.059V6.9H184.059V8.88H187.059V18.58H189.399ZM193.683 13.06V14.94H203.743V18.6H206.063V13.06H201.143V11.86H208.063V10H191.963V11.86H198.803V13.06H193.683ZM207.363 7.46C204.743 7.46 202.203 6.5 201.463 5.28H206.483V3.46H193.543V5.28H198.623C197.903 6.5 195.463 7.44 192.583 7.42L193.543 9.32C196.403 9.22 199.003 8.1 200.003 6.64C201.043 8.04 203.843 9.22 206.463 9.38L207.363 7.46ZM197.043 2.72H202.963V0.879999H197.043V2.72ZM225.368 10.14V8.28H209.268V10.14H225.368ZM223.888 18.5V16.58H213.528V15.6H223.248V11.12H211.208V12.94H220.928V13.96H211.188V18.5H223.888ZM213.468 4.22C213.468 3.4 214.868 2.8 217.348 2.8C219.828 2.8 221.248 3.4 221.248 4.22C221.248 5.02 219.828 5.66 217.348 5.66C214.868 5.66 213.468 5.02 213.468 4.22ZM211.048 4.22C211.048 6.14 213.308 7.42 217.348 7.42C221.368 7.42 223.648 6.14 223.648 4.22C223.648 2.28 221.368 1.02 217.348 1.02C213.308 1.02 211.048 2.28 211.048 4.22ZM242.087 6.86V5H231.747V6.86H242.087ZM234.247 3.76H239.747V1.92H234.247V3.76ZM245.767 0.759999H243.407V18.58H245.767V9.92H248.247V7.98H245.767V0.759999ZM232.627 11.32C232.627 13.58 234.367 15.16 236.927 15.16C239.487 15.16 241.227 13.5 241.227 11.32C241.227 9.08 239.487 7.48 236.927 7.48C234.367 7.48 232.627 9.14 232.627 11.32ZM234.907 11.32C234.907 10.14 235.767 9.36 236.927 9.36C238.087 9.36 238.947 10.14 238.947 11.32C238.947 12.48 238.227 13.26 236.927 13.26C235.747 13.26 234.907 12.48 234.907 11.32ZM263.051 0.759999H260.711V18.58H263.051V9.42H265.611V7.48H263.051V0.759999ZM252.131 12.52V4.28H257.951V2.4H249.811V14.44H251.531C255.011 14.44 257.711 14.28 259.431 13.84C259.331 13.24 259.271 12.6 259.171 11.98C257.151 12.44 254.671 12.52 252.131 12.52ZM3.74492 42.16C3.74492 40.9 4.70492 39.88 6.30492 39.88C7.92492 39.88 8.88492 40.9 8.88492 42.16C8.88492 43.48 7.92492 44.5 6.30492 44.5C4.70492 44.5 3.74492 43.48 3.74492 42.16ZM15.6849 36.76H13.3649V54.58H15.6849V36.76ZM1.34492 42.18C1.34492 44.66 3.30492 46.46 6.30492 46.46C9.32492 46.46 11.2449 44.66 11.2449 42.18C11.2449 39.68 9.32492 37.9 6.30492 37.9C3.30492 37.9 1.34492 39.68 1.34492 42.18ZM12.6249 50.02L12.4249 48.14C10.8449 48.34 8.68492 48.5 6.46492 48.58C4.44492 48.66 2.72492 48.68 0.664922 48.68L1.00492 50.68C2.50492 50.7 4.62492 50.62 6.60492 50.54C8.50492 50.44 10.9249 50.24 12.6249 50.02ZM29.0896 48.52C26.4096 47.14 24.7096 44.66 24.7096 40.9V40.44H28.1496V38.58H18.6896V40.44H22.2496V40.92C22.2496 44.66 20.7896 47.42 17.7896 49.02L19.1896 50.76C21.2696 49.74 23.0696 47.36 23.4896 45.56C24.0296 47.28 26.2096 49.54 27.7896 50.34L29.0896 48.52ZM32.6896 54.58V36.76H30.3496V54.58H32.6896ZM51.7543 45.54V43.6H49.1743V36.76H46.8543V54.58H49.1743V45.54H51.7543ZM44.4943 38.58H36.1743V40.52H41.9543C41.6343 44.08 38.9743 47.82 35.0943 49.6L36.5143 51.36C41.9743 48.4 44.3343 43.96 44.4943 38.58ZM73.3729 54.44V52.56H63.1929V51.34H72.8329V46.56H60.7329V48.42H70.4929V49.66H60.8329V54.44H73.3729ZM67.9529 42.2H70.5729V45.64H72.8329V36.76H70.5729V40.4H67.9529V42.2ZM60.2729 43.58V39.5H62.6529V37.64H58.0329V45.38C60.3329 45.38 62.1129 45.16 63.1929 44.92L62.9529 43.28C62.0929 43.44 61.0529 43.54 60.2729 43.58ZM65.8529 43.58V39.5H68.5329V37.64H63.6329V45.4C65.9729 45.4 68.1129 45.22 69.3129 44.98L69.0729 43.3C68.1329 43.48 66.8729 43.58 65.8529 43.58ZM75.2376 44.36C75.2376 48.1 76.9376 50.7 79.8376 50.7C82.4976 50.7 84.1376 48.5 84.3976 45.28H87.5176V54.58H89.8576V36.76H87.5176V43.3H84.3776C84.0976 40.12 82.4776 37.98 79.8376 37.98C76.9376 37.98 75.2376 40.6 75.2376 44.36ZM82.1976 44.36C82.1976 47.16 81.2176 48.82 79.8376 48.82C78.4976 48.82 77.5176 47.16 77.5176 44.36C77.5176 41.54 78.4976 39.86 79.8376 39.86C81.2176 39.86 82.1976 41.54 82.1976 44.36ZM103.302 49.2C100.622 47.74 98.9823 45.18 98.9823 41.42V40.3H102.442V38.4H92.9623V40.3H96.5423V41.44C96.5423 45.18 95.0023 47.9 92.0223 49.54L93.4823 51.26C95.5623 50.26 97.3423 47.86 97.7823 46.06C98.3023 47.78 100.382 50.08 102.002 50.92L103.302 49.2ZM102.042 43.1H104.822V45.34H102.042V47.2H104.822V54.58H107.162V36.76H104.822V41.24H102.042V43.1ZM131.081 52.06V50.22H114.981V52.06H131.081ZM129.041 38.58H116.821V40.42H126.701C126.721 43.36 126.341 47.16 125.941 48.94L128.221 49.16C128.641 46.94 129.041 43.64 129.041 38.58ZM146.226 36.76H143.846V49.68H146.226V43.78H148.766V41.84H146.226V36.76ZM146.646 54.06V52.2H137.006V48.36H134.666V54.06H146.646ZM141.146 46.52V38.12H132.806V46.52H141.146ZM138.826 44.68H135.126V39.94H138.826V44.68ZM163.83 43.88V42.02H154.07V39.24H163.67V37.36H151.73V43.88H163.83ZM158.99 50.64V47.46H165.69V45.6H149.59V47.46H156.65V50.64H158.99ZM163.83 54.12V52.26H153.99V49H151.65V54.12H163.83ZM187.009 50.96C187.009 48.74 184.769 47.34 180.889 47.34C177.049 47.34 174.829 48.74 174.829 50.96C174.829 53.16 177.049 54.58 180.889 54.58C184.769 54.58 187.009 53.16 187.009 50.96ZM186.889 47.1V36.76H184.549V39.78H181.529V41.62H184.549V43.38H181.289V45.16H184.549V47.1H186.889ZM184.589 50.96C184.589 52.06 183.269 52.7 180.889 52.7C178.609 52.7 177.269 52.06 177.269 50.96C177.269 49.88 178.609 49.2 180.889 49.2C183.269 49.2 184.589 49.88 184.589 50.96ZM181.269 37.92H172.989V39.86H178.669C178.029 42.8 175.249 44.66 172.129 45.36L173.369 47.24C178.029 45.78 181.069 42.86 181.269 37.92ZM204.194 54.36V48.74H192.234V54.36H204.194ZM201.854 52.52H194.594V50.54H201.854V52.52ZM204.194 47.9V36.76H201.854V42.62H199.374V44.5H201.854V47.9H204.194ZM199.674 41.6V39.8H189.314V41.6H199.674ZM198.734 45C198.734 43.24 196.894 42.06 194.474 42.06C192.014 42.06 190.214 43.24 190.214 45C190.214 46.76 192.034 47.94 194.474 47.94C196.894 47.94 198.734 46.76 198.734 45ZM196.394 45C196.394 45.72 195.534 46.24 194.474 46.24C193.414 46.24 192.534 45.72 192.534 45C192.534 44.28 193.394 43.74 194.474 43.74C195.534 43.74 196.394 44.28 196.394 45ZM191.894 39.02H197.174V37.18H191.894V39.02ZM221.478 54.58V36.76H219.158V54.58H221.478ZM207.258 44.36C207.258 48.1 208.958 50.7 211.858 50.7C214.778 50.7 216.478 48.08 216.478 44.36C216.478 40.6 214.778 37.98 211.858 37.98C208.958 37.98 207.258 40.6 207.258 44.36ZM214.238 44.36C214.238 47.16 213.238 48.82 211.858 48.82C210.518 48.82 209.538 47.16 209.538 44.36C209.538 41.54 210.518 39.86 211.858 39.86C213.238 39.86 214.238 41.54 214.238 44.36ZM239.337 42.02C239.337 39.52 237.237 37.72 234.597 37.72C231.957 37.72 229.877 39.56 229.877 42.02C229.877 44.52 231.997 46.18 234.597 46.18C237.257 46.18 239.337 44.52 239.337 42.02ZM244.237 54.62L245.617 52.9C243.797 52.26 242.377 50.48 242.377 48.28V47.5H240.077V48.28C240.077 50.52 238.877 52.38 236.757 53.36C237.277 53.88 237.757 54.42 238.277 54.96C239.757 54.26 240.937 52.68 241.257 51.52C241.657 52.66 243.117 54.14 244.237 54.62ZM241.697 36.76V46.68H244.037V36.76H241.697ZM236.577 52.82L238.017 51.24C236.857 50.8 235.897 49.66 235.897 48.06V47.56H233.617V48.12C233.617 50.4 232.237 52.1 230.177 53L231.557 54.7C232.977 54.14 234.477 52.5 234.917 51.16C235.197 51.8 235.997 52.54 236.577 52.82ZM237.077 42C237.077 43.32 236.037 44.38 234.597 44.38C233.157 44.38 232.137 43.36 232.137 42C232.137 40.74 233.117 39.66 234.597 39.66C236.157 39.66 237.077 40.7 237.077 42ZM262.721 46.14V44.28H246.621V46.14H262.721ZM261.241 54.5V52.58H250.881V51.6H260.601V47.12H248.561V48.94H258.281V49.96H248.541V54.5H261.241ZM250.821 40.22C250.821 39.4 252.221 38.8 254.701 38.8C257.181 38.8 258.601 39.4 258.601 40.22C258.601 41.02 257.181 41.66 254.701 41.66C252.221 41.66 250.821 41.02 250.821 40.22ZM248.401 40.22C248.401 42.14 250.661 43.42 254.701 43.42C258.721 43.42 261.001 42.14 261.001 40.22C261.001 38.28 258.721 37.02 254.701 37.02C250.661 37.02 248.401 38.28 248.401 40.22ZM278.666 54.58V36.76H276.326V43.68H272.926V45.64H276.326V54.58H278.666ZM272.986 38.62H264.686V40.56H270.446C270.126 44.1 267.486 47.9 263.586 49.68L265.026 51.44C270.466 48.46 272.846 44 272.986 38.62ZM295.791 42.54C295.791 39.8 293.211 37.8 289.291 37.8C285.391 37.8 282.811 39.8 282.811 42.54C282.811 45.26 285.391 47.22 289.291 47.22C293.211 47.22 295.791 45.26 295.791 42.54ZM297.331 52.36V50.48H293.691V47.52L291.351 47.62V50.48H287.171V47.62L284.831 47.52V50.48H281.231V52.36H297.331ZM293.391 42.54C293.391 44.14 291.751 45.3 289.291 45.3C286.811 45.3 285.211 44.14 285.211 42.54C285.211 40.92 286.811 39.76 289.291 39.76C291.771 39.76 293.391 40.92 293.391 42.54ZM299.236 52.5H301.676V50.16H299.236V52.5Z" fill="white"/>
</svg>
