<svg width="365" height="88" viewBox="0 0 365 88" fill="none" xmlns="http://www.w3.org/2000/svg">
<path d="M0 0H353C359.627 0 365 5.37258 365 12V76C365 82.6274 359.627 88 353 88H12C5.37259 88 0 82.6274 0 76V0Z" fill="#F4F1FF"/>
<path d="M35.28 24.832V39.216H36.592V24.832H35.28ZM29.024 25.936C26.896 25.936 25.376 27.888 25.376 30.944C25.376 34 26.896 35.952 29.024 35.952C31.152 35.952 32.672 34 32.672 30.944C32.672 27.888 31.152 25.936 29.024 25.936ZM29.024 27.12C30.416 27.12 31.408 28.624 31.408 30.944C31.408 33.28 30.416 34.784 29.024 34.784C27.616 34.784 26.624 33.28 26.624 30.944C26.624 28.624 27.616 27.12 29.024 27.12ZM50.0628 32.72H51.3908V24.848H50.0628V27.648H47.3908V28.72H50.0628V32.72ZM47.6628 30.32C45.5828 30.672 43.8548 30.768 41.4548 30.768V29.072H46.4948V25.488H40.1268V26.512H45.1828V28.096H40.1588V31.792H41.2468C43.8068 31.792 45.5988 31.712 47.7748 31.344L47.6628 30.32ZM46.6868 38.224C44.9428 38.224 43.9668 37.84 43.9668 37.152C43.9668 36.464 44.9428 36.08 46.6868 36.08C48.4628 36.08 49.4388 36.464 49.4388 37.152C49.4388 37.84 48.4628 38.224 46.6868 38.224ZM46.6868 35.136C44.1748 35.136 42.7028 35.84 42.7028 37.152C42.7028 38.464 44.1748 39.168 46.6868 39.168C49.2308 39.168 50.7028 38.464 50.7028 37.152C50.7028 35.84 49.2308 35.136 46.6868 35.136ZM47.3588 33.52V32.176H46.0468V33.52H41.6948V34.528H51.6948V33.52H47.3588ZM62.2375 30.704H59.7575C60.2375 29.424 60.4455 28.064 60.4455 26.656H54.9095V27.728H59.1495C58.9095 30.736 57.3735 33.312 54.3015 35.152L55.0695 36.096C57.0535 34.912 58.4295 33.424 59.2935 31.76H62.2375V38.464H63.4855V25.216H62.2375V30.704ZM65.2295 24.832V39.184H66.4775V24.832H65.2295ZM77.5873 34.896C76.2913 34.896 75.3473 33.968 75.3473 32.688C75.3473 31.392 76.2913 30.464 77.5873 30.464C78.8993 30.464 79.8433 31.392 79.8433 32.688C79.8433 33.968 78.8993 34.896 77.5873 34.896ZM77.5873 29.376C75.5713 29.376 74.1153 30.752 74.1153 32.688C74.1153 34.64 75.5713 35.984 77.5873 35.984C79.6353 35.984 81.0913 34.64 81.0913 32.688C81.0913 30.752 79.6353 29.376 77.5873 29.376ZM78.2273 25.008H76.9153V27.136H73.2993V28.192H81.7633V27.136H78.2273V25.008ZM86.7873 30.736H84.4353V24.848H83.1233V39.184H84.4353V31.84H86.7873V30.736ZM89.97 26.224H88.674V35.552H89.81C92.002 35.552 94.194 35.392 96.642 34.896L96.482 33.808C94.162 34.272 92.034 34.448 89.97 34.448V26.224ZM101.442 30.56H99.138V24.832H97.826V39.184H99.138V31.648H101.442V30.56ZM107.473 25.888C105.249 25.888 103.633 27.248 103.633 29.264C103.633 31.264 105.249 32.64 107.473 32.64C109.713 32.64 111.313 31.264 111.313 29.264C111.313 27.248 109.713 25.888 107.473 25.888ZM107.473 27.008C108.961 27.008 110.033 27.92 110.033 29.264C110.033 30.592 108.961 31.52 107.473 31.52C106.001 31.52 104.913 30.592 104.913 29.264C104.913 27.92 106.001 27.008 107.473 27.008ZM113.201 24.832V39.216H114.513V24.832H113.201ZM103.073 36.064C105.665 36.064 109.137 36.032 112.369 35.44L112.257 34.464C109.121 34.944 105.521 34.96 102.913 34.96L103.073 36.064ZM126.087 28.576H128.791V27.504H126.103V25.36H124.839V27.504H122.135V28.576H124.839V29.232C124.839 31.584 123.719 34.08 121.783 35.216L122.567 36.208C123.975 35.376 124.983 33.776 125.479 31.952C126.007 33.664 127.015 35.104 128.423 35.888L129.175 34.912C127.255 33.856 126.087 31.52 126.087 29.232V28.576ZM132.887 24.832V30.624H130.999V25.152H129.767V38.48H130.999V31.712H132.887V39.184H134.151V24.832H132.887ZM147.125 32.256H148.453V24.832H147.125V27.232H143.061V28.288H147.125V32.256ZM144.933 30C142.853 30.416 140.965 30.544 138.773 30.544V25.52H137.461V31.648H138.565C140.933 31.648 142.869 31.52 145.109 31.088L144.933 30ZM140.533 37.936V36.384H148.453V32.928H139.205V33.984H147.141V35.376H139.237V38.992H148.965V37.936H140.533ZM154.596 34.816C153.444 34.816 152.724 33.36 152.724 31.008C152.724 28.704 153.444 27.248 154.596 27.248C155.716 27.248 156.452 28.704 156.452 31.008C156.452 33.36 155.716 34.816 154.596 34.816ZM159.444 30.416H157.636C157.476 27.712 156.324 26.032 154.596 26.032C152.724 26.032 151.524 27.952 151.524 31.008C151.524 34.112 152.724 36.032 154.596 36.032C156.356 36.032 157.524 34.304 157.636 31.488H159.444V38.48H160.692V25.152H159.444V30.416ZM162.292 24.832V39.184H163.54V24.832H162.292ZM177.571 29.152H169.123V25.36H167.811V30.224H177.571V29.152ZM169.027 34.64H167.715V38.832H177.651V37.76H169.027V34.64ZM166.051 32.144V33.2H179.059V32.144H166.051ZM189.369 34.896C188.073 34.896 187.129 33.968 187.129 32.688C187.129 31.392 188.073 30.464 189.369 30.464C190.681 30.464 191.625 31.392 191.625 32.688C191.625 33.968 190.681 34.896 189.369 34.896ZM189.369 29.376C187.353 29.376 185.897 30.752 185.897 32.688C185.897 34.64 187.353 35.984 189.369 35.984C191.417 35.984 192.873 34.64 192.873 32.688C192.873 30.752 191.417 29.376 189.369 29.376ZM190.009 25.008H188.697V27.136H185.081V28.192H193.545V27.136H190.009V25.008ZM198.569 30.736H196.217V24.848H194.905V39.184H196.217V31.84H198.569V30.736ZM201.751 26.224H200.455V35.552H201.591C203.783 35.552 205.975 35.392 208.423 34.896L208.263 33.808C205.943 34.272 203.815 34.448 201.751 34.448V26.224ZM213.223 30.56H210.919V24.832H209.607V39.184H210.919V31.648H213.223V30.56ZM219.254 25.888C217.03 25.888 215.414 27.248 215.414 29.264C215.414 31.264 217.03 32.64 219.254 32.64C221.494 32.64 223.094 31.264 223.094 29.264C223.094 27.248 221.494 25.888 219.254 25.888ZM219.254 27.008C220.742 27.008 221.814 27.92 221.814 29.264C221.814 30.592 220.742 31.52 219.254 31.52C217.782 31.52 216.694 30.592 216.694 29.264C216.694 27.92 217.782 27.008 219.254 27.008ZM224.982 24.832V39.216H226.294V24.832H224.982ZM214.854 36.064C217.446 36.064 220.918 36.032 224.15 35.44L224.038 34.464C220.902 34.944 217.302 34.96 214.694 34.96L214.854 36.064ZM244.124 24.832V39.216H245.436V24.832H244.124ZM237.868 25.936C235.74 25.936 234.22 27.888 234.22 30.944C234.22 34 235.74 35.952 237.868 35.952C239.996 35.952 241.516 34 241.516 30.944C241.516 27.888 239.996 25.936 237.868 25.936ZM237.868 27.12C239.26 27.12 240.252 28.624 240.252 30.944C240.252 33.28 239.26 34.784 237.868 34.784C236.46 34.784 235.468 33.28 235.468 30.944C235.468 28.624 236.46 27.12 237.868 27.12ZM252.235 34.784C250.843 34.784 249.867 33.264 249.867 30.928C249.867 28.624 250.843 27.12 252.235 27.12C253.611 27.12 254.587 28.624 254.587 30.928C254.587 33.264 253.611 34.784 252.235 34.784ZM252.235 25.936C250.123 25.936 248.618 27.888 248.618 30.928C248.618 34 250.123 35.952 252.235 35.952C254.347 35.952 255.835 34 255.835 30.928C255.835 27.888 254.347 25.936 252.235 25.936ZM261.739 29.536V28.448H259.451V24.848H258.139V39.184H259.451V33.808H261.739V32.72H259.451V29.536H261.739ZM263.977 26.384V27.44H269.369C269.097 30.848 267.177 33.6 263.321 35.44L264.025 36.512C268.793 34.176 270.697 30.528 270.697 26.384H263.977ZM273.593 24.832V39.184H274.905V24.832H273.593ZM283.752 31.712H279.72V27.168H283.752V31.712ZM285.032 26.112H278.44V32.752H285.032V26.112ZM281.368 34.352H280.056V38.864H289.624V37.792H281.368V34.352ZM288.984 29.2V24.816H287.672V35.328H288.984V30.304H291.096V29.2H288.984ZM305.246 30.592C303.374 30.96 301.742 31.072 298.91 31.072V26.848H303.918V25.792H297.598V32.16H298.718C301.726 32.16 303.422 32.048 305.39 31.648L305.246 30.592ZM300.35 34.768H306.782V37.92H300.35V34.768ZM299.07 38.976H308.078V33.728H299.07V38.976ZM310.206 28.336H308.078V24.816H306.766V32.96H308.078V29.424H310.206V28.336ZM322.157 24.816V28.768H318.653C318.797 28 318.877 27.2 318.877 26.384H312.285V27.44H317.565C317.309 30.816 315.437 33.568 311.661 35.424L312.349 36.48C315.709 34.816 317.581 32.496 318.397 29.824H322.157V32.608H318.189V33.68H322.157V39.168H323.469V24.816H322.157ZM331.499 27.392H334.875V26.304H326.859V27.392H330.187V29.216C330.187 31.696 328.443 34.4 326.379 35.376L327.147 36.432C328.779 35.6 330.187 33.792 330.843 31.696C331.531 33.664 332.939 35.312 334.603 36.08L335.339 35.024C333.227 34.128 331.499 31.648 331.499 29.216V27.392ZM336.811 24.848V39.184H338.123V24.848H336.811ZM36.624 48.848H35.312V57.04H36.624V48.848ZM28.912 50.768C30.336 50.768 31.392 51.712 31.392 53.024C31.392 54.352 30.336 55.28 28.912 55.28C27.488 55.28 26.464 54.352 26.464 53.024C26.464 51.712 27.488 50.768 28.912 50.768ZM28.912 56.368C31.088 56.368 32.672 55.008 32.672 53.024C32.672 51.04 31.088 49.68 28.912 49.68C26.752 49.68 25.184 51.04 25.184 53.024C25.184 55.008 26.752 56.368 28.912 56.368ZM35.024 57.664H33.744V58.432C33.744 59.552 33.056 60.992 31.68 61.84C30.352 61.056 29.696 59.696 29.696 58.432V57.664H28.432V58.432C28.432 59.808 27.36 61.36 25.552 62L26.208 62.992C27.552 62.48 28.528 61.488 29.04 60.336C29.472 61.536 30.336 62.576 31.712 63.12C33.04 62.544 33.92 61.456 34.368 60.288C34.848 61.488 35.84 62.48 37.248 62.992L37.904 62C36.08 61.392 35.024 59.92 35.024 58.432V57.664ZM41.4868 51.296H46.8468V50.208H40.1748V59.632H41.3108C44.0148 59.632 45.9028 59.536 48.0948 59.12L47.9508 58.032C45.8708 58.4 44.0308 58.512 41.4868 58.512V51.296ZM52.9748 54.496H50.6068V48.832H49.2948V63.216H50.6068V55.584H52.9748V54.496ZM60.7655 62.16C58.5095 62.16 57.1815 61.6 57.1815 60.608C57.1815 59.632 58.5095 59.056 60.7655 59.056C63.0215 59.056 64.3495 59.632 64.3495 60.608C64.3495 61.6 63.0215 62.16 60.7655 62.16ZM60.7655 58.048C57.7095 58.048 55.8535 58.96 55.8535 60.608C55.8535 62.256 57.7095 63.168 60.7655 63.168C63.8375 63.168 65.6775 62.256 65.6775 60.608C65.6775 58.96 63.8375 58.048 60.7655 58.048ZM57.0695 51.84C57.0695 50.784 58.4935 50.16 60.7655 50.16C63.0375 50.16 64.4615 50.784 64.4615 51.84C64.4615 52.896 63.0375 53.52 60.7655 53.52C58.4935 53.52 57.0695 52.896 57.0695 51.84ZM61.4215 55.888V54.528C64.1255 54.384 65.8055 53.408 65.8055 51.84C65.8055 50.128 63.8695 49.12 60.7655 49.12C57.6615 49.12 55.7255 50.128 55.7255 51.84C55.7255 53.408 57.3895 54.384 60.1095 54.528V55.888H54.2855V56.944H67.2455V55.888H61.4215ZM70.6797 62.1172C71.3281 62.1172 71.8203 61.6172 71.8203 60.9844C71.8203 60.3438 71.3281 59.8438 70.6797 59.8438C70.0312 59.8438 69.5312 60.3438 69.5312 60.9844C69.5312 61.6172 70.0312 62.1172 70.6797 62.1172Z" fill="black"/>
</svg>
