<svg width="399" height="836" viewBox="0 0 399 836" fill="none" xmlns="http://www.w3.org/2000/svg">
<g clip-path="url(#clip0_110:5805)">
<rect width="375" height="812" transform="translate(12 12)" fill="white"/>
<rect x="133" y="811" width="134" height="5" rx="2.5" fill="black"/>
<path d="M175.517 438.944V423.704H173.693V438.944H175.517ZM171.053 434.168C168.557 433.28 165.725 430.688 165.725 427.184V424.904H163.877V427.232C163.877 430.592 161.165 433.664 158.405 434.888L159.509 436.328C161.789 435.176 164.213 432.752 164.837 430.496C165.701 432.704 167.861 434.696 170.021 435.632L171.053 434.168ZM175.973 444.032V442.52H163.805V437.576H161.981V444.032H175.973ZM198.658 433.712V432.176H195.274V423.704H193.45V444.68H195.274V433.712H198.658ZM191.458 438.176C188.554 436.472 185.914 433.04 185.914 429.224V425.552H184.042V429.272C184.042 432.992 181.57 436.76 178.522 438.632L179.698 440.048C182.17 438.32 184.21 435.656 184.954 433.04C185.794 435.584 188.146 438.08 190.306 439.568L191.458 438.176ZM218.848 441.656V440.12H208.96V432.536H207.136V440.12H199.912V441.656H218.848ZM216.304 425.888H201.856V427.424H214.408V429.464C214.408 432.224 214.144 435.392 213.664 437.36L215.464 437.648C216.088 434.984 216.28 431.72 216.304 428.528V425.888ZM237.046 440.6C237.046 438.248 234.622 436.592 230.086 436.592C225.526 436.592 223.15 438.2 223.15 440.6C223.15 442.976 225.526 444.584 230.086 444.584C234.622 444.584 237.046 442.952 237.046 440.6ZM235.15 440.6C235.15 442.16 233.254 443.144 230.086 443.144C226.918 443.144 225.046 442.136 225.046 440.6C225.046 439.088 226.918 438.056 230.086 438.056C233.254 438.056 235.15 439.04 235.15 440.6ZM239.974 431.336H236.782V428.36H239.974V426.824H236.782V423.704H234.958V436.352H236.782V432.872H239.974V431.336ZM232.702 431.624C230.254 432.176 226.918 432.464 223.342 432.512V425.096H221.494V434.072H223.342C226.702 434.024 230.518 433.664 232.942 433.136L232.702 431.624Z" fill="#111111"/>
<path d="M199 256.261C199 256.261 219.205 235.616 219.487 212.359C219.768 189.102 302.542 225.44 289.633 259.17C289.633 259.17 260.165 280.102 261.291 299" fill="#45207F"/>
<path d="M199 256.261C199 256.261 219.205 235.616 219.487 212.359C219.768 189.102 302.542 225.44 289.633 259.17C289.633 259.17 260.165 280.102 261.291 299" stroke="black" stroke-width="2" stroke-miterlimit="10"/>
<path d="M264 287.25C242.436 249.15 204.658 249 204.658 249L199 255.967C199 255.967 240.303 270.709 261.019 297L264 287.25Z" fill="#EAE1FF"/>
<path d="M251.968 317.416C251.968 317.416 285.442 327.426 261.175 297.122C236.908 266.818 195.069 250.137 182.232 256.254C169.396 262.372 169.401 271.823 251.968 317.416Z" fill="#45207F" stroke="black" stroke-width="2" stroke-miterlimit="10"/>
<path d="M224 382C224 382 228.432 358.832 249.749 369.188C271.066 379.544 275.784 362.463 275.784 362.463C275.784 362.463 278.543 348.127 264.332 347" stroke="black" stroke-width="5" stroke-miterlimit="10"/>
<path d="M219.43 348.565C219.43 348.565 240.171 348.234 246.111 333.825C252.051 319.417 249.419 306.828 249.419 306.828C224.557 260.642 182.222 272.095 182.222 272.095C182.222 272.095 160.69 242.539 152.152 250.298C143.615 258.057 155.123 302.397 155.123 302.397C155.123 302.397 149.413 329.27 159.948 338.606C159.948 338.606 169.982 348.645 183.527 348.057C183.527 348.057 172.796 357.813 171.687 382.826C171.687 383.056 171.527 383.304 171.664 383.494C172.09 383.94 172.6 384.299 173.165 384.55C179.283 388.001 198.377 387.846 198.377 387.846C198.377 387.846 228.078 389.414 228.819 382.544C231.296 359.678 219.43 348.548 219.43 348.548" fill="white"/>
<path d="M219.43 348.565C219.43 348.565 240.171 348.234 246.111 333.825C252.051 319.417 249.419 306.828 249.419 306.828C224.557 260.642 182.222 272.095 182.222 272.095C182.222 272.095 160.69 242.539 152.152 250.298C143.615 258.057 155.123 302.397 155.123 302.397C155.123 302.397 149.413 329.27 159.948 338.606C159.948 338.606 169.982 348.645 183.527 348.057C183.527 348.057 172.796 357.813 171.687 382.826C171.687 383.056 171.527 383.304 171.664 383.494C172.09 383.94 172.6 384.299 173.165 384.55C179.283 388.001 198.377 387.846 198.377 387.846C198.377 387.846 228.078 389.414 228.819 382.544C231.296 359.678 219.43 348.548 219.43 348.548" stroke="black" stroke-width="2" stroke-miterlimit="10"/>
<path d="M187.032 382C187.032 382 186.452 393.368 190.22 390.551C193.989 387.735 192.833 382 192.833 382" fill="white"/>
<path d="M187.032 382C187.032 382 186.452 393.368 190.22 390.551C193.989 387.735 192.833 382 192.833 382" stroke="black" stroke-width="2" stroke-miterlimit="10"/>
<path d="M205.037 383C205.037 383 204.361 394.368 208.761 391.551C213.16 388.735 211.802 383 211.802 383" fill="white"/>
<path d="M205.037 383C205.037 383 204.361 394.368 208.761 391.551C213.16 388.735 211.802 383 211.802 383" stroke="black" stroke-width="2" stroke-miterlimit="10"/>
<path d="M182 330C188.075 330 193 324.627 193 318C193 311.373 188.075 306 182 306C175.925 306 171 311.373 171 318C171 324.627 175.925 330 182 330Z" fill="white" stroke="black" stroke-width="2" stroke-miterlimit="10"/>
<path d="M221 331C227.075 331 232 325.627 232 319C232 312.373 227.075 307 221 307C214.925 307 210 312.373 210 319C210 325.627 214.925 331 221 331Z" fill="white" stroke="black" stroke-width="2" stroke-miterlimit="10"/>
<path d="M181.457 306.243C181.457 306.243 171.428 316.661 181.457 329C181.457 329 195.277 317.403 182.747 306" fill="#45207F"/>
<path d="M181.457 306.243C181.457 306.243 171.428 316.661 181.457 329C181.457 329 195.277 317.403 182.747 306" stroke="black" stroke-width="2" stroke-miterlimit="10"/>
<path d="M220.455 307.236C220.455 307.236 210.431 317.197 220.455 329C220.455 329 234.276 317.908 221.75 307" fill="#45207F"/>
<path d="M220.455 307.236C220.455 307.236 210.431 317.197 220.455 329C220.455 329 234.276 317.908 221.75 307" stroke="black" stroke-width="2" stroke-miterlimit="10"/>
<path d="M188 299L193 302" stroke="black" stroke-width="2" stroke-miterlimit="10"/>
<path d="M210 302L214 300" stroke="black" stroke-width="2" stroke-miterlimit="10"/>
<path d="M182.5 335C192.165 335 200 327.389 200 318C200 308.611 192.165 301 182.5 301C172.835 301 165 308.611 165 318C165 327.389 172.835 335 182.5 335Z" stroke="#45207F" stroke-width="2" stroke-miterlimit="10"/>
<path d="M165.069 320C165.069 320 163.358 361.981 177 357.692" stroke="#45207F" stroke-width="2" stroke-miterlimit="10"/>
<path d="M200.311 321.004C200.311 321.004 189.984 320.482 187 331.874C187 331.874 199.626 333.914 201 321.595" fill="black"/>
<path d="M215 331.901C215 331.901 212.004 320.906 200 321.001C200 321.001 202.307 334.839 214.665 332.794" fill="black"/>
<path d="M160.35 266L163.491 268.913L167.77 268.082L165.851 271.849L168 275.498L163.674 274.915L160.721 278L159.969 273.872L156 272.129L159.851 270.164L160.35 266Z" fill="#EAE1FF"/>
<g clip-path="url(#clip1_110:5805)">
<path d="M117 10H281V10C279.396 10.6334 278.327 12.1651 278.286 13.889L278.242 15.7472V15.7472C278.242 29.6939 266.936 41 252.989 41H145.011C131.064 41 119.758 29.6939 119.758 15.7472V15.7472L119.714 13.889C119.673 12.1651 118.604 10.6334 117 10V10Z" fill="black"/>
<path opacity="0.35" d="M345.667 29.833H362.334C363.53 29.833 364.5 30.8031 364.5 31.9997V37.9997C364.5 39.1963 363.53 40.1663 362.334 40.1663H345.667C344.47 40.1663 343.5 39.1963 343.5 37.9997V31.9997C343.5 30.8031 344.47 29.833 345.667 29.833Z" stroke="black"/>
<path opacity="0.4" d="M366 32.9995V36.9995C366.805 36.6607 367.328 35.8726 367.328 34.9995C367.328 34.1264 366.805 33.3383 366 32.9995" fill="black"/>
<path d="M345 32.433C345 31.8255 345.493 31.333 346.1 31.333H361.9C362.508 31.333 363 31.8255 363 32.433V37.5663C363 38.1739 362.508 38.6663 361.9 38.6663H346.1C345.493 38.6663 345 38.1739 345 37.5663V32.433Z" fill="black"/>
<path fill-rule="evenodd" clip-rule="evenodd" d="M330.331 31.6079C332.547 31.608 334.678 32.4594 336.284 33.9862C336.405 34.1041 336.598 34.1026 336.717 33.9829L337.873 32.8162C337.933 32.7555 337.967 32.6733 337.966 32.5877C337.966 32.5021 337.931 32.4202 337.87 32.3602C333.655 28.3207 327.005 28.3207 322.79 32.3602C322.729 32.4202 322.695 32.502 322.694 32.5876C322.694 32.6732 322.727 32.7555 322.787 32.8162L323.944 33.9829C324.063 34.1028 324.256 34.1043 324.377 33.9862C325.983 32.4593 328.115 31.6079 330.331 31.6079ZM330.331 35.4036C331.548 35.4035 332.722 35.856 333.625 36.6732C333.747 36.7892 333.939 36.7867 334.058 36.6676L335.213 35.5009C335.274 35.4397 335.307 35.3567 335.306 35.2704C335.305 35.1842 335.27 35.1018 335.208 35.0419C332.46 32.4855 328.204 32.4855 325.456 35.0419C325.394 35.1018 325.358 35.1842 325.357 35.2705C325.357 35.3568 325.39 35.4398 325.451 35.5009L326.606 36.6676C326.725 36.7867 326.917 36.7892 327.039 36.6732C327.941 35.8566 329.114 35.4041 330.331 35.4036ZM332.644 37.9574C332.645 38.0439 332.611 38.1273 332.55 38.1879L330.552 40.2036C330.494 40.2628 330.414 40.2961 330.331 40.2961C330.247 40.2961 330.168 40.2628 330.109 40.2036L328.111 38.1879C328.05 38.1272 328.016 38.0438 328.018 37.9573C328.019 37.8708 328.057 37.7889 328.121 37.7309C329.397 36.652 331.265 36.652 332.54 37.7309C332.605 37.7889 332.642 37.8709 332.644 37.9574Z" fill="black"/>
<path fill-rule="evenodd" clip-rule="evenodd" d="M316.667 29.6665H315.667C315.115 29.6665 314.667 30.1142 314.667 30.6665V39.3332C314.667 39.8855 315.115 40.3332 315.667 40.3332H316.667C317.219 40.3332 317.667 39.8855 317.667 39.3332V30.6665C317.667 30.1142 317.219 29.6665 316.667 29.6665ZM311 31.9998H312C312.553 31.9998 313 32.4476 313 32.9998V39.3332C313 39.8855 312.553 40.3332 312 40.3332H311C310.448 40.3332 310 39.8855 310 39.3332V32.9998C310 32.4476 310.448 31.9998 311 31.9998ZM307.334 34.3332H306.334C305.781 34.3332 305.334 34.7809 305.334 35.3332V39.3332C305.334 39.8855 305.781 40.3332 306.334 40.3332H307.334C307.886 40.3332 308.334 39.8855 308.334 39.3332V35.3332C308.334 34.7809 307.886 34.3332 307.334 34.3332ZM302.667 36.3332H301.667C301.115 36.3332 300.667 36.7809 300.667 37.3332V39.3332C300.667 39.8855 301.115 40.3332 301.667 40.3332H302.667C303.219 40.3332 303.667 39.8855 303.667 39.3332V37.3332C303.667 36.7809 303.219 36.3332 302.667 36.3332Z" fill="black"/>
<path d="M51.5146 29.1675C49.2222 29.1675 47.5889 30.7349 47.5889 32.8809V32.8955C47.5889 34.9023 49.0098 36.3818 51.0386 36.3818C52.4888 36.3818 53.4116 35.6421 53.7998 34.8071H53.9463C53.9463 34.8877 53.939 34.9683 53.939 35.0488C53.8584 37.0703 53.1479 38.7109 51.4707 38.7109C50.5405 38.7109 49.8887 38.2275 49.6104 37.4878L49.5884 37.4146H47.728L47.7427 37.4951C48.0796 39.1138 49.5298 40.2637 51.4707 40.2637C54.1294 40.2637 55.7334 38.1543 55.7334 34.5947V34.5801C55.7334 30.7715 53.7705 29.1675 51.5146 29.1675ZM51.5073 34.9316C50.3062 34.9316 49.4346 34.0527 49.4346 32.8296V32.8149C49.4346 31.6357 50.3647 30.7056 51.5293 30.7056C52.7012 30.7056 53.6167 31.6504 53.6167 32.8589V32.8735C53.6167 34.0674 52.7012 34.9316 51.5073 34.9316ZM58.5586 33.1519C59.2324 33.1519 59.7231 32.6392 59.7231 31.9946C59.7231 31.3428 59.2324 30.8374 58.5586 30.8374C57.8921 30.8374 57.394 31.3428 57.394 31.9946C57.394 32.6392 57.8921 33.1519 58.5586 33.1519ZM58.5586 38.5864C59.2324 38.5864 59.7231 38.0811 59.7231 37.4292C59.7231 36.7773 59.2324 36.272 58.5586 36.272C57.8921 36.272 57.394 36.7773 57.394 37.4292C57.394 38.0811 57.8921 38.5864 58.5586 38.5864ZM66.5107 40H68.3198V37.9712H69.7407V36.4111H68.3198V29.4312H65.6465C64.2109 31.6138 62.7095 34.0454 61.3398 36.4258V37.9712H66.5107V40ZM63.0977 36.4551V36.3452C64.123 34.5508 65.3462 32.5952 66.4302 30.9399H66.54V36.4551H63.0977ZM73.6206 40H75.5103V29.4312H73.6279L70.8667 31.3721V33.1519L73.4961 31.2915H73.6206V40Z" fill="black"/>
</g>
</g>
<rect x="6" y="6" width="387" height="824" rx="46" stroke="#3C3C3C" stroke-width="12"/>
<defs>
<clipPath id="clip0_110:5805">
<rect width="375" height="812" fill="white" transform="translate(12 12)"/>
</clipPath>
<clipPath id="clip1_110:5805">
<rect width="375" height="44" fill="white" transform="translate(11 12)"/>
</clipPath>
</defs>
</svg>
