<svg width="399" height="836" viewBox="0 0 399 836" fill="none" xmlns="http://www.w3.org/2000/svg">
<g clip-path="url(#clip0_112:8339)">
<rect width="375" height="812" transform="translate(12 12)" fill="white"/>
<rect x="133" y="811" width="134" height="5" rx="2.5" fill="black"/>
<path d="M175.517 438.944V423.704H173.693V438.944H175.517ZM171.053 434.168C168.557 433.28 165.725 430.688 165.725 427.184V424.904H163.877V427.232C163.877 430.592 161.165 433.664 158.405 434.888L159.509 436.328C161.789 435.176 164.213 432.752 164.837 430.496C165.701 432.704 167.861 434.696 170.021 435.632L171.053 434.168ZM175.973 444.032V442.52H163.805V437.576H161.981V444.032H175.973ZM198.658 433.712V432.176H195.274V423.704H193.45V444.68H195.274V433.712H198.658ZM191.458 438.176C188.554 436.472 185.914 433.04 185.914 429.224V425.552H184.042V429.272C184.042 432.992 181.57 436.76 178.522 438.632L179.698 440.048C182.17 438.32 184.21 435.656 184.954 433.04C185.794 435.584 188.146 438.08 190.306 439.568L191.458 438.176ZM218.848 441.656V440.12H208.96V432.536H207.136V440.12H199.912V441.656H218.848ZM216.304 425.888H201.856V427.424H214.408V429.464C214.408 432.224 214.144 435.392 213.664 437.36L215.464 437.648C216.088 434.984 216.28 431.72 216.304 428.528V425.888ZM237.046 440.6C237.046 438.248 234.622 436.592 230.086 436.592C225.526 436.592 223.15 438.2 223.15 440.6C223.15 442.976 225.526 444.584 230.086 444.584C234.622 444.584 237.046 442.952 237.046 440.6ZM235.15 440.6C235.15 442.16 233.254 443.144 230.086 443.144C226.918 443.144 225.046 442.136 225.046 440.6C225.046 439.088 226.918 438.056 230.086 438.056C233.254 438.056 235.15 439.04 235.15 440.6ZM239.974 431.336H236.782V428.36H239.974V426.824H236.782V423.704H234.958V436.352H236.782V432.872H239.974V431.336ZM232.702 431.624C230.254 432.176 226.918 432.464 223.342 432.512V425.096H221.494V434.072H223.342C226.702 434.024 230.518 433.664 232.942 433.136L232.702 431.624Z" fill="#111111"/>
<g clip-path="url(#clip1_112:8339)">
<path d="M117 10H281V10C279.396 10.6334 278.327 12.1651 278.286 13.889L278.242 15.7472V15.7472C278.242 29.6939 266.936 41 252.989 41H145.011C131.064 41 119.758 29.6939 119.758 15.7472V15.7472L119.714 13.889C119.673 12.1651 118.604 10.6334 117 10V10Z" fill="black"/>
<path opacity="0.35" d="M345.667 29.8333H362.334C363.53 29.8333 364.5 30.8033 364.5 31.9999V37.9999C364.5 39.1965 363.53 40.1666 362.334 40.1666H345.667C344.47 40.1666 343.5 39.1965 343.5 37.9999V31.9999C343.5 30.8033 344.47 29.8333 345.667 29.8333Z" stroke="black"/>
<path opacity="0.4" d="M366 33V37C366.805 36.6612 367.328 35.8731 367.328 35C367.328 34.1269 366.805 33.3388 366 33" fill="black"/>
<path d="M345 32.4333C345 31.8257 345.493 31.3333 346.1 31.3333H361.9C362.508 31.3333 363 31.8257 363 32.4333V37.5666C363 38.1741 362.508 38.6666 361.9 38.6666H346.1C345.493 38.6666 345 38.1741 345 37.5666V32.4333Z" fill="black"/>
<path fill-rule="evenodd" clip-rule="evenodd" d="M330.331 31.6079C332.547 31.608 334.678 32.4594 336.284 33.9862C336.405 34.1041 336.598 34.1026 336.717 33.9829L337.873 32.8162C337.933 32.7555 337.967 32.6733 337.966 32.5877C337.966 32.5021 337.931 32.4202 337.87 32.3602C333.655 28.3207 327.005 28.3207 322.79 32.3602C322.729 32.4202 322.695 32.502 322.694 32.5876C322.694 32.6732 322.727 32.7555 322.787 32.8162L323.944 33.9829C324.063 34.1028 324.256 34.1043 324.377 33.9862C325.983 32.4593 328.115 31.6079 330.331 31.6079ZM330.331 35.4036C331.548 35.4035 332.722 35.856 333.625 36.6732C333.747 36.7892 333.939 36.7867 334.058 36.6676L335.213 35.5009C335.274 35.4397 335.307 35.3567 335.306 35.2704C335.305 35.1842 335.27 35.1018 335.208 35.0419C332.46 32.4855 328.204 32.4855 325.456 35.0419C325.394 35.1018 325.358 35.1842 325.357 35.2705C325.357 35.3568 325.39 35.4398 325.451 35.5009L326.606 36.6676C326.725 36.7867 326.917 36.7892 327.039 36.6732C327.941 35.8566 329.114 35.4041 330.331 35.4036ZM332.644 37.9574C332.645 38.0439 332.611 38.1273 332.55 38.1879L330.552 40.2036C330.494 40.2628 330.414 40.2961 330.331 40.2961C330.247 40.2961 330.168 40.2628 330.109 40.2036L328.111 38.1879C328.05 38.1272 328.016 38.0438 328.018 37.9573C328.019 37.8708 328.057 37.7889 328.121 37.7309C329.397 36.652 331.265 36.652 332.54 37.7309C332.605 37.7889 332.642 37.8709 332.644 37.9574Z" fill="black"/>
<path fill-rule="evenodd" clip-rule="evenodd" d="M316.667 29.6665H315.667C315.115 29.6665 314.667 30.1142 314.667 30.6665V39.3332C314.667 39.8855 315.115 40.3332 315.667 40.3332H316.667C317.219 40.3332 317.667 39.8855 317.667 39.3332V30.6665C317.667 30.1142 317.219 29.6665 316.667 29.6665ZM311 31.9998H312C312.553 31.9998 313 32.4476 313 32.9998V39.3332C313 39.8855 312.553 40.3332 312 40.3332H311C310.448 40.3332 310 39.8855 310 39.3332V32.9998C310 32.4476 310.448 31.9998 311 31.9998ZM307.334 34.3332H306.334C305.781 34.3332 305.334 34.7809 305.334 35.3332V39.3332C305.334 39.8855 305.781 40.3332 306.334 40.3332H307.334C307.886 40.3332 308.334 39.8855 308.334 39.3332V35.3332C308.334 34.7809 307.886 34.3332 307.334 34.3332ZM302.667 36.3332H301.667C301.115 36.3332 300.667 36.7809 300.667 37.3332V39.3332C300.667 39.8855 301.115 40.3332 301.667 40.3332H302.667C303.219 40.3332 303.667 39.8855 303.667 39.3332V37.3332C303.667 36.7809 303.219 36.3332 302.667 36.3332Z" fill="black"/>
<path d="M51.5146 29.1675C49.2222 29.1675 47.5889 30.7349 47.5889 32.8809V32.8955C47.5889 34.9023 49.0098 36.3818 51.0386 36.3818C52.4888 36.3818 53.4116 35.6421 53.7998 34.8071H53.9463C53.9463 34.8877 53.939 34.9683 53.939 35.0488C53.8584 37.0703 53.1479 38.7109 51.4707 38.7109C50.5405 38.7109 49.8887 38.2275 49.6104 37.4878L49.5884 37.4146H47.728L47.7427 37.4951C48.0796 39.1138 49.5298 40.2637 51.4707 40.2637C54.1294 40.2637 55.7334 38.1543 55.7334 34.5947V34.5801C55.7334 30.7715 53.7705 29.1675 51.5146 29.1675ZM51.5073 34.9316C50.3062 34.9316 49.4346 34.0527 49.4346 32.8296V32.8149C49.4346 31.6357 50.3647 30.7056 51.5293 30.7056C52.7012 30.7056 53.6167 31.6504 53.6167 32.8589V32.8735C53.6167 34.0674 52.7012 34.9316 51.5073 34.9316ZM58.5586 33.1519C59.2324 33.1519 59.7231 32.6392 59.7231 31.9946C59.7231 31.3428 59.2324 30.8374 58.5586 30.8374C57.8921 30.8374 57.394 31.3428 57.394 31.9946C57.394 32.6392 57.8921 33.1519 58.5586 33.1519ZM58.5586 38.5864C59.2324 38.5864 59.7231 38.0811 59.7231 37.4292C59.7231 36.7773 59.2324 36.272 58.5586 36.272C57.8921 36.272 57.394 36.7773 57.394 37.4292C57.394 38.0811 57.8921 38.5864 58.5586 38.5864ZM66.5107 40H68.3198V37.9712H69.7407V36.4111H68.3198V29.4312H65.6465C64.2109 31.6138 62.7095 34.0454 61.3398 36.4258V37.9712H66.5107V40ZM63.0977 36.4551V36.3452C64.123 34.5508 65.3462 32.5952 66.4302 30.9399H66.54V36.4551H63.0977ZM73.6206 40H75.5103V29.4312H73.6279L70.8667 31.3721V33.1519L73.4961 31.2915H73.6206V40Z" fill="black"/>
</g>
</g>
<rect x="6" y="6" width="387" height="824" rx="46" stroke="#3C3C3C" stroke-width="12"/>
<path d="M201 256.715C201 256.715 220.766 236.29 221.037 213.281C221.308 190.271 302.288 226.222 289.664 259.593C289.664 259.593 260.836 280.303 261.938 299" fill="#45207F"/>
<path d="M201 256.715C201 256.715 220.766 236.29 221.037 213.281C221.308 190.271 302.288 226.222 289.664 259.593C289.664 259.593 260.836 280.303 261.938 299" stroke="black" stroke-width="2" stroke-miterlimit="10"/>
<path d="M264 287.247C243.101 249.15 206.487 249 206.487 249L201 255.975C201 255.975 241.03 270.714 261.107 297L264 287.247Z" fill="#EAE1FF"/>
<path d="M252.543 316.441C252.543 316.441 284.949 326.293 261.456 296.461C237.963 266.629 197.452 250.21 185.03 256.236C172.607 262.262 172.62 271.56 252.543 316.441Z" fill="#45207F" stroke="black" stroke-width="2" stroke-miterlimit="10"/>
<path d="M225 381C225 381 229.261 358.495 249.76 368.552C270.259 378.609 274.792 362.023 274.792 362.023C274.792 362.023 277.449 348.095 263.783 347" stroke="black" stroke-width="5" stroke-miterlimit="10"/>
<path d="M220.34 347.862C220.34 347.862 240.462 347.533 246.225 333.228C251.988 318.923 249.438 306.426 249.438 306.426C225.319 260.571 184.248 271.942 184.248 271.942C184.248 271.942 163.359 242.595 155.064 250.285C146.769 257.974 157.945 302.008 157.945 302.008C157.945 302.008 152.402 328.671 162.627 337.957C162.627 337.957 172.361 347.924 185.501 347.345C185.501 347.345 175.087 357.026 174.015 381.864C174.015 382.092 173.859 382.337 174.015 382.526C174.426 382.968 174.919 383.323 175.466 383.57C181.405 386.996 199.93 386.847 199.93 386.847C199.93 386.847 228.743 388.404 229.462 381.583C231.866 358.882 220.349 347.832 220.349 347.832" fill="white"/>
<path d="M220.34 347.862C220.34 347.862 240.462 347.533 246.225 333.228C251.988 318.923 249.438 306.426 249.438 306.426C225.319 260.571 184.248 271.942 184.248 271.942C184.248 271.942 163.359 242.595 155.064 250.285C146.769 257.974 157.945 302.008 157.945 302.008C157.945 302.008 152.402 328.671 162.627 337.957C162.627 337.957 172.361 347.924 185.501 347.345C185.501 347.345 175.087 357.026 174.015 381.864C174.015 382.092 173.859 382.337 174.015 382.526C174.426 382.968 174.919 383.323 175.466 383.57C181.405 386.996 199.93 386.847 199.93 386.847C199.93 386.847 228.743 388.404 229.462 381.583C231.866 358.882 220.349 347.832 220.349 347.832" stroke="black" stroke-width="2" stroke-miterlimit="10"/>
<path d="M189.032 381C189.032 381 188.453 392.367 192.216 389.552C195.979 386.736 194.837 381 194.837 381" fill="white"/>
<path d="M189.032 381C189.032 381 188.453 392.367 192.216 389.552C195.979 386.736 194.837 381 194.837 381" stroke="black" stroke-width="2" stroke-miterlimit="10"/>
<path d="M207.032 382C207.032 382 206.452 393.367 210.22 390.552C213.989 387.736 212.833 382 212.833 382" fill="white"/>
<path d="M207.032 382C207.032 382 206.452 393.367 210.22 390.552C213.989 387.736 212.833 382 212.833 382" stroke="black" stroke-width="2" stroke-miterlimit="10"/>
<path d="M184.5 330C190.299 330 195 324.627 195 318C195 311.373 190.299 306 184.5 306C178.701 306 174 311.373 174 318C174 324.627 178.701 330 184.5 330Z" fill="white" stroke="black" stroke-width="2" stroke-miterlimit="10"/>
<path d="M183.86 306.247C183.86 306.247 172.925 316.659 183.86 329C183.86 329 198.938 317.405 185.271 306" fill="#45207F"/>
<path d="M183.86 306.247C183.86 306.247 172.925 316.659 183.86 329C183.86 329 198.938 317.405 185.271 306" stroke="black" stroke-width="2" stroke-miterlimit="10"/>
<path d="M192 305L195 302" stroke="black" stroke-width="2" stroke-miterlimit="10"/>
<path d="M211 302L213 305" stroke="black" stroke-width="2" stroke-miterlimit="10"/>
<path d="M184.5 335C193.613 335 201 327.389 201 318C201 308.611 193.613 301 184.5 301C175.387 301 168 308.611 168 318C168 327.389 175.387 335 184.5 335Z" stroke="#45207F" stroke-width="2" stroke-miterlimit="10"/>
<path d="M168.063 319C168.063 319 166.499 360.981 179 356.692" stroke="#45207F" stroke-width="2" stroke-miterlimit="10"/>
<path d="M202.311 321.004C202.311 321.004 191.98 320.482 189 331.874C189 331.874 201.626 333.914 203 321.599" fill="black"/>
<path d="M216 330.993C216 330.993 213.204 320.914 202 321.001C202 321.001 204.154 333.683 215.683 331.812" fill="black"/>
<path d="M163.991 266L166.866 268.912L170.789 268.081L169.034 271.846L171 275.499L167.039 274.912L164.332 278L163.638 273.874L160 272.131L163.534 270.163L163.991 266Z" fill="#EAE1FF"/>
<path d="M222 330V348" stroke="#35A7ED" stroke-width="8" stroke-miterlimit="10"/>
<path d="M222.5 330C228.299 330 233 324.851 233 318.5C233 312.149 228.299 307 222.5 307C216.701 307 212 312.149 212 318.5C212 324.851 216.701 330 222.5 330Z" fill="white" stroke="black" stroke-width="2" stroke-miterlimit="10"/>
<path d="M221.457 307.231C221.457 307.231 211.429 317.197 221.457 329C221.457 329 235.277 317.908 222.747 307" fill="#45207F"/>
<path d="M221.457 307.231C221.457 307.231 211.429 317.197 221.457 329C221.457 329 235.277 317.908 222.747 307" stroke="black" stroke-width="2" stroke-miterlimit="10"/>
<path d="M247 337V338" stroke="black" stroke-width="0.75" stroke-miterlimit="10"/>
<path d="M251 327V328.409L250.508 329.537L250.155 330.905L249.332 332.449V332.986L248.553 334.338L248 335.483V336" stroke="black" stroke-miterlimit="10"/>
<path d="M244 341L243.269 341.542L242.543 342.079L241.812 342.727L241.082 343.269H240.559V343.916L239.935 344.458L239 345" stroke="black" stroke-miterlimit="10"/>
<path d="M238 345V346" stroke="black" stroke-width="0.5" stroke-miterlimit="10"/>
<path d="M155 302L154.032 304.515L153.513 309.236L152 313.459V316.349L153.503 318.518V323.287L155 328" stroke="black" stroke-miterlimit="10"/>
<path d="M155 332V333" stroke="black" stroke-width="0.5" stroke-miterlimit="10"/>
<path d="M149 266V268.001V269.285L149.556 272.331V273.171V275.571V277.14L150 277.908V278.713V281" stroke="black" stroke-miterlimit="10"/>
<path d="M149 262V260" stroke="black" stroke-width="0.75" stroke-miterlimit="10"/>
<path d="M150 253V251.159L151.601 248.979L154.296 247.525L156.35 247H158.276H159.631L161.488 247.507L164 248.526" stroke="black" stroke-miterlimit="10"/>
<path d="M165 249V250" stroke="black" stroke-width="0.5" stroke-miterlimit="10"/>
<path d="M166 250L167 251" stroke="black" stroke-width="0.5" stroke-miterlimit="10"/>
<defs>
<clipPath id="clip0_112:8339">
<rect width="375" height="812" fill="white" transform="translate(12 12)"/>
</clipPath>
<clipPath id="clip1_112:8339">
<rect width="375" height="44" fill="white" transform="translate(11 12)"/>
</clipPath>
</defs>
</svg>
