<svg width="399" height="836" viewBox="0 0 399 836" fill="none" xmlns="http://www.w3.org/2000/svg">
<g clip-path="url(#clip0_112:8340)">
<rect width="375" height="812" transform="translate(13 12)" fill="white"/>
<rect x="134" y="811" width="134" height="5" rx="2.5" fill="black"/>
<path d="M176.517 438.944V423.704H174.693V438.944H176.517ZM172.053 434.168C169.557 433.28 166.725 430.688 166.725 427.184V424.904H164.877V427.232C164.877 430.592 162.165 433.664 159.405 434.888L160.509 436.328C162.789 435.176 165.213 432.752 165.837 430.496C166.701 432.704 168.861 434.696 171.021 435.632L172.053 434.168ZM176.973 444.032V442.52H164.805V437.576H162.981V444.032H176.973ZM199.658 433.712V432.176H196.274V423.704H194.45V444.68H196.274V433.712H199.658ZM192.458 438.176C189.554 436.472 186.914 433.04 186.914 429.224V425.552H185.042V429.272C185.042 432.992 182.57 436.76 179.522 438.632L180.698 440.048C183.17 438.32 185.21 435.656 185.954 433.04C186.794 435.584 189.146 438.08 191.306 439.568L192.458 438.176ZM219.848 441.656V440.12H209.96V432.536H208.136V440.12H200.912V441.656H219.848ZM217.304 425.888H202.856V427.424H215.408V429.464C215.408 432.224 215.144 435.392 214.664 437.36L216.464 437.648C217.088 434.984 217.28 431.72 217.304 428.528V425.888ZM238.046 440.6C238.046 438.248 235.622 436.592 231.086 436.592C226.526 436.592 224.15 438.2 224.15 440.6C224.15 442.976 226.526 444.584 231.086 444.584C235.622 444.584 238.046 442.952 238.046 440.6ZM236.15 440.6C236.15 442.16 234.254 443.144 231.086 443.144C227.918 443.144 226.046 442.136 226.046 440.6C226.046 439.088 227.918 438.056 231.086 438.056C234.254 438.056 236.15 439.04 236.15 440.6ZM240.974 431.336H237.782V428.36H240.974V426.824H237.782V423.704H235.958V436.352H237.782V432.872H240.974V431.336ZM233.702 431.624C231.254 432.176 227.918 432.464 224.342 432.512V425.096H222.494V434.072H224.342C227.702 434.024 231.518 433.664 233.942 433.136L233.702 431.624Z" fill="#111111"/>
<g clip-path="url(#clip1_112:8340)">
<path d="M118 10H282V10C280.396 10.6334 279.327 12.1651 279.286 13.889L279.242 15.7472V15.7472C279.242 29.6939 267.936 41 253.989 41H146.011C132.064 41 120.758 29.6939 120.758 15.7472V15.7472L120.714 13.889C120.673 12.1651 119.604 10.6334 118 10V10Z" fill="black"/>
<path opacity="0.35" d="M346.667 29.8333H363.334C364.53 29.8333 365.5 30.8033 365.5 31.9999V37.9999C365.5 39.1965 364.53 40.1666 363.334 40.1666H346.667C345.47 40.1666 344.5 39.1965 344.5 37.9999V31.9999C344.5 30.8033 345.47 29.8333 346.667 29.8333Z" stroke="black"/>
<path opacity="0.4" d="M367 32.9999V36.9999C367.805 36.6611 368.328 35.873 368.328 34.9999C368.328 34.1267 367.805 33.3387 367 32.9999" fill="black"/>
<path d="M346 32.4333C346 31.8257 346.493 31.3333 347.1 31.3333H362.9C363.508 31.3333 364 31.8257 364 32.4333V37.5666C364 38.1741 363.508 38.6666 362.9 38.6666H347.1C346.493 38.6666 346 38.1741 346 37.5666V32.4333Z" fill="black"/>
<path fill-rule="evenodd" clip-rule="evenodd" d="M331.331 31.6079C333.547 31.608 335.678 32.4594 337.284 33.9862C337.405 34.1041 337.598 34.1026 337.717 33.9829L338.873 32.8162C338.933 32.7555 338.967 32.6733 338.966 32.5877C338.966 32.5021 338.931 32.4202 338.87 32.3602C334.655 28.3207 328.005 28.3207 323.79 32.3602C323.729 32.4202 323.695 32.502 323.694 32.5876C323.694 32.6732 323.727 32.7555 323.787 32.8162L324.944 33.9829C325.063 34.1028 325.256 34.1043 325.377 33.9862C326.983 32.4593 329.115 31.6079 331.331 31.6079ZM331.331 35.4036C332.548 35.4035 333.722 35.856 334.625 36.6732C334.747 36.7892 334.939 36.7867 335.058 36.6676L336.213 35.5009C336.274 35.4397 336.307 35.3567 336.306 35.2704C336.305 35.1842 336.27 35.1018 336.208 35.0419C333.46 32.4855 329.204 32.4855 326.456 35.0419C326.394 35.1018 326.358 35.1842 326.357 35.2705C326.357 35.3568 326.39 35.4398 326.451 35.5009L327.606 36.6676C327.725 36.7867 327.917 36.7892 328.039 36.6732C328.941 35.8566 330.114 35.4041 331.331 35.4036ZM333.644 37.9574C333.645 38.0439 333.611 38.1273 333.55 38.1879L331.552 40.2036C331.494 40.2628 331.414 40.2961 331.331 40.2961C331.247 40.2961 331.168 40.2628 331.109 40.2036L329.111 38.1879C329.05 38.1272 329.016 38.0438 329.018 37.9573C329.019 37.8708 329.057 37.7889 329.121 37.7309C330.397 36.652 332.265 36.652 333.54 37.7309C333.605 37.7889 333.642 37.8709 333.644 37.9574Z" fill="black"/>
<path fill-rule="evenodd" clip-rule="evenodd" d="M317.667 29.6665H316.667C316.115 29.6665 315.667 30.1142 315.667 30.6665V39.3332C315.667 39.8855 316.115 40.3332 316.667 40.3332H317.667C318.219 40.3332 318.667 39.8855 318.667 39.3332V30.6665C318.667 30.1142 318.219 29.6665 317.667 29.6665ZM312 31.9998H313C313.553 31.9998 314 32.4476 314 32.9998V39.3332C314 39.8855 313.553 40.3332 313 40.3332H312C311.448 40.3332 311 39.8855 311 39.3332V32.9998C311 32.4476 311.448 31.9998 312 31.9998ZM308.334 34.3332H307.334C306.781 34.3332 306.334 34.7809 306.334 35.3332V39.3332C306.334 39.8855 306.781 40.3332 307.334 40.3332H308.334C308.886 40.3332 309.334 39.8855 309.334 39.3332V35.3332C309.334 34.7809 308.886 34.3332 308.334 34.3332ZM303.667 36.3332H302.667C302.115 36.3332 301.667 36.7809 301.667 37.3332V39.3332C301.667 39.8855 302.115 40.3332 302.667 40.3332H303.667C304.219 40.3332 304.667 39.8855 304.667 39.3332V37.3332C304.667 36.7809 304.219 36.3332 303.667 36.3332Z" fill="black"/>
<path d="M52.5146 29.1675C50.2222 29.1675 48.5889 30.7349 48.5889 32.8809V32.8955C48.5889 34.9023 50.0098 36.3818 52.0386 36.3818C53.4888 36.3818 54.4116 35.6421 54.7998 34.8071H54.9463C54.9463 34.8877 54.939 34.9683 54.939 35.0488C54.8584 37.0703 54.1479 38.7109 52.4707 38.7109C51.5405 38.7109 50.8887 38.2275 50.6104 37.4878L50.5884 37.4146H48.728L48.7427 37.4951C49.0796 39.1138 50.5298 40.2637 52.4707 40.2637C55.1294 40.2637 56.7334 38.1543 56.7334 34.5947V34.5801C56.7334 30.7715 54.7705 29.1675 52.5146 29.1675ZM52.5073 34.9316C51.3062 34.9316 50.4346 34.0527 50.4346 32.8296V32.8149C50.4346 31.6357 51.3647 30.7056 52.5293 30.7056C53.7012 30.7056 54.6167 31.6504 54.6167 32.8589V32.8735C54.6167 34.0674 53.7012 34.9316 52.5073 34.9316ZM59.5586 33.1519C60.2324 33.1519 60.7231 32.6392 60.7231 31.9946C60.7231 31.3428 60.2324 30.8374 59.5586 30.8374C58.8921 30.8374 58.394 31.3428 58.394 31.9946C58.394 32.6392 58.8921 33.1519 59.5586 33.1519ZM59.5586 38.5864C60.2324 38.5864 60.7231 38.0811 60.7231 37.4292C60.7231 36.7773 60.2324 36.272 59.5586 36.272C58.8921 36.272 58.394 36.7773 58.394 37.4292C58.394 38.0811 58.8921 38.5864 59.5586 38.5864ZM67.5107 40H69.3198V37.9712H70.7407V36.4111H69.3198V29.4312H66.6465C65.2109 31.6138 63.7095 34.0454 62.3398 36.4258V37.9712H67.5107V40ZM64.0977 36.4551V36.3452C65.123 34.5508 66.3462 32.5952 67.4302 30.9399H67.54V36.4551H64.0977ZM74.6206 40H76.5103V29.4312H74.6279L71.8667 31.3721V33.1519L74.4961 31.2915H74.6206V40Z" fill="black"/>
</g>
<path d="M200 256.247C200 256.247 220.202 235.613 220.484 212.358C220.765 189.103 303.539 225.439 290.634 259.177C290.634 259.177 261.165 280.107 262.295 299" fill="#45207F"/>
<path d="M200 256.247C200 256.247 220.202 235.613 220.484 212.358C220.765 189.103 303.539 225.439 290.634 259.177C290.634 259.177 261.165 280.107 262.295 299" stroke="black" stroke-width="2" stroke-miterlimit="10"/>
<path d="M265 287.246C243.765 249.15 206.575 249 206.575 249L201 255.971C201 255.971 241.661 270.712 262.061 297L265 287.246Z" fill="#EAE1FF"/>
<path d="M252.162 317.416C252.162 317.416 285.279 327.425 261.266 297.123C237.253 266.821 195.859 250.137 183.164 256.254C170.469 262.371 170.469 271.821 252.162 317.416Z" fill="#45207F" stroke="black" stroke-width="2" stroke-miterlimit="10"/>
<path d="M225 382C225 382 229.346 358.833 250.254 369.186C271.161 379.539 275.788 362.465 275.788 362.465C275.788 362.465 278.494 348.127 264.556 347" stroke="black" stroke-width="5" stroke-miterlimit="10"/>
<path d="M219.732 348.551C219.732 348.551 240.268 348.22 246.15 333.809C252.031 319.399 249.424 306.817 249.424 306.817C224.809 260.644 182.893 272.094 182.893 272.094C182.893 272.094 161.574 242.54 153.121 250.298C144.669 258.055 156.062 302.386 156.062 302.386C156.062 302.386 150.409 329.237 160.84 338.611C160.84 338.611 170.774 348.648 184.185 348.065C184.185 348.065 173.561 357.815 172.462 382.827C172.462 383.057 172.304 383.305 172.462 383.49C172.882 383.937 173.385 384.295 173.943 384.546C180.005 387.996 198.91 387.846 198.91 387.846C198.91 387.846 228.317 389.414 229.051 382.545C231.504 359.683 219.754 348.56 219.754 348.56" fill="white"/>
<path d="M219.732 348.551C219.732 348.551 240.268 348.22 246.15 333.809C252.031 319.399 249.424 306.817 249.424 306.817C224.809 260.644 182.893 272.094 182.893 272.094C182.893 272.094 161.574 242.54 153.121 250.298C144.669 258.055 156.062 302.386 156.062 302.386C156.062 302.386 150.409 329.237 160.84 338.611C160.84 338.611 170.774 348.648 184.185 348.065C184.185 348.065 173.561 357.815 172.462 382.827C172.462 383.057 172.304 383.305 172.462 383.49C172.882 383.937 173.385 384.295 173.943 384.546C180.005 387.996 198.91 387.846 198.91 387.846C198.91 387.846 228.317 389.414 229.051 382.545C231.504 359.683 219.754 348.56 219.754 348.56" stroke="black" stroke-width="2" stroke-miterlimit="10"/>
<path d="M188.032 382C188.032 382 187.452 392.104 191.22 389.602C194.989 387.099 193.833 382 193.833 382" fill="white"/>
<path d="M188.032 382C188.032 382 187.452 392.104 191.22 389.602C194.989 387.099 193.833 382 193.833 382" stroke="black" stroke-width="2" stroke-miterlimit="10"/>
<path d="M206.037 383C206.037 383 205.361 394.367 209.76 391.552C214.16 388.736 212.802 383 212.802 383" fill="white"/>
<path d="M206.037 383C206.037 383 205.361 394.367 209.76 391.552C214.16 388.736 212.802 383 212.802 383" stroke="black" stroke-width="2" stroke-miterlimit="10"/>
<path d="M183.5 330C189.299 330 194 324.627 194 318C194 311.373 189.299 306 183.5 306C177.701 306 173 311.373 173 318C173 324.627 177.701 330 183.5 330Z" fill="white" stroke="black" stroke-width="2" stroke-miterlimit="10"/>
<path d="M222 330C228.075 330 233 324.627 233 318C233 311.373 228.075 306 222 306C215.925 306 211 311.373 211 318C211 324.627 215.925 330 222 330Z" fill="white" stroke="black" stroke-width="2" stroke-miterlimit="10"/>
<path d="M182.455 306.247C182.455 306.247 172.431 316.659 182.455 329C182.455 329 196.277 317.405 183.749 306" fill="#45207F"/>
<path d="M182.455 306.247C182.455 306.247 172.431 316.659 182.455 329C182.455 329 196.277 317.405 183.749 306" stroke="black" stroke-width="2" stroke-miterlimit="10"/>
<path d="M221.455 306.246C221.455 306.246 211.431 316.658 221.455 329C221.455 329 235.276 317.406 222.75 306" fill="#45207F"/>
<path d="M221.455 306.246C221.455 306.246 211.431 316.658 221.455 329C221.455 329 235.276 317.406 222.75 306" stroke="black" stroke-width="2" stroke-miterlimit="10"/>
<path d="M189 299L194 302" stroke="black" stroke-width="2" stroke-miterlimit="10"/>
<path d="M210 302L215 300" stroke="black" stroke-width="2" stroke-miterlimit="10"/>
<path d="M183.5 335C193.165 335 201 327.389 201 318C201 308.611 193.165 301 183.5 301C173.835 301 166 308.611 166 318C166 327.389 173.835 335 183.5 335Z" stroke="#45207F" stroke-width="2" stroke-miterlimit="10"/>
<path d="M166.068 319C166.068 319 164.363 360.985 178 356.692" stroke="#45207F" stroke-width="2" stroke-miterlimit="10"/>
<path d="M201.311 321.004C201.311 321.004 190.98 320.482 188 331.874C188 331.874 200.626 333.914 202 321.595" fill="black"/>
<path d="M216 330.994C216 330.994 213.004 320.914 201 321.001C201 321.001 203.307 333.682 215.665 331.812" fill="black"/>
<path d="M161.987 266L164.866 268.913L168.789 268.082L167.03 271.849L169 275.498L165.034 274.915L162.328 278L161.638 273.872L158 272.129L161.53 270.164L161.987 266Z" fill="#EAE1FF"/>
<path d="M223.695 321L221.887 319.719L219.99 320.796L220.436 318.322L219 316.474L221.088 316.219L222.098 314L222.942 316.321L225 316.799L223.434 318.484L223.695 321Z" fill="white"/>
<path d="M185.477 321L183.368 319.719L181.151 320.796L181.675 318.322L180 316.474L182.436 316.219L183.614 314L184.599 316.321L187 316.799L185.173 318.484L185.477 321Z" fill="white"/>
</g>
<rect x="6" y="6" width="387" height="824" rx="46" stroke="#3C3C3C" stroke-width="12"/>
<defs>
<clipPath id="clip0_112:8340">
<rect width="375" height="812" fill="white" transform="translate(13 12)"/>
</clipPath>
<clipPath id="clip1_112:8340">
<rect width="375" height="44" fill="white" transform="translate(12 12)"/>
</clipPath>
</defs>
</svg>
