<svg width="204" height="55" viewBox="0 0 204 55" fill="none" xmlns="http://www.w3.org/2000/svg">
<path d="M51.1671 18.44V16.36H41.7271V15.52H50.8871V10.64H39.0671V12.74H48.2671V13.62H39.0471V18.44H51.1671ZM37.1071 3.7H40.4871C40.1471 5.86 38.6871 7.36 36.4071 8.14L37.7871 10.26C39.5071 9.7 41.4871 8.04 41.9471 6.48C42.6071 7.98 44.4671 9.3 45.8471 9.76L47.2671 7.68C45.3671 7.02 43.8071 5.82 43.3671 3.7H46.5071V1.52H37.1071V3.7ZM53.3671 6.52V4.38H50.8871V0.759999H48.2671V9.9H50.8871V6.52H53.3671ZM70.5257 12.34C67.7657 10.86 66.3457 8.38 66.3057 4.6H69.7257V2.4H60.1457V4.6H63.5657C63.5457 8.44 62.2657 11.06 59.2657 12.82L60.8257 14.86C62.4657 13.98 64.4457 11.66 64.9657 9.72C65.5457 11.48 67.6257 13.58 69.0457 14.42L70.5257 12.34ZM74.2657 18.58V0.759999H71.5657V18.58H74.2657ZM91.9504 18.58V0.759999H89.4304V7.68H87.9904V1.06H85.5304V17.76H87.9904V9.8H89.4304V18.58H91.9504ZM84.9704 13.38L84.6704 11.3C83.6504 11.52 81.8904 11.72 80.4304 11.72H80.0704V2.8H77.4304V13.9H78.8504C80.9904 13.9 83.9704 13.68 84.9704 13.38ZM104.655 8.72C102.435 7.96 101.015 6.32 100.815 3.52V1.68H98.0951V3.66C97.9351 6.3 96.5551 8.26 93.8951 9.22L95.2351 11.4C96.9751 10.78 98.9351 8.98 99.4751 7.42C100.115 8.9 101.935 10.36 103.295 10.84L104.655 8.72ZM108.875 10.7V0.759999H106.175V2.86H103.795V4.92H106.175V6H103.795V8.06H106.175V10.7H108.875ZM108.895 18.66L110.315 16.6C108.335 15.96 107.075 14.48 107.075 12.28V11.48H104.455V12.24C104.455 14.52 103.335 16.2 101.135 17.2C101.615 17.8 102.095 18.38 102.575 19C104.095 18.24 105.455 16.84 105.815 15.72C106.175 16.82 107.675 18.24 108.895 18.66ZM100.975 17C101.515 16.34 102.095 15.7 102.655 15.08C101.635 14.64 100.575 13.62 100.575 12.1V11.48H97.9751V12.12C97.9751 14.36 96.5351 16 94.4151 16.74C94.8751 17.42 95.3351 18.08 95.8151 18.74C97.2951 18.26 98.9351 16.88 99.4551 15.44C99.7151 16.02 100.375 16.7 100.975 17ZM127.46 11.48V9.36H111.36V11.48H127.46ZM125.52 7.84V5.78H116.16V1.34H113.48V7.84H125.52ZM125.6 18.1V16.04H116V12.82H113.34V18.1H125.6ZM145.144 9.66V7.48H142.584V0.759999H139.944V18.58H142.584V9.66H145.144ZM137.964 2.6H129.504V4.78H135.164C134.804 8.18 132.304 11.6 128.424 13.42L129.904 15.5C135.704 12.32 137.824 7.82 137.964 2.6ZM160.089 6.82V4.72H150.709V3.1H159.969V0.979999H148.069V6.82H160.089ZM162.069 9.88V7.76H145.969V9.88H162.069ZM160.529 18.54V16.38H150.549V15.62H160.049V10.9H147.949V12.98H157.409V13.78H147.929V18.54H160.529ZM163.854 16.64H166.554V14.08H163.854V16.64ZM13.6508 36.76H10.9708V54.58H13.6508V45.6H16.2508V43.42H13.6508V36.76ZM9.95078 49.4C9.85078 48.74 9.75078 48.02 9.63078 47.32C8.03078 47.64 5.51078 47.94 3.39078 47.94H2.91078V38.5H0.290781V50.24H2.07078C4.27078 50.24 7.67078 49.94 9.95078 49.4ZM33.0555 47.48V45.36H16.9555V47.48H33.0555ZM31.1155 43.84V41.78H21.7555V37.34H19.0755V43.84H31.1155ZM31.1955 54.1V52.04H21.5955V48.82H18.9355V54.1H31.1955ZM54.3341 49.68V36.76H51.6341V49.68H54.3341ZM54.7141 54.14V52.06H44.7341V48.54H42.0941V54.14H54.7141ZM50.4541 45C48.2141 44.28 46.4541 42.58 46.4541 39.72V37.98H43.7341V39.86C43.7341 42.48 42.1941 44.66 39.5141 45.58L40.8741 47.62C42.5541 47.08 44.6141 45.28 45.1341 43.62C45.7941 45.08 47.6741 46.64 49.0541 47.12L50.4541 45ZM70.7788 36.76H68.1788V54.58H70.7788V45.54H73.2588V43.38H70.7788V36.76ZM67.6188 48.18C64.8188 46.62 63.3788 44.16 63.3788 40.44V38.22H60.6388V40.54C60.6388 44.28 59.3788 46.9 56.2988 48.74L57.9388 50.72C59.5188 49.92 61.5988 47.62 62.0388 45.78C62.5788 47.5 64.5988 49.46 66.0988 50.28L67.6188 48.18ZM90.2234 52.28V50.2H82.4434V44.22H79.7834V50.2H74.1234V52.28H90.2234ZM88.5434 38.34H75.8834V40.44H85.9034C85.9034 40.94 85.9234 41.54 85.9234 42.04C85.9234 43.48 85.6234 46.36 85.2034 48.02C86.0234 48.12 86.8634 48.18 87.7034 48.28C88.2634 45.8 88.6434 41.72 88.5434 38.34ZM105.648 50.94C105.648 48.64 103.328 47.2 99.4681 47.2C95.6481 47.2 93.3281 48.64 93.3281 50.94C93.3281 53.16 95.6481 54.6 99.4681 54.6C103.328 54.6 105.648 53.16 105.648 50.94ZM107.888 42.86H105.408V41.18H107.888V39.02H105.408V36.76H102.748V47.24H105.408V45.02H107.888V42.86ZM101.668 45.3C101.568 44.58 101.468 43.86 101.348 43.14C99.1681 43.6 96.3481 43.8 94.6881 43.8V37.78H92.0681V46.04H93.5281C95.6681 46.04 99.3081 45.84 101.668 45.3ZM102.908 50.94C102.908 51.88 101.688 52.48 99.4681 52.48C97.2881 52.48 96.0481 51.88 96.0481 50.94C96.0481 49.94 97.2881 49.36 99.4681 49.36C101.688 49.36 102.908 49.96 102.908 50.94ZM123.533 54.58V36.76H120.893V54.58H123.533ZM109.213 44.34C109.213 48.02 110.953 50.72 113.873 50.72C116.833 50.72 118.573 48 118.573 44.34C118.573 40.6 116.833 37.9 113.873 37.9C110.953 37.9 109.213 40.6 109.213 44.34ZM116.093 44.34C116.093 47.02 115.153 48.42 113.873 48.42C112.673 48.42 111.733 47.02 111.733 44.34C111.733 41.62 112.673 40.24 113.873 40.24C115.153 40.24 116.093 41.62 116.093 44.34ZM136.478 49.96C136.358 49.24 136.278 48.54 136.198 47.82C134.118 48.22 131.618 48.32 129.918 48.32H129.438V44.96H134.978V38.24H126.738V40.3H132.318V42.88H126.757V50.48C127.638 50.48 128.458 50.52 129.338 50.52C131.978 50.52 134.858 50.26 136.478 49.96ZM140.018 36.76H137.398V54.58H140.018V45.66H142.478V43.48H140.018V36.76ZM159.442 52.28V50.2H151.662V44.22H149.002V50.2H143.342V52.28H159.442ZM157.762 38.34H145.102V40.44H155.122C155.122 40.94 155.142 41.54 155.142 42.04C155.142 43.48 154.842 46.36 154.422 48.02C155.242 48.12 156.082 48.18 156.922 48.28C157.482 45.8 157.862 41.72 157.762 38.34ZM176.121 43.08V41H165.761V43.08H176.121ZM168.321 39.96H173.821V37.84H168.321V39.96ZM179.901 36.76H177.261V54.58H179.901V46.16H182.321V44H179.901V36.76ZM166.701 47.5C166.701 49.8 168.581 51.34 171.041 51.34C173.481 51.34 175.421 49.82 175.421 47.5C175.421 45.2 173.481 43.68 171.041 43.68C168.581 43.68 166.701 45.18 166.701 47.5ZM169.041 47.5C169.041 46.34 169.921 45.56 171.041 45.56C172.161 45.56 173.061 46.34 173.061 47.5C173.061 48.68 172.121 49.44 171.041 49.44C169.921 49.44 169.041 48.68 169.041 47.5ZM192.325 44.36V53.76H194.785V37.06H192.325V42.24H188.985V44.36H192.325ZM198.405 54.58V36.76H195.885V54.58H198.405ZM191.385 49.74C191.285 49.04 191.225 48.34 191.125 47.64C190.085 47.88 188.325 48.1 186.845 48.1H186.525V38.4H183.885V50.3H185.305C187.445 50.3 190.385 50.02 191.385 49.74ZM201.09 52.64H203.79V50.08H201.09V52.64Z" fill="#111111"/>
</svg>
