<svg width="182" height="127" viewBox="0 0 182 127" fill="none" xmlns="http://www.w3.org/2000/svg">
<path d="M27.2204 7.08V5H16.8604V7.08H27.2204ZM19.4204 3.96H24.9204V1.84H19.4204V3.96ZM31.0004 0.759999H28.3604V18.58H31.0004V10.16H33.4204V8H31.0004V0.759999ZM17.8004 11.5C17.8004 13.8 19.6804 15.34 22.1404 15.34C24.5804 15.34 26.5204 13.82 26.5204 11.5C26.5204 9.2 24.5804 7.68 22.1404 7.68C19.6804 7.68 17.8004 9.18 17.8004 11.5ZM20.1404 11.5C20.1404 10.34 21.0204 9.56 22.1404 9.56C23.2604 9.56 24.1604 10.34 24.1604 11.5C24.1604 12.68 23.2204 13.44 22.1404 13.44C21.0204 13.44 20.1404 12.68 20.1404 11.5ZM45.3851 12.34C42.6251 10.86 41.2051 8.38 41.1651 4.6H44.5851V2.4H35.0051V4.6H38.4251C38.4051 8.44 37.1251 11.06 34.1251 12.82L35.6851 14.86C37.3251 13.98 39.3051 11.66 39.8251 9.72C40.4051 11.48 42.4851 13.58 43.9051 14.42L45.3851 12.34ZM49.1251 18.58V0.759999H46.4251V18.58H49.1251ZM65.6098 0.759999H62.9698V13.68H65.6098V7.96H68.0898V5.78H65.6098V0.759999ZM65.9698 18.08V16H56.5498V12.42H53.9298V18.08H65.9698ZM60.5098 10.58V2.22H52.0698V10.58H60.5098ZM57.8898 8.5H54.6698V4.3H57.8898V8.5ZM88.9684 18.58V0.759999H86.3284V18.58H88.9684ZM74.6484 8.34C74.6484 12.02 76.3884 14.72 79.3084 14.72C82.2684 14.72 84.0084 12 84.0084 8.34C84.0084 4.6 82.2684 1.9 79.3084 1.9C76.3884 1.9 74.6484 4.6 74.6484 8.34ZM81.5284 8.34C81.5284 11.02 80.5884 12.42 79.3084 12.42C78.1084 12.42 77.1684 11.02 77.1684 8.34C77.1684 5.62 78.1084 4.24 79.3084 4.24C80.5884 4.24 81.5284 5.62 81.5284 8.34ZM100.453 12.46C97.833 10.82 97.173 8.66 97.173 5.36V4.6H99.753V2.54H91.793V4.6H94.613V5.36C94.613 8.6 93.893 11.02 91.053 12.96L92.493 14.78C93.853 14 95.573 11.78 95.913 10.24C96.353 11.82 97.873 13.66 99.033 14.38L100.453 12.46ZM103.093 17.76V1.1H100.673V6.7H98.653V9H100.673V17.76H103.093ZM106.753 18.58V0.759999H104.313V18.58H106.753ZM130.132 16.1V14.02H114.032V16.1H130.132ZM128.012 2.48H115.712V4.6H125.392C125.492 7 125.092 11.12 124.772 12.94L127.312 13.2C127.692 11.04 128.072 6.82 128.012 2.48ZM146.536 18.58V0.759999H144.016V7.66H142.696V1.06H140.216V17.76H142.696V9.78H144.016V18.58H146.536ZM134.436 12.42V4.9H138.556V2.84H131.796V14.54H133.716C135.296 14.54 138.136 14.38 139.616 14.06L139.356 12.06C138.216 12.32 135.876 12.42 134.836 12.42H134.436ZM164.741 11.48V9.36H148.641V11.48H164.741ZM162.801 7.84V5.78H153.441V1.34H150.761V7.84H162.801ZM162.881 18.1V16.04H153.281V12.82H150.621V18.1H162.881ZM37.1332 36.76H34.4532V54.58H37.1332V45.6H39.7332V43.42H37.1332V36.76ZM33.4332 49.4C33.3332 48.74 33.2332 48.02 33.1132 47.32C31.5132 47.64 28.9932 47.94 26.8732 47.94H26.3932V38.5H23.7732V50.24H25.5532C27.7532 50.24 31.1532 49.94 33.4332 49.4ZM54.4379 36.76H51.7979V49.68H54.4379V43.96H56.9179V41.78H54.4379V36.76ZM54.7979 54.08V52H45.3779V48.42H42.7579V54.08H54.7979ZM49.3379 46.58V38.22H40.8979V46.58H49.3379ZM46.7179 44.5H43.4979V40.3H46.7179V44.5ZM75.0965 36.76V46.64H77.7965V36.76H75.0965ZM77.8965 54.38V52.28H68.4765V49.76H77.7765V47.66H65.8365V54.38H77.8965ZM72.4965 45.84V37.96H63.9165V45.84H72.4965ZM69.8565 43.74H66.5365V40.02H69.8565V43.74ZM96.4012 52.32V50.2H80.3012V52.32H96.4012ZM94.9812 42.74C94.9812 39.9 92.3612 37.9 88.3412 37.9C84.3412 37.9 81.7212 39.9 81.7212 42.74C81.7212 45.56 84.3412 47.58 88.3412 47.58C92.3612 47.58 94.9812 45.56 94.9812 42.74ZM92.3012 42.76C92.3012 44.4 90.7012 45.5 88.3412 45.5C85.9412 45.5 84.4012 44.4 84.4012 42.76C84.4012 41.06 85.9412 39.98 88.3412 39.98C90.7612 39.98 92.3012 41.06 92.3012 42.76ZM106.586 46.84V38.4H98.2459V46.84H106.586ZM109.726 41.74V43.58H107.666V45.64H109.726V49.68H112.386V36.76H109.726V39.68H107.666V41.74H109.726ZM112.646 54.14V52.08H103.066V48.56H100.366V54.14H112.646ZM103.986 44.74H100.866V40.5H103.986V44.74ZM131.744 50.64L131.564 48.62C130.484 48.74 129.004 48.84 127.244 48.9V46.04H130.504V43.96H124.184V40.44H130.484V38.34H121.544V46.04H124.604V49C123.184 49.02 121.804 49.04 120.144 49.04L120.484 51.28C122.084 51.3 124.204 51.22 126.204 51.12C127.964 51.04 130.384 50.84 131.744 50.64ZM135.104 36.76H132.464V54.58H135.104V36.76ZM153.569 52.4V50.3H146.829V47.56C150.089 47.18 152.149 45.26 152.149 42.66C152.149 39.74 149.529 37.7 145.509 37.7C141.509 37.7 138.889 39.74 138.889 42.66C138.889 45.24 140.929 47.16 144.169 47.56V50.3H137.469V52.4H153.569ZM149.449 42.68C149.449 44.4 147.869 45.58 145.509 45.58C143.109 45.58 141.569 44.4 141.569 42.68C141.569 40.96 143.109 39.82 145.509 39.82C147.909 39.82 149.449 40.96 149.449 42.68ZM155.354 52.64H158.054V50.08H155.354V52.64ZM14.8957 90.58V72.76H12.3757V79.68H10.9357V73.06H8.4757V89.76H10.9357V81.8H12.3757V90.58H14.8957ZM7.9157 85.38L7.6157 83.3C6.5957 83.52 4.8357 83.72 3.3757 83.72H3.0157V74.8H0.375703V85.9H1.7957C3.9357 85.9 6.9157 85.68 7.9157 85.38ZM33.4804 81.66V79.48H30.9204V72.76H28.2804V90.58H30.9204V81.66H33.4804ZM26.3004 74.6H17.8404V76.78H23.5004C23.1404 80.18 20.6404 83.6 16.7604 85.42L18.2404 87.5C24.0404 84.32 26.1604 79.82 26.3004 74.6ZM53.559 72.76H50.939V90.58H53.559V81.52H55.939V79.36H53.559V72.76ZM48.739 86.2V74.18H46.059V78.38H42.819V74.18H40.199V86.2H48.739ZM46.059 84.12H42.819V80.4H46.059V84.12ZM71.4237 83.7V81.6H61.5237V79.74H70.9637V73.78H58.8637V75.9H68.3237V77.62H58.8837V83.7H63.6037V86.3H56.8637V88.38H72.9637V86.3H66.2237V83.7H71.4237ZM94.2623 90.36V83.26H91.6023V84.8H84.9423V83.3H82.2623V90.36H94.2623ZM80.2223 75.82H83.6023C83.3623 78.24 81.9223 79.88 79.4823 80.76L81.1023 82.86C82.7423 82.34 84.5223 80.8 85.0423 79.02C85.8623 80.7 87.5223 81.9 88.7223 82.32L90.1623 80.26C88.3823 79.72 86.7423 78.2 86.4423 75.82H89.6023V73.72H80.2223V75.82ZM94.2423 82.48V72.76H91.5423V82.48H94.2423ZM91.6023 88.28H84.9423V86.86H91.6023V88.28ZM110.887 73.64H98.627V75.76H108.307C108.367 77.5 108.187 79.9 107.827 81.4H96.727V83.48H103.407V90.58H106.027V83.48H112.827V81.4H110.287C110.687 79.48 110.967 76.4 110.887 73.64ZM124.252 79.08V77H113.892V79.08H124.252ZM116.452 75.96H121.952V73.84H116.452V75.96ZM128.032 72.76H125.392V90.58H128.032V82.16H130.452V80H128.032V72.76ZM114.832 83.5C114.832 85.8 116.712 87.34 119.172 87.34C121.612 87.34 123.552 85.82 123.552 83.5C123.552 81.2 121.612 79.68 119.172 79.68C116.712 79.68 114.832 81.18 114.832 83.5ZM117.172 83.5C117.172 82.34 118.052 81.56 119.172 81.56C120.292 81.56 121.192 82.34 121.192 83.5C121.192 84.68 120.252 85.44 119.172 85.44C118.052 85.44 117.172 84.68 117.172 83.5ZM146.156 90.58V72.76H143.496V90.58H146.156ZM140.776 74.6H132.316V76.76H137.976C137.616 80.18 135.116 83.6 131.216 85.42L132.716 87.5C138.496 84.32 140.616 79.8 140.776 74.6ZM160.321 89.78V73.08H157.881V77.22H156.061V79.54H157.881V81.64H155.901V83.86H157.881V89.78H160.321ZM163.841 90.58V72.76H161.361V90.58H163.841ZM156.081 74.84H149.241V76.92H153.481C153.141 80.18 151.681 82.96 148.201 84.96L149.781 86.94C154.181 84.26 156.201 80.2 156.081 74.84ZM169.566 78.14C169.566 76.84 170.586 75.98 171.826 75.98C173.066 75.98 174.126 76.84 174.126 78.14C174.126 79.42 173.066 80.3 171.826 80.3C170.586 80.3 169.566 79.42 169.566 78.14ZM181.126 72.76H178.486V90.58H181.126V72.76ZM167.006 78.14C167.006 80.72 169.086 82.4 171.826 82.4C174.586 82.4 176.726 80.72 176.726 78.14C176.726 75.58 174.586 73.88 171.826 73.88C169.086 73.88 167.006 75.58 167.006 78.14ZM177.846 86.16L177.666 84.08C176.306 84.2 174.126 84.38 171.726 84.44C169.946 84.5 168.106 84.5 166.046 84.5L166.346 86.82C167.946 86.84 170.126 86.76 172.086 86.66C173.926 86.58 176.506 86.34 177.846 86.16ZM45.8341 121.68V108.76H43.1341V121.68H45.8341ZM46.2141 126.14V124.06H36.2341V120.54H33.5941V126.14H46.2141ZM41.9541 117C39.7141 116.28 37.9541 114.58 37.9541 111.72V109.98H35.2341V111.86C35.2341 114.48 33.6941 116.66 31.0141 117.58L32.3741 119.62C34.0541 119.08 36.1141 117.28 36.6341 115.62C37.2941 117.08 39.1741 118.64 40.5541 119.12L41.9541 117ZM62.2788 108.76H59.6788V126.58H62.2788V117.54H64.7588V115.38H62.2788V108.76ZM59.1188 120.18C56.3188 118.62 54.8788 116.16 54.8788 112.44V110.22H52.1388V112.54C52.1388 116.28 50.8788 118.9 47.7988 120.74L49.4388 122.72C51.0188 121.92 53.0988 119.62 53.5388 117.78C54.0788 119.5 56.0988 121.46 57.5988 122.28L59.1188 120.18ZM81.7234 124.28V122.2H73.9434V116.22H71.2834V122.2H65.6234V124.28H81.7234ZM80.0434 110.34H67.3834V112.44H77.4034C77.4034 112.94 77.4234 113.54 77.4234 114.04C77.4234 115.48 77.1234 118.36 76.7034 120.02C77.5234 120.12 78.3634 120.18 79.2034 120.28C79.7634 117.8 80.1434 113.72 80.0434 110.34ZM97.1481 122.94C97.1481 120.64 94.8281 119.2 90.9681 119.2C87.1481 119.2 84.8281 120.64 84.8281 122.94C84.8281 125.16 87.1481 126.6 90.9681 126.6C94.8281 126.6 97.1481 125.16 97.1481 122.94ZM99.3881 114.86H96.9081V113.18H99.3881V111.02H96.9081V108.76H94.2481V119.24H96.9081V117.02H99.3881V114.86ZM93.1681 117.3C93.0681 116.58 92.9681 115.86 92.8481 115.14C90.6681 115.6 87.8481 115.8 86.1881 115.8V109.78H83.5681V118.04H85.0281C87.1681 118.04 90.8081 117.84 93.1681 117.3ZM94.4081 122.94C94.4081 123.88 93.1881 124.48 90.9681 124.48C88.7881 124.48 87.5481 123.88 87.5481 122.94C87.5481 121.94 88.7881 121.36 90.9681 121.36C93.1881 121.36 94.4081 121.96 94.4081 122.94ZM115.033 126.58V108.76H112.393V126.58H115.033ZM100.713 116.34C100.713 120.02 102.453 122.72 105.373 122.72C108.333 122.72 110.073 120 110.073 116.34C110.073 112.6 108.333 109.9 105.373 109.9C102.453 109.9 100.713 112.6 100.713 116.34ZM107.593 116.34C107.593 119.02 106.653 120.42 105.373 120.42C104.173 120.42 103.233 119.02 103.233 116.34C103.233 113.62 104.173 112.24 105.373 112.24C106.653 112.24 107.593 113.62 107.593 116.34ZM132.358 126.58V108.76H129.698V115.56H126.538V117.78H129.698V126.58H132.358ZM126.678 110.6H118.218V112.76H123.878C123.518 116.18 121.018 119.58 117.118 121.4L118.618 123.48C124.398 120.3 126.518 115.8 126.678 110.6ZM150.942 119.64V117.56H134.842V119.64H150.942ZM149.102 126.14V124.08H139.442V120.96H136.802V126.14H149.102ZM148.862 116.26V114.18H139.622V111.74H148.842V109.66H136.962V116.26H148.862ZM152.727 124.64H155.427V122.08H152.727V124.64Z" fill="#111111"/>
</svg>
