<svg width="223" height="127" viewBox="0 0 223 127" fill="none" xmlns="http://www.w3.org/2000/svg">
<path d="M16.8641 16.1V14.02H0.764063V16.1H16.8641ZM14.7441 2.48H2.44406V4.6H12.1241C12.2241 7 11.8241 11.12 11.5041 12.94L14.0441 13.2C14.4241 11.04 14.8041 6.82 14.7441 2.48ZM33.2688 18.58V0.759999H30.7488V7.66H29.4288V1.06H26.9488V17.76H29.4288V9.78H30.7488V18.58H33.2688ZM21.1688 12.42V4.9H25.2888V2.84H18.5288V14.54H20.4488C22.0288 14.54 24.8688 14.38 26.3488 14.06L26.0888 12.06C24.9488 12.32 22.6087 12.42 21.5688 12.42H21.1688ZM51.8534 9.66V7.48H49.2934V0.759999H46.6534V18.58H49.2934V9.66H51.8534ZM44.6734 2.6H36.2134V4.78H41.8734C41.5134 8.18 39.0134 11.6 35.1334 13.42L36.6134 15.5C42.4134 12.32 44.5334 7.82 44.6734 2.6ZM72.772 18.36V11.26H70.112V12.8H63.452V11.3H60.772V18.36H72.772ZM58.732 3.82H62.112C61.872 6.24 60.432 7.88 57.992 8.76L59.612 10.86C61.252 10.34 63.032 8.8 63.552 7.02C64.372 8.7 66.032 9.9 67.232 10.32L68.672 8.26C66.892 7.72 65.252 6.2 64.952 3.82H68.112V1.72H58.732V3.82ZM72.752 10.48V0.759999H70.052V10.48H72.752ZM70.112 16.28H63.452V14.86H70.112V16.28ZM94.6506 1.64H82.3906V3.76H92.0706C92.1306 5.5 91.9506 7.9 91.5906 9.4H80.4906V11.48H87.1706V18.58H89.7906V11.48H96.5906V9.4H94.0506C94.4506 7.48 94.7306 4.4 94.6506 1.64ZM108.015 7.08V5H97.6553V7.08H108.015ZM100.215 3.96H105.715V1.84H100.215V3.96ZM111.795 0.759999H109.155V18.58H111.795V10.16H114.215V8H111.795V0.759999ZM98.5953 11.5C98.5953 13.8 100.475 15.34 102.935 15.34C105.375 15.34 107.315 13.82 107.315 11.5C107.315 9.2 105.375 7.68 102.935 7.68C100.475 7.68 98.5953 9.18 98.5953 11.5ZM100.935 11.5C100.935 10.34 101.815 9.56 102.935 9.56C104.055 9.56 104.955 10.34 104.955 11.5C104.955 12.68 104.015 13.44 102.935 13.44C101.815 13.44 100.935 12.68 100.935 11.5ZM131.2 11.48V9.36H115.1V11.48H131.2ZM129.26 7.84V5.78H119.9V1.34H117.22V7.84H129.26ZM129.34 18.1V16.04H119.74V12.82H117.08V18.1H129.34ZM147.605 18.58V0.759999H145.085V18.58H147.605ZM141.405 9.26V17.76H143.885V1.06H141.405V7.1H138.445V9.26H141.405ZM135.525 12.32V4.98H139.625V2.84H132.865V14.52H134.785C136.365 14.52 139.125 14.34 140.585 14.04C140.505 13.36 140.425 12.66 140.385 11.96C139.265 12.2 137.545 12.34 136.265 12.34C136.005 12.34 135.725 12.34 135.525 12.32ZM155.183 8.34C155.183 12.02 156.963 14.72 159.803 14.72C162.383 14.72 164.063 12.48 164.343 9.34H167.083V18.58H169.783V0.759999H167.083V7.1H164.323C163.983 4 162.343 1.9 159.803 1.9C156.963 1.9 155.183 4.6 155.183 8.34ZM161.923 8.34C161.923 11.02 160.983 12.42 159.803 12.42C158.643 12.42 157.723 11.02 157.723 8.34C157.723 5.62 158.643 4.24 159.803 4.24C160.983 4.24 161.923 5.62 161.923 8.34ZM182.028 14.1C181.908 13.4 181.828 12.7 181.728 11.98C179.468 12.42 177.148 12.42 175.528 12.42V9.06H181.088V2.24H172.828V4.3H178.408V7H172.868V14.58C173.468 14.58 174.068 14.62 174.648 14.62C177.588 14.62 180.228 14.52 182.028 14.1ZM181.768 11.4H184.388V18.58H187.048V0.759999H184.388V4.84H181.768V6.98H184.388V9.3H181.768V11.4ZM203.693 18.38V12.38H198.933V10.9H205.673V8.82H189.573V10.9H196.313V12.38H191.593V18.38H203.693ZM191.293 4.7C191.293 6.7 193.673 8.16 197.613 8.16C201.553 8.16 203.973 6.7 203.973 4.7C203.973 2.7 201.553 1.22 197.613 1.22C193.673 1.22 191.293 2.7 191.293 4.7ZM194.073 4.72C194.073 3.88 195.413 3.24 197.613 3.24C199.813 3.24 201.193 3.88 201.193 4.72C201.193 5.58 199.833 6.2 197.613 6.2C195.413 6.2 194.073 5.58 194.073 4.72ZM201.073 16.34H194.213V14.36H201.073V16.34ZM222.977 10.08V7.98H206.877V10.08H222.977ZM221.437 18.48V16.32H211.497V15.56H220.997V10.9H208.857V12.98H218.337V13.72H208.877V18.48H221.437ZM211.377 4.24C211.377 3.62 212.517 3.1 214.917 3.1C217.277 3.1 218.477 3.62 218.477 4.24C218.477 4.88 217.277 5.36 214.917 5.36C212.517 5.36 211.377 4.88 211.377 4.24ZM208.597 4.22C208.597 6.04 210.717 7.28 214.917 7.28C219.117 7.28 221.257 6.04 221.257 4.22C221.257 2.4 219.117 1.14 214.917 1.14C210.717 1.14 208.597 2.4 208.597 4.22ZM30.3692 46.98V36.76H27.6692V39.5H24.8892V41.66H27.6692V43.1H24.8092V45.3H27.6692V46.98H30.3692ZM30.3692 54.6V47.88H24.1892V49.98H27.7492V54.6H30.3692ZM23.5492 54.6V47.88H17.4892V49.98H20.9492V54.6H23.5492ZM24.8692 37.78H16.3892V39.96H21.9092C21.5892 42.18 18.7092 44.46 15.4692 45.08L16.4892 47.18C21.5492 45.86 24.7492 42.7 24.8692 37.78ZM48.9539 52.28V50.2H41.1739V44.22H38.5139V50.2H32.8539V52.28H48.9539ZM47.2739 38.34H34.6139V40.44H44.6339C44.6339 40.94 44.6539 41.54 44.6539 42.04C44.6539 43.48 44.3539 46.36 43.9339 48.02C44.7539 48.12 45.5939 48.18 46.4339 48.28C46.9939 45.8 47.3739 41.72 47.2739 38.34ZM65.5325 42.08C65.5325 39.6 63.4525 37.94 60.7125 37.94C58.0125 37.94 55.9525 39.6 55.9525 42.08C55.9525 44.52 57.9925 46.24 60.7125 46.24C63.4325 46.24 65.5325 44.52 65.5325 42.08ZM70.2125 54.6C70.6925 53.98 71.1325 53.32 71.6125 52.68C69.6325 52.08 68.4725 50.44 68.4725 48.24V47.48H65.8525V48.2C65.8525 50.48 64.7125 52.16 62.5325 53.16L63.9725 54.94C65.4925 54.2 66.8525 52.82 67.1925 51.66C67.5725 52.8 68.9925 54.18 70.2125 54.6ZM67.5125 36.74V46.76H70.1925V36.74H67.5125ZM62.4925 52.82C63.0925 52.18 63.6525 51.56 64.2325 50.92C63.1925 50.54 62.0525 49.72 62.0525 48.04V47.5H59.4725V48.08C59.4725 50.32 57.9925 51.96 55.9125 52.72C56.3725 53.42 56.8525 54.08 57.3325 54.78C58.8125 54.3 60.4325 52.82 60.9325 51.4C61.2325 51.94 61.8925 52.52 62.4925 52.82ZM62.9725 42.08C62.9725 43.28 61.9925 44.04 60.7125 44.04C59.4725 44.04 58.4925 43.28 58.4925 42.08C58.4925 40.88 59.4725 40.08 60.7125 40.08C61.9725 40.08 62.9725 40.88 62.9725 42.08ZM88.8172 47.48V45.36H72.7172V47.48H88.8172ZM86.8772 43.84V41.78H77.5172V37.34H74.8372V43.84H86.8772ZM86.9572 54.1V52.04H77.3572V48.82H74.6972V54.1H86.9572ZM110.076 48.42V36.76H107.396V41.4H104.376V43.64H107.396V48.42H110.076ZM110.936 52.56C107.916 52.2 105.396 50.44 105.396 48.02V47.44H102.696V48.02C102.696 50.42 100.116 52.3 97.0358 52.58L98.1158 54.7C100.676 54.42 103.276 52.78 103.996 51.28C104.796 52.78 107.216 54.42 109.716 54.7L110.936 52.56ZM104.376 38.1H96.0958V40.28H101.456C101.156 42.78 98.6358 44.98 95.2958 45.7L96.3158 47.82C100.356 46.8 104.316 43.76 104.376 38.1ZM128.68 46.08V43.98H112.58V46.08H128.68ZM127.14 54.48V52.32H117.2V51.56H126.7V46.9H114.56V48.98H124.04V49.72H114.58V54.48H127.14ZM117.08 40.24C117.08 39.62 118.22 39.1 120.62 39.1C122.98 39.1 124.18 39.62 124.18 40.24C124.18 40.88 122.98 41.36 120.62 41.36C118.22 41.36 117.08 40.88 117.08 40.24ZM114.3 40.22C114.3 42.04 116.42 43.28 120.62 43.28C124.82 43.28 126.96 42.04 126.96 40.22C126.96 38.4 124.82 37.14 120.62 37.14C116.42 37.14 114.3 38.4 114.3 40.22ZM149.499 54.54V52.42H140.019V51.54H149.139V46.72H137.419V48.78H146.499V49.64H137.379V54.54H149.499ZM151.619 42.56V40.42H149.139V36.76H146.499V46H149.139V42.56H151.619ZM135.219 41.58C135.219 44.02 137.239 45.74 139.939 45.74C142.599 45.74 144.679 44.02 144.679 41.58C144.679 39.12 142.599 37.46 139.939 37.46C137.279 37.46 135.219 39.12 135.219 41.58ZM137.779 41.58C137.779 40.3 138.679 39.52 139.939 39.52C141.179 39.52 142.119 40.32 142.119 41.58C142.119 42.86 141.179 43.64 139.939 43.64C138.699 43.64 137.779 42.84 137.779 41.58ZM168.544 52.28V50.2H160.764V44.22H158.104V50.2H152.444V52.28H168.544ZM166.864 38.34H154.204V40.44H164.224C164.224 40.94 164.244 41.54 164.244 42.04C164.244 43.48 163.944 46.36 163.524 48.02C164.344 48.12 165.184 48.18 166.024 48.28C166.584 45.8 166.964 41.72 166.864 38.34ZM179.868 42.08C179.868 39.6 177.788 37.94 175.048 37.94C172.348 37.94 170.288 39.6 170.288 42.08C170.288 44.52 172.328 46.24 175.048 46.24C177.768 46.24 179.868 44.52 179.868 42.08ZM184.548 54.6C185.028 53.98 185.468 53.32 185.948 52.68C183.968 52.08 182.808 50.44 182.808 48.24V47.48H180.188V48.2C180.188 50.48 179.048 52.16 176.868 53.16L178.308 54.94C179.828 54.2 181.188 52.82 181.528 51.66C181.908 52.8 183.328 54.18 184.548 54.6ZM181.848 36.74V46.76H184.528V36.74H181.848ZM176.828 52.82C177.428 52.18 177.988 51.56 178.568 50.92C177.528 50.54 176.388 49.72 176.388 48.04V47.5H173.808V48.08C173.808 50.32 172.328 51.96 170.248 52.72C170.708 53.42 171.188 54.08 171.668 54.78C173.148 54.3 174.768 52.82 175.268 51.4C175.568 51.94 176.228 52.52 176.828 52.82ZM177.308 42.08C177.308 43.28 176.328 44.04 175.048 44.04C173.808 44.04 172.828 43.28 172.828 42.08C172.828 40.88 173.808 40.08 175.048 40.08C176.308 40.08 177.308 40.88 177.308 42.08ZM202.733 44.5C199.773 44.16 196.513 41.98 196.513 38.7V37.76H193.673V38.7C193.673 41.96 190.373 44.18 187.453 44.52L188.633 46.72C190.913 46.28 194.133 44.56 195.073 41.96C196.073 44.56 199.353 46.3 201.553 46.72L202.733 44.5ZM203.153 52.38V50.3H196.353V46.26H193.733V50.3H187.053V52.38H203.153ZM204.938 52.64H207.638V50.08H204.938V52.64ZM20.7895 72.76H18.1095V90.58H20.7895V81.6H23.3895V79.42H20.7895V72.76ZM17.0895 85.4C16.9895 84.74 16.8895 84.02 16.7695 83.32C15.1695 83.64 12.6495 83.94 10.5295 83.94H10.0495V74.5H7.42945V86.24H9.20945C11.4095 86.24 14.8095 85.94 17.0895 85.4ZM38.2541 82.52V80.44H28.8141V76.1H38.1541V73.98H26.1541V82.52H30.8341V86.3H24.0941V88.38H40.1941V86.3H33.4541V82.52H38.2541ZM56.9127 77.96V75.94H46.5127V77.96H56.9127ZM56.0527 81.62C56.0527 79.74 54.3127 78.26 51.7527 78.26C49.1727 78.26 47.4527 79.74 47.4527 81.62C47.4527 83.52 49.1927 84.98 51.7527 84.98C54.3127 84.98 56.0527 83.52 56.0527 81.62ZM49.0927 75.2H54.4527V73.26H49.0927V75.2ZM60.6527 72.76H58.0327V86.18H60.6527V80.92H63.0527V78.76H60.6527V72.76ZM61.0127 90.28V88.18H51.4727V85.54H48.7527V90.28H61.0127ZM50.0727 81.62C50.0727 80.92 50.7527 80.18 51.7527 80.18C52.7727 80.18 53.4527 80.92 53.4527 81.62C53.4527 82.36 52.7727 83.02 51.7527 83.02C50.7527 83.02 50.0727 82.36 50.0727 81.62ZM79.4374 90.58V72.76H76.9774V79.64H75.9174V73.04H73.5374V89.78H75.9174V81.72H76.9774V90.58H79.4374ZM71.0374 84V76.92H72.6374V74.88H68.6574V86.3C70.3974 86.3 72.1774 86.06 72.9174 85.88L72.7774 83.76C72.4174 83.88 71.6174 84 71.0374 84ZM66.4574 84.02V76.92H67.9774V74.88H64.0974V86.3C65.1174 86.38 67.1174 86.2 68.1774 85.94L67.9174 83.8C67.6174 83.94 66.9174 84.06 66.4574 84.02ZM97.3621 83.48V81.36H81.2621V83.48H97.3621ZM95.4221 79.84V77.78H86.0621V73.34H83.3821V79.84H95.4221ZM95.5021 90.1V88.04H85.9021V84.82H83.2421V90.1H95.5021ZM110.261 90.6V85.54H113.441V90.6H116.101V85.54H119.921V83.44H103.821V85.54H107.601V90.6H110.261ZM118.221 77.84V75.76H105.521V77.84H110.161C109.541 79.42 107.501 80.26 104.821 80.56L105.841 82.68C108.001 82.5 110.881 81.46 111.881 79.52C112.901 81.42 115.901 82.5 117.921 82.62L118.961 80.5C116.261 80.28 114.261 79.38 113.641 77.84H118.221ZM108.961 74.96H114.761V72.88H108.961V74.96ZM137.225 88.46V86.34H121.125V88.46H137.225ZM135.685 83.88V81.8H125.785V79.94H135.225V73.98H123.125V76.1H132.585V77.84H123.145V83.88H135.685ZM158.484 83.3V72.76H155.804V76.84H153.604V78.92H155.804V83.3H158.484ZM146.244 84.12V86.24H155.864V90.6H158.504V84.12H146.244ZM152.664 82.1V74.08H144.324V82.1H152.664ZM150.064 80.04H146.944V76.14H150.064V80.04ZM177.089 82.08V79.98H160.989V82.08H177.089ZM175.549 90.48V88.32H165.609V87.56H175.109V82.9H162.969V84.98H172.449V85.72H162.989V90.48H175.549ZM165.489 76.24C165.489 75.62 166.629 75.1 169.029 75.1C171.389 75.1 172.589 75.62 172.589 76.24C172.589 76.88 171.389 77.36 169.029 77.36C166.629 77.36 165.489 76.88 165.489 76.24ZM162.709 76.22C162.709 78.04 164.829 79.28 169.029 79.28C173.229 79.28 175.369 78.04 175.369 76.22C175.369 74.4 173.229 73.14 169.029 73.14C164.829 73.14 162.709 74.4 162.709 76.22ZM199.647 82.86V80.78H192.207V77.64H189.567V80.78H183.547V82.86H199.647ZM198.407 88.62C195.487 88.22 192.847 86.78 192.847 84.12V83.84H190.207V84.12C190.207 86.68 187.427 88.38 184.467 88.62C184.867 89.3 185.247 90.02 185.647 90.7C188.007 90.42 190.607 89 191.427 87.46C192.407 89 194.487 90.3 197.167 90.72C197.547 90.04 197.987 89.32 198.407 88.62ZM197.567 73.46H185.327V75.5H194.967C194.967 76.8 194.707 78.72 194.487 79.66C195.327 79.74 196.207 79.84 197.047 79.94C197.327 78.44 197.567 77.22 197.567 73.46ZM215.012 82.52V80.44H205.572V76.1H214.912V73.98H202.912V82.52H207.592V86.3H200.852V88.38H216.952V86.3H210.212V82.52H215.012ZM94.9034 126.26V124.98L95.9834 126.56C96.9234 126.26 98.3834 125.28 98.9234 124.04C99.4034 125.28 100.803 126.24 101.643 126.46L102.983 124.4C101.203 123.9 100.263 122.44 100.263 120.54V119.04H97.6634V120.54C97.6634 122.52 96.5234 123.82 94.9034 124.38V119.18H92.4434V121.06H90.9034V119.26H88.4234V126.26H94.9034ZM86.7434 113.76C86.7434 116.22 88.7434 117.92 91.4234 117.92C94.0634 117.92 96.1234 116.24 96.1234 113.76C96.1234 111.26 94.0634 109.6 91.4234 109.6C88.7634 109.6 86.7434 111.26 86.7434 113.76ZM101.423 118.26V108.76H98.7234V112.6H96.7434V114.74H98.7234V118.26H101.423ZM89.3034 113.78C89.3034 112.52 90.1834 111.74 91.4234 111.74C92.6434 111.74 93.5834 112.52 93.5834 113.78C93.5834 115.06 92.6434 115.82 91.4234 115.82C90.2034 115.82 89.3034 115.04 89.3034 113.78ZM92.4434 124.3H90.9034V122.96H92.4434V124.3ZM113.448 114.04C113.448 111.54 111.408 109.84 108.748 109.84C106.088 109.84 104.068 111.52 104.068 114.04C104.068 116.5 106.088 118.24 108.748 118.24C111.408 118.24 113.448 116.5 113.448 114.04ZM118.708 118.62V108.74H116.028V112.88H114.048V115H116.028V118.62H118.708ZM118.768 126.64L120.168 124.64C118.188 124.02 117.008 122.48 117.008 120.28V119.36H114.428V120.24C114.428 122.52 113.268 124.18 111.088 125.18C111.568 125.8 112.028 126.38 112.488 127C113.988 126.28 115.388 124.84 115.748 123.72C116.128 124.82 117.548 126.22 118.768 126.64ZM110.988 124.94L112.648 122.94C111.628 122.56 110.628 121.78 110.628 120.1V119.38H108.028V120.12C108.028 122.36 106.568 123.96 104.448 124.7L105.868 126.74C107.308 126.26 108.988 124.88 109.468 123.44C109.748 124.02 110.368 124.66 110.988 124.94ZM110.908 114.04C110.908 115.28 109.968 116.06 108.748 116.06C107.548 116.06 106.608 115.28 106.608 114.04C106.608 112.78 107.548 111.98 108.748 111.98C109.948 111.98 110.908 112.78 110.908 114.04ZM132.313 120.34C129.553 118.86 128.133 116.38 128.093 112.6H131.513V110.4H121.933V112.6H125.353C125.333 116.44 124.053 119.06 121.053 120.82L122.613 122.86C124.253 121.98 126.233 119.66 126.753 117.72C127.333 119.48 129.413 121.58 130.833 122.42L132.313 120.34ZM136.053 126.58V108.76H133.353V126.58H136.053ZM139.118 124.64H141.818V122.08H139.118V124.64Z" fill="#111111"/>
</svg>
