<svg width="212" height="19" viewBox="0 0 212 19" fill="none" xmlns="http://www.w3.org/2000/svg">
<path d="M3.3 5.56C3.3 4.2 4.06 3.44 5.12 3.44C6.22 3.44 6.98 4.2 6.98 5.56C6.98 6.94 6.22 7.72 5.12 7.72C4.06 7.72 3.3 6.94 3.3 5.56ZM9.34 5.56C9.34 3.06 7.6 1.3 5.12 1.3C2.68 1.3 0.92 3.06 0.92 5.56C0.92 8.08 2.68 9.84 5.12 9.84C7.6 9.84 9.34 8.08 9.34 5.56ZM13.96 16.4H6.66V14.78H13.96V16.4ZM13.96 12.74H6.66V11.08H4.04V18.5H16.56V11.08H13.96V12.74ZM14.06 0.319999V4.14H12.62V0.659999H10.16V10.2H12.62V6.28H14.06V10.32H16.56V0.319999H14.06ZM37.1747 13.9H39.8147V0.299999H37.1747V4.22H33.7947V6.36H37.1747V13.9ZM35.4147 9.18C32.5347 8.16 31.2947 5.82 31.2947 3.42V1.42H28.6147V3.4C28.6147 6.02 27.3347 8.58 24.2947 9.6L25.6747 11.66C27.8147 10.88 29.2347 9.38 30.0147 7.48C30.7747 9.18 32.0947 10.52 34.0147 11.22L35.4147 9.18ZM30.2947 16.3V12.54H27.6547V18.4H40.2147V16.3H30.2947ZM51.0931 8.32C49.4131 8.58 47.9531 8.68 45.9731 8.7V7.14H50.4931V5.14H45.9731V3.62H50.6731V1.54H43.4331V10.82H44.7131C47.4531 10.82 49.2331 10.76 51.3331 10.42L51.0931 8.32ZM45.8331 14.44H55.8731V18.74H58.5131V12.34H45.8331V14.44ZM56.0131 0.299999V4.82H54.5331V0.619999H52.0731V11.42H54.5331V6.92H56.0131V11.54H58.5131V0.299999H56.0131ZM72.1916 2.32H68.1116V0.379999H65.4716V2.32H61.3516V4.4H72.1916V2.32ZM64.7916 8.58C64.7916 7.64 65.5916 7.12 66.7916 7.12C67.9916 7.12 68.7916 7.64 68.7916 8.58C68.7916 9.56 67.9916 10.08 66.7916 10.08C65.5916 10.08 64.7916 9.56 64.7916 8.58ZM68.1116 11.92C70.0316 11.52 71.2916 10.28 71.2916 8.58C71.2916 6.52 69.4316 5.12 66.7916 5.12C64.1516 5.12 62.2916 6.52 62.2916 8.58C62.2916 10.28 63.5516 11.52 65.4716 11.92V13.48C63.8516 13.52 62.3316 13.52 61.0116 13.52L61.3316 15.66C64.4516 15.66 68.5916 15.66 72.4716 14.9L72.2716 13C70.9516 13.2 69.5316 13.3 68.1116 13.38V11.92ZM78.1516 7.8H75.8516V0.299999H73.2116V18.72H75.8516V9.98H78.1516V7.8ZM86.47 8.7H82.97V3.84H86.47V8.7ZM92.37 5.3V7.16H89.05V5.3H92.37ZM89.05 9.26H92.37V13.72H95.01V0.299999H92.37V3.2H89.05V1.78H80.37V10.78H89.05V9.26ZM85.49 16.3V12.46H82.85V18.4H95.41V16.3H85.49ZM106.328 1.22C102.468 1.22 99.4684 3.34 99.4684 6.56C99.4684 9.76 102.468 11.88 106.328 11.88C110.208 11.88 113.208 9.76 113.208 6.56C113.208 3.34 110.208 1.22 106.328 1.22ZM106.328 3.38C108.848 3.38 110.628 4.56 110.628 6.56C110.628 8.52 108.848 9.72 106.328 9.72C103.828 9.72 102.048 8.52 102.048 6.56C102.048 4.56 103.828 3.38 106.328 3.38ZM98.0084 14.36V16.52H114.688V14.36H98.0084ZM126.047 14.54V11.8H131.627V9.68H120.947V7.62H131.207V1.48H118.307V3.58H128.607V5.56H118.327V11.8H123.407V14.54H116.407V16.7H133.087V14.54H126.047ZM144.502 15.54H154.582V10.8H141.862V12.74H151.982V13.72H141.882V18.58H155.062V16.6H144.502V15.54ZM149.602 7.76V6.6H154.662V4.54H144.662V2.98H154.522V0.92H142.042V6.6H146.962V7.76H139.962V9.84H156.602V7.76H149.602ZM163.3 12.34C161.92 12.34 161 10.88 161 8.14C161 5.42 161.92 3.96 163.3 3.96C164.66 3.96 165.6 5.42 165.6 8.14C165.6 10.88 164.66 12.34 163.3 12.34ZM163.3 1.58C160.5 1.58 158.46 4.1 158.46 8.14C158.46 12.2 160.5 14.74 163.3 14.74C166.08 14.74 168.14 12.2 168.14 8.14C168.14 4.1 166.08 1.58 163.3 1.58ZM175.46 7.24H172.78V0.299999H170.14V18.72H172.78V9.42H175.46V7.24ZM177.598 2.18V4.32H183.618C183.138 8.4 180.858 11.32 176.578 13.52L178.058 15.54C184.178 12.44 186.278 7.7 186.278 2.18H177.598ZM193.758 7.32H191.178V0.279999H188.538V18.68H191.178V9.5H193.758V7.32ZM201.457 10.92C202.097 11.04 202.757 11.1 203.477 11.1C204.197 11.1 204.877 11.04 205.517 10.92V14.44H201.457V10.92ZM203.477 3.28C206.037 3.28 207.757 4.32 207.757 6.16C207.757 7.98 206.037 9.04 203.477 9.04C200.917 9.04 199.217 7.98 199.217 6.16C199.217 4.32 200.917 3.28 203.477 3.28ZM208.137 14.44V9.94C209.517 9.08 210.357 7.76 210.357 6.16C210.357 3.14 207.457 1.2 203.477 1.2C199.517 1.2 196.617 3.14 196.617 6.16C196.597 7.76 197.437 9.08 198.837 9.94V14.44H195.157V16.58H211.837V14.44H208.137Z" fill="#101010"/>
</svg>
