<svg width="240" height="120" viewBox="0 0 240 120" fill="none" xmlns="http://www.w3.org/2000/svg">
<rect width="240" height="120" rx="16" fill="#C4C4C4"/>
<path d="M85.1238 63.544C82.9158 63.544 81.4438 61.208 81.4438 56.824C81.4438 52.472 82.9158 50.136 85.1238 50.136C87.2998 50.136 88.8038 52.472 88.8038 56.824C88.8038 61.208 87.2998 63.544 85.1238 63.544ZM85.1238 46.328C80.6438 46.328 77.3798 50.36 77.3798 56.824C77.3798 63.32 80.6438 67.384 85.1238 67.384C89.5718 67.384 92.8678 63.32 92.8678 56.824C92.8678 50.36 89.5718 46.328 85.1238 46.328ZM104.58 55.384H100.292V44.28H96.0678V73.752H100.292V58.872H104.58V55.384ZM112.385 47.064H108.193V66.488H110.817C115.297 66.488 120.193 66.168 125.217 65.112L124.769 61.592C120.449 62.456 116.257 62.776 112.385 62.872V47.064ZM127.041 44.248V73.72H131.265V44.248H127.041ZM142.591 53.912C142.591 50.904 145.375 49.144 149.407 49.144C153.471 49.144 156.255 50.904 156.255 53.912C156.255 56.92 153.471 58.68 149.407 58.68C145.375 58.68 142.591 56.92 142.591 53.912ZM151.519 66.904V61.912C156.735 61.304 160.415 58.296 160.415 53.912C160.415 48.984 155.711 45.784 149.407 45.784C143.135 45.784 138.431 48.984 138.431 53.912C138.431 58.296 142.111 61.272 147.295 61.912V66.904H136.095V70.328H162.783V66.904H151.519Z" fill="white"/>
</svg>
