<svg width="820" height="80" viewBox="0 0 820 80" fill="none" xmlns="http://www.w3.org/2000/svg">
<rect width="820" height="80" rx="16" fill="#1F8CF0"/>
<path d="M378.732 34.672V37.24H382.188V45.088H385.356V28.96H382.188V34.672H378.732ZM380.196 39.76C376.716 38.584 375.204 35.872 375.204 33.256V32.968H379.5V30.448H367.62V32.968H371.964V33.28C371.964 36.064 370.38 38.968 366.756 40.144L368.364 42.664C370.932 41.8 372.66 40.048 373.644 37.864C374.604 39.856 376.236 41.44 378.66 42.232L380.196 39.76ZM373.956 48.16V43.744H370.788V50.68H385.86V48.16H373.956ZM407.842 35.632C402.85 35.032 400.522 32.584 400.522 30.016V29.368H397.282V30.016C397.282 32.512 394.906 35.032 389.962 35.632L391.114 38.104C394.81 37.552 397.498 35.992 398.89 33.832C400.282 36.016 402.97 37.552 406.69 38.104L407.842 35.632ZM398.89 48.712C395.914 48.712 394.426 48.232 394.426 47.152C394.426 46.048 395.914 45.592 398.89 45.592C401.866 45.592 403.354 46.048 403.354 47.152C403.354 48.232 401.866 48.712 398.89 48.712ZM398.89 43.216C394.09 43.216 391.234 44.632 391.234 47.152C391.234 49.672 394.09 51.064 398.89 51.064C403.69 51.064 406.57 49.672 406.57 47.152C406.57 44.632 403.69 43.216 398.89 43.216ZM400.498 39.496V36.808H397.33V39.496H388.954V42.016H408.922V39.496H400.498ZM417.416 43.96C415.928 43.96 414.824 42.952 414.824 41.272C414.824 39.592 415.928 38.56 417.416 38.56C418.904 38.56 419.984 39.592 419.984 41.248C419.984 42.952 418.904 43.96 417.416 43.96ZM417.416 35.992C414.2 35.992 411.8 38.176 411.8 41.248C411.8 44.368 414.2 46.552 417.416 46.552C420.608 46.552 422.984 44.368 422.984 41.248C422.984 38.176 420.608 35.992 417.416 35.992ZM418.976 29.344H415.808V32.224H410.912V34.744H423.776V32.224H418.976V29.344ZM431.552 37.6H428.384V28.96H425.216V51.064H428.384V40.216H431.552V37.6ZM434.334 31.24V33.76H441.702C441.246 38.656 438.798 42.112 433.158 44.824L434.814 47.32C442.662 43.528 444.942 38.008 444.942 31.24H434.334ZM448.326 28.936V51.04H451.518V28.936H448.326Z" fill="white"/>
</svg>
