<svg width="240" height="120" viewBox="0 0 240 120" fill="none" xmlns="http://www.w3.org/2000/svg">
<rect width="240" height="120" rx="16" fill="#1F8CF0"/>
<path d="M119.521 59.864C119.617 59 119.681 58.04 119.681 57.048C119.681 56.024 119.617 55.064 119.489 54.168H122.081V59.864H119.521ZM113.313 63.8C111.649 63.8 110.689 61.56 110.689 57.048C110.689 52.536 111.649 50.328 113.313 50.328C114.945 50.328 115.905 52.536 115.905 57.048C115.905 61.56 114.945 63.8 113.313 63.8ZM122.081 50.776H118.689C117.601 47.928 115.713 46.36 113.313 46.36C109.377 46.36 106.913 50.392 106.913 57.048C106.913 63.736 109.377 67.768 113.313 67.768C115.745 67.768 117.633 66.136 118.721 63.288H122.081V72.408H126.017V44.76H122.081V50.776ZM127.937 44.248V73.72H131.937V44.248H127.937Z" fill="white"/>
</svg>
